<svg xmlns="http://www.w3.org/2000/svg" viewBox="0 0 388.94 65.78"><defs><style>.cls-1{font-size:16.03px;font-family:Arial-ItalicMT, Arial;font-style:italic;}.cls-1,.cls-18{fill:#fff;}.cls-16,.cls-2,.cls-6,.cls-7{font-size:13.35px;}.cls-10,.cls-12,.cls-13,.cls-14,.cls-15,.cls-16,.cls-18,.cls-2,.cls-3,.cls-6,.cls-7,.cls-9{font-family:ArialMT, Arial;}.cls-10,.cls-12,.cls-13,.cls-14,.cls-15,.cls-16,.cls-2,.cls-3,.cls-6,.cls-7,.cls-9{font-style:normal;}.cls-3,.cls-8{letter-spacing:0em;}.cls-13,.cls-4{letter-spacing:0.2em;}.cls-5{letter-spacing:0.02em;}.cls-6{letter-spacing:0em;}.cls-7{letter-spacing:0.2em;}.cls-15,.cls-9{font-size:22.11px;}.cls-9{letter-spacing:0em;}.cls-11{letter-spacing:0.05em;}.cls-12{letter-spacing:0em;}.cls-14{letter-spacing:0.2em;}.cls-16{letter-spacing:0.2em;}.cls-17,.cls-19{fill:none;stroke:#fff;stroke-miterlimit:10;}.cls-17{stroke-width:1.34px;}.cls-18{font-size:10.44px;}.cls-19{stroke-width:0.74px;}</style></defs><g id="Layer_2" data-name="Layer 2"><g id="Layer_36" data-name="Layer 36"><text class="cls-1" transform="translate(0 46.66)">Ψ<tspan class="cls-2" x="13.31" y="4.01">ijt</tspan><tspan class="cls-3" x="22.95" y="0" xml:space="preserve"> = </tspan><tspan class="cls-4" x="41.22" y="0">β</tspan><tspan class="cls-5" x="53.58" y="0">X</tspan><tspan class="cls-6" x="64.59" y="4.01">i</tspan><tspan class="cls-7" x="67.55" y="4.01">t</tspan><tspan x="73.94" y="0">P</tspan><tspan class="cls-6" x="84.62" y="4.01">i</tspan><tspan class="cls-7" x="87.59" y="4.01">t</tspan><tspan x="93.97" y="0">T</tspan><tspan class="cls-2" x="103.76" y="4.01">i</tspan><tspan class="cls-7" x="106.73" y="4.01">t</tspan><tspan class="cls-8" x="113.11" y="0">I</tspan><tspan class="cls-2" x="117.56" y="4.01">it </tspan><tspan class="cls-9" x="127.95" y="7.37">*</tspan><tspan class="cls-10" x="136.55" y="0"> </tspan><tspan class="cls-11" x="141" y="0">K</tspan><tspan class="cls-12" x="152.5" y="0">(</tspan><tspan class="cls-8" x="157.83" y="0">d</tspan><tspan class="cls-2" x="166.74" y="4.01">ij</tspan><tspan class="cls-13" x="172.68" y="0">;</tspan><tspan x="180.33" y="0">α</tspan><tspan class="cls-6" x="189.47" y="4.01">1</tspan><tspan class="cls-13" x="196.9" y="0">,</tspan><tspan x="204.56" y="0">α</tspan><tspan class="cls-2" x="213.7" y="4.01">2</tspan><tspan class="cls-13" x="221.13" y="0">,</tspan><tspan x="228.78" y="0">γ</tspan><tspan class="cls-14" x="236.8" y="0">,</tspan><tspan class="cls-12" x="244.45" y="0">D(</tspan><tspan x="261.36" y="0">ω</tspan><tspan class="cls-3" x="273.84" y="0">,</tspan><tspan x="278.3" y="0">κ</tspan><tspan class="cls-12" x="286.31" y="0">)) </tspan><tspan class="cls-15" x="301.43" y="7.37">*</tspan></text><text class="cls-1" transform="translate(312.36 33.31)">X<tspan class="cls-6" x="10.69" y="4.01">j</tspan><tspan class="cls-7" x="13.66" y="4.01">t</tspan><tspan x="20.04" y="0">P</tspan><tspan class="cls-2" x="30.73" y="4.01">j</tspan><tspan class="cls-16" x="33.69" y="4.01">t</tspan><tspan x="40.07" y="0">T</tspan><tspan class="cls-2" x="49.86" y="4.01">j</tspan><tspan class="cls-7" x="52.83" y="4.01">t</tspan><tspan class="cls-8" x="59.21" y="0">S</tspan><tspan class="cls-2" x="69.9" y="4.01">jt</tspan></text><line class="cls-17" x1="314.98" y1="41.44" x2="385.82" y2="41.44"/></g><g id="Overall_Infection" data-name="Overall Infection"><text class="cls-18" transform="translate(52.47 21.24)">Reproduction</text><text class="cls-18" transform="translate(197.3 20.01)">Dispersal</text><text class="cls-18" transform="translate(318.72 8.96)">Establishment</text><path class="cls-19" d="M124.45,31.13h0c0-2-4.68-3.58-10.46-3.58H93.68c-5.77,0-10.46-1.6-10.46-3.57v-.19h0V24c0,2-4.68,3.57-10.46,3.57H52.46c-5.78,0-10.47,1.6-10.47,3.58h0"/><path class="cls-19" d="M295.83,31.13h0c0-2-8.65-3.58-19.32-3.58H239c-10.67,0-19.33-1.6-19.33-3.57v-.19h0V24c0,2-8.65,3.57-19.32,3.57H162.84c-10.67,0-19.32,1.6-19.32,3.58h0"/><path class="cls-19" d="M386.34,18.85h0c0-2-4-3.58-9-3.58H359.71c-5,0-9-1.6-9-3.57v-.19h0v.19c0,2-4.06,3.57-9.06,3.57H324c-5,0-9,1.6-9,3.58h0"/></g><g id="_Layer_" data-name="&lt;Layer&gt;"><text class="cls-1" transform="translate(343.13 56.57)">N<tspan class="cls-2" x="11.57" y="4.01">j</tspan></text></g></g></svg>