<svg xmlns="http://www.w3.org/2000/svg" viewBox="0 0 187.59 115.16"><defs><style>.cls-1,.cls-2{fill:#fff;}.cls-2{font-size:16px;font-family:Arial-BoldMT, Arial;font-weight:700;}</style></defs><title>Asset 3</title><g id="Layer_2" data-name="Layer 2"><g id="Layer_1-2" data-name="Layer 1"><path class="cls-1" d="M143.31,41.51V68.89H44.46v-.27q0-6.45,0-12.9a.31.31,0,0,1,.25-.36,200,200,0,0,1,19.66-5.72c4.79-1.15,9.6-2.16,14.46-3q5.59-1,11.24-1.78c3.27-.47,6.56-.86,9.84-1.24,2.46-.28,4.92-.51,7.38-.72,3-.26,5.9-.5,8.85-.69s6.16-.34,9.24-.48q7-.3,14-.28c1.23,0,2.46,0,3.69,0Z"/><path class="cls-1" d="M90.72.89H91c3.9,0,7.79,0,11.69,0a19.19,19.19,0,0,1,8,1.66,13.42,13.42,0,0,1,8,10.72,13.46,13.46,0,0,1-3.42,11.17,15.45,15.45,0,0,1-8,4.76,21.87,21.87,0,0,1-5.58.69c-3.57,0-7.14,0-10.71,0h-.25s0-.06,0-.06a2.34,2.34,0,0,0,1-2.15q0-12.36,0-24.72a2.18,2.18,0,0,0-.72-1.8C91,1.08,90.88,1,90.72.89ZM97.2,27.67h.22c1,0,2.1,0,3.15,0a16.36,16.36,0,0,0,4.18-.48,9.85,9.85,0,0,0,7.19-6.33,15.77,15.77,0,0,0,.8-8.19A11.84,11.84,0,0,0,110.26,7a10.61,10.61,0,0,0-8-3.9c-1.53-.09-3.07,0-4.6,0a3.73,3.73,0,0,0-.46,0Z"/><path class="cls-1" d="M143.3,34v4.18H143c-3.76,0-7.52-.09-11.29-.07-3.23,0-6.47.11-9.7.24-2.94.11-5.88.29-8.82.48-2.06.13-4.13.28-6.19.47-2.44.22-4.89.46-7.32.73s-5,.59-7.54.93-5,.72-7.55,1.14q-4.12.67-8.24,1.46-10.49,2-20.76,4.9c-3.57,1-7.11,2.12-10.59,3.4a.21.21,0,0,1-.16,0l.28-.15a106.89,106.89,0,0,1,13.83-6,165.43,165.43,0,0,1,17.9-5.13Q83.39,39.13,90,38c3-.48,6-.93,9-1.33s5.85-.72,8.78-1q3.44-.36,6.89-.62c3.46-.25,6.92-.49,10.39-.68q4.39-.23,8.79-.31C136.88,34,139.94,34,143,34Z"/><path class="cls-1" d="M62.6.9h4.75s0,0,0,0a2.16,2.16,0,0,0-1,2c0,1.67,0,3.35,0,5l-.09,12.39a12.93,12.93,0,0,1-.79,4.61A7.89,7.89,0,0,1,60,29.81a14.42,14.42,0,0,1-5.55.43,13.39,13.39,0,0,1-4.88-1.37A8.44,8.44,0,0,1,44.85,22a16,16,0,0,1-.09-1.69c0-5.74,0-11.48,0-17.22A2.22,2.22,0,0,0,43.59,1L43.51.94v0h8l-.2.13a2.07,2.07,0,0,0-1,1.88V20.64a9.78,9.78,0,0,0,.57,3.52,5.35,5.35,0,0,0,3.94,3.5,8.86,8.86,0,0,0,4.6-.11,5.67,5.67,0,0,0,3.94-4,12.52,12.52,0,0,0,.43-3.85c0-3.52,0-7,0-10.54l0-6A2.26,2.26,0,0,0,62.6.9Z"/><path class="cls-1" d="M144.05,29.89h-8.54l.23-.16a1.43,1.43,0,0,0,.69-2c-.71-1.81-1.46-3.6-2.2-5.39-.22-.52-.07-.42-.62-.42h-9.73a.35.35,0,0,0-.39.25c-.71,1.74-1.43,3.47-2.14,5.2a7.13,7.13,0,0,0-.26.82,1.22,1.22,0,0,0,.57,1.47c.13.09.27.16.45.27h-5.76l.21-.16a5.28,5.28,0,0,0,2-2.33c1.75-4.05,3.52-8.09,5.27-12.14l6.44-15a3,3,0,0,1,.13-.28l1.28,3,10.71,24.59a3.94,3.94,0,0,0,1.56,2C144,29.57,144,29.74,144.05,29.89ZM128.72,9.23l-4.24,10.41h8.58C131.61,16.17,130.17,12.72,128.72,9.23Z"/><path class="cls-1" d="M69.51,21.26c.25.59.46,1.19.73,1.76a9.09,9.09,0,0,0,3.39,4,6.61,6.61,0,0,0,6.44.49,4.59,4.59,0,0,0,2.71-3.93A4.59,4.59,0,0,0,82,20.27a6,6,0,0,0-2.22-1.8c-1.2-.6-2.42-1.15-3.62-1.74a17.18,17.18,0,0,1-4.42-3,7.56,7.56,0,0,1-.55-10A9.09,9.09,0,0,1,75.54,1,12.26,12.26,0,0,1,82,.77a10.54,10.54,0,0,1,3.12,1.14.35.35,0,0,1,.18.25q.1,2.94.2,5.86a.14.14,0,0,1,0,.1l-.11-.27A7.78,7.78,0,0,0,80.61,3,5.93,5.93,0,0,0,76.4,3a4,4,0,0,0-2.5,3.91,3.74,3.74,0,0,0,1.64,3,16.78,16.78,0,0,0,2.95,1.66c1.48.71,3,1.38,4.44,2.13a14,14,0,0,1,2.16,1.4,6.77,6.77,0,0,1,2.53,4.08,9.1,9.1,0,0,1-.14,4.69A8.62,8.62,0,0,1,83.25,29a11.19,11.19,0,0,1-6.34,1.35,18.4,18.4,0,0,1-7-1.92c-.13-.06-.22-.12-.22-.29q-.09-3.39-.2-6.78Z"/><path class="cls-1" d="M78.11,39l-1.86-.14L71,38.52l-6.14-.38c-1.74-.1-3.48-.21-5.23-.26-3.44-.09-6.88-.17-10.33-.2-1.59,0-3.19.13-4.8.2V34h.22c2.38.11,4.75.19,7.13.34,2.06.13,4.11.29,6.16.53,2.67.31,5.33.68,8,1.09A69.49,69.49,0,0,1,75.19,38c.92.27,1.83.6,2.74.9l.18.07Z"/><path class="cls-1" d="M44.46,44.76V40.82a200.86,200.86,0,0,1,23.79.25l-3.71.47c-2,.25-3.92.5-5.87.77s-3.9.54-5.85.84c-2.57.4-5.15.76-7.68,1.4Z"/><text class="cls-2" transform="translate(0 89.94)">Animal and Plant Health <tspan x="23.1" y="19.2">Inspection Service</tspan></text></g></g></svg>