<svg xmlns="http://www.w3.org/2000/svg" viewBox="0 0 97.83 133"><defs><style>.cls-1{fill:#040404;}.cls-2{fill:#fdfdfd;}.cls-3{fill:#069206;}</style></defs><g id="Layer_2" data-name="Layer 2"><g id="Logos"><path class="cls-1" d="M49,109.8c-.18-.16-.34-.29-.48-.43Q39,99.8,29.36,90.23c-.38-.38-.37-.6,0-1,1.08-1.09,1.06-1.11,0-2.21-3.3-3.3-6.59-6.61-9.92-9.89-.57-.55-.72-1,0-1.43.87-.57.73-1,0-1.72C16,70.68,12.67,67.26,9.26,63.91c-.63-.61-.71-.92,0-1.6s1-.6,1.67,0Q29.54,81,48.2,99.71c.65.65.95.65,1.59,0Q68.44,81,87.14,62.38c.27-.27.54-.87.91-.66A4,4,0,0,1,89.36,63c.19.28-.27.49-.47.7C85.45,67.19,82,70.66,78.53,74.08c-.62.61-.84,1,0,1.57s.68.94,0,1.58c-3.49,3.41-6.91,6.9-10.39,10.32-.53.52-.57.86,0,1.27.88.6.84,1.08,0,1.86q-9.3,9.18-18.51,18.45C49.5,109.35,49.27,109.55,49,109.8Z"/><path class="cls-1" d="M27.13,132.14c1.66-5.31,3.28-10.43,4.84-15.58.21-.7.5-1,1.23-.9a9.36,9.36,0,0,0,2,0c1-.12,1.39.22,1.67,1.17,1.48,5,3,9.9,4.58,14.84.23.74.21,1-.71,1-2.75,0-2.8,0-3.41-2.62-.24-1-.66-1.49-1.74-1.3a7.72,7.72,0,0,1-1.36,0c-2.53,0-2.61,0-3.15,2.5-.26,1.17-.78,1.48-1.9,1.41a47.3,47.3,0,0,0-4.91,0,1.29,1.29,0,0,1-1.36-.84C22,130.07,21,128.32,20,126.56a1.82,1.82,0,0,0-1.89-.54c-.32.18-.18.5-.18.75,0,1.71,0,3.42,0,5.12,0,.58-.16.78-.77.79-2.75.07-2.75.09-2.75-2.66,0-4.4,0-8.79,0-13.18,0-1,.31-1.23,1.24-1.18,2.22.11,4.46-.19,6.67.29,1.79.39,3.27,1.24,3.77,3.16a4.82,4.82,0,0,1-1,4.88,5.41,5.41,0,0,1-1.55,1c-.22.11-.58.16-.33.59C24.49,127.75,25.77,129.88,27.13,132.14ZM17.9,120.81c0,2.67,0,2.67,2.42,2.46a2.25,2.25,0,0,0,2.31-2.5c0-1.49-.67-2.18-2.3-2.35-.35,0-.69-.09-1-.11-1.39-.07-1.39-.07-1.39,1.36ZM32.43,126H36a17.31,17.31,0,0,0-.66-3c0-.1-.07-.19-.1-.29-.3-1.13-.61-2.27-1-3.67Z"/><path class="cls-1" d="M97.83,48.4c-.18.22-.26.33-.35.43l-.45.45q-23.58,23.6-47.16,47.2c-.73.73-1,.69-1.75,0Q24.57,72.83.94,49.27c-.59-.59-.64-.87,0-1.49Q24.59,24.17,48.19.52c.58-.59.88-.77,1.59-.06Q73.41,24.17,97.09,47.81A8.7,8.7,0,0,0,97.83,48.4ZM61.76,83.51v0a23,23,0,0,0,3-2.88,4.47,4.47,0,0,0,.41-.32Q80.74,64.7,96.4,49.08c.64-.64.23-.87-.16-1.26Q73,24.58,49.75,1.31c-.62-.62-.9-.6-1.51,0Q25,24.6,1.74,47.82c-.6.59-.53.86,0,1.41Q16.57,64,31.35,78.78c.21.22.37.52.7.58v0c0,.16.09.19.21.21s0,.23.09.29l6.44,6.35c.19.19.33.47.67.43h0c0,.15,0,.23.15.29,2.21,2.47,4.64,4.73,7,7.07.61.6,1.24,1.18,1.8,1.82s.94.56,1.32-.13c2.26-2.07,4.39-4.27,6.51-6.48q1.86-1.86,3.7-3.73a10.06,10.06,0,0,0,1.74-1.71C61.75,83.7,61.8,83.63,61.76,83.51Z"/><path class="cls-1" d="M13.46,127.19c0,1.11,0,2.23,0,3.34a1.07,1.07,0,0,1-.65,1.14,10.87,10.87,0,0,1-7.08,1.17,6,6,0,0,1-4.91-4.17C-.39,125-.46,121.38,2,118.13A7.83,7.83,0,0,1,12.89,117c.1.09.3.19.29.27-.08.85-.92,1.14-1.33,1.75-.25.35-.52.35-.89.1a5.6,5.6,0,0,0-1.45-.81,4,4,0,0,0-5.39,3,11.76,11.76,0,0,0,.13,6.6,3.7,3.7,0,0,0,5.43,1.89.62.62,0,0,0,.3-.6c0-.49,0-1,0-1.46,0-.67.2-1.48-.11-2s-1.16-.14-1.78-.15c-.43,0-.65-.16-.68-.59-.21-2.43-.87-2.13,1.73-2.14,1.18,0,2.37,0,3.55,0,.59,0,.8.17.78.77C13.43,124.81,13.46,126,13.46,127.19Z"/><path class="cls-1" d="M61.46,115.31a8,8,0,0,1,5.15,1.74c.44.36.49.63.07,1l-.14.16c-.37.41-.68,1-1.14,1.18s-.9-.49-1.39-.71a4.83,4.83,0,0,0-3.45-.42,1.61,1.61,0,0,0-1.32,1.43,1.51,1.51,0,0,0,.94,1.69L64.34,123a5,5,0,0,1,1.54,8.45A6.94,6.94,0,0,1,61.52,133a8.74,8.74,0,0,1-6.11-1.91c-.47-.39-.51-.66-.08-1.08s.78-1.1,1.3-1.32,1,.57,1.54.83a5,5,0,0,0,4.61.25,2,2,0,0,0,.11-3.56,32.32,32.32,0,0,0-4.14-1.68,4.62,4.62,0,0,1-3.14-4.68,4.69,4.69,0,0,1,3.91-4.29A7.65,7.65,0,0,1,61.46,115.31Z"/><path class="cls-1" d="M48.3,115.35a7.62,7.62,0,0,1,5,1.69c.4.32.55.59.11,1a1.8,1.8,0,0,0-.34.39c-.59.87-1.13,1.29-2.19.42a3.87,3.87,0,0,0-3.49-.61A1.7,1.7,0,0,0,46,119.66a1.64,1.64,0,0,0,1,1.76c1.12.57,2.33.9,3.49,1.36,2.87,1.16,4,2.73,3.77,5.51-.18,2.3-1.86,4.05-4.61,4.53a8.85,8.85,0,0,1-7.47-1.75c-.45-.37-.6-.64-.11-1a2.41,2.41,0,0,0,.21-.24c1.1-1.24,1.09-1.22,2.45-.44a4.94,4.94,0,0,0,4.78.42A1.84,1.84,0,0,0,50.61,128a1.88,1.88,0,0,0-1-1.89c-1.3-.67-2.71-1.06-4.05-1.63A4.64,4.64,0,0,1,42.32,120c.08-2.48,2.07-4.34,4.93-4.61C47.6,115.32,48,115.35,48.3,115.35Z"/><path class="cls-1" d="M82.42,127.9c0,.91,0,1.82,0,2.72a1.34,1.34,0,0,1-.93,1.5c-4.53,2.08-8.76,0-9.73-4.93-.64-3.2-.54-6.32,1.46-9.09a5.94,5.94,0,0,1,8.18-1.33c.2.14.63.25.37.59s-.44,0-.64-.14c-3.27-2.18-7.57-.7-8.71,3.79a11.1,11.1,0,0,0,1,9c1.91,3,5.88,2.68,8,1.52.33-.18.31-.42.31-.7,0-1.88,0-3.76,0-5.64,0-.51-.15-.66-.65-.64-.8,0-1.6,0-2.4,0-.19,0-.47.06-.5-.23s.22-.32.43-.32c1,0,2.09,0,3.14,0,.48,0,.56.28.56.68C82.42,125.74,82.42,126.82,82.42,127.9Z"/><path class="cls-1" d="M97.34,117.48c-.51.39-.72,0-1-.2a5.68,5.68,0,0,0-4.26-1,3.36,3.36,0,0,0-3.11,3c-.16,1.58.58,2.64,2.39,3.35,1.09.43,2.21.82,3.31,1.25,2.42.92,3.34,2.4,3.07,4.9a4.4,4.4,0,0,1-4,4,6.55,6.55,0,0,1-5.27-1.45c-.21-.17-.71-.34-.45-.68s.55.08.77.26a6.08,6.08,0,0,0,5.69,1.13,3.82,3.82,0,0,0,2.84-3.59,3.45,3.45,0,0,0-2.21-3.77c-1.23-.56-2.52-1-3.78-1.47-2.27-.86-3.13-2.21-2.78-4.38a4.05,4.05,0,0,1,4.13-3.14A5.7,5.7,0,0,1,97.34,117.48Z"/><path class="cls-1" d="M26.84,106.73H12.19c-.2,0-.41,0-.62,0s-.51,0-.5-.36.24-.29.45-.29H42.06c.24,0,.51,0,.49.35s-.23.31-.45.31H26.84Z"/><path class="cls-1" d="M71.28,106.07H86.45c.24,0,.52,0,.49.34s-.22.31-.44.31-.35,0-.53,0H56.06c-.25,0-.6.09-.59-.36s.33-.28.55-.29.41,0,.62,0Z"/><path class="cls-1" d="M85.62,124.31q0,3.76,0,7.52c0,.28.16.77-.27.77s-.3-.46-.3-.76q0-7.57,0-15.15c0-.28-.13-.74.35-.7s.22.45.22.69Q85.63,120.51,85.62,124.31Z"/><path class="cls-2" d="M61.63,83.74a10.06,10.06,0,0,1-1.74,1.71c.07-.62.12-1.24.21-1.86.52-3.8.89-7.62,1.6-11.38,1.46-7.76,3.18-15.47,4.65-23.23A31.66,31.66,0,0,1,70,38.2c.8-1.34,1.45-2.78,2.13-4.18a11.11,11.11,0,0,0,1.26-5A4.25,4.25,0,0,0,72,25.6c.89,1.52.28,2.92-.27,4.3A36.17,36.17,0,0,1,68.63,36c.05-.6.06-.91.1-1.22.54-3.83,1.11-7.66,1.31-11.52,0-.25.21-.65-.17-.71s-.3.38-.34.62c-.44,2.92-1,5.84-1.28,8.78A32.13,32.13,0,0,1,64.41,44c-4.71,8.79-9.44,17.59-13,26.92-.11.3-.23.59-.34.86-1.41-1.25-1.35-2.47-.51-4,2.85-5.34,5.69-10.68,8.83-15.86,1.56-2.58,2.84-5.34,4.19-8a2.47,2.47,0,0,0,.22-2.56C60,49.21,54.24,56,49.86,63.79c-.44-.68-.06-1.12,0-1.57a263.7,263.7,0,0,0,1.89-28.78c0-1.75,1.15-3.39.9-5.24,0-.09.13-.19.13-.28a11.47,11.47,0,0,1,.65-4.65.12.12,0,0,0,0-.1c-.41-.69.07-1.63-.7-2.26a.83.83,0,0,1,0-1.15c.11-.14.23-.29,0-.5a4.16,4.16,0,0,1-1.42-3c-.14-1.33-.08-2.74-1.57-3.49a.82.82,0,0,1-.36-.82c.14-1.12-.13-1.94-1.41-2.08a.52.52,0,0,1-.27-.15c-1-.79-1-.79-1.23.46a3.06,3.06,0,0,1-.22.8,3.14,3.14,0,0,0,.19,3.24,1.1,1.1,0,0,1,.09,1.21,1.81,1.81,0,0,0,.5,2.38.62.62,0,0,1,.1,1.06c-.5.5-.36.88.16,1.29s.68.73.19,1.22-.23.77,0,1.23c.71,1.71,2,3.21,2,5.18a.79.79,0,0,0,.31.52,1.23,1.23,0,0,1,.33,1.34c-.26,1.32-.29,2.53.86,3.48.23.18.13.46.13.69,0,3.13.07,6.28-.16,9.41-.51,6.91-1.06,13.82-1.94,20.7a7.76,7.76,0,0,1-.7,3.39c-.63-1.08-1.21-2-1.74-3a8.56,8.56,0,0,1-1.26-2.72c-1-6.4-1.58-12.86-2.52-19.27-.17-1.1-.33-2.2-.53-3.3a14.46,14.46,0,0,0-.58-3.1,156.66,156.66,0,0,0,1.3,22.2,1.78,1.78,0,0,1-.6-.63C37.66,50,32.72,42.65,27.8,35.3A26.3,26.3,0,0,0,25.4,32c0-.11,0-.28-.19-.21a1.37,1.37,0,0,0,0,.34,112.31,112.31,0,0,0,6.69,15.14C35.42,54,39.71,60.17,43.68,66.55a4.41,4.41,0,0,1,.7,2c.34,4.2,1,8.35,1.63,12.52a19.06,19.06,0,0,1,.44,4.19,2.68,2.68,0,0,1-.34-.73C42.35,73.26,37.82,62.3,31.23,52.29a38,38,0,0,0-6.87-7.83c-.11-.09-.22-.14-.34.06a3.15,3.15,0,0,0,.24.3c4.29,3.88,6.87,8.92,9.23,14,3.94,8.55,7,17.46,10.37,26.26A48.73,48.73,0,0,1,46.56,94c-2.34-2.34-4.77-4.6-7-7.07,0-.13,0-.25-.15-.29h0a2,2,0,0,0-.39-1.05c-1.09-2.1-2.17-4.2-3.29-6.28A154.18,154.18,0,0,0,25.38,62.08c-.24-.33-.38-.87-1-.67.22.4.44.78.64,1.18,2.39,4.82,4.39,9.82,6.54,14.75a3.09,3.09,0,0,1,.49,2c-.33-.06-.49-.36-.7-.58Q16.56,64,1.76,49.23c-.55-.55-.62-.82,0-1.41Q25,24.6,48.24,1.32c.61-.61.89-.63,1.51,0Q73,24.59,96.24,47.82c.39.39.8.62.16,1.26Q80.72,64.68,65.11,80.33a4.47,4.47,0,0,1-.41.32,27.71,27.71,0,0,1,.52-4.45c.69-4,2.09-7.93,2.72-12a17.91,17.91,0,0,0,.45-5.51,74.73,74.73,0,0,1-3.68,11.22,55.45,55.45,0,0,0-3,13.6v0Z"/><path class="cls-3" d="M25.4,32a26.3,26.3,0,0,1,2.4,3.26C32.72,42.65,37.66,50,42.31,57.51a1.78,1.78,0,0,0,.6.63,156.66,156.66,0,0,1-1.3-22.2,14.46,14.46,0,0,1,.58,3.1c.2,1.1.36,2.2.53,3.3.94,6.41,1.49,12.87,2.52,19.27a8.56,8.56,0,0,0,1.26,2.72c.53,1,1.11,1.91,1.74,3a7.76,7.76,0,0,0,.7-3.39c.88-6.88,1.43-13.79,1.94-20.7.23-3.13.12-6.28.16-9.41,0-.23.1-.51-.13-.69-1.15-1-1.12-2.16-.86-3.48a1.23,1.23,0,0,0-.33-1.34.79.79,0,0,1-.31-.52c-.06-2-1.3-3.47-2-5.18-.19-.46-.34-.83,0-1.23s.21-.91-.19-1.22-.66-.79-.16-1.29a.62.62,0,0,0-.1-1.06,1.81,1.81,0,0,1-.5-2.38,1.1,1.1,0,0,0-.09-1.21A3.14,3.14,0,0,1,46.21,11a3.06,3.06,0,0,0,.22-.8c.27-1.25.27-1.25,1.23-.46a.52.52,0,0,0,.27.15c1.28.14,1.55,1,1.41,2.08a.82.82,0,0,0,.36.82c1.49.75,1.43,2.16,1.57,3.49a4.16,4.16,0,0,0,1.42,3c.26.21.14.36,0,.5a.83.83,0,0,0,0,1.15c.77.63.29,1.57.7,2.26a.12.12,0,0,1,0,.1,11.47,11.47,0,0,0-.65,4.65c0,.09-.14.19-.13.28.25,1.85-.9,3.49-.9,5.24a263.7,263.7,0,0,1-1.89,28.78c-.05.45-.43.89,0,1.57C54.24,56,60,49.21,63.76,41.26a2.47,2.47,0,0,1-.22,2.56c-1.35,2.7-2.63,5.46-4.19,8-3.14,5.18-6,10.52-8.83,15.86-.84,1.58-.9,2.8.51,4,.11-.27.23-.56.34-.86C55,61.58,59.7,52.78,64.41,44a32.13,32.13,0,0,0,3.84-12.08c.31-2.94.84-5.86,1.28-8.78,0-.24-.06-.69.34-.62s.18.46.17.71c-.2,3.86-.77,7.69-1.31,11.52,0,.31,0,.62-.1,1.22a36.17,36.17,0,0,0,3.14-6.06c.55-1.38,1.16-2.78.27-4.3A4.25,4.25,0,0,1,73.4,29a11.11,11.11,0,0,1-1.26,5c-.68,1.4-1.33,2.84-2.13,4.18A31.66,31.66,0,0,0,66.35,49c-1.47,7.76-3.19,15.47-4.65,23.23C61,76,60.62,79.79,60.1,83.59c-.09.62-.14,1.24-.21,1.86q-1.85,1.88-3.7,3.73a10,10,0,0,0-.57-2.42c-1.48-2.9-3.09-5.74-4.89-8.57a24.93,24.93,0,0,0-2,5.51,7.41,7.41,0,0,0-.23,3.18c.42,2.92.77,5.85,1.16,8.78-.38.69-.77.75-1.32.13s-1.19-1.22-1.8-1.82a48.73,48.73,0,0,0-2.7-8.86c-3.33-8.8-6.43-17.71-10.37-26.26-2.36-5.11-4.94-10.15-9.23-14a3.15,3.15,0,0,1-.24-.3c.12-.2.23-.15.34-.06a38,38,0,0,1,6.87,7.83c6.59,10,11.12,21,14.88,32.28a2.68,2.68,0,0,0,.34.73A19.06,19.06,0,0,0,46,81.11c-.6-4.17-1.29-8.32-1.63-12.52a4.41,4.41,0,0,0-.7-2c-4-6.38-8.26-12.57-11.74-19.24a112.31,112.31,0,0,1-6.69-15.14Zm39,17.43c-.36.07-.4.4-.51.63-.76,1.48-1.52,3-2.24,4.47q-4.5,9.51-9,19.05c-.17.34-.47.67-.21,1.15,1.41,2.59,2.8,5.2,4.26,7.92a43.74,43.74,0,0,0,1.63-5.38c1.56-9,3.72-18,6-26.86C64.44,50.13,64.62,49.82,64.41,49.47Zm-17,28.65c.09-2.16,1.21-4.42-.72-6.59Zm1.12-.53c1.09-1.5,1.1-1.75.16-2.5Z"/><path class="cls-2" d="M49.68,95.66c-.39-2.93-.74-5.86-1.16-8.78a7.41,7.41,0,0,1,.23-3.18,24.93,24.93,0,0,1,2-5.51c1.8,2.83,3.41,5.67,4.89,8.57a10,10,0,0,1,.57,2.42C54.07,91.39,51.94,93.59,49.68,95.66Z"/><path class="cls-3" d="M32.05,79.36a3.09,3.09,0,0,0-.49-2c-2.15-4.93-4.15-9.93-6.54-14.75-.2-.4-.42-.78-.64-1.18.62-.2.76.34,1,.67A154.18,154.18,0,0,1,35.77,79.29c1.12,2.08,2.2,4.18,3.29,6.28a2,2,0,0,1,.39,1.05c-.34,0-.48-.24-.67-.43l-6.44-6.35c-.07-.06-.06-.2-.09-.29s0-.33-.21-.21Z"/><path class="cls-3" d="M61.75,83.53a55.45,55.45,0,0,1,3-13.6,74.73,74.73,0,0,0,3.68-11.22,17.91,17.91,0,0,1-.45,5.51c-.63,4-2,7.94-2.72,12a27.71,27.71,0,0,0-.52,4.45A23,23,0,0,1,61.75,83.53Z"/><path class="cls-2" d="M32,79.34c.26-.12.19.08.21.21S32,79.5,32,79.34Z"/><path class="cls-3" d="M61.63,83.74l.13-.23C61.8,83.63,61.75,83.7,61.63,83.74Z"/><path class="cls-3" d="M39.43,86.61c.17,0,.16.16.15.29C39.46,86.84,39.38,86.76,39.43,86.61Z"/><path class="cls-3" d="M25.25,32.17a1.37,1.37,0,0,1,0-.34c.18-.07.17.1.19.21Z"/><path class="cls-2" d="M64.41,49.47c.21.35,0,.66,0,1-2.26,8.89-4.42,17.81-6,26.86a43.74,43.74,0,0,1-1.63,5.38c-1.46-2.72-2.85-5.33-4.26-7.92-.26-.48,0-.81.21-1.15q4.47-9.54,9-19.05c.72-1.51,1.48-3,2.24-4.47C64,49.87,64.05,49.54,64.41,49.47Z"/><path class="cls-2" d="M47.37,78.12l-.72-6.59C48.58,73.7,47.46,76,47.37,78.12Z"/><path class="cls-2" d="M48.49,77.59l.16-2.5C49.59,75.84,49.58,76.09,48.49,77.59Z"/></g></g></svg>