<svg xmlns="http://www.w3.org/2000/svg" xmlns:xlink="http://www.w3.org/1999/xlink" viewBox="0 0 273.08 256.18"><defs><style>.cls-1,.cls-10,.cls-11,.cls-12,.cls-13,.cls-14,.cls-15,.cls-16,.cls-17,.cls-18,.cls-19,.cls-2,.cls-20,.cls-21,.cls-3,.cls-5,.cls-6,.cls-7,.cls-8,.cls-9{stroke:#000;stroke-miterlimit:10;}.cls-1,.cls-2,.cls-3{stroke-width:3.6px;}.cls-1{fill:url(#New_Gradient_Swatch_6);}.cls-2{fill:url(#New_Gradient_Swatch_6-2);}.cls-3,.cls-7{fill:none;stroke-linecap:round;}.cls-4{fill:red;}.cls-10,.cls-11,.cls-12,.cls-13,.cls-14,.cls-15,.cls-16,.cls-17,.cls-18,.cls-19,.cls-20,.cls-21,.cls-5,.cls-6,.cls-7,.cls-8,.cls-9{stroke-width:2.16px;}.cls-5{fill:url(#New_Gradient_Swatch_6-3);}.cls-6{fill:url(#New_Gradient_Swatch_6-4);}.cls-8{fill:url(#New_Gradient_Swatch_6-5);}.cls-9{fill:url(#New_Gradient_Swatch_6-6);}.cls-10{fill:url(#New_Gradient_Swatch_6-7);}.cls-11{fill:url(#New_Gradient_Swatch_6-8);}.cls-12{fill:url(#New_Gradient_Swatch_6-9);}.cls-13{fill:url(#New_Gradient_Swatch_6-10);}.cls-14{fill:url(#New_Gradient_Swatch_6-11);}.cls-15{fill:url(#New_Gradient_Swatch_6-12);}.cls-16{fill:url(#New_Gradient_Swatch_6-13);}.cls-17{fill:url(#New_Gradient_Swatch_6-14);}.cls-18{fill:url(#New_Gradient_Swatch_6-15);}.cls-19{fill:url(#New_Gradient_Swatch_6-16);}.cls-20{fill:url(#New_Gradient_Swatch_6-17);}.cls-21{fill:url(#New_Gradient_Swatch_6-18);}</style><radialGradient id="New_Gradient_Swatch_6" cx="97.83" cy="105.17" r="8.62" gradientUnits="userSpaceOnUse"><stop offset="0" stop-color="#ffff24"/><stop offset="0.13" stop-color="#b8f62e"/><stop offset="0.39" stop-color="#21e243"/><stop offset="0.46" stop-color="#1bba3d"/><stop offset="0.56" stop-color="#148636"/><stop offset="0.66" stop-color="#0e5b2f"/><stop offset="0.75" stop-color="#0a3a2a"/><stop offset="0.84" stop-color="#072227"/><stop offset="0.93" stop-color="#051425"/><stop offset="1" stop-color="#040f24"/></radialGradient><radialGradient id="New_Gradient_Swatch_6-2" cx="97.09" cy="128.87" r="21.09" xlink:href="#New_Gradient_Swatch_6"/><radialGradient id="New_Gradient_Swatch_6-3" cx="-227.96" cy="556.63" r="4.39" gradientTransform="translate(-247.07 -512.65) rotate(-51.73)" xlink:href="#New_Gradient_Swatch_6"/><radialGradient id="New_Gradient_Swatch_6-4" cx="-228.33" cy="568.7" r="10.74" gradientTransform="translate(-247.07 -512.65) rotate(-51.73)" xlink:href="#New_Gradient_Swatch_6"/><radialGradient id="New_Gradient_Swatch_6-5" cx="-60.82" cy="-493.41" r="4.39" gradientTransform="translate(-152.5 421.01) rotate(42.24)" xlink:href="#New_Gradient_Swatch_6"/><radialGradient id="New_Gradient_Swatch_6-6" cx="-61.2" cy="-481.33" r="10.74" gradientTransform="translate(-152.5 421.01) rotate(42.24)" xlink:href="#New_Gradient_Swatch_6"/><radialGradient id="New_Gradient_Swatch_6-7" cx="-1162.68" cy="-394.61" r="4.39" gradientTransform="translate(-819.77 1005.98) rotate(122.93)" xlink:href="#New_Gradient_Swatch_6"/><radialGradient id="New_Gradient_Swatch_6-8" cx="-1163.05" cy="-382.54" r="10.74" gradientTransform="translate(-819.77 1005.98) rotate(122.93)" xlink:href="#New_Gradient_Swatch_6"/><radialGradient id="New_Gradient_Swatch_6-9" cx="-1387.04" cy="576.95" r="4.39" gradientTransform="translate(-1400.82 -111.78) rotate(-143.74)" xlink:href="#New_Gradient_Swatch_6"/><radialGradient id="New_Gradient_Swatch_6-10" cx="-1387.42" cy="589.03" r="10.74" gradientTransform="translate(-1400.82 -111.78) rotate(-143.74)" xlink:href="#New_Gradient_Swatch_6"/><radialGradient id="New_Gradient_Swatch_6-11" cx="-688.93" cy="711.68" r="4.39" gradientTransform="translate(-658.02 -659.66) rotate(-87.15)" xlink:href="#New_Gradient_Swatch_6"/><radialGradient id="New_Gradient_Swatch_6-12" cx="-689.31" cy="723.75" r="10.74" gradientTransform="translate(-658.02 -659.66) rotate(-87.15)" xlink:href="#New_Gradient_Swatch_6"/><radialGradient id="New_Gradient_Swatch_6-13" cx="-547.16" cy="-608.62" r="4.39" gradientTransform="matrix(0.06, 1, -1, 0.06, -390.59, 644.87)" xlink:href="#New_Gradient_Swatch_6"/><radialGradient id="New_Gradient_Swatch_6-14" cx="-547.53" cy="-596.54" r="10.74" gradientTransform="matrix(0.06, 1, -1, 0.06, -390.59, 644.87)" xlink:href="#New_Gradient_Swatch_6"/><radialGradient id="New_Gradient_Swatch_6-15" cx="-788.37" cy="-515.65" r="4.39" gradientTransform="translate(-422.77 924.07) rotate(96.07)" xlink:href="#New_Gradient_Swatch_6"/><radialGradient id="New_Gradient_Swatch_6-16" cx="-788.74" cy="-503.57" r="10.74" gradientTransform="translate(-422.77 924.07) rotate(96.07)" xlink:href="#New_Gradient_Swatch_6"/><radialGradient id="New_Gradient_Swatch_6-17" cx="-815.94" cy="808.44" r="4.39" gradientTransform="matrix(0.01, -1, 1, 0.01, -789.86, -626.29)" xlink:href="#New_Gradient_Swatch_6"/><radialGradient id="New_Gradient_Swatch_6-18" cx="-816.32" cy="820.52" r="10.74" gradientTransform="matrix(0.01, -1, 1, 0.01, -789.86, -626.29)" xlink:href="#New_Gradient_Swatch_6"/></defs><g id="Layer_2" data-name="Layer 2"><g id="Layer_10" data-name="Layer 10"><path d="M19.83,135.09v26.36H0v-71H32.82q11,0,16.81,2A24.61,24.61,0,0,1,60,99.63a18.35,18.35,0,0,1,4.58,12.64,23.17,23.17,0,0,1-2.44,10.24,19.09,19.09,0,0,1-6.9,7.85,27,27,0,0,1-8.63,3.8,66.12,66.12,0,0,1-13.08.93Zm-.67-12.89H31.85q7.26,0,10.19-2.86A8.92,8.92,0,0,0,45,112.79a8.25,8.25,0,0,0-3.26-6.87q-3.27-2.53-9.91-2.54H19.16Z"/><path d="M157.71,135.09v26.36H137.88v-71h32.83q11,0,16.8,2a24.58,24.58,0,0,1,10.41,7.15,18.35,18.35,0,0,1,4.57,12.64,23,23,0,0,1-2.44,10.24,19.07,19.07,0,0,1-6.89,7.85,27.14,27.14,0,0,1-8.64,3.8,66,66,0,0,1-13.08.93ZM157,122.2h12.69q7.26,0,10.19-2.86a8.93,8.93,0,0,0,2.93-6.55,8.26,8.26,0,0,0-3.27-6.87q-3.26-2.53-9.91-2.54H157Z"/><path d="M270.82,106.08l-16.59,4.73q-3.34-8.41-14.18-8.42-11.56,0-11.57,6.39a5.38,5.38,0,0,0,2.17,4.32q2.16,1.77,9.77,3.07,12.74,2.19,18.65,4.42a23.28,23.28,0,0,1,10,7.2,17.12,17.12,0,0,1,4.05,11.1q0,9.62-8.69,16.64t-25.75,7q-12.79,0-21.79-5A23.92,23.92,0,0,1,205,142.84l18.06-3.49q3,9.94,16.93,9.94,6.69,0,10-2.21c2.2-1.48,3.29-3.24,3.29-5.28a5.34,5.34,0,0,0-3-4.84q-3-1.71-11.52-3.22-15.9-2.82-22.66-7.67t-6.76-14.22q0-9.46,8.07-16t21.91-6.5Q263.82,89.39,270.82,106.08Z"/><circle class="cls-1" cx="97.83" cy="105.17" r="8.62"/><circle class="cls-2" cx="97.09" cy="128.87" r="21.09"/><path class="cls-3" d="M119.22,100.6c0,7.29-3.31,13.19-7.4,13.19"/><path class="cls-3" d="M130.43,137.3c0-5.31-5.48-9.62-12.25-9.62"/><path class="cls-3" d="M116,157.14c0-7.38-1.78-13.35-4-13.35"/><path class="cls-3" d="M78.2,157.14c0-7.39,1.78-13.37,4-13.37"/><path class="cls-3" d="M63.74,137.3c0-5.31,5.48-9.62,12.26-9.62"/><path class="cls-3" d="M74.6,100.6c0,7.29,3.31,13.19,7.4,13.19"/><path class="cls-4" d="M112.07,90.09s0-.28.1-.81c0-.27.08-.59.13-1s.17-.85.27-1.36a25.44,25.44,0,0,1,1.09-3.56,26.63,26.63,0,0,1,2.15-4.32,33,33,0,0,1,3.41-4.6,40.59,40.59,0,0,1,4.62-4.41,49.63,49.63,0,0,1,5.59-3.91,59.58,59.58,0,0,1,6.25-3.25,69.94,69.94,0,0,1,13.14-4.34c2.15-.51,4.26-.87,6.27-1.18L158,57l2.76-.26c1.77-.12,3.39-.22,4.84-.24s2.7,0,3.73,0l3.26.11a3.61,3.61,0,0,1-.23,7.21l-.29,0H172l-3-.35c-1-.06-2.12-.21-3.45-.26S162.68,63,161,63l-2.57,0-2.75.13c-1.89.13-3.88.31-5.92.61a66.64,66.64,0,0,0-12.56,3,55.56,55.56,0,0,0-6,2.54,46.68,46.68,0,0,0-5.49,3.2,38,38,0,0,0-4.61,3.72,30.67,30.67,0,0,0-3.5,4,24,24,0,0,0-2.32,3.85A23.38,23.38,0,0,0,114,87.3c-.13.46-.25.87-.36,1.22s-.15.71-.2,1l-.17.8a.59.59,0,0,1-1.17-.2Z"/><path class="cls-4" d="M102.07,83.75s.09-1,.24-2.75.42-4.27.82-7.27a164.57,164.57,0,0,1,4.29-21.87c2.16-7.87,5.06-15.64,8.91-21.12a24.37,24.37,0,0,1,3.12-3.62A14.1,14.1,0,0,1,123,24.75a9.79,9.79,0,0,1,3.11-.8c.8,0,1.22,0,1.22,0a3.53,3.53,0,0,1,.42,7l-1.07.16a.61.61,0,0,1-.22,0,2.91,2.91,0,0,0-.84.1,7.13,7.13,0,0,0-1.82,1,18.53,18.53,0,0,0-2.47,2.39,44.77,44.77,0,0,0-5.24,8.07,96,96,0,0,0-4.64,10.52,162.35,162.35,0,0,0-6.19,21c-.67,2.92-1.15,5.37-1.48,7.09l-.5,2.71a.58.58,0,0,1-.69.48A.6.6,0,0,1,102.07,83.75Z"/><path class="cls-4" d="M88.47,83.4l.22-3.19c0-1,.11-2.21.1-3.62s0-3-.07-4.7c0-.86-.11-1.76-.16-2.68s-.18-1.88-.27-2.86c-.24-1.95-.52-4-1-6.09S86.4,56,85.8,53.89a62.75,62.75,0,0,0-2.26-6.33,51.36,51.36,0,0,0-3-5.94A42,42,0,0,0,77,36.41a34,34,0,0,0-4-4.16,27.76,27.76,0,0,0-4.11-2.92,21.77,21.77,0,0,0-3.79-1.7,12.76,12.76,0,0,0-1.63-.49A11.79,11.79,0,0,0,62,26.83l-1.14-.18L60,26.58l-.7-.06-.25,0a3.61,3.61,0,0,1,.63-7.19l.27,0,1,.15,1.13.2,1.52.37a18.5,18.5,0,0,1,1.84.56,19.62,19.62,0,0,1,2.1.82A28.49,28.49,0,0,1,72.2,24,34.11,34.11,0,0,1,77,28a39.89,39.89,0,0,1,4.29,5.23,45.75,45.75,0,0,1,3.54,6.15,54.78,54.78,0,0,1,2.69,6.7A67.09,67.09,0,0,1,89.32,53c.46,2.31.85,4.58,1.08,6.79s.38,4.35.46,6.38c0,1,0,2,0,3s0,1.88-.05,2.76c-.09,1.76-.18,3.37-.32,4.8s-.3,2.67-.4,3.69c-.31,2-.48,3.16-.48,3.16A.59.59,0,0,1,89,84,.61.61,0,0,1,88.47,83.4Z"/><path class="cls-4" d="M76.85,91.16s0-.23-.12-.65c0-.21-.1-.47-.15-.78l-.27-1c-.09-.36-.24-.77-.4-1.21a12.75,12.75,0,0,0-.56-1.4A21.76,21.76,0,0,0,73.6,83a26.72,26.72,0,0,0-2.67-3.31,29.83,29.83,0,0,0-3.57-3.15,39.16,39.16,0,0,0-4.28-2.75,46.15,46.15,0,0,0-4.78-2.21,50.41,50.41,0,0,0-10-2.71c-1.62-.29-3.21-.45-4.72-.59s-2.93-.18-4.25-.2-2.52,0-3.59.06-2,.14-2.76.18l-2.39.26h-.08a3.61,3.61,0,0,1-.77-7.17l.32,0s1,0,2.67,0c.85,0,1.88,0,3.06.11s2.51.18,3.95.33,3,.39,4.63.7,3.35.68,5.09,1.17A56.61,56.61,0,0,1,60,67.71,50.64,50.64,0,0,1,65,70.65a41.12,41.12,0,0,1,4.37,3.47A33.77,33.77,0,0,1,72.88,78a28.62,28.62,0,0,1,2.55,3.92A23.56,23.56,0,0,1,77,85.49a13.21,13.21,0,0,1,.45,1.57,11.8,11.8,0,0,1,.3,1.37c.06.41.12.79.18,1.11s0,.58.07.8c0,.43.06.66.06.66a.61.61,0,0,1-.54.64A.59.59,0,0,1,76.85,91.16Z"/><path class="cls-4" d="M80.53,167.3s0,.28-.1.81c0,.26-.08.59-.13,1L80,170.44A23.81,23.81,0,0,1,78.93,174c-.23.68-.6,1.35-.92,2.09s-.77,1.47-1.24,2.22a32.39,32.39,0,0,1-3.42,4.58,40.58,40.58,0,0,1-4.63,4.39,50,50,0,0,1-5.6,3.89,60.22,60.22,0,0,1-6.24,3.23,71.43,71.43,0,0,1-13.13,4.31c-2.15.5-4.26.86-6.26,1.17l-2.93.38-2.75.26c-1.77.13-3.39.22-4.83.25s-2.7,0-3.74,0l-3.25-.1a3.61,3.61,0,1,1,.23-7.21l.29,0,.13,0,3,.34c.95.07,2.11.21,3.44.26s2.84.13,4.49.15l2.57,0,2.74-.13c1.88-.14,3.87-.31,5.91-.61a66.43,66.43,0,0,0,12.55-3A53.84,53.84,0,0,0,61.38,188a47.27,47.27,0,0,0,5.5-3.17,39.65,39.65,0,0,0,4.62-3.71,30.76,30.76,0,0,0,3.51-4c.49-.66.9-1.33,1.31-2s.75-1.26,1-1.87a22.35,22.35,0,0,0,1.3-3.22c.13-.45.25-.86.36-1.22s.15-.7.2-1l.17-.8a.59.59,0,0,1,1.17.2Z"/><path class="cls-4" d="M90.53,173.6s-.09,1-.24,2.74-.42,4.26-.82,7.25a163.1,163.1,0,0,1-4.3,21.78c-2.17,7.84-5.07,15.58-8.92,21a24.18,24.18,0,0,1-3.12,3.6,13.86,13.86,0,0,1-3.5,2.35,10,10,0,0,1-3.11.79c-.79,0-1.21,0-1.21,0a3.53,3.53,0,0,1-.4-7l1-.15a.8.8,0,0,1,.23,0,2.45,2.45,0,0,0,.83-.09,7,7,0,0,0,1.82-1,18.23,18.23,0,0,0,2.46-2.37,43.58,43.58,0,0,0,5.24-8,95.34,95.34,0,0,0,4.64-10.48,160.13,160.13,0,0,0,6.2-20.86c.67-2.91,1.15-5.35,1.48-7.06l.5-2.7a.59.59,0,0,1,1.17.15Z"/><path class="cls-4" d="M104.13,174l-.22,3.17c0,1-.11,2.21-.1,3.61s0,3,.07,4.69c.05.86.11,1.75.16,2.67s.18,1.87.27,2.84c.25,1.95.53,4,1,6.07s.95,4.22,1.55,6.35a64.59,64.59,0,0,0,2.26,6.29,50.34,50.34,0,0,0,3,5.92,42.33,42.33,0,0,0,3.59,5.18,36.78,36.78,0,0,0,4,4.13,28.1,28.1,0,0,0,4.11,2.88,21.93,21.93,0,0,0,3.78,1.69,12.63,12.63,0,0,0,1.63.48,11.38,11.38,0,0,0,1.41.31l1.14.18.85.07.7.06.24,0a3.6,3.6,0,1,1-.62,7.18l-.27,0-.94-.15-1.13-.2L129,237c-.57-.13-1.17-.34-1.83-.56a18.68,18.68,0,0,1-2.1-.81,28.57,28.57,0,0,1-4.67-2.57,33.82,33.82,0,0,1-4.75-3.95,41.28,41.28,0,0,1-4.3-5.2,46.49,46.49,0,0,1-3.54-6.12,52.87,52.87,0,0,1-2.7-6.67,67.5,67.5,0,0,1-1.86-6.88c-.45-2.3-.86-4.56-1.08-6.77s-.38-4.33-.47-6.35c0-1,0-2,0-2.95s0-1.86,0-2.74c.09-1.76.18-3.37.32-4.79s.3-2.65.41-3.67l.47-3.15a.59.59,0,0,1,.67-.5A.6.6,0,0,1,104.13,174Z"/><path class="cls-4" d="M115.75,166.23s0,.23.13.65c0,.21.09.48.15.78s.17.62.27,1a9.94,9.94,0,0,0,.39,1.22c.15.44.35.91.57,1.4a21.2,21.2,0,0,0,1.75,3.15,26.77,26.77,0,0,0,2.68,3.3,31.46,31.46,0,0,0,3.57,3.13,39.19,39.19,0,0,0,4.29,2.73,46.84,46.84,0,0,0,4.77,2.19,51.4,51.4,0,0,0,10,2.69c1.62.28,3.21.45,4.72.58s2.93.18,4.24.2,2.52,0,3.59-.06,2-.14,2.76-.19l2.39-.25h.07a3.61,3.61,0,1,1,.77,7.17l-.32,0s-1,0-2.67,0c-.85,0-1.87,0-3-.11s-2.5-.18-4-.33-3-.39-4.62-.7-3.34-.67-5.08-1.16a55.74,55.74,0,0,1-10.55-4,48.57,48.57,0,0,1-4.94-2.92,39.75,39.75,0,0,1-4.37-3.45,33.86,33.86,0,0,1-3.55-3.81,29.55,29.55,0,0,1-2.56-3.9,23.56,23.56,0,0,1-1.54-3.62,14.22,14.22,0,0,1-.46-1.57c-.12-.49-.23-.93-.29-1.36s-.13-.79-.18-1.11-.06-.58-.08-.79c0-.43,0-.66,0-.66a.6.6,0,0,1,.53-.65A.61.61,0,0,1,115.75,166.23Z"/><circle class="cls-5" cx="48.75" cy="11.08" r="4.39"/><circle class="cls-6" cx="58" cy="18.85" r="10.74"/><path class="cls-7" d="M53.67,1.08c2.92,2.3,4.23,5.48,2.94,7.12"/><path class="cls-7" d="M71.89,8.17C69.76,6.5,66.31,7.33,64.17,10"/><path class="cls-7" d="M75.26,20.21c-3-2.32-5.9-3.5-6.59-2.62"/><path class="cls-7" d="M63.34,35.32c-3-2.33-4.78-4.93-4.09-5.81"/><path class="cls-7" d="M50.85,34.84c-2.13-1.67-2.12-5.22,0-7.93"/><path class="cls-7" d="M39.6,18.92c2.91,2.3,6.31,2.84,7.6,1.2"/><circle class="cls-8" cx="134.19" cy="14.86" r="4.39"/><circle class="cls-9" cx="125.79" cy="23.55" r="10.74"/><path class="cls-7" d="M143.82,20.47c-2.5,2.75-5.77,3.84-7.31,2.43"/><path class="cls-7" d="M135.48,38.14c1.82-2,1.23-5.5-1.33-7.82"/><path class="cls-7" d="M123.23,40.67c2.53-2.78,3.91-5.64,3.08-6.39"/><path class="cls-7" d="M109,27.74c2.53-2.79,5.25-4.43,6.08-3.68"/><path class="cls-7" d="M110.33,15.31c1.82-2,5.36-1.75,7.92.57"/><path class="cls-7" d="M127,5.19c-2.49,2.75-3.26,6.1-1.72,7.5"/><circle class="cls-10" cx="143.54" cy="244.69" r="4.39"/><circle class="cls-11" cx="133.62" cy="237.81" r="10.74"/><path class="cls-7" d="M139.57,255.1c-3.11-2-4.72-5.07-3.59-6.82"/><path class="cls-7" d="M120.78,249.73c2.27,1.47,5.63.32,7.5-2.58"/><path class="cls-7" d="M116.3,238.05c3.16,2,6.2,2.94,6.81,2"/><path class="cls-7" d="M126.76,221.9c3.16,2,5.22,4.47,4.61,5.41"/><path class="cls-7" d="M139.25,221.22c2.27,1.47,2.59,5,.71,7.9"/><path class="cls-7" d="M151.93,236c-3.12-2-6.56-2.23-7.69-.48"/><circle class="cls-12" cx="58.86" cy="243.33" r="4.39"/><circle class="cls-13" cx="66.3" cy="233.81" r="10.74"/><path class="cls-7" d="M48.7,238.76c2.19-3,5.33-4.42,7-3.19"/><path class="cls-7" d="M55.15,220.31c-1.61,2.18-.65,5.6,2.13,7.64"/><path class="cls-7" d="M67.06,216.51c-2.22,3-3.29,6-2.39,6.68"/><path class="cls-7" d="M82.58,227.89c-2.23,3-4.77,5-5.67,4.29"/><path class="cls-7" d="M82.54,240.4c-1.6,2.18-5.15,2.3-7.93.26"/><path class="cls-7" d="M67,252.2c2.2-3,2.61-6.41.93-7.65"/><circle class="cls-14" cx="18.49" cy="63.84" r="4.39"/><circle class="cls-15" cx="30.53" cy="64.82" r="10.74"/><path class="cls-7" d="M16.71,52.84c3.7.18,6.62,2,6.52,4.1"/><path class="cls-7" d="M35.66,48.07c-2.7-.14-5,2.54-5.2,6"/><path class="cls-7" d="M45.39,55.92c-3.76-.18-6.84.57-6.9,1.69"/><path class="cls-7" d="M44.43,75.14c-3.76-.18-6.76-1.25-6.7-2.37"/><path class="cls-7" d="M34,82c-2.7-.13-4.75-3-4.58-6.47"/><path class="cls-7" d="M15.58,75.54c3.7.18,6.79-1.35,6.89-3.43"/><circle class="cls-16" cx="181.28" cy="59.41" r="4.39"/><circle class="cls-17" cx="169.2" cy="59.82" r="10.74"/><path class="cls-7" d="M184.3,70.14c-3.7.24-6.81-1.25-6.94-3.33"/><path class="cls-7" d="M166,77.05c2.7-.18,4.71-3.11,4.48-6.55"/><path class="cls-7" d="M155.46,70.35c3.75-.24,6.73-1.34,6.65-2.46"/><path class="cls-7" d="M154.21,51.15c3.76-.24,6.86.47,6.93,1.59"/><path class="cls-7" d="M163.82,43.15c2.7-.18,5.07,2.47,5.29,5.91"/><path class="cls-7" d="M182.83,47.46c-3.71.24-6.59,2.11-6.46,4.19"/><circle class="cls-18" cx="173.41" cy="194.7" r="4.39"/><circle class="cls-19" cx="161.44" cy="193.04" r="10.74"/><path class="cls-7" d="M174.57,205.78c-3.69-.39-6.5-2.39-6.28-4.46"/><path class="cls-7" d="M155.38,209.48c2.69.29,5.16-2.26,5.53-5.69"/><path class="cls-7" d="M146.11,201.09c3.74.4,6.86-.18,7-1.3"/><path class="cls-7" d="M148.14,182c3.75.4,6.68,1.63,6.56,2.75"/><path class="cls-7" d="M159,175.7c2.69.29,4.58,3.3,4.21,6.73"/><path class="cls-7" d="M177,183.18c-3.69-.39-6.85,1-7.07,3"/><circle class="cls-20" cx="10.16" cy="197.91" r="4.39"/><circle class="cls-21" cx="22.23" cy="198.41" r="10.74"/><path class="cls-7" d="M8,187c3.71,0,6.7,1.75,6.68,3.84"/><path class="cls-7" d="M26.7,181.47c-2.71,0-4.93,2.74-5,6.19"/><path class="cls-7" d="M36.73,188.94c-3.76,0-6.81.83-6.82,1.95"/><path class="cls-7" d="M36.53,208.18c-3.76,0-6.8-1-6.79-2.11"/><path class="cls-7" d="M26.35,215.44c-2.71,0-4.87-2.85-4.83-6.3"/><path class="cls-7" d="M7.72,209.71c3.71,0,6.73-1.61,6.75-3.7"/></g></g></svg>