<svg xmlns="http://www.w3.org/2000/svg" viewBox="0 0 100.38 84.24"><defs><style>.cls-1{fill:#2165b5;}.cls-2{fill:#c9cace;}.cls-3{fill:#bdbec2;}.cls-4{fill:#b9babe;}.cls-5{fill:#b0b1b5;}.cls-6{fill:#a7a7ac;}.cls-7{fill:#9d9ca2;}.cls-8{fill:#b1b2b6;}.cls-9{fill:#939298;}.cls-10{fill:#a8a9ad;}.cls-11{fill:#7b7a80;}.cls-12{fill:#7e7d83;}.cls-13{fill:#9f9ea4;}.cls-14{fill:#85848a;}.cls-15{fill:#97969c;}.cls-16{fill:#8d8c92;}.cls-17{fill:#154374;}.cls-18{fill:#0d3e75;}.cls-19{fill:#fefefe;}.cls-20{fill:#fdfefe;}.cls-21{fill:#225a97;}.cls-22{fill:#1c4772;}.cls-23{fill:#1b497e;}.cls-24{fill:#134680;}.cls-25{fill:#224b77;}.cls-26{fill:#0d4080;}.cls-27{fill:#214b78;}.cls-28{fill:#0d407d;}</style></defs><g id="Layer_2" data-name="Layer 2"><g id="Logos"><path class="cls-1" d="M85.3,63.43Q91.12,73.5,96.65,83.72c-.07.51-.46.36-.75.36h-18a1.23,1.23,0,0,1-.91-.2C75.5,80.8,74,77.7,72.55,74.61c-.68-1.4-1.39-2.78-2.08-4.17a1.44,1.44,0,0,1-.55-.69c-.71-1.8-1.78-3.42-2.57-5.18a11.18,11.18,0,0,0-1.93-2.7,4.42,4.42,0,0,0-2.65-1.36c-.21,0-.46,0-.54-.29a4,4,0,0,0-.91,0c-.9,0-1.79-.1-2.69-.15a3.25,3.25,0,0,1,.82.07c-.12.59-.78.2-1,.58A2.1,2.1,0,0,0,58.31,62a21.25,21.25,0,0,0,.08,3.19,2,2,0,0,1,0,.26c.08,2.3,0,4.59,0,6.88a1.17,1.17,0,0,1-.2.7l0,0a1.27,1.27,0,0,0-.09.79c0,3.2,0,6.4,0,9.6,0,.55-.12.72-.69.72q-7.59,0-15.18,0c-.6,0-.69-.2-.68-.73,0-3.25,0-6.5,0-9.75a1.21,1.21,0,0,0-.2-.92,2,2,0,0,1-.12-.72c0-2.89,0-5.79,0-8.68a3,3,0,0,1,.06-.59,3.68,3.68,0,0,0,.11-1.32q0-18.63,0-37.24c0-.45-.16-1,.3-1.32a2.36,2.36,0,0,1,1-.1h32.1a16,16,0,0,0,2.59.12,6,6,0,0,1,2.19.34A14.59,14.59,0,0,1,86.56,27a15.47,15.47,0,0,1,4.7,9.61,2,2,0,0,1,0,.74,37.2,37.2,0,0,0,0,4.48,14.93,14.93,0,0,1-3.63,9.52,18,18,0,0,1-9.06,5.11c-.57.15-1.15.32-1.8.43,2,.67,4.19,1,5.89,2.39A10.52,10.52,0,0,1,85.3,63.43Z"/><path class="cls-2" d="M.74,43.2a10,10,0,0,1-.56-2.73A28.38,28.38,0,0,1,3,24.54a36.14,36.14,0,0,1,8.54-11A49.67,49.67,0,0,1,24.33,5.35,60.24,60.24,0,0,1,39.66.87,70,70,0,0,1,47.17.1C48.61,0,50.05,0,51.48,0A67.09,67.09,0,0,1,63,1.25a6.11,6.11,0,0,1,2.14.52A1.71,1.71,0,0,1,64,3.71a3.84,3.84,0,0,0-1.23.66c-1.27,1-2.69,1.67-4,2.58a18.61,18.61,0,0,0-2.39,1.76,8,8,0,0,1-1.64,1,17.62,17.62,0,0,1-3.26,2c-.89.31-1.44,1.18-2.29,1.62a14.34,14.34,0,0,1-3.59,1.57,1.38,1.38,0,0,0-1,.48,3,3,0,0,1-1.39.48,38.2,38.2,0,0,0-13,6,27.16,27.16,0,0,0-5.78,5.55c-.24.3-.41.69-.84.8-.11,0-.3,0-.34.08-.24.58-.83.74-1.21,1.12A19,19,0,0,1,19,31.68a8.3,8.3,0,0,1-3.2,1.8,2.09,2.09,0,0,0-1.13.81,4.56,4.56,0,0,1-2,1.39,3.79,3.79,0,0,0-1.76,1.15,6.75,6.75,0,0,1-2.6,1.66,1.85,1.85,0,0,0-.92.71.8.8,0,0,1-.51.41A3.52,3.52,0,0,0,5,40.79a1.61,1.61,0,0,1-.5.31A29.46,29.46,0,0,0,.74,43.2Z"/><path class="cls-3" d="M.74,43.2A2,2,0,0,1,2.1,42.15c.1,0,.25,0,.29,0,.79-1,2.29-.94,3-2a1.14,1.14,0,0,1,.94-.5,1.25,1.25,0,0,0,1-.67c.37-.64,1.17-.65,1.73-1A5.36,5.36,0,0,0,11,36.39a2.7,2.7,0,0,1,1.65-.91,3.72,3.72,0,0,0,1.7-1.17,2.8,2.8,0,0,1,1.74-1.14,2.27,2.27,0,0,0,1.28-.73c.61-.57,1.5-.66,2-1.39.32-.44,1-.53,1.42-.94s.79-.37,1-.84a.35.35,0,0,1,.36-.22c.47,0,.65-.26.77-.64s.25-.57.62-.24c.08.31-.11.51-.26.74a19.34,19.34,0,0,0-3.17,9.61,10.46,10.46,0,0,1-.05,2.5c0,.16-.26,0-.24.16a2.51,2.51,0,0,1-1.35,2.74,15.47,15.47,0,0,0-2.77,2,13.58,13.58,0,0,1-2,1.18c-1.27.86-2.47,1.83-3.79,2.57-.81.44-1.47,1.06-2.27,1.49a4,4,0,0,0-1,.75,1.44,1.44,0,0,1-2.09.29A26.68,26.68,0,0,1,.9,44C.83,43.73.79,43.46.74,43.2Z"/><path class="cls-4" d="M44.55,15.32c0-.37.28-.4.56-.45a10.12,10.12,0,0,0,4.65-2.15c1.14-1,2.54-1.45,3.7-2.38a8.16,8.16,0,0,1,2.42-1.49c.64-.23,1.11-.91,1.73-1.33,1.17-.79,2.34-1.6,3.57-2.31A18.57,18.57,0,0,0,63,3.94a2,2,0,0,1,.64-.35A1.93,1.93,0,0,0,65.1,1.77a44.92,44.92,0,0,1,9.08,2.84,3.72,3.72,0,0,0,1.5.61.89.89,0,0,1,.6.28c.22.26.45.52.69.77s.2.67-.2.66a2.91,2.91,0,0,0-2,1.21,16.83,16.83,0,0,1-3.21,2.12,23.44,23.44,0,0,0-3.23,2.09c-.56.49-1.23.82-1.8,1.3s-1.19.19-1.77.45c-.33.14-.7.23-1,.37a17.39,17.39,0,0,1-2.89-.12c-2.31-.19-4.61-.07-6.92-.12a4.54,4.54,0,0,0-1.56.07c-2.35.35-4.72.52-7,1.06A.9.9,0,0,1,44.55,15.32Z"/><path class="cls-5" d="M4.59,52.16c.08,0,.21-.14.24-.12.91.79,1.4-.08,2-.53A17.78,17.78,0,0,1,9,49.91c1.44-.8,2.72-1.83,4.12-2.67.74-.44,1.57-.87,2.25-1.34a14.13,14.13,0,0,0,2.31-1.65,1.86,1.86,0,0,1,.64-.49,2.14,2.14,0,0,0,1.4-2.56c0-.21.15-.12.26-.09a.44.44,0,0,1,.18.31,19.56,19.56,0,0,0,3.5,8.64,1.8,1.8,0,0,1,.34.66c.09.46-.08.64-.56.82a3.28,3.28,0,0,0-1.79,1.34,1,1,0,0,1-.76.53,3.44,3.44,0,0,0-2.16,1.27,4.37,4.37,0,0,1-1.28.86,5.68,5.68,0,0,0-1.6,1.17,4.91,4.91,0,0,1-2.61,1.54,3.14,3.14,0,0,0-1.41.94c-.19.16-.07.36,0,.54s.28.45-.06.63a40.08,40.08,0,0,1-6.87-7.61A3.59,3.59,0,0,1,4.59,52.16Z"/><path class="cls-6" d="M11.75,60.36c0-.1.11-.25.08-.28-.82-.77-.19-1.14.42-1.5.43-.27.77-.82,1.42-.51a.16.16,0,0,0,.13,0c.58-.75,1.69-.85,2.15-1.75a1.12,1.12,0,0,1,.55-.48,7.78,7.78,0,0,0,3-2.23c.28-.39.94,0,1.34-.37.1-.08.39-.07.4-.13.13-.85,1-.93,1.48-1.42a.8.8,0,0,1,.81-.36c.43.09.19-.33.27-.52a.4.4,0,0,1,.37.2,40.92,40.92,0,0,0,5.59,5.42,1.17,1.17,0,0,1,.27.35c.17.54-.19.81-.57,1.08-.61.45-1.43.56-1.95,1.19a5.43,5.43,0,0,0-.62.73.66.66,0,0,1-.35.38,8.28,8.28,0,0,0-3.17,2.29,1.37,1.37,0,0,1-.55.37,8.67,8.67,0,0,0-3.3,1.77c-.52.45-1.12.25-1.7.28A68.19,68.19,0,0,1,12,60.68,3,3,0,0,1,11.75,60.36Z"/><path class="cls-7" d="M17.86,64.83c.05,0,.11-.15.15-.14,1,.22,1.61-.53,2.35-1a5.2,5.2,0,0,1,2.29-1,.38.38,0,0,0,.27-.12c.6-.82,1.57-1.21,2.25-1.94.15-.16.26-.43.48-.44a1.94,1.94,0,0,0,1.52-1.06,6.15,6.15,0,0,1,2.24-1.47c.36-.21.66-.43.53-.91.31-.18.53,0,.73.18,1.72,1.21,3.58,2.2,5.39,3.26.25.45.78.4,1.16.62l.19.1a2.77,2.77,0,0,0,.46.22c.38.18.73.41.74.85a1,1,0,0,1-.68.89c-.64.25-1.13.72-1.76,1a2.32,2.32,0,0,0-1,1c-.18.24-.34.52-.65.57a6.24,6.24,0,0,0-2.82,1.53,2.34,2.34,0,0,1-.7.41,1,1,0,0,0-.71.69.76.76,0,0,1-.88.61,1.09,1.09,0,0,0-.94.36,1.39,1.39,0,0,1-1.19.44,55,55,0,0,1-8.74-4.13Z"/><path class="cls-8" d="M63.91,14.28a3.76,3.76,0,0,1,2-.62c.18,0,.38,0,.49-.1a18.41,18.41,0,0,1,2.44-1.85,29.87,29.87,0,0,1,2.65-1.63A16.21,16.21,0,0,0,74.62,8c.49-.54,1.1-1.47,2.19-1.18.06,0,.16-.09.25-.14a2.21,2.21,0,0,1-.78-1.15A40.3,40.3,0,0,1,84,9.81c.2.59-.21.85-.63,1a2.51,2.51,0,0,0-1.27,1A1.44,1.44,0,0,1,81,12.4a.59.59,0,0,0-.42.13c-.56.71-1.53,1-2,1.66a3.76,3.76,0,0,1-2.34,1.26c-.29.09-.55.12-.74.39a1.36,1.36,0,0,1-1,.51c-1.68-.31-3.32-.79-5-1.07s-3.07-.53-4.63-.64A1.1,1.1,0,0,1,63.91,14.28Z"/><path class="cls-9" d="M27.28,69.38a2.48,2.48,0,0,0,1.22-.75.82.82,0,0,1,.89-.24c.46.11.65-.09.73-.49a.9.9,0,0,1,.82-.8,2.06,2.06,0,0,0,.82-.49,4.7,4.7,0,0,1,2.64-1.39.52.52,0,0,0,.38-.21c.41-1,1.37-1.32,2.14-1.9.36-.27.85-.2,1.18-.57.51-.55.48-.86-.21-1.22-.22-.11-.58-.06-.62-.44a.5.5,0,0,1,.5,0c1.12.5,2.29.89,3.44,1.34a.82.82,0,0,1,.34.27.22.22,0,0,1,0,.22v10a.18.18,0,0,1,0,.27c-2.12-.36-4.25-.68-6.34-1.17A50.8,50.8,0,0,1,27.28,69.38Z"/><path class="cls-10" d="M74.63,16.22a5.23,5.23,0,0,0,1-.74A2.76,2.76,0,0,1,77.08,15a1.45,1.45,0,0,0,1.08-.63,2.17,2.17,0,0,1,1.17-1,1,1,0,0,0,.58-.45,1.42,1.42,0,0,1,1.33-.76c.52,0,.71-.5,1-.83a1.65,1.65,0,0,1,1-.67A1,1,0,0,0,84,9.81a26.17,26.17,0,0,1,4.89,3.88c.73.59,1.34,1.3,2,2,.11.11.31.23.19.42s-.29.12-.42.06c-.51-.26-.74,0-1.06.4A3.12,3.12,0,0,1,88,17.71a4,4,0,0,0-2.11,1.42,1.18,1.18,0,0,1-.3.33c-.42.24-.88.46-.67,1.1,0,.08-.11.16-.2.2a4.92,4.92,0,0,1-1.7-.88,40.86,40.86,0,0,0-7.43-3.16C75.25,16.61,74.86,16.57,74.63,16.22Z"/><path class="cls-11" d="M85.3,63.43a23,23,0,0,0-2.63-4c0-.35.28-.44.5-.57A25.91,25.91,0,0,0,92.05,50c.14-.24.22-.58.62-.53.17.31.41.38.63.08a4.22,4.22,0,0,1,1.94-1.41,1.62,1.62,0,0,0,.64-.49,8.18,8.18,0,0,1,2.81-1.7c.14-.06.3-.11.25.15a31.82,31.82,0,0,1-9.29,13.81,39.73,39.73,0,0,1-4.05,3.25A1.77,1.77,0,0,0,85.3,63.43Z"/><path class="cls-12" d="M67.49,64.5c1,2,2.08,3.91,3,5.94A65.93,65.93,0,0,1,58.28,73c-.05-2.59-.07-5.19,0-7.79a.7.7,0,0,1,.48-.18c2.69-.13,5.38-.25,8.06-.61A2.47,2.47,0,0,1,67.49,64.5Z"/><path class="cls-13" d="M84.75,20.73c-.32-.87.44-1.06.85-1.56a4.88,4.88,0,0,1,1.67-1.39,6.72,6.72,0,0,0,1.93-1c.09-.08.22-.12.3-.21.66-.76.66-.76,1.63-.53l-2.2-2.34A12.87,12.87,0,0,1,91.47,16a28.17,28.17,0,0,1,3.4,4.22,2,2,0,0,0,.67,1l.1.16c.16.45,0,.7-.47.68a.6.6,0,0,0-.69.41,2.68,2.68,0,0,1-1.68,1.38,4.69,4.69,0,0,0-2,1.21c-.32.37-.69,0-1,0a1.34,1.34,0,0,1-.6-.42,23.62,23.62,0,0,0-4.08-3.52C84.94,21.07,84.75,21,84.75,20.73Z"/><path class="cls-14" d="M98.94,46.06a8.23,8.23,0,0,0-3.39,2.06c-.42.42-1.12.34-1.5.88-.16.22-.45.32-.55.64s-.57.35-.83.31.07-.37,0-.57,0-.26.1-.37a3.43,3.43,0,0,0,.76-1.88,28.06,28.06,0,0,0,1.22-5A15,15,0,0,0,94.85,38a4.76,4.76,0,0,1,0-1.41c0-.14.06-.32.22-.35s.24.15.29.29a4.58,4.58,0,0,1,.17,1.69,4.89,4.89,0,0,0,0,1A10.51,10.51,0,0,0,97.41,38,4,4,0,0,1,99,37.06a1.24,1.24,0,0,0,1-1.33,11.67,11.67,0,0,0-.1-1.56c0-.33-.19-.75.28-1,.11,1.44.33,2.88.3,4.31A24.32,24.32,0,0,1,98.94,46.06Z"/><path class="cls-15" d="M89.82,25c.72.36,1-.37,1.44-.61.75-.4,1.52-.76,2.28-1.12a1.46,1.46,0,0,0,.71-.72c.21-.35.19-1,1-.62.28.16.32-.3.41-.53a26.62,26.62,0,0,1,3.24,6.73,1.55,1.55,0,0,0,.17.92c.07.13.15.28,0,.41a.32.32,0,0,1-.41,0c-.54-.43-.93-.13-1.29.25-.79.83-1.92,1.12-2.79,1.83a.69.69,0,0,1-.83,0,.81.81,0,0,1-.35-.46,20.5,20.5,0,0,0-3.19-5.34C90,25.59,89.76,25.38,89.82,25Z"/><path class="cls-16" d="M93.82,31.62c.19-.15.44.06.64-.12.91-.8,2.15-1.1,3-2,.33-.37.75-.71,1.22-.11a.27.27,0,0,0,.26.07c.14-.07.08-.2,0-.31a.83.83,0,0,1-.05-1,21.86,21.86,0,0,1,1.2,5,1.23,1.23,0,0,0-.08,1.07,6.08,6.08,0,0,1,.09,1.85,1.1,1.1,0,0,1-.88,1.06,3.69,3.69,0,0,0-1.88,1.11c-.56.56-1.42.67-2,1.33,0-.71,0-1.41,0-2.12a2.76,2.76,0,0,0-.18-1.08c-.1-.25-.1.06-.15.09-.28-.06-.29-.31-.33-.52a20.13,20.13,0,0,0-.88-3.68A.72.72,0,0,1,93.82,31.62Z"/><path class="cls-17" d="M41.55,73l0-.27c.23.26.13.57.13.86,0,3.22,0,6.44,0,9.67,0,.62.17.79.79.79q7.44,0,14.87,0c.6,0,.75-.18.75-.76,0-3.15,0-6.3,0-9.44,0-.29-.12-.61.16-.84,0,3.52,0,7,0,10.56,0,.6-.18.68-.71.67q-7.65,0-15.32,0c-.54,0-.71-.09-.71-.67C41.57,80,41.55,76.5,41.55,73Z"/><path class="cls-18" d="M77,83.89a4.17,4.17,0,0,0,1.41.12H95.72c.33,0,.71.09.93-.29.11.22.43.5-.16.49H77.76C77.49,84.2,77.08,84.41,77,83.89Z"/><path class="cls-15" d="M95.54,21.28c-.41-.22-.74-.49-.67-1Z"/><path class="cls-19" d="M93.82,31.62A30.85,30.85,0,0,1,95,36.53a23.68,23.68,0,0,1-1.19,10.16l-.27.68a4.48,4.48,0,0,1-.82,1.77l-.11.24a26.72,26.72,0,0,1-6.29,7.43c-1.17.95-2.44,1.76-3.67,2.62-1.92-1.38-4.25-1.77-6.62-2.56a27.59,27.59,0,0,0,6.52-2,13.86,13.86,0,0,0,8.3-10.93c.1-.64.17-1.28.26-1.91,0-1.59,0-3.18,0-4.76A15.32,15.32,0,0,0,77.75,23c-1,.06-2-.19-3-.19H41.93a.34.34,0,0,0-.29.37c0,.2,0,.4,0,.59v38c0,.28.11.59-.11.85l-4.25-1.68v0a4.27,4.27,0,0,1-1.19-.59,48,48,0,0,1-5.37-3.15c-.24-.16-.44-.41-.76-.43A48.28,48.28,0,0,1,24.87,52c-.36-.4-.69-.83-1-1.24a22.77,22.77,0,0,1-3.11-5.94,11.56,11.56,0,0,1-.79-3.72,19.89,19.89,0,0,1,.44-6,20.29,20.29,0,0,1,3.17-6.93c.95-1,1.76-2.19,2.76-3.19A35.34,35.34,0,0,1,39,17c1.8-.69,3.66-1.16,5.52-1.67a36.31,36.31,0,0,1,5.19-.89c.85,0,1.7-.2,2.55-.3.49-.17,1,.06,1.5-.13,2.78,0,5.57,0,8.35.16a10.46,10.46,0,0,0,1.77.12c2.06.29,4.14.48,6.18.91,1.52.33,3,.69,4.54,1a39.1,39.1,0,0,1,10.12,4.51A29,29,0,0,1,89.82,25,24.21,24.21,0,0,1,93.82,31.62Z"/><path class="cls-19" d="M58.4,46.92l-.16-.16a.9.9,0,0,1-.07-.51q0-5.11,0-10.23c0-.19-.08-.4.1-.56l0,0c.16-.18.37-.1.56-.1,3.5,0,7,0,10.5,0a2.83,2.83,0,0,1,1.74.52,6.28,6.28,0,0,1,1.42,9.32,5.15,5.15,0,0,1-2.8,1.68c-.14.14-.32.09-.49.09H58.83A.72.72,0,0,1,58.4,46.92Z"/><path class="cls-20" d="M67.49,64.5a29.46,29.46,0,0,1-4.68.56c-1.5.11-3,.11-4.52.16l0,0a30.38,30.38,0,0,1,0-4.77c.33-.42.85,0,1.23-.27a8.37,8.37,0,0,1,2.78,0C64.94,60.47,66.38,62.29,67.49,64.5Z"/><path class="cls-21" d="M41.86,22.67c.39,0,.79,0,1.19,0H72.86a29.63,29.63,0,0,1,4.89.34,2.19,2.19,0,0,1-1.38.08,19.3,19.3,0,0,0-3.48-.12h-31A.16.16,0,0,1,41.86,22.67Z"/><path class="cls-22" d="M41.86,22.67v.26c-.26.3-.13.67-.13,1q0,18.87,0,37.75c0,.33.13.69-.12,1a.27.27,0,0,0-.06-.12c0-.3,0-.59,0-.89q0-19.14,0-38.28C41.57,23.16,41.29,22.71,41.86,22.67Z"/><path class="cls-23" d="M71.05,35.9a5.88,5.88,0,0,0-2.46-.45c-3.44,0-6.89,0-10.34,0,.17-.27.44-.18.67-.18H69.46a5.05,5.05,0,0,1,1.5.35C71.07,35.67,71.2,35.75,71.05,35.9Z"/><path class="cls-24" d="M58.4,46.92l11.27,0c.07,0,.25.09.15.14a1.4,1.4,0,0,1-.58,0H59.16C58.91,47.06,58.62,47.18,58.4,46.92Z"/><path class="cls-25" d="M58.28,35.46c0,3.77,0,7.53,0,11.3-.23-.19-.14-.46-.14-.7,0-3.28,0-6.57,0-9.85C58.1,36,58,35.65,58.28,35.46Z"/><path class="cls-26" d="M91.14,37.24a21,21,0,0,1,0,4.76A20,20,0,0,1,91.14,37.24Z"/><path class="cls-27" d="M58.24,60.48c0,1.59,0,3.18,0,4.77a.48.48,0,0,1-.17-.46V60.88A.44.44,0,0,1,58.24,60.48Z"/><path class="cls-28" d="M62.25,60.19l-2.78,0-1-.07v-.06H62.7C62.6,60.26,62.39,60.11,62.25,60.19Z"/><path class="cls-2" d="M53.79,14a3.32,3.32,0,0,1-1.5.13C52.77,13.86,53.29,14,53.79,14Z"/><path class="cls-9" d="M36.07,60.32a3.24,3.24,0,0,1,1.19.59A1.33,1.33,0,0,1,36.07,60.32Z"/><path class="cls-11" d="M92.74,49.14l.82-1.77A2.05,2.05,0,0,1,92.74,49.14Z"/></g></g></svg>