<?xml version="1.0" encoding="utf-8"?>
<!-- Generator: Adobe Illustrator 23.0.1, SVG Export Plug-In . SVG Version: 6.00 Build 0)  -->
<svg version="1.1" xmlns="http://www.w3.org/2000/svg" xmlns:xlink="http://www.w3.org/1999/xlink" x="0px" y="0px"
	 viewBox="0 0 319.61 319.61" style="enable-background:new 0 0 319.61 319.61;" xml:space="preserve">
<style type="text/css">
	.st0{display:none;}
	.st1{display:inline;fill:none;stroke:#000000;stroke-width:9;stroke-miterlimit:10;}
	.st2{fill:url(#SVGID_1_);}
	.st3{fill:url(#SVGID_2_);stroke:#FFFFFF;stroke-width:3.6;stroke-miterlimit:10;}
	.st4{fill:url(#SVGID_3_);stroke:#FFFFFF;stroke-width:3.6;stroke-miterlimit:10;}
	.st5{fill:none;stroke:#FFFFFF;stroke-width:3.6;stroke-linecap:round;stroke-miterlimit:10;}
	.st6{fill:#FF0000;}
	.st7{fill:#FFFFFF;}
	.st8{fill:url(#SVGID_4_);stroke:#FFFFFF;stroke-width:3.6;stroke-miterlimit:10;}
	.st9{fill:url(#SVGID_5_);stroke:#FFFFFF;stroke-width:3.6;stroke-miterlimit:10;}
	.st10{fill:url(#SVGID_6_);stroke:#FFFFFF;stroke-width:2.16;stroke-miterlimit:10;}
	.st11{fill:url(#SVGID_7_);stroke:#FFFFFF;stroke-width:2.16;stroke-miterlimit:10;}
	.st12{fill:none;stroke:#FFFFFF;stroke-width:2.16;stroke-linecap:round;stroke-miterlimit:10;}
	.st13{fill:url(#SVGID_8_);stroke:#FFFFFF;stroke-width:2.16;stroke-miterlimit:10;}
	.st14{fill:url(#SVGID_9_);stroke:#FFFFFF;stroke-width:2.16;stroke-miterlimit:10;}
	.st15{fill:url(#SVGID_10_);stroke:#FFFFFF;stroke-width:2.16;stroke-miterlimit:10;}
	.st16{fill:url(#SVGID_11_);stroke:#FFFFFF;stroke-width:2.16;stroke-miterlimit:10;}
	.st17{fill:url(#SVGID_12_);stroke:#FFFFFF;stroke-width:2.16;stroke-miterlimit:10;}
	.st18{fill:url(#SVGID_13_);stroke:#FFFFFF;stroke-width:2.16;stroke-miterlimit:10;}
	.st19{fill:url(#SVGID_14_);stroke:#FFFFFF;stroke-width:2.16;stroke-miterlimit:10;}
	.st20{fill:url(#SVGID_15_);stroke:#FFFFFF;stroke-width:2.16;stroke-miterlimit:10;}
	.st21{fill:url(#SVGID_16_);stroke:#FFFFFF;stroke-width:2.16;stroke-miterlimit:10;}
	.st22{fill:url(#SVGID_17_);stroke:#FFFFFF;stroke-width:2.16;stroke-miterlimit:10;}
	.st23{fill:url(#SVGID_18_);stroke:#FFFFFF;stroke-width:2.16;stroke-miterlimit:10;}
	.st24{fill:url(#SVGID_19_);stroke:#FFFFFF;stroke-width:2.16;stroke-miterlimit:10;}
	.st25{fill:url(#SVGID_20_);stroke:#FFFFFF;stroke-width:2.16;stroke-miterlimit:10;}
	.st26{fill:url(#SVGID_21_);stroke:#FFFFFF;stroke-width:2.16;stroke-miterlimit:10;}
	.st27{fill:url(#SVGID_22_);stroke:#000000;stroke-width:16.3838;stroke-miterlimit:10;}
	.st28{fill:url(#SVGID_23_);stroke:#000000;stroke-width:16.3838;stroke-miterlimit:10;}
	.st29{fill:none;stroke:#000000;stroke-width:16.3838;stroke-linecap:round;stroke-miterlimit:10;}
</style>
<g id="Layer_2">
</g>
<g id="Layer_3" class="st0">
</g>
<g id="Layer_4">
</g>
<g id="Layer_5">
</g>
<g id="Layer_6">
</g>
<g id="Layer_7" class="st0">
</g>
<g id="Layer_8">
</g>
<g id="Layer_11">
</g>
<g id="Layer_12">
</g>
<g id="Layer_10">
	<g>
		<path class="st7" d="M45.08,166.81v26.36H25.25V122.2h32.82c7.32,0,12.92,0.67,16.81,2c3.88,1.33,7.35,3.72,10.4,7.15
			c3.05,3.43,4.58,7.64,4.58,12.63c0,3.5-0.81,6.92-2.44,10.24c-1.63,3.33-3.93,5.95-6.89,7.85s-5.85,3.17-8.63,3.79
			s-7.15,0.94-13.09,0.94H45.08z M44.41,153.91H57.1c4.84,0,8.24-0.95,10.19-2.86c1.95-1.91,2.93-4.09,2.93-6.55
			c0-2.88-1.09-5.16-3.26-6.86c-2.18-1.7-5.48-2.55-9.91-2.55H44.41V153.91z"/>
		<path class="st7" d="M182.96,166.81v26.36h-19.83V122.2h32.82c7.32,0,12.92,0.67,16.81,2c3.88,1.33,7.35,3.72,10.4,7.15
			c3.05,3.43,4.58,7.64,4.58,12.63c0,3.5-0.81,6.92-2.44,10.24c-1.63,3.33-3.93,5.95-6.89,7.85s-5.85,3.17-8.63,3.79
			s-7.15,0.94-13.09,0.94H182.96z M182.29,153.91h12.69c4.84,0,8.24-0.95,10.19-2.86c1.95-1.91,2.93-4.09,2.93-6.55
			c0-2.88-1.09-5.16-3.26-6.86c-2.18-1.7-5.48-2.55-9.91-2.55h-12.63V153.91z"/>
		<path class="st7" d="M296.07,137.8l-16.59,4.73c-2.23-5.62-6.96-8.42-14.18-8.42c-7.71,0-11.56,2.13-11.56,6.4
			c0,1.7,0.72,3.14,2.16,4.32c1.44,1.18,4.7,2.2,9.78,3.07c8.49,1.46,14.7,2.94,18.64,4.42c3.94,1.49,7.26,3.89,9.96,7.2
			c2.7,3.31,4.05,7.01,4.05,11.1c0,6.41-2.9,11.96-8.69,16.63c-5.79,4.68-14.38,7.02-25.75,7.02c-8.53,0-15.8-1.66-21.79-4.96
			c-5.99-3.31-9.95-8.22-11.86-14.74l18.06-3.48c2.03,6.62,7.67,9.93,16.93,9.93c4.47,0,7.79-0.74,9.99-2.21
			c2.19-1.47,3.29-3.23,3.29-5.28c0-2.08-1-3.69-2.99-4.84c-1.99-1.14-5.83-2.22-11.51-3.22c-10.6-1.87-18.16-4.43-22.67-7.67
			c-4.51-3.24-6.76-7.98-6.76-14.22c0-6.31,2.69-11.63,8.08-15.96c5.38-4.33,12.69-6.5,21.91-6.5
			C280.89,121.11,291.4,126.67,296.07,137.8z"/>
	</g>
	<g>
		<radialGradient id="SVGID_1_" cx="123.0752" cy="136.8836" r="8.6209" gradientUnits="userSpaceOnUse">
			<stop  offset="0" style="stop-color:#FFFF24"/>
			<stop  offset="0.13" style="stop-color:#B8F62E"/>
			<stop  offset="0.3881" style="stop-color:#21E243"/>
			<stop  offset="0.4582" style="stop-color:#1BBA3D"/>
			<stop  offset="0.5588" style="stop-color:#148636"/>
			<stop  offset="0.6579" style="stop-color:#0E5B2F"/>
			<stop  offset="0.7534" style="stop-color:#0A3A2A"/>
			<stop  offset="0.8443" style="stop-color:#072227"/>
			<stop  offset="0.9286" style="stop-color:#051425"/>
			<stop  offset="1" style="stop-color:#040F24"/>
		</radialGradient>
		<circle style="fill:url(#SVGID_1_);stroke:#FFFFFF;stroke-width:3.6;stroke-miterlimit:10;" cx="123.08" cy="136.88" r="8.62"/>
		<radialGradient id="SVGID_2_" cx="122.3362" cy="160.5905" r="21.0923" gradientUnits="userSpaceOnUse">
			<stop  offset="0" style="stop-color:#FFFF24"/>
			<stop  offset="0.13" style="stop-color:#B8F62E"/>
			<stop  offset="0.3881" style="stop-color:#21E243"/>
			<stop  offset="0.4582" style="stop-color:#1BBA3D"/>
			<stop  offset="0.5588" style="stop-color:#148636"/>
			<stop  offset="0.6579" style="stop-color:#0E5B2F"/>
			<stop  offset="0.7534" style="stop-color:#0A3A2A"/>
			<stop  offset="0.8443" style="stop-color:#072227"/>
			<stop  offset="0.9286" style="stop-color:#051425"/>
			<stop  offset="1" style="stop-color:#040F24"/>
		</radialGradient>
		<circle class="st3" cx="122.34" cy="160.59" r="21.09"/>
		<path class="st5" d="M144.47,132.32c0,7.29-3.31,13.18-7.4,13.18"/>
		<path class="st5" d="M155.68,169.02c0-5.32-5.48-9.62-12.25-9.62"/>
		<path class="st5" d="M141.23,188.86c0-7.38-1.78-13.36-3.97-13.36"/>
		<path class="st5" d="M103.45,188.86c0-7.39,1.79-13.37,3.99-13.37"/>
		<path class="st5" d="M88.99,169.02c0-5.32,5.48-9.62,12.25-9.62"/>
		<path class="st5" d="M99.85,132.32c0,7.29,3.31,13.18,7.4,13.18"/>
	</g>
	<g>
		<path class="st6" d="M137.32,121.81c0,0,0.04-0.28,0.1-0.81c0.03-0.27,0.07-0.59,0.12-0.98c0.08-0.4,0.17-0.85,0.28-1.36
			c0.23-1.02,0.56-2.22,1.09-3.56c0.51-1.35,1.23-2.81,2.15-4.33c0.91-1.53,2.08-3.06,3.41-4.6c1.35-1.52,2.91-3,4.62-4.41
			c1.72-1.4,3.61-2.7,5.59-3.91c1.99-1.21,4.1-2.27,6.24-3.25c4.31-1.92,8.83-3.36,13.14-4.34c2.16-0.51,4.26-0.87,6.27-1.18
			c1.01-0.13,1.99-0.26,2.93-0.38c0.95-0.09,1.87-0.18,2.75-0.26c1.77-0.12,3.39-0.22,4.84-0.24c1.44-0.06,2.7-0.01,3.74-0.02
			c2.07,0.07,3.26,0.11,3.26,0.11c1.99,0.07,3.55,1.73,3.49,3.72c-0.06,1.99-1.73,3.55-3.72,3.49c-0.1,0-0.19-0.01-0.29-0.02
			l-0.13-0.02c0,0-1.09-0.13-2.99-0.35c-0.95-0.07-2.11-0.21-3.45-0.26c-1.33-0.09-2.84-0.12-4.49-0.14
			c-0.82,0.01-1.68,0.02-2.57,0.03c-0.89,0.04-1.81,0.09-2.75,0.13c-1.88,0.14-3.87,0.31-5.91,0.62c-4.09,0.57-8.4,1.57-12.56,3.02
			c-2.07,0.75-4.12,1.57-6.05,2.54c-1.93,0.97-3.79,2.03-5.49,3.2c-1.69,1.18-3.25,2.42-4.61,3.72c-1.34,1.32-2.54,2.65-3.5,3.99
			c-0.96,1.33-1.74,2.64-2.32,3.85c-0.59,1.2-1,2.32-1.29,3.22c-0.14,0.46-0.26,0.87-0.36,1.22c-0.08,0.38-0.15,0.7-0.2,0.96
			c-0.11,0.52-0.17,0.8-0.17,0.8c-0.07,0.32-0.38,0.53-0.7,0.46C137.48,122.4,137.28,122.11,137.32,121.81z"/>
	</g>
	<g>
		<path class="st6" d="M127.32,115.47c0,0,0.09-1,0.24-2.75c0.17-1.76,0.42-4.27,0.82-7.27c0.77-6.01,2.14-14,4.29-21.87
			c2.16-7.87,5.06-15.64,8.91-21.12c0.98-1.37,2.02-2.59,3.11-3.62c1.13-1.02,2.34-1.83,3.51-2.37c1.21-0.52,2.33-0.74,3.11-0.8
			c0.79-0.03,1.22-0.02,1.22-0.02c1.95,0.06,3.47,1.69,3.41,3.64c-0.06,1.73-1.35,3.12-2.99,3.37l-1.07,0.16
			c0,0-0.07,0.01-0.22-0.03c-0.15-0.02-0.4,0-0.84,0.1c-0.44,0.16-1.07,0.45-1.82,1c-0.75,0.58-1.59,1.38-2.47,2.39
			c-1.75,2.03-3.55,4.86-5.24,8.07c-1.67,3.22-3.26,6.83-4.64,10.53c-2.8,7.39-4.88,15.12-6.19,20.96
			c-0.67,2.92-1.15,5.37-1.48,7.09c-0.32,1.73-0.5,2.72-0.5,2.72c-0.06,0.32-0.37,0.54-0.69,0.48
			C127.5,116.05,127.29,115.77,127.32,115.47z"/>
	</g>
	<g>
		<path class="st6" d="M113.72,115.11c0,0,0.08-1.16,0.22-3.19c0.02-1.01,0.11-2.22,0.1-3.62c0.03-1.4-0.01-2.98-0.07-4.7
			c-0.05-0.86-0.11-1.75-0.16-2.68c-0.09-0.92-0.18-1.87-0.27-2.85c-0.24-1.95-0.52-4-0.94-6.09c-0.39-2.1-0.94-4.23-1.55-6.37
			c-0.66-2.13-1.37-4.27-2.26-6.33c-0.89-2.05-1.84-4.08-2.96-5.94c-1.11-1.87-2.29-3.64-3.59-5.21c-1.29-1.57-2.64-2.97-4.02-4.16
			c-1.39-1.16-2.77-2.16-4.12-2.91c-1.35-0.75-2.62-1.33-3.78-1.71c-0.58-0.2-1.12-0.38-1.64-0.49c-0.51-0.12-0.97-0.26-1.41-0.31
			c-0.43-0.07-0.81-0.13-1.14-0.19c-0.34-0.03-0.62-0.05-0.85-0.07c-0.46-0.04-0.71-0.06-0.71-0.06l-0.24-0.02
			c-1.98-0.17-3.45-1.92-3.28-3.9c0.17-1.98,1.92-3.45,3.9-3.28c0.09,0.01,0.19,0.02,0.27,0.03c0,0,0.33,0.05,0.95,0.16
			c0.31,0.05,0.69,0.12,1.13,0.19c0.44,0.11,0.95,0.23,1.51,0.37c0.57,0.12,1.18,0.34,1.84,0.56c0.67,0.2,1.36,0.5,2.1,0.82
			c1.48,0.63,3.06,1.51,4.68,2.59c1.61,1.09,3.2,2.45,4.75,3.98c1.53,1.55,2.96,3.32,4.29,5.23c1.33,1.91,2.49,3.99,3.54,6.15
			c1.06,2.15,1.92,4.42,2.69,6.7c0.77,2.28,1.34,4.61,1.85,6.91c0.46,2.3,0.85,4.58,1.08,6.79c0.26,2.21,0.38,4.35,0.47,6.38
			c0.01,1.01,0.03,2,0.04,2.95c-0.02,0.95-0.04,1.87-0.05,2.75c-0.08,1.76-0.17,3.38-0.32,4.8c-0.11,1.42-0.3,2.67-0.41,3.69
			c-0.3,2.01-0.47,3.16-0.47,3.16c-0.05,0.32-0.35,0.55-0.67,0.5C113.92,115.7,113.7,115.42,113.72,115.11z"/>
	</g>
	<g>
		<path class="st6" d="M102.1,122.88c0,0-0.04-0.23-0.13-0.65c-0.04-0.21-0.09-0.47-0.15-0.78c-0.08-0.29-0.17-0.62-0.27-0.99
			c-0.09-0.37-0.24-0.78-0.4-1.22c-0.14-0.45-0.34-0.91-0.56-1.4c-0.42-0.99-1.03-2.05-1.74-3.16c-0.75-1.09-1.63-2.22-2.68-3.32
			c-1.06-1.08-2.24-2.16-3.56-3.15c-1.33-0.98-2.77-1.91-4.29-2.74c-1.53-0.82-3.13-1.56-4.77-2.21c-3.29-1.27-6.72-2.18-9.98-2.71
			c-1.63-0.29-3.22-0.46-4.72-0.59c-1.51-0.13-2.94-0.18-4.25-0.2c-1.32-0.01-2.52,0.01-3.59,0.07c-1.07,0.03-2,0.13-2.76,0.18
			c-1.52,0.16-2.39,0.26-2.39,0.26l-0.08,0.01c-1.98,0.21-3.76-1.22-3.97-3.2s1.22-3.76,3.2-3.97c0.1-0.01,0.21-0.02,0.32-0.02
			c0,0,0.97-0.02,2.67-0.01c0.85,0.03,1.88,0.02,3.06,0.11c1.18,0.06,2.51,0.18,3.95,0.33c1.44,0.17,3,0.39,4.63,0.7
			c1.63,0.32,3.34,0.68,5.09,1.17c3.49,0.94,7.12,2.31,10.56,4.06c1.71,0.89,3.37,1.88,4.95,2.94c1.56,1.08,3.03,2.25,4.36,3.47
			c1.33,1.23,2.51,2.53,3.54,3.83c1.02,1.31,1.86,2.65,2.55,3.91c0.66,1.29,1.19,2.5,1.54,3.62c0.19,0.55,0.35,1.08,0.45,1.57
			c0.12,0.49,0.23,0.94,0.29,1.36c0.07,0.42,0.13,0.79,0.18,1.11c0.03,0.31,0.05,0.58,0.07,0.79c0.04,0.43,0.06,0.66,0.06,0.66
			c0.03,0.33-0.21,0.61-0.54,0.64C102.43,123.38,102.16,123.17,102.1,122.88z"/>
	</g>
	<g>
		<path class="st6" d="M105.78,199.01c0,0-0.04,0.28-0.1,0.81c-0.03,0.26-0.07,0.59-0.12,0.98c-0.08,0.4-0.18,0.85-0.28,1.36
			c-0.23,1.02-0.57,2.21-1.09,3.55c-0.23,0.68-0.6,1.36-0.92,2.1c-0.38,0.71-0.76,1.47-1.24,2.22c-0.91,1.52-2.09,3.05-3.42,4.58
			c-1.35,1.52-2.92,2.98-4.63,4.39c-1.72,1.4-3.61,2.68-5.6,3.89c-1.99,1.21-4.1,2.25-6.24,3.23c-4.31,1.91-8.82,3.34-13.13,4.31
			c-2.15,0.5-4.26,0.86-6.26,1.17c-1.01,0.13-1.98,0.26-2.93,0.38c-0.95,0.09-1.87,0.18-2.75,0.26c-1.77,0.12-3.39,0.22-4.83,0.24
			c-1.44,0.06-2.7,0.01-3.73,0.02c-2.07-0.07-3.25-0.11-3.25-0.11c-1.99-0.06-3.55-1.73-3.49-3.72c0.06-1.99,1.73-3.55,3.72-3.49
			c0.1,0,0.19,0.01,0.29,0.02l0.13,0.02c0,0,1.09,0.13,2.99,0.34c0.95,0.07,2.11,0.21,3.45,0.26c1.33,0.09,2.84,0.12,4.49,0.15
			c0.82-0.01,1.68-0.02,2.57-0.03c0.89-0.04,1.8-0.08,2.75-0.13c1.88-0.13,3.87-0.31,5.91-0.61c4.08-0.57,8.39-1.55,12.55-3
			c2.07-0.74,4.12-1.56,6.05-2.52c1.93-0.97,3.79-2.01,5.49-3.18c1.69-1.17,3.26-2.4,4.62-3.7c1.34-1.31,2.55-2.63,3.51-3.97
			c0.5-0.66,0.91-1.33,1.31-1.96c0.35-0.66,0.75-1.26,1.01-1.87c0.59-1.2,1.01-2.31,1.29-3.21c0.14-0.46,0.26-0.87,0.36-1.22
			c0.08-0.38,0.15-0.7,0.2-0.96c0.11-0.52,0.17-0.8,0.17-0.8c0.07-0.32,0.38-0.53,0.7-0.46
			C105.62,198.42,105.81,198.71,105.78,199.01z"/>
	</g>
	<g>
		<path class="st6" d="M115.78,205.32c0,0-0.09,1-0.24,2.74c-0.17,1.75-0.42,4.25-0.82,7.24c-0.77,5.98-2.14,13.94-4.3,21.79
			c-2.16,7.84-5.07,15.58-8.92,21.03c-0.98,1.36-2.02,2.57-3.12,3.6c-1.12,1.02-2.34,1.82-3.5,2.35c-1.21,0.51-2.32,0.73-3.1,0.79
			c-0.79,0.03-1.21,0.02-1.21,0.02c-1.95-0.06-3.48-1.69-3.41-3.64c0.06-1.74,1.36-3.14,3.02-3.38l1.05-0.15
			c0,0,0.08-0.01,0.22,0.03c0.15,0.02,0.41,0,0.84-0.1c0.44-0.16,1.06-0.44,1.82-0.99c0.74-0.57,1.59-1.37,2.46-2.36
			c1.74-2.02,3.55-4.82,5.24-8.02c1.67-3.21,3.26-6.79,4.64-10.47c2.8-7.36,4.88-15.05,6.2-20.86c0.67-2.91,1.15-5.35,1.48-7.06
			c0.32-1.72,0.5-2.71,0.5-2.71c0.06-0.32,0.37-0.54,0.69-0.48C115.6,204.74,115.8,205.02,115.78,205.32z"/>
	</g>
	<g>
		<path class="st6" d="M129.38,205.67c0,0-0.08,1.15-0.22,3.17c-0.02,1-0.11,2.21-0.1,3.61c-0.03,1.4,0.01,2.97,0.07,4.69
			c0.05,0.86,0.11,1.75,0.16,2.67c0.09,0.92,0.18,1.87,0.27,2.84c0.24,1.94,0.52,3.99,0.95,6.07c0.39,2.09,0.95,4.21,1.55,6.35
			c0.66,2.12,1.38,4.25,2.26,6.3c0.89,2.05,1.85,4.05,2.97,5.91c1.11,1.86,2.3,3.62,3.59,5.18c1.3,1.56,2.65,2.95,4.02,4.13
			c1.39,1.15,2.77,2.14,4.11,2.89c1.34,0.74,2.61,1.32,3.78,1.69c0.58,0.19,1.12,0.38,1.63,0.48c0.51,0.12,0.97,0.25,1.4,0.3
			c0.43,0.07,0.81,0.13,1.14,0.18c0.33,0.03,0.62,0.05,0.85,0.07c0.46,0.04,0.71,0.06,0.71,0.06l0.24,0.02
			c1.98,0.17,3.45,1.92,3.28,3.9c-0.17,1.98-1.92,3.45-3.9,3.28c-0.09-0.01-0.19-0.02-0.27-0.03c0,0-0.33-0.05-0.94-0.15
			c-0.31-0.05-0.69-0.12-1.13-0.19c-0.44-0.11-0.94-0.23-1.51-0.37c-0.57-0.12-1.17-0.34-1.83-0.56c-0.67-0.2-1.36-0.49-2.1-0.81
			c-1.48-0.62-3.06-1.49-4.67-2.57c-1.61-1.08-3.2-2.43-4.75-3.95c-1.53-1.54-2.97-3.3-4.3-5.2c-1.33-1.9-2.49-3.97-3.55-6.12
			c-1.06-2.15-1.92-4.4-2.7-6.68c-0.77-2.27-1.35-4.6-1.86-6.88c-0.46-2.3-0.86-4.56-1.08-6.77c-0.26-2.2-0.38-4.34-0.47-6.36
			c-0.01-1.01-0.03-1.99-0.04-2.94c0.02-0.95,0.04-1.87,0.05-2.75c0.08-1.76,0.17-3.36,0.32-4.78c0.1-1.42,0.3-2.66,0.41-3.68
			c0.3-2.01,0.47-3.15,0.47-3.15c0.05-0.32,0.35-0.55,0.67-0.5C129.18,205.09,129.4,205.37,129.38,205.67z"/>
	</g>
	<g>
		<path class="st6" d="M141,197.95c0,0,0.04,0.23,0.13,0.65c0.04,0.21,0.09,0.47,0.15,0.78c0.08,0.29,0.17,0.62,0.27,0.99
			c0.09,0.37,0.24,0.77,0.4,1.21c0.14,0.44,0.34,0.91,0.57,1.4c0.42,0.99,1.03,2.05,1.75,3.15c0.75,1.09,1.64,2.21,2.68,3.3
			c1.06,1.08,2.25,2.14,3.57,3.13c1.33,0.98,2.77,1.89,4.29,2.73c1.53,0.81,3.13,1.55,4.77,2.19c3.29,1.26,6.72,2.16,9.98,2.68
			c1.62,0.28,3.21,0.45,4.72,0.59c1.51,0.12,2.93,0.18,4.25,0.2c1.32,0,2.52-0.01,3.59-0.07c1.07-0.03,1.99-0.13,2.76-0.18
			c1.52-0.16,2.39-0.26,2.39-0.26l0.08-0.01c1.98-0.21,3.76,1.22,3.97,3.2c0.21,1.98-1.22,3.76-3.2,3.97
			c-0.1,0.01-0.22,0.02-0.32,0.02c0,0-0.97,0.02-2.67,0.01c-0.85-0.03-1.88-0.02-3.05-0.11c-1.18-0.06-2.5-0.18-3.94-0.33
			c-1.44-0.17-2.99-0.39-4.62-0.7c-1.63-0.31-3.34-0.68-5.08-1.17c-3.49-0.94-7.11-2.3-10.55-4.03c-1.71-0.88-3.37-1.86-4.95-2.92
			c-1.56-1.08-3.03-2.24-4.37-3.45c-1.33-1.22-2.51-2.52-3.55-3.81c-1.02-1.31-1.86-2.63-2.56-3.9c-0.66-1.29-1.2-2.5-1.55-3.61
			c-0.19-0.55-0.35-1.08-0.46-1.57c-0.12-0.49-0.24-0.94-0.29-1.36c-0.07-0.42-0.13-0.79-0.18-1.11c-0.03-0.31-0.05-0.58-0.07-0.79
			c-0.04-0.43-0.06-0.66-0.06-0.66c-0.03-0.33,0.21-0.61,0.54-0.64C140.67,197.44,140.94,197.65,141,197.95z"/>
	</g>
	<g>
		
			<radialGradient id="SVGID_3_" cx="54.9827" cy="56.8301" r="4.3909" gradientTransform="matrix(0.6194 -0.7851 0.7851 0.6194 -4.6733 50.76)" gradientUnits="userSpaceOnUse">
			<stop  offset="0" style="stop-color:#FFFF24"/>
			<stop  offset="0.13" style="stop-color:#B8F62E"/>
			<stop  offset="0.3881" style="stop-color:#21E243"/>
			<stop  offset="0.4582" style="stop-color:#1BBA3D"/>
			<stop  offset="0.5588" style="stop-color:#148636"/>
			<stop  offset="0.6579" style="stop-color:#0E5B2F"/>
			<stop  offset="0.7534" style="stop-color:#0A3A2A"/>
			<stop  offset="0.8443" style="stop-color:#072227"/>
			<stop  offset="0.9286" style="stop-color:#051425"/>
			<stop  offset="1" style="stop-color:#040F24"/>
		</radialGradient>
		<circle style="fill:url(#SVGID_3_);stroke:#FFFFFF;stroke-width:2.16;stroke-miterlimit:10;" cx="74" cy="42.79" r="4.39"/>
		
			<radialGradient id="SVGID_4_" cx="54.6063" cy="68.9048" r="10.7429" gradientTransform="matrix(0.6194 -0.7851 0.7851 0.6194 -4.6733 50.76)" gradientUnits="userSpaceOnUse">
			<stop  offset="0" style="stop-color:#FFFF24"/>
			<stop  offset="0.13" style="stop-color:#B8F62E"/>
			<stop  offset="0.3881" style="stop-color:#21E243"/>
			<stop  offset="0.4582" style="stop-color:#1BBA3D"/>
			<stop  offset="0.5588" style="stop-color:#148636"/>
			<stop  offset="0.6579" style="stop-color:#0E5B2F"/>
			<stop  offset="0.7534" style="stop-color:#0A3A2A"/>
			<stop  offset="0.8443" style="stop-color:#072227"/>
			<stop  offset="0.9286" style="stop-color:#051425"/>
			<stop  offset="1" style="stop-color:#040F24"/>
		</radialGradient>
		<circle style="fill:url(#SVGID_4_);stroke:#FFFFFF;stroke-width:2.16;stroke-miterlimit:10;" cx="83.25" cy="50.57" r="10.74"/>
		<path class="st12" d="M78.92,32.8c2.91,2.3,4.23,5.48,2.94,7.12"/>
		<path class="st12" d="M97.14,39.89c-2.13-1.68-5.58-0.84-7.71,1.87"/>
		<path class="st12" d="M100.51,51.93c-2.95-2.33-5.9-3.5-6.59-2.62"/>
		<path class="st12" d="M88.59,67.04c-2.96-2.33-4.78-4.93-4.09-5.82"/>
		<path class="st12" d="M76.1,66.56c-2.13-1.68-2.12-5.23,0.02-7.93"/>
		<path class="st12" d="M64.85,50.64c2.91,2.3,6.32,2.84,7.61,1.2"/>
	</g>
	<g>
		
			<radialGradient id="SVGID_5_" cx="140.2588" cy="-6.5434" r="4.3909" gradientTransform="matrix(0.7403 0.6723 -0.6723 0.7403 51.2063 -42.8739)" gradientUnits="userSpaceOnUse">
			<stop  offset="0" style="stop-color:#FFFF24"/>
			<stop  offset="0.13" style="stop-color:#B8F62E"/>
			<stop  offset="0.3881" style="stop-color:#21E243"/>
			<stop  offset="0.4582" style="stop-color:#1BBA3D"/>
			<stop  offset="0.5588" style="stop-color:#148636"/>
			<stop  offset="0.6579" style="stop-color:#0E5B2F"/>
			<stop  offset="0.7534" style="stop-color:#0A3A2A"/>
			<stop  offset="0.8443" style="stop-color:#072227"/>
			<stop  offset="0.9286" style="stop-color:#051425"/>
			<stop  offset="1" style="stop-color:#040F24"/>
		</radialGradient>
		<circle style="fill:url(#SVGID_5_);stroke:#FFFFFF;stroke-width:2.16;stroke-miterlimit:10;" cx="159.44" cy="46.58" r="4.39"/>
		
			<radialGradient id="SVGID_6_" cx="139.8824" cy="5.5313" r="10.7429" gradientTransform="matrix(0.7403 0.6723 -0.6723 0.7403 51.2063 -42.8739)" gradientUnits="userSpaceOnUse">
			<stop  offset="0" style="stop-color:#FFFF24"/>
			<stop  offset="0.13" style="stop-color:#B8F62E"/>
			<stop  offset="0.3881" style="stop-color:#21E243"/>
			<stop  offset="0.4582" style="stop-color:#1BBA3D"/>
			<stop  offset="0.5588" style="stop-color:#148636"/>
			<stop  offset="0.6579" style="stop-color:#0E5B2F"/>
			<stop  offset="0.7534" style="stop-color:#0A3A2A"/>
			<stop  offset="0.8443" style="stop-color:#072227"/>
			<stop  offset="0.9286" style="stop-color:#051425"/>
			<stop  offset="1" style="stop-color:#040F24"/>
		</radialGradient>
		<circle class="st10" cx="151.04" cy="55.26" r="10.74"/>
		<path class="st12" d="M169.07,52.18c-2.5,2.75-5.76,3.84-7.3,2.44"/>
		<path class="st12" d="M160.73,69.86c1.82-2,1.23-5.5-1.33-7.82"/>
		<path class="st12" d="M148.48,72.39c2.53-2.78,3.9-5.64,3.08-6.4"/>
		<path class="st12" d="M134.24,59.45c2.53-2.79,5.25-4.43,6.09-3.68"/>
		<path class="st12" d="M135.58,47.02c1.82-2,5.36-1.75,7.91,0.57"/>
		<path class="st12" d="M152.24,36.9c-2.5,2.75-3.27,6.1-1.72,7.5"/>
	</g>
	<g>
		
			<radialGradient id="SVGID_7_" cx="-92.3631" cy="205.3082" r="4.3909" gradientTransform="matrix(-0.5437 0.8393 -0.8393 -0.5437 290.8936 465.5439)" gradientUnits="userSpaceOnUse">
			<stop  offset="0" style="stop-color:#FFFF24"/>
			<stop  offset="0.13" style="stop-color:#B8F62E"/>
			<stop  offset="0.3881" style="stop-color:#21E243"/>
			<stop  offset="0.4582" style="stop-color:#1BBA3D"/>
			<stop  offset="0.5588" style="stop-color:#148636"/>
			<stop  offset="0.6579" style="stop-color:#0E5B2F"/>
			<stop  offset="0.7534" style="stop-color:#0A3A2A"/>
			<stop  offset="0.8443" style="stop-color:#072227"/>
			<stop  offset="0.9286" style="stop-color:#051425"/>
			<stop  offset="1" style="stop-color:#040F24"/>
		</radialGradient>
		<circle class="st11" cx="168.79" cy="276.4" r="4.39"/>
		
			<radialGradient id="SVGID_8_" cx="-92.7395" cy="217.3829" r="10.7429" gradientTransform="matrix(-0.5437 0.8393 -0.8393 -0.5437 290.8936 465.5439)" gradientUnits="userSpaceOnUse">
			<stop  offset="0" style="stop-color:#FFFF24"/>
			<stop  offset="0.13" style="stop-color:#B8F62E"/>
			<stop  offset="0.3881" style="stop-color:#21E243"/>
			<stop  offset="0.4582" style="stop-color:#1BBA3D"/>
			<stop  offset="0.5588" style="stop-color:#148636"/>
			<stop  offset="0.6579" style="stop-color:#0E5B2F"/>
			<stop  offset="0.7534" style="stop-color:#0A3A2A"/>
			<stop  offset="0.8443" style="stop-color:#072227"/>
			<stop  offset="0.9286" style="stop-color:#051425"/>
			<stop  offset="1" style="stop-color:#040F24"/>
		</radialGradient>
		<circle class="st13" cx="158.86" cy="269.52" r="10.74"/>
		<path class="st12" d="M164.82,286.81c-3.12-2.02-4.72-5.07-3.59-6.81"/>
		<path class="st12" d="M146.03,281.44c2.27,1.47,5.63,0.32,7.51-2.57"/>
		<path class="st12" d="M141.55,269.77c3.16,2.04,6.2,2.94,6.81,2"/>
		<path class="st12" d="M152.01,253.62c3.16,2.05,5.22,4.47,4.61,5.41"/>
		<path class="st12" d="M164.49,252.93c2.27,1.47,2.59,5.01,0.72,7.9"/>
		<path class="st12" d="M177.18,267.74c-3.12-2.02-6.55-2.24-7.68-0.49"/>
	</g>
	<g>
		
			<radialGradient id="SVGID_9_" cx="-138.8881" cy="208.2709" r="4.3909" gradientTransform="matrix(-0.8064 -0.5914 0.5914 -0.8064 -151.0637 360.8411)" gradientUnits="userSpaceOnUse">
			<stop  offset="0" style="stop-color:#FFFF24"/>
			<stop  offset="0.13" style="stop-color:#B8F62E"/>
			<stop  offset="0.3881" style="stop-color:#21E243"/>
			<stop  offset="0.4582" style="stop-color:#1BBA3D"/>
			<stop  offset="0.5588" style="stop-color:#148636"/>
			<stop  offset="0.6579" style="stop-color:#0E5B2F"/>
			<stop  offset="0.7534" style="stop-color:#0A3A2A"/>
			<stop  offset="0.8443" style="stop-color:#072227"/>
			<stop  offset="0.9286" style="stop-color:#051425"/>
			<stop  offset="1" style="stop-color:#040F24"/>
		</radialGradient>
		<circle class="st14" cx="84.11" cy="275.04" r="4.39"/>
		
			<radialGradient id="SVGID_10_" cx="-139.2645" cy="220.3455" r="10.7429" gradientTransform="matrix(-0.8064 -0.5914 0.5914 -0.8064 -151.0637 360.8411)" gradientUnits="userSpaceOnUse">
			<stop  offset="0" style="stop-color:#FFFF24"/>
			<stop  offset="0.13" style="stop-color:#B8F62E"/>
			<stop  offset="0.3881" style="stop-color:#21E243"/>
			<stop  offset="0.4582" style="stop-color:#1BBA3D"/>
			<stop  offset="0.5588" style="stop-color:#148636"/>
			<stop  offset="0.6579" style="stop-color:#0E5B2F"/>
			<stop  offset="0.7534" style="stop-color:#0A3A2A"/>
			<stop  offset="0.8443" style="stop-color:#072227"/>
			<stop  offset="0.9286" style="stop-color:#051425"/>
			<stop  offset="1" style="stop-color:#040F24"/>
		</radialGradient>
		<circle class="st15" cx="91.55" cy="265.53" r="10.74"/>
		<path class="st12" d="M73.95,270.47c2.2-2.99,5.33-4.42,7.01-3.19"/>
		<path class="st12" d="M80.4,252.02c-1.6,2.18-0.65,5.6,2.14,7.64"/>
		<path class="st12" d="M92.31,248.23c-2.22,3.03-3.29,6.02-2.39,6.68"/>
		<path class="st12" d="M107.83,259.61c-2.23,3.04-4.76,4.95-5.67,4.29"/>
		<path class="st12" d="M107.79,272.11c-1.6,2.18-5.15,2.3-7.93,0.26"/>
		<path class="st12" d="M92.27,283.91c2.2-2.99,2.61-6.41,0.93-7.64"/>
	</g>
	<g>
		
			<radialGradient id="SVGID_11_" cx="-20.3743" cy="67.233" r="4.3909" gradientTransform="matrix(0.0498 -0.9988 0.9988 0.0498 -22.3999 71.8607)" gradientUnits="userSpaceOnUse">
			<stop  offset="0" style="stop-color:#FFFF24"/>
			<stop  offset="0.13" style="stop-color:#B8F62E"/>
			<stop  offset="0.3881" style="stop-color:#21E243"/>
			<stop  offset="0.4582" style="stop-color:#1BBA3D"/>
			<stop  offset="0.5588" style="stop-color:#148636"/>
			<stop  offset="0.6579" style="stop-color:#0E5B2F"/>
			<stop  offset="0.7534" style="stop-color:#0A3A2A"/>
			<stop  offset="0.8443" style="stop-color:#072227"/>
			<stop  offset="0.9286" style="stop-color:#051425"/>
			<stop  offset="1" style="stop-color:#040F24"/>
		</radialGradient>
		<circle class="st16" cx="43.74" cy="95.56" r="4.39"/>
		
			<radialGradient id="SVGID_12_" cx="-20.7507" cy="79.3076" r="10.7429" gradientTransform="matrix(0.0498 -0.9988 0.9988 0.0498 -22.3999 71.8607)" gradientUnits="userSpaceOnUse">
			<stop  offset="0" style="stop-color:#FFFF24"/>
			<stop  offset="0.13" style="stop-color:#B8F62E"/>
			<stop  offset="0.3881" style="stop-color:#21E243"/>
			<stop  offset="0.4582" style="stop-color:#1BBA3D"/>
			<stop  offset="0.5588" style="stop-color:#148636"/>
			<stop  offset="0.6579" style="stop-color:#0E5B2F"/>
			<stop  offset="0.7534" style="stop-color:#0A3A2A"/>
			<stop  offset="0.8443" style="stop-color:#072227"/>
			<stop  offset="0.9286" style="stop-color:#051425"/>
			<stop  offset="1" style="stop-color:#040F24"/>
		</radialGradient>
		<circle class="st17" cx="55.78" cy="96.53" r="10.74"/>
		<path class="st12" d="M41.96,84.56c3.71,0.18,6.62,2.02,6.52,4.1"/>
		<path class="st12" d="M60.91,79.78c-2.7-0.13-5.03,2.54-5.2,5.99"/>
		<path class="st12" d="M70.64,87.64c-3.76-0.19-6.84,0.57-6.9,1.68"/>
		<path class="st12" d="M69.68,106.86c-3.76-0.19-6.76-1.25-6.7-2.37"/>
		<path class="st12" d="M59.22,113.71c-2.7-0.13-4.75-3.03-4.58-6.48"/>
		<path class="st12" d="M40.83,107.25c3.71,0.18,6.79-1.35,6.89-3.43"/>
	</g>
	<g>
		
			<radialGradient id="SVGID_13_" cx="111.2064" cy="98.6753" r="4.3909" gradientTransform="matrix(0.0648 0.9979 -0.9979 0.0648 297.7841 -26.2404)" gradientUnits="userSpaceOnUse">
			<stop  offset="0" style="stop-color:#FFFF24"/>
			<stop  offset="0.13" style="stop-color:#B8F62E"/>
			<stop  offset="0.3881" style="stop-color:#21E243"/>
			<stop  offset="0.4582" style="stop-color:#1BBA3D"/>
			<stop  offset="0.5588" style="stop-color:#148636"/>
			<stop  offset="0.6579" style="stop-color:#0E5B2F"/>
			<stop  offset="0.7534" style="stop-color:#0A3A2A"/>
			<stop  offset="0.8443" style="stop-color:#072227"/>
			<stop  offset="0.9286" style="stop-color:#051425"/>
			<stop  offset="1" style="stop-color:#040F24"/>
		</radialGradient>
		<circle class="st18" cx="206.52" cy="91.13" r="4.39"/>
		
			<radialGradient id="SVGID_14_" cx="110.83" cy="110.7499" r="10.7429" gradientTransform="matrix(0.0648 0.9979 -0.9979 0.0648 297.7841 -26.2404)" gradientUnits="userSpaceOnUse">
			<stop  offset="0" style="stop-color:#FFFF24"/>
			<stop  offset="0.13" style="stop-color:#B8F62E"/>
			<stop  offset="0.3881" style="stop-color:#21E243"/>
			<stop  offset="0.4582" style="stop-color:#1BBA3D"/>
			<stop  offset="0.5588" style="stop-color:#148636"/>
			<stop  offset="0.6579" style="stop-color:#0E5B2F"/>
			<stop  offset="0.7534" style="stop-color:#0A3A2A"/>
			<stop  offset="0.8443" style="stop-color:#072227"/>
			<stop  offset="0.9286" style="stop-color:#051425"/>
			<stop  offset="1" style="stop-color:#040F24"/>
		</radialGradient>
		<circle class="st19" cx="194.45" cy="91.54" r="10.74"/>
		<path class="st12" d="M209.55,101.85c-3.7,0.24-6.81-1.25-6.95-3.33"/>
		<path class="st12" d="M191.27,108.76c2.7-0.18,4.71-3.1,4.48-6.55"/>
		<path class="st12" d="M180.71,102.07c3.75-0.24,6.73-1.34,6.66-2.46"/>
		<path class="st12" d="M179.46,82.87c3.76-0.24,6.86,0.47,6.93,1.59"/>
		<path class="st12" d="M189.07,74.87c2.7-0.18,5.07,2.47,5.29,5.91"/>
		<path class="st12" d="M208.08,79.17c-3.7,0.24-6.59,2.12-6.46,4.2"/>
	</g>
	<g>
		
			<radialGradient id="SVGID_15_" cx="-14.4785" cy="189.2675" r="4.3909" gradientTransform="matrix(-0.1058 0.9944 -0.9944 -0.1058 385.332 260.8374)" gradientUnits="userSpaceOnUse">
			<stop  offset="0" style="stop-color:#FFFF24"/>
			<stop  offset="0.13" style="stop-color:#B8F62E"/>
			<stop  offset="0.3881" style="stop-color:#21E243"/>
			<stop  offset="0.4582" style="stop-color:#1BBA3D"/>
			<stop  offset="0.5588" style="stop-color:#148636"/>
			<stop  offset="0.6579" style="stop-color:#0E5B2F"/>
			<stop  offset="0.7534" style="stop-color:#0A3A2A"/>
			<stop  offset="0.8443" style="stop-color:#072227"/>
			<stop  offset="0.9286" style="stop-color:#051425"/>
			<stop  offset="1" style="stop-color:#040F24"/>
		</radialGradient>
		<circle class="st20" cx="198.66" cy="226.41" r="4.39"/>
		
			<radialGradient id="SVGID_16_" cx="-14.8549" cy="201.3421" r="10.7429" gradientTransform="matrix(-0.1058 0.9944 -0.9944 -0.1058 385.332 260.8374)" gradientUnits="userSpaceOnUse">
			<stop  offset="0" style="stop-color:#FFFF24"/>
			<stop  offset="0.13" style="stop-color:#B8F62E"/>
			<stop  offset="0.3881" style="stop-color:#21E243"/>
			<stop  offset="0.4582" style="stop-color:#1BBA3D"/>
			<stop  offset="0.5588" style="stop-color:#148636"/>
			<stop  offset="0.6579" style="stop-color:#0E5B2F"/>
			<stop  offset="0.7534" style="stop-color:#0A3A2A"/>
			<stop  offset="0.8443" style="stop-color:#072227"/>
			<stop  offset="0.9286" style="stop-color:#051425"/>
			<stop  offset="1" style="stop-color:#040F24"/>
		</radialGradient>
		<circle class="st21" cx="186.69" cy="224.76" r="10.74"/>
		<path class="st12" d="M199.82,237.49c-3.69-0.39-6.5-2.39-6.28-4.46"/>
		<path class="st12" d="M180.63,241.2c2.69,0.29,5.17-2.26,5.53-5.69"/>
		<path class="st12" d="M171.36,232.8c3.74,0.4,6.86-0.18,6.98-1.29"/>
		<path class="st12" d="M173.39,213.67c3.74,0.4,6.68,1.63,6.56,2.74"/>
		<path class="st12" d="M184.22,207.42c2.69,0.29,4.58,3.29,4.21,6.72"/>
		<path class="st12" d="M202.22,214.9c-3.69-0.39-6.86,0.97-7.08,3.04"/>
	</g>
	<g>
		
			<radialGradient id="SVGID_17_" cx="-120.6395" cy="163.1939" r="4.3909" gradientTransform="matrix(0.0103 -0.9999 0.9999 0.0103 -126.5356 107.3167)" gradientUnits="userSpaceOnUse">
			<stop  offset="0" style="stop-color:#FFFF24"/>
			<stop  offset="0.13" style="stop-color:#B8F62E"/>
			<stop  offset="0.3881" style="stop-color:#21E243"/>
			<stop  offset="0.4582" style="stop-color:#1BBA3D"/>
			<stop  offset="0.5588" style="stop-color:#148636"/>
			<stop  offset="0.6579" style="stop-color:#0E5B2F"/>
			<stop  offset="0.7534" style="stop-color:#0A3A2A"/>
			<stop  offset="0.8443" style="stop-color:#072227"/>
			<stop  offset="0.9286" style="stop-color:#051425"/>
			<stop  offset="1" style="stop-color:#040F24"/>
		</radialGradient>
		<circle class="st22" cx="35.41" cy="229.62" r="4.39"/>
		
			<radialGradient id="SVGID_18_" cx="-121.0159" cy="175.2686" r="10.7429" gradientTransform="matrix(0.0103 -0.9999 0.9999 0.0103 -126.5356 107.3167)" gradientUnits="userSpaceOnUse">
			<stop  offset="0" style="stop-color:#FFFF24"/>
			<stop  offset="0.13" style="stop-color:#B8F62E"/>
			<stop  offset="0.3881" style="stop-color:#21E243"/>
			<stop  offset="0.4582" style="stop-color:#1BBA3D"/>
			<stop  offset="0.5588" style="stop-color:#148636"/>
			<stop  offset="0.6579" style="stop-color:#0E5B2F"/>
			<stop  offset="0.7534" style="stop-color:#0A3A2A"/>
			<stop  offset="0.8443" style="stop-color:#072227"/>
			<stop  offset="0.9286" style="stop-color:#051425"/>
			<stop  offset="1" style="stop-color:#040F24"/>
		</radialGradient>
		<circle class="st23" cx="47.48" cy="230.12" r="10.74"/>
		<path class="st12" d="M33.2,218.7c3.71,0.04,6.7,1.75,6.68,3.84"/>
		<path class="st12" d="M51.95,213.19c-2.71-0.03-4.93,2.74-4.96,6.19"/>
		<path class="st12" d="M61.98,220.65c-3.76-0.04-6.81,0.84-6.82,1.95"/>
		<path class="st12" d="M61.78,239.89c-3.76-0.04-6.8-0.98-6.79-2.1"/>
		<path class="st12" d="M51.6,247.15c-2.71-0.03-4.87-2.84-4.84-6.29"/>
		<path class="st12" d="M32.97,241.43c3.71,0.04,6.73-1.62,6.75-3.7"/>
	</g>
</g>
<g id="Layer_13">
</g>
<g id="Layer_9">
</g>
<g id="Layer_1">
</g>
</svg>
