<svg xmlns="http://www.w3.org/2000/svg" xmlns:xlink="http://www.w3.org/1999/xlink" viewBox="0 0 282.67 86.79"><defs><style>.cls-1{fill:#fff;}.cls-2,.cls-3,.cls-4{stroke:#fff;stroke-miterlimit:10;stroke-width:3.6px;}.cls-2{fill:url(#New_Gradient_Swatch_6);}.cls-3{fill:url(#New_Gradient_Swatch_6-2);}.cls-4{fill:none;stroke-linecap:round;}</style><radialGradient id="New_Gradient_Swatch_6" cx="103.09" cy="22.64" r="8.62" gradientUnits="userSpaceOnUse"><stop offset="0" stop-color="#ffff24"/><stop offset="0.13" stop-color="#b8f62e"/><stop offset="0.39" stop-color="#21e243"/><stop offset="0.46" stop-color="#1bba3d"/><stop offset="0.56" stop-color="#148636"/><stop offset="0.66" stop-color="#0e5b2f"/><stop offset="0.75" stop-color="#0a3a2a"/><stop offset="0.84" stop-color="#072227"/><stop offset="0.93" stop-color="#051425"/><stop offset="1" stop-color="#040f24"/></radialGradient><radialGradient id="New_Gradient_Swatch_6-2" cx="102.35" cy="46.34" r="21.09" xlink:href="#New_Gradient_Swatch_6"/></defs><title>PoPS_Logo_simple</title><g id="Layer_10" data-name="Layer 10"><path class="cls-1" d="M25.09,52.56V78.92H5.26v-71H38.09q11,0,16.81,2A24.53,24.53,0,0,1,65.3,17.1a18.33,18.33,0,0,1,4.58,12.63A23.08,23.08,0,0,1,67.43,40a19.06,19.06,0,0,1-6.89,7.85,27.07,27.07,0,0,1-8.63,3.79,65.75,65.75,0,0,1-13.09.94Zm-.67-12.89H37.11q7.26,0,10.19-2.86a8.91,8.91,0,0,0,2.93-6.55A8.26,8.26,0,0,0,47,23.39q-3.27-2.55-9.91-2.55H24.42Z"/><path class="cls-1" d="M163,52.56V78.92H143.15v-71H176q11,0,16.81,2a24.53,24.53,0,0,1,10.4,7.15,18.33,18.33,0,0,1,4.58,12.63A23.08,23.08,0,0,1,205.32,40a19.06,19.06,0,0,1-6.89,7.85,27.07,27.07,0,0,1-8.63,3.79,65.75,65.75,0,0,1-13.09.94Zm-.67-12.89H175q7.26,0,10.19-2.86a8.91,8.91,0,0,0,2.93-6.55,8.26,8.26,0,0,0-3.26-6.86q-3.27-2.55-9.91-2.55H162.3Z"/><path class="cls-1" d="M276.09,23.55l-16.59,4.73q-3.35-8.42-14.18-8.42-11.56,0-11.56,6.4a5.38,5.38,0,0,0,2.16,4.32q2.16,1.77,9.78,3.07,12.73,2.19,18.64,4.42a23.31,23.31,0,0,1,10,7.2,17.11,17.11,0,0,1,4.05,11.1q0,9.62-8.69,16.63t-25.75,7q-12.8,0-21.79-5a24,24,0,0,1-11.86-14.74l18.06-3.48q3,9.93,16.93,9.93,6.7,0,10-2.21t3.29-5.28a5.33,5.33,0,0,0-3-4.84q-3-1.72-11.51-3.22-15.9-2.81-22.67-7.67t-6.76-14.22q0-9.46,8.08-16t21.91-6.5Q269.08,6.86,276.09,23.55Z"/><circle class="cls-2" cx="103.09" cy="22.64" r="8.62"/><circle class="cls-3" cx="102.35" cy="46.34" r="21.09"/><path class="cls-4" d="M124.49,18.07c0,7.29-3.31,13.18-7.4,13.18"/><path class="cls-4" d="M135.7,54.77c0-5.32-5.48-9.62-12.25-9.62"/><path class="cls-4" d="M121.24,74.61c0-7.38-1.78-13.36-4-13.36"/><path class="cls-4" d="M83.46,74.61c0-7.39,1.79-13.37,4-13.37"/><path class="cls-4" d="M69,54.77c0-5.32,5.48-9.62,12.25-9.62"/><path class="cls-4" d="M79.87,18.07c0,7.29,3.31,13.18,7.4,13.18"/></g></svg>