<svg xmlns="http://www.w3.org/2000/svg" xmlns:xlink="http://www.w3.org/1999/xlink" viewBox="0 0 319.61 319.61"><defs><style>.cls-1{font-size:106.48px;fill:#fff;font-family:FranklinGothic-Demi, Franklin Gothic Demi;}.cls-2{fill:#ed1c24;letter-spacing:0em;}.cls-10,.cls-11,.cls-12,.cls-13,.cls-14,.cls-15,.cls-16,.cls-17,.cls-18,.cls-19,.cls-20,.cls-21,.cls-22,.cls-23,.cls-3,.cls-4,.cls-5,.cls-7,.cls-8,.cls-9{stroke:#fff;stroke-miterlimit:10;}.cls-3,.cls-4,.cls-5{stroke-width:3.6px;}.cls-3{fill:url(#New_Gradient_Swatch_6);}.cls-4{fill:url(#New_Gradient_Swatch_6-2);}.cls-5,.cls-9{fill:none;stroke-linecap:round;}.cls-6{fill:red;}.cls-10,.cls-11,.cls-12,.cls-13,.cls-14,.cls-15,.cls-16,.cls-17,.cls-18,.cls-19,.cls-20,.cls-21,.cls-22,.cls-23,.cls-7,.cls-8,.cls-9{stroke-width:2.16px;}.cls-7{fill:url(#New_Gradient_Swatch_6-3);}.cls-8{fill:url(#New_Gradient_Swatch_6-4);}.cls-10{fill:url(#New_Gradient_Swatch_6-5);}.cls-11{fill:url(#New_Gradient_Swatch_6-6);}.cls-12{fill:url(#New_Gradient_Swatch_6-7);}.cls-13{fill:url(#New_Gradient_Swatch_6-8);}.cls-14{fill:url(#New_Gradient_Swatch_6-9);}.cls-15{fill:url(#New_Gradient_Swatch_6-10);}.cls-16{fill:url(#New_Gradient_Swatch_6-11);}.cls-17{fill:url(#New_Gradient_Swatch_6-12);}.cls-18{fill:url(#New_Gradient_Swatch_6-13);}.cls-19{fill:url(#New_Gradient_Swatch_6-14);}.cls-20{fill:url(#New_Gradient_Swatch_6-15);}.cls-21{fill:url(#New_Gradient_Swatch_6-16);}.cls-22{fill:url(#New_Gradient_Swatch_6-17);}.cls-23{fill:url(#New_Gradient_Swatch_6-18);}</style><radialGradient id="New_Gradient_Swatch_6" cx="127.81" cy="136.4" r="8.62" gradientUnits="userSpaceOnUse"><stop offset="0" stop-color="#ffff24"/><stop offset="0.13" stop-color="#b8f62e"/><stop offset="0.39" stop-color="#21e243"/><stop offset="0.46" stop-color="#1bba3d"/><stop offset="0.56" stop-color="#148636"/><stop offset="0.66" stop-color="#0e5b2f"/><stop offset="0.75" stop-color="#0a3a2a"/><stop offset="0.84" stop-color="#072227"/><stop offset="0.93" stop-color="#051425"/><stop offset="1" stop-color="#040f24"/></radialGradient><radialGradient id="New_Gradient_Swatch_6-2" cx="127.07" cy="160.11" r="21.09" xlink:href="#New_Gradient_Swatch_6"/><radialGradient id="New_Gradient_Swatch_6-3" cx="-68.3" cy="321.37" r="4.39" gradientTransform="translate(147.04 -279.06)" xlink:href="#New_Gradient_Swatch_6"/><radialGradient id="New_Gradient_Swatch_6-4" cx="-68.68" cy="333.45" r="10.74" gradientTransform="translate(156.66 -283.37)" xlink:href="#New_Gradient_Swatch_6"/><radialGradient id="New_Gradient_Swatch_6-5" cx="57.06" cy="-233.69" r="4.39" gradientTransform="translate(-69.52 -10.96) rotate(90)" xlink:href="#New_Gradient_Swatch_6"/><radialGradient id="New_Gradient_Swatch_6-6" cx="56.68" cy="-221.62" r="10.74" gradientTransform="translate(-65.84 -1.9) rotate(90)" xlink:href="#New_Gradient_Swatch_6"/><radialGradient id="New_Gradient_Swatch_6-7" cx="-608.77" cy="-77.55" r="4.39" gradientTransform="translate(-435.24 198.37) rotate(180)" xlink:href="#New_Gradient_Swatch_6"/><radialGradient id="New_Gradient_Swatch_6-8" cx="-609.14" cy="-65.48" r="10.74" gradientTransform="translate(-445.54 203.56) rotate(180)" xlink:href="#New_Gradient_Swatch_6"/><radialGradient id="New_Gradient_Swatch_6-9" cx="-743.21" cy="408.17" r="4.39" gradientTransform="translate(-319.33 -468.65) rotate(-90)" xlink:href="#New_Gradient_Swatch_6"/><radialGradient id="New_Gradient_Swatch_6-10" cx="-743.59" cy="420.24" r="10.74" gradientTransform="translate(-323.96 -478.54) rotate(-90)" xlink:href="#New_Gradient_Swatch_6"/><radialGradient id="New_Gradient_Swatch_6-11" cx="-335.7" cy="404.12" r="4.39" gradientTransform="translate(384.17 -309.05)" xlink:href="#New_Gradient_Swatch_6"/><radialGradient id="New_Gradient_Swatch_6-12" cx="-336.08" cy="416.2" r="10.74" gradientTransform="translate(396.59 -320.15)" xlink:href="#New_Gradient_Swatch_6"/><radialGradient id="New_Gradient_Swatch_6-13" cx="-200.01" cy="-237.98" r="4.39" gradientTransform="translate(-26.72 290.65) rotate(90)" xlink:href="#New_Gradient_Swatch_6"/><radialGradient id="New_Gradient_Swatch_6-14" cx="-200.38" cy="-225.91" r="10.74" gradientTransform="translate(-26.72 291.44) rotate(90)" xlink:href="#New_Gradient_Swatch_6"/><radialGradient id="New_Gradient_Swatch_6-15" cx="-383.25" cy="-146.12" r="4.39" gradientTransform="translate(-179.86 79.81) rotate(180)" xlink:href="#New_Gradient_Swatch_6"/><radialGradient id="New_Gradient_Swatch_6-16" cx="-383.63" cy="-134.05" r="10.74" gradientTransform="translate(-192.2 90.23) rotate(180)" xlink:href="#New_Gradient_Swatch_6"/><radialGradient id="New_Gradient_Swatch_6-17" cx="-449.29" cy="500.5" r="4.39" gradientTransform="translate(489.44 -271.36)" xlink:href="#New_Gradient_Swatch_6"/><radialGradient id="New_Gradient_Swatch_6-18" cx="-449.67" cy="512.58" r="10.74" gradientTransform="translate(501.88 -282.94)" xlink:href="#New_Gradient_Swatch_6"/></defs><title>PoPS_Logo</title><g id="Layer_10" data-name="Layer 10"><text class="cls-1" transform="translate(21.63 192.68) scale(1.17 1)">P<tspan class="cls-2" x="64.26" y="0" xml:space="preserve">  </tspan><tspan x="117.51" y="0">PS</tspan></text><circle class="cls-3" cx="127.81" cy="136.4" r="8.62"/><circle class="cls-4" cx="127.07" cy="160.11" r="21.09"/><path class="cls-5" d="M149.21,131.84c0,7.29-3.31,13.18-7.4,13.18"/><path class="cls-5" d="M160.42,168.54c0-5.32-5.48-9.62-12.25-9.62"/><path class="cls-5" d="M146,188.38c0-7.38-1.78-13.36-4-13.36"/><path class="cls-5" d="M108.18,188.38c0-7.39,1.79-13.37,4-13.37"/><path class="cls-5" d="M93.73,168.54c0-5.32,5.48-9.62,12.25-9.62"/><path class="cls-5" d="M104.59,131.84c0,7.29,3.31,13.18,7.4,13.18"/><path class="cls-6" d="M142.06,121.33l.1-.81.12-1,.28-1.36a23.93,23.93,0,0,1,1.09-3.56,26.92,26.92,0,0,1,2.15-4.33,33.36,33.36,0,0,1,3.41-4.6,41.84,41.84,0,0,1,4.62-4.41,50.27,50.27,0,0,1,5.59-3.91,59.87,59.87,0,0,1,6.24-3.25,70.83,70.83,0,0,1,13.14-4.34c2.16-.51,4.26-.87,6.27-1.18l2.93-.38,2.75-.26c1.77-.12,3.39-.22,4.84-.24s2.7,0,3.74,0l3.26.11a3.61,3.61,0,1,1-.24,7.21l-.29,0-.13,0-3-.35c-1-.07-2.11-.21-3.45-.26s-2.84-.12-4.49-.14l-2.57,0-2.75.13c-1.88.14-3.87.31-5.91.62a66.1,66.1,0,0,0-12.56,3,56,56,0,0,0-6.05,2.54,46.91,46.91,0,0,0-5.49,3.2,39,39,0,0,0-4.61,3.72,31,31,0,0,0-3.5,4,25,25,0,0,0-2.32,3.85,22.43,22.43,0,0,0-1.29,3.22l-.36,1.22-.2,1-.17.8a.59.59,0,0,1-1.17-.2Z"/><path class="cls-6" d="M132.06,115l.24-2.75c.17-1.76.42-4.27.82-7.27a164.81,164.81,0,0,1,4.29-21.87c2.16-7.87,5.06-15.64,8.91-21.12a24.5,24.5,0,0,1,3.11-3.62A14.15,14.15,0,0,1,152.94,56a10,10,0,0,1,3.11-.8c.79,0,1.22,0,1.22,0a3.53,3.53,0,0,1,.41,7l-1.07.16a.61.61,0,0,1-.22,0,2.61,2.61,0,0,0-.84.1,7.21,7.21,0,0,0-1.82,1,18,18,0,0,0-2.47,2.39A44.51,44.51,0,0,0,146,73.86a97.22,97.22,0,0,0-4.64,10.53,161.73,161.73,0,0,0-6.19,21c-.67,2.92-1.15,5.37-1.48,7.09l-.5,2.72a.59.59,0,0,1-1.17-.16Z"/><path class="cls-6" d="M118.46,114.63l.22-3.19c0-1,.11-2.22.1-3.62s0-3-.07-4.7l-.16-2.68-.27-2.85c-.24-2-.52-4-.94-6.09s-.94-4.23-1.55-6.37a63,63,0,0,0-2.26-6.33,50.24,50.24,0,0,0-3-5.94A41.84,41.84,0,0,0,107,67.64a34.7,34.7,0,0,0-4-4.16,27.62,27.62,0,0,0-4.12-2.91,22,22,0,0,0-3.78-1.71,14.44,14.44,0,0,0-1.64-.49A12.58,12.58,0,0,0,92,58.06l-1.14-.19L90,57.81l-.71-.06-.24,0a3.61,3.61,0,0,1,.63-7.18l.27,0,.95.16,1.13.19,1.51.37a18.61,18.61,0,0,1,1.84.56,20.67,20.67,0,0,1,2.1.82,28.48,28.48,0,0,1,4.68,2.59,33.66,33.66,0,0,1,4.75,4,40.24,40.24,0,0,1,4.29,5.23,46.88,46.88,0,0,1,3.54,6.15,54.73,54.73,0,0,1,2.69,6.7,66.85,66.85,0,0,1,1.85,6.91c.46,2.3.85,4.58,1.08,6.79s.38,4.35.47,6.38q0,1.52,0,3l-.05,2.75c-.08,1.76-.17,3.38-.32,4.8s-.3,2.67-.41,3.69l-.47,3.16a.59.59,0,0,1-1.18-.13Z"/><path class="cls-6" d="M106.84,122.39l-.13-.65-.15-.78-.27-1a12,12,0,0,0-.4-1.22,13.19,13.19,0,0,0-.56-1.4,21.93,21.93,0,0,0-1.74-3.16,26.41,26.41,0,0,0-2.68-3.32,31,31,0,0,0-3.56-3.15A38.19,38.19,0,0,0,93.06,105a45.91,45.91,0,0,0-4.77-2.21,50.74,50.74,0,0,0-10-2.71c-1.63-.29-3.22-.46-4.72-.59s-2.94-.18-4.25-.2-2.52,0-3.59.07-2,.13-2.76.18l-2.39.26h-.08a3.61,3.61,0,0,1-.77-7.17l.32,0s1,0,2.67,0c.85,0,1.88,0,3.06.11s2.51.18,4,.33,3,.39,4.63.7,3.34.68,5.09,1.17A55.47,55.47,0,0,1,90,98.95,49.79,49.79,0,0,1,95,101.88a41.48,41.48,0,0,1,4.36,3.47,33.76,33.76,0,0,1,3.54,3.83,28.77,28.77,0,0,1,2.55,3.91,23.84,23.84,0,0,1,1.54,3.62,14.67,14.67,0,0,1,.45,1.57,13.31,13.31,0,0,1,.29,1.36l.18,1.11.07.79.06.66a.59.59,0,0,1-1.17.16Z"/><path class="cls-6" d="M110.51,198.53l-.1.81-.12,1-.28,1.36a24,24,0,0,1-1.09,3.55c-.23.68-.6,1.36-.92,2.1s-.76,1.47-1.24,2.22a33,33,0,0,1-3.42,4.58,41.41,41.41,0,0,1-4.63,4.39,49.8,49.8,0,0,1-5.6,3.89,59.43,59.43,0,0,1-6.24,3.23,71,71,0,0,1-13.13,4.31c-2.15.5-4.26.86-6.26,1.17l-2.93.38-2.75.26c-1.77.12-3.39.22-4.83.24s-2.7,0-3.73,0L50,231.92a3.61,3.61,0,1,1,.23-7.21l.29,0,.13,0,3,.34c1,.07,2.11.21,3.45.26s2.84.12,4.49.15l2.57,0,2.75-.13c1.88-.13,3.87-.31,5.91-.61a66.27,66.27,0,0,0,12.55-3,55.52,55.52,0,0,0,6.05-2.52A46.48,46.48,0,0,0,96.86,216a38.58,38.58,0,0,0,4.62-3.7,30.63,30.63,0,0,0,3.51-4c.5-.66.91-1.33,1.31-2s.75-1.26,1-1.87a22.41,22.41,0,0,0,1.29-3.21l.36-1.22.2-1,.17-.8a.59.59,0,0,1,1.17.2Z"/><path class="cls-6" d="M120.51,204.84l-.24,2.74c-.17,1.75-.42,4.25-.82,7.24a163.42,163.42,0,0,1-4.3,21.79c-2.16,7.84-5.07,15.58-8.92,21a24.34,24.34,0,0,1-3.12,3.6,14.13,14.13,0,0,1-3.5,2.35,10,10,0,0,1-3.1.79c-.79,0-1.21,0-1.21,0a3.53,3.53,0,0,1-.4-7l1-.15a.63.63,0,0,1,.22,0,2.65,2.65,0,0,0,.84-.1,7.18,7.18,0,0,0,1.82-1,17.88,17.88,0,0,0,2.46-2.36,44.14,44.14,0,0,0,5.24-8,96.32,96.32,0,0,0,4.64-10.47,160.29,160.29,0,0,0,6.2-20.86c.67-2.91,1.15-5.35,1.48-7.06l.5-2.71a.59.59,0,0,1,1.17.16Z"/><path class="cls-6" d="M134.11,205.19l-.22,3.17c0,1-.11,2.21-.1,3.61s0,3,.07,4.69l.16,2.67.27,2.84c.24,1.94.52,4,.95,6.07s.95,4.21,1.55,6.35a63,63,0,0,0,2.26,6.3,50.39,50.39,0,0,0,3,5.91,42,42,0,0,0,3.59,5.18,34.92,34.92,0,0,0,4,4.13,27.88,27.88,0,0,0,4.11,2.89,22.09,22.09,0,0,0,3.78,1.69,14.24,14.24,0,0,0,1.63.48,12.43,12.43,0,0,0,1.4.3l1.14.18.85.07.71.06.24,0a3.61,3.61,0,1,1-.62,7.18l-.27,0-.94-.15-1.13-.19-1.51-.37a18.4,18.4,0,0,1-1.83-.56,20.39,20.39,0,0,1-2.1-.81,28.61,28.61,0,0,1-4.67-2.57,34,34,0,0,1-4.75-3.95,40.48,40.48,0,0,1-4.3-5.2,47,47,0,0,1-3.55-6.12,54.89,54.89,0,0,1-2.7-6.68,67,67,0,0,1-1.86-6.88c-.46-2.3-.86-4.56-1.08-6.77s-.38-4.34-.47-6.36q0-1.52,0-2.94l.05-2.75c.08-1.76.17-3.36.32-4.78s.3-2.66.41-3.68l.47-3.15a.59.59,0,0,1,1.18.13Z"/><path class="cls-6" d="M145.73,197.46l.13.65.15.78.27,1a12.05,12.05,0,0,0,.4,1.21,13.34,13.34,0,0,0,.57,1.4,21.67,21.67,0,0,0,1.75,3.15,26.37,26.37,0,0,0,2.68,3.3,31.32,31.32,0,0,0,3.57,3.13,38.66,38.66,0,0,0,4.29,2.73,46.61,46.61,0,0,0,4.77,2.19,51,51,0,0,0,10,2.68c1.62.28,3.21.45,4.72.59s2.93.18,4.25.2,2.52,0,3.59-.07,2-.13,2.76-.18L192,220h.08a3.61,3.61,0,0,1,.77,7.17l-.32,0s-1,0-2.67,0c-.85,0-1.88,0-3.05-.11s-2.5-.18-3.94-.33-3-.39-4.62-.7-3.34-.68-5.08-1.17a55.75,55.75,0,0,1-10.55-4,50.48,50.48,0,0,1-4.95-2.92,42,42,0,0,1-4.37-3.45,34.15,34.15,0,0,1-3.55-3.81,28.72,28.72,0,0,1-2.56-3.9,23.61,23.61,0,0,1-1.55-3.61,14.8,14.8,0,0,1-.46-1.57,13.37,13.37,0,0,1-.29-1.36l-.18-1.11-.07-.79-.06-.66a.59.59,0,0,1,1.17-.17Z"/><circle class="cls-7" cx="78.73" cy="42.31" r="4.39" transform="translate(-3.25 77.92) rotate(-51.73)"/><circle class="cls-8" cx="87.98" cy="50.08" r="10.74" transform="translate(-5.83 88.14) rotate(-51.73)"/><path class="cls-9" d="M83.66,32.31c2.91,2.3,4.23,5.48,2.94,7.12"/><path class="cls-9" d="M101.87,39.41c-2.13-1.68-5.58-.84-7.71,1.87"/><path class="cls-9" d="M105.24,51.45c-3-2.33-5.9-3.5-6.59-2.62"/><path class="cls-9" d="M93.33,66.55c-3-2.33-4.78-4.93-4.09-5.82"/><path class="cls-9" d="M80.83,66.07c-2.13-1.68-2.12-5.23,0-7.93"/><path class="cls-9" d="M69.58,50.15c2.91,2.3,6.32,2.84,7.61,1.2"/><circle class="cls-10" cx="164.17" cy="46.09" r="4.39" transform="translate(19.68 136.64) rotate(-47.76)"/><circle class="cls-11" cx="155.78" cy="54.78" r="10.74" transform="translate(10.5 133.27) rotate(-47.76)"/><path class="cls-9" d="M173.8,51.7c-2.5,2.75-5.76,3.84-7.3,2.44"/><path class="cls-9" d="M165.46,69.38c1.82-2,1.23-5.5-1.33-7.82"/><path class="cls-9" d="M153.22,71.91c2.53-2.78,3.9-5.64,3.08-6.4"/><path class="cls-9" d="M139,59c2.53-2.79,5.25-4.43,6.09-3.68"/><path class="cls-9" d="M140.32,46.54c1.82-2,5.36-1.75,7.91.57"/><path class="cls-9" d="M157,36.42c-2.5,2.75-3.27,6.1-1.72,7.5"/><circle class="cls-12" cx="173.53" cy="275.92" r="4.39" transform="translate(-152.39 271.55) rotate(-57.07)"/><circle class="cls-13" cx="163.6" cy="269.04" r="10.74" transform="translate(-151.15 260.08) rotate(-57.07)"/><path class="cls-9" d="M169.56,286.33c-3.12-2-4.72-5.07-3.59-6.81"/><path class="cls-9" d="M150.76,281c2.27,1.47,5.63.32,7.51-2.57"/><path class="cls-9" d="M146.28,269.29c3.16,2,6.2,2.94,6.81,2"/><path class="cls-9" d="M156.75,253.14c3.16,2,5.22,4.47,4.61,5.41"/><path class="cls-9" d="M169.23,252.45c2.27,1.47,2.59,5,.72,7.9"/><path class="cls-9" d="M181.91,267.25c-3.12-2-6.55-2.24-7.68-.49"/><circle class="cls-14" cx="88.84" cy="274.56" r="4.39" transform="translate(-185.09 183.82) rotate(-53.74)"/><circle class="cls-15" cx="96.29" cy="265.04" r="10.74" transform="translate(-174.38 185.93) rotate(-53.74)"/><path class="cls-9" d="M78.68,270c2.2-3,5.33-4.42,7-3.19"/><path class="cls-9" d="M85.13,251.54c-1.6,2.18-.65,5.6,2.14,7.64"/><path class="cls-9" d="M97,247.74c-2.22,3-3.29,6-2.39,6.68"/><path class="cls-9" d="M112.56,259.12c-2.23,3-4.76,5-5.67,4.29"/><path class="cls-9" d="M112.52,271.63c-1.6,2.18-5.15,2.3-7.93.26"/><path class="cls-9" d="M97,283.43c2.2-3,2.61-6.41.93-7.64"/><circle class="cls-16" cx="48.47" cy="95.07" r="4.39" transform="translate(-48.89 138.75) rotate(-87.15)"/><circle class="cls-17" cx="60.51" cy="96.05" r="10.74" transform="translate(-38.43 151.71) rotate(-87.15)"/><path class="cls-9" d="M46.69,84.07c3.71.18,6.62,2,6.52,4.1"/><path class="cls-9" d="M65.65,79.3c-2.7-.13-5,2.54-5.2,6"/><path class="cls-9" d="M75.37,87.16c-3.76-.19-6.84.57-6.9,1.68"/><path class="cls-9" d="M74.41,106.37c-3.76-.19-6.76-1.25-6.7-2.37"/><path class="cls-9" d="M64,113.23c-2.7-.13-4.75-3-4.58-6.48"/><path class="cls-9" d="M45.56,106.77c3.71.18,6.79-1.35,6.89-3.43"/><circle class="cls-18" cx="211.26" cy="90.64" r="4.39" transform="translate(-5.43 13.88) rotate(-3.72)"/><circle class="cls-19" cx="199.19" cy="91.05" r="10.74" transform="translate(-5.48 13.1) rotate(-3.72)"/><path class="cls-9" d="M214.29,101.37c-3.7.24-6.81-1.25-6.95-3.33"/><path class="cls-9" d="M196,108.28c2.7-.18,4.71-3.1,4.48-6.55"/><path class="cls-9" d="M185.44,101.59c3.75-.24,6.73-1.34,6.66-2.46"/><path class="cls-9" d="M184.19,82.38c3.76-.24,6.86.47,6.93,1.59"/><path class="cls-9" d="M193.8,74.38c2.7-.18,5.07,2.47,5.29,5.91"/><path class="cls-9" d="M212.81,78.69c-3.7.24-6.59,2.12-6.46,4.2"/><circle class="cls-20" cx="203.39" cy="225.93" r="4.39" transform="translate(-42.79 404.27) rotate(-83.93)"/><circle class="cls-21" cx="191.43" cy="224.28" r="10.74" transform="translate(-51.85 390.9) rotate(-83.93)"/><path class="cls-9" d="M204.55,237c-3.69-.39-6.5-2.39-6.28-4.46"/><path class="cls-9" d="M185.36,240.71c2.69.29,5.17-2.26,5.53-5.69"/><path class="cls-9" d="M176.09,232.32c3.74.4,6.86-.18,7-1.29"/><path class="cls-9" d="M178.13,213.19c3.74.4,6.68,1.63,6.56,2.74"/><path class="cls-9" d="M189,206.93c2.69.29,4.58,3.29,4.21,6.72"/><path class="cls-9" d="M207,214.41c-3.69-.39-6.86,1-7.08,3"/><circle class="cls-22" cx="40.15" cy="229.14" r="4.39" transform="translate(-189.39 266.93) rotate(-89.41)"/><circle class="cls-23" cx="52.22" cy="229.64" r="10.74" transform="translate(-177.95 279.5) rotate(-89.41)"/><path class="cls-9" d="M37.94,218.22c3.71,0,6.7,1.75,6.68,3.84"/><path class="cls-9" d="M56.68,212.7c-2.71,0-4.93,2.74-5,6.19"/><path class="cls-9" d="M66.71,220.17c-3.76,0-6.81.84-6.82,2"/><path class="cls-9" d="M66.52,239.41c-3.76,0-6.8-1-6.79-2.1"/><path class="cls-9" d="M56.34,246.67c-2.71,0-4.87-2.84-4.84-6.29"/><path class="cls-9" d="M37.7,240.94c3.71,0,6.73-1.62,6.75-3.7"/></g></svg>