<svg xmlns="http://www.w3.org/2000/svg" viewBox="0 0 576.54 221.37"><defs><style>.cls-1{fill:#fff;}.cls-2{font-size:10px;}.cls-11,.cls-12,.cls-18,.cls-19,.cls-2,.cls-4{fill:#231f20;}.cls-11,.cls-12,.cls-18,.cls-19,.cls-2{font-family:ArialMT, Arial;}.cls-10,.cls-17,.cls-3,.cls-5,.cls-6,.cls-8,.cls-9{fill:#ec008c;}.cls-3{opacity:0.12;}.cls-17,.cls-5,.cls-6{fill-opacity:0.5;}.cls-17,.cls-5{stroke:#ec008c;}.cls-5{stroke-linecap:round;stroke-width:3.98px;}.cls-13,.cls-14,.cls-15,.cls-16,.cls-17,.cls-5,.cls-7{stroke-miterlimit:10;}.cls-13,.cls-14,.cls-15,.cls-16,.cls-7{fill:none;}.cls-13,.cls-14,.cls-15,.cls-7{stroke:#58595b;}.cls-7{stroke-width:1.01px;}.cls-8{fill-opacity:0.25;}.cls-9{fill-opacity:0.37;}.cls-10{fill-opacity:0.12;}.cls-11{font-size:12px;}.cls-12{font-size:11px;}.cls-13,.cls-14,.cls-15{stroke-width:1.33px;}.cls-14{stroke-dasharray:2.7 2.7;}.cls-15{stroke-dasharray:2.68 2.68;}.cls-16{stroke:#231f20;stroke-width:1.18px;}.cls-17{stroke-width:3.03px;}.cls-18{font-size:9px;}.cls-19{font-size:13px;}</style></defs><g id="Layer_2" data-name="Layer 2"><g id="Layer_1-2" data-name="Layer 1"><rect class="cls-1" width="576.54" height="221.37"/></g><g id="Layer_24" data-name="Layer 24"><text class="cls-2" transform="translate(230.31 92.06)">vector to raster conversion</text></g><g id="Layer_12" data-name="Layer 12"><rect class="cls-3" x="302.88" y="126.52" width="81.68" height="81.68"/><path class="cls-4" d="M383.56,127.51V207.2H303.88V127.51h79.68m2-2H301.88v83.67h83.67V125.52Z"/><line class="cls-5" x1="228.14" y1="127.51" x2="267.98" y2="207.2"/><polygon class="cls-6" points="267.98 207.2 228.14 127.51 267.98 127.51 267.98 207.2"/><rect class="cls-7" x="33.52" y="35.22" width="120.59" height="120.59"/><line class="cls-7" x1="33.52" y1="131.69" x2="154.11" y2="131.69"/><line class="cls-7" x1="33.52" y1="107.57" x2="154.11" y2="107.57"/><line class="cls-7" x1="33.52" y1="83.45" x2="154.11" y2="83.45"/><line class="cls-7" x1="33.52" y1="59.33" x2="154.11" y2="59.33"/><line class="cls-7" x1="130" y1="35.22" x2="130" y2="155.81"/><line class="cls-7" x1="105.88" y1="35.22" x2="105.88" y2="155.81"/><line class="cls-7" x1="81.76" y1="35.22" x2="81.76" y2="155.81"/><line class="cls-7" x1="57.64" y1="35.22" x2="57.64" y2="155.81"/><rect class="cls-7" x="421.2" y="35.22" width="120.59" height="120.59"/><line class="cls-7" x1="421.2" y1="131.69" x2="541.79" y2="131.69"/><line class="cls-7" x1="421.2" y1="107.57" x2="541.79" y2="107.57"/><line class="cls-7" x1="421.2" y1="83.45" x2="541.79" y2="83.45"/><line class="cls-7" x1="421.2" y1="59.33" x2="541.79" y2="59.33"/><line class="cls-7" x1="517.67" y1="35.22" x2="517.67" y2="155.81"/><line class="cls-7" x1="493.55" y1="35.22" x2="493.55" y2="155.81"/><line class="cls-7" x1="469.43" y1="35.22" x2="469.43" y2="155.81"/><line class="cls-7" x1="445.32" y1="35.22" x2="445.32" y2="155.81"/><polyline class="cls-6" points="469.43 131.69 469.38 83.27 469.43 59.33 517.67 59.33 517.56 82.84 517.67 131.69"/><rect class="cls-8" x="445.32" y="59.33" width="24.06" height="23.94"/><rect class="cls-9" x="445.32" y="83.45" width="24.06" height="23.94"/><rect class="cls-10" x="445.32" y="107.57" width="24.06" height="23.94"/><text class="cls-11" transform="translate(78.6 16.68)">Input <tspan x="-42.69" y="14.4">polygon management</tspan></text><text class="cls-11" transform="translate(459.6 16.68)">Applied <tspan x="-30.34" y="14.4">raster management</tspan></text><text class="cls-12" transform="translate(205.37 189.4)">25% cell <tspan x="-0.31" y="13.2">coverage</tspan></text><path class="cls-4" d="M268,127.51V207.2H188.3V127.51H268m2-2H186.3v83.67H270V125.52Z"/><line class="cls-13" x1="188.3" y1="207.2" x2="187.15" y2="206.53"/><line class="cls-14" x1="184.81" y1="205.18" x2="59.96" y2="132.94"/><line class="cls-13" x1="58.79" y1="132.27" x2="57.64" y2="131.6"/><line class="cls-13" x1="267.98" y1="127.51" x2="266.66" y2="127.37"/><line class="cls-15" x1="264" y1="127.09" x2="84.33" y2="107.85"/><line class="cls-13" x1="83" y1="107.71" x2="81.68" y2="107.57"/><line class="cls-16" x1="227.68" y1="179.77" x2="254.8" y2="152.91"/><polygon class="cls-4" points="251.37 150.26 257.41 156.36 257.44 150.29 251.37 150.26"/></g><g id="Layer_13" data-name="Layer 13"><polygon class="cls-17" points="57.22 82.75 81.76 59 130 59.35 130 131.6 81.76 131.6 57.22 82.75"/><path class="cls-4" d="M81.68,107.57v24h-24v-24h24m2-2h-28v28h28v-28Z"/></g><g id="Layer_14" data-name="Layer 14"><text class="cls-18" transform="translate(469.98 98.53)">100%</text><text class="cls-18" transform="translate(494.55 98.53)">100%</text><text class="cls-18" transform="translate(469.98 121.77)">100%</text><text class="cls-18" transform="translate(494.55 121.77)">100%</text><text class="cls-18" transform="translate(469.98 73.96)">100%</text><text class="cls-18" transform="translate(447.92 98.53)">75%</text><text class="cls-18" transform="translate(447.92 121.77)">25%</text><text class="cls-18" transform="translate(447.92 73.96)">50%</text><text class="cls-18" transform="translate(494.55 73.96)">100%</text><text class="cls-19" transform="translate(331.37 169.35)">25%<tspan x="-24.93" y="15.6">management</tspan></text><line class="cls-16" x1="184.97" y1="95.3" x2="379.03" y2="95.3"/><polygon class="cls-4" points="378.45 91.01 378.45 99.59 382.74 95.3 378.45 91.01"/><line class="cls-16" x1="273.29" y1="167.71" x2="295.53" y2="167.71"/><polygon class="cls-4" points="294.96 163.42 294.96 172 299.25 167.71 294.96 163.42"/></g></g></svg>