<svg xmlns="http://www.w3.org/2000/svg" viewBox="0 0 516.48 224.51"><defs><style>.cls-1{fill:#fff;}.cls-2,.cls-3,.cls-7{fill:#231f20;}.cls-2{opacity:0.06;}.cls-3{font-size:12px;}.cls-3,.cls-7{font-family:ArialMT, Arial;}.cls-4{letter-spacing:-0.02em;}.cls-5{letter-spacing:-0.11em;}.cls-6,.cls-8,.cls-9{fill:none;stroke-miterlimit:10;}.cls-6{stroke:#231f20;}.cls-7{font-size:10px;}.cls-8{stroke:#00aeef;stroke-linecap:round;}.cls-8,.cls-9{stroke-width:2px;}.cls-9{stroke:#ed1c24;}</style></defs><g id="Layer_2" data-name="Layer 2"><g id="Layer_1-2" data-name="Layer 1"><rect class="cls-1" width="516.48" height="224.51"/></g><g id="Landscape"><rect class="cls-2" x="56.83" y="49.53" width="171.09" height="139.85"/><text class="cls-3" transform="translate(93.22 25.64)">SOD<tspan class="cls-4" x="26" y="0"> </tspan><tspan class="cls-5" x="29.12" y="0">T</tspan><tspan x="35.12" y="0">emperature</tspan><tspan x="-18.12" y="14.4">Reclassification Function</tspan></text><text class="cls-3" transform="translate(363.77 25.64)">SOD Precipitation<tspan x="-18.68" y="14.4">Reclassification Function</tspan></text><rect class="cls-2" x="326.98" y="49.53" width="171.09" height="139.85"/></g><g id="Layer_32" data-name="Layer 32"><polyline class="cls-6" points="228.07 189.25 56.98 189.25 56.98 49.82"/><line class="cls-6" x1="52.68" y1="49.82" x2="56.98" y2="49.82"/><line class="cls-6" x1="52.68" y1="77.71" x2="56.98" y2="77.71"/><line class="cls-6" x1="52.68" y1="105.59" x2="56.98" y2="105.59"/><line class="cls-6" x1="52.68" y1="133.48" x2="56.98" y2="133.48"/><line class="cls-6" x1="52.68" y1="161.36" x2="56.98" y2="161.36"/><line class="cls-6" x1="52.68" y1="189.25" x2="56.98" y2="189.25"/><text class="cls-7" transform="translate(36.82 191.82)">0.0</text><text class="cls-7" transform="translate(36.82 164.02)">0.2</text><text class="cls-7" transform="translate(36.82 136.22)">0.4</text><text class="cls-7" transform="translate(36.82 108.42)">0.6</text><text class="cls-7" transform="translate(36.82 80.62)">0.8</text><text class="cls-7" transform="translate(36.82 52.82)">1.0</text><text class="cls-7" transform="translate(29.35 181.95) rotate(-90)"><tspan class="cls-5">T</tspan><tspan x="5" y="0">emperature reclassification</tspan></text><text class="cls-7" transform="translate(104.4 213.25)"><tspan class="cls-5">T</tspan><tspan x="5" y="0">emperature (˚C)</tspan></text><line class="cls-6" x1="216.4" y1="189.67" x2="216.4" y2="193.97"/><line class="cls-6" x1="168.55" y1="189.67" x2="168.55" y2="193.97"/><line class="cls-6" x1="119.69" y1="189.67" x2="119.69" y2="193.97"/><line class="cls-6" x1="70.98" y1="189.67" x2="70.98" y2="193.97"/><text class="cls-7" transform="translate(114.17 202.39)">10</text><text class="cls-7" transform="translate(67.95 202.39)">0</text><text class="cls-7" transform="translate(163.17 202.39)">20</text><text class="cls-7" transform="translate(211.17 202.39)">30</text><polyline class="cls-6" points="498.07 189.25 326.98 189.25 326.98 49.82"/><line class="cls-6" x1="322.68" y1="49.82" x2="326.98" y2="49.82"/><line class="cls-6" x1="322.68" y1="77.71" x2="326.98" y2="77.71"/><line class="cls-6" x1="322.68" y1="105.59" x2="326.98" y2="105.59"/><line class="cls-6" x1="322.68" y1="133.48" x2="326.98" y2="133.48"/><line class="cls-6" x1="322.68" y1="161.36" x2="326.98" y2="161.36"/><line class="cls-6" x1="322.68" y1="189.25" x2="326.98" y2="189.25"/><text class="cls-7" transform="translate(306.82 191.82)">0.0</text><text class="cls-7" transform="translate(306.82 164.02)">0.2</text><text class="cls-7" transform="translate(306.82 136.22)">0.4</text><text class="cls-7" transform="translate(306.82 108.42)">0.6</text><text class="cls-7" transform="translate(306.82 80.62)">0.8</text><text class="cls-7" transform="translate(306.82 52.82)">1.0</text><text class="cls-7" transform="translate(299.35 182.54) rotate(-90)"><tspan xml:space="preserve"> Precipitation reclassification</tspan></text><text class="cls-7" transform="translate(356.6 213.25)">Precipitation (days/week)</text><line class="cls-6" x1="486.4" y1="189.67" x2="486.4" y2="193.97"/><line class="cls-6" x1="395.3" y1="189.67" x2="395.3" y2="193.97"/><line class="cls-6" x1="418.08" y1="189.67" x2="418.08" y2="193.97"/><line class="cls-6" x1="440.85" y1="189.67" x2="440.85" y2="193.97"/><line class="cls-6" x1="463.63" y1="189.67" x2="463.63" y2="193.97"/><line class="cls-6" x1="372.53" y1="189.67" x2="372.53" y2="193.97"/><line class="cls-6" x1="349.75" y1="189.67" x2="349.75" y2="193.97"/><line class="cls-6" x1="326.98" y1="189.67" x2="326.98" y2="193.97"/><text class="cls-7" transform="translate(346.81 202.39)">1</text><text class="cls-7" transform="translate(323.95 202.39)">0</text><text class="cls-7" transform="translate(369.67 202.39)">2</text><text class="cls-7" transform="translate(392.52 202.39)">3</text><text class="cls-7" transform="translate(483.95 202.39)">7</text><text class="cls-7" transform="translate(461.09 202.39)">6</text><text class="cls-7" transform="translate(438.24 202.39)">5</text><text class="cls-7" transform="translate(415.38 202.39)">4</text></g><g id="Layer_33" data-name="Layer 33"><line class="cls-8" x1="326.98" y1="189.25" x2="486.4" y2="49.82"/><path class="cls-9" d="M71,189.25l12.67-16.79c26.68-1.11,54.92-122.7,83.9-122.64,26,.06,45.23,139.43,45.23,139.43h15.29"/></g></g></svg>