<svg xmlns="http://www.w3.org/2000/svg" viewBox="0 0 596.7 146.7"><defs><style>.cls-1{fill:#fff;}.cls-2{fill:#efcec1;}.cls-3{fill:#fcd3c1;}.cls-4{fill:#fabaa2;}.cls-5{fill:#f15b40;}.cls-6{fill:#f9aa8f;}.cls-14,.cls-7{fill:none;stroke-miterlimit:10;}.cls-7{stroke:#231f20;stroke-width:0.18px;}.cls-8{font-size:11px;}.cls-16,.cls-17,.cls-18,.cls-8{fill:#231f20;}.cls-16,.cls-8{font-family:ArialMT, Arial;}.cls-9{letter-spacing:-0.02em;}.cls-10{fill:#fff6d4;}.cls-11{fill:#ffe987;}.cls-12{fill:#ffde17;}.cls-13{fill:#b19e32;}.cls-14{stroke:#6d6e71;}.cls-15{fill:#6d6e71;}.cls-16{font-size:10px;}.cls-17{font-size:8px;font-family:ArialNarrow-Italic, Arial;font-style:italic;}</style></defs><g id="Layer_2" data-name="Layer 2"><g id="Layer_1-2" data-name="Layer 1"><rect class="cls-1" width="596.7" height="146.7"/></g><g id="Landscape"><polygon class="cls-2" points="159.39 113.28 152.74 116.35 140.52 114.26 146.75 111.29 159.39 113.28"/><polygon class="cls-2" points="152.74 116.35 146.03 119.44 145.97 119.31 134.17 117.3 140.52 114.26 152.74 116.35"/><polygon class="cls-3" points="146.75 111.29 140.52 114.26 131.03 112.64 137.06 109.76 146.75 111.29"/><polygon class="cls-2" points="145.97 119.31 146.03 119.44 138.66 122.85 138.62 122.76 126.9 120.76 134.17 117.3 145.97 119.31"/><polygon class="cls-3" points="140.52 114.26 134.17 117.3 124.67 115.68 131.03 112.64 140.52 114.26"/><polygon class="cls-2" points="138.62 122.76 138.66 122.85 130.98 126.39 130.94 126.31 119.4 124.34 126.9 120.76 138.62 122.76"/><polygon class="cls-3" points="137.06 109.76 131.03 112.64 121.53 111.03 127.38 108.24 137.06 109.76"/><polygon class="cls-3" points="131.03 112.64 124.67 115.68 115.18 114.06 121.53 111.03 131.03 112.64"/><polygon class="cls-2" points="130.94 126.31 130.98 126.39 123.76 129.72 123.75 129.72 112.25 127.76 119.4 124.34 130.94 126.31"/><polygon class="cls-3" points="127.38 108.24 121.53 111.03 112.04 109.41 117.69 106.71 127.38 108.24"/><polygon class="cls-3" points="126.9 120.76 126.21 120.65 126.47 120.52 117.67 119.02 124.67 115.68 134.17 117.3 126.9 120.76"/><polygon class="cls-3" points="126.47 120.52 126.21 120.65 117.41 119.15 117.67 119.02 126.47 120.52"/><polygon class="cls-4" points="117.41 119.15 126.21 120.65 119.2 123.99 110.41 122.49 117.41 119.15"/><polygon class="cls-5" points="124.67 115.68 117.67 119.02 116.98 118.9 116.71 119.03 107.91 117.53 115.18 114.06 124.67 115.68"/><polygon class="cls-4" points="123.75 129.72 116.07 133.26 105.1 131.39 105.14 131.15 112.25 127.76 123.75 129.72"/><polygon class="cls-3" points="121.53 111.03 115.18 114.06 105.69 112.44 112.04 109.41 121.53 111.03"/><polygon class="cls-5" points="119.4 124.34 112.25 127.76 102.76 126.14 109.91 122.73 119.4 124.34"/><polygon class="cls-3" points="119.4 124.34 109.91 122.73 110.41 122.49 119.2 123.99 126.21 120.65 126.9 120.76 119.4 124.34"/><polygon class="cls-3" points="117.69 106.71 112.04 109.41 102.54 107.79 108 105.18 108.01 105.18 117.69 106.71"/><polygon class="cls-3" points="117.67 119.02 117.41 119.15 116.71 119.03 116.98 118.9 117.67 119.02"/><polygon class="cls-5" points="117.41 119.15 110.41 122.49 109.71 122.37 116.71 119.03 117.41 119.15"/><polygon class="cls-5" points="115.18 114.06 107.91 117.53 98.42 115.91 105.69 112.44 115.18 114.06"/><polygon class="cls-4" points="102.76 126.14 112.25 127.76 105.14 131.15 105.1 131.39 95.56 129.77 95.59 129.56 102.76 126.14"/><polygon class="cls-3" points="112.04 109.41 105.69 112.44 96.2 110.83 96.53 110.67 96.51 110.67 102.54 107.79 112.04 109.41"/><polygon class="cls-5" points="109.71 122.37 110.41 122.49 109.91 122.73 100.42 121.11 107.91 117.53 116.71 119.03 109.71 122.37"/><polygon class="cls-5" points="109.91 122.73 102.76 126.14 93.27 124.52 100.42 121.11 109.91 122.73"/><polygon class="cls-3" points="108 105.18 102.54 107.79 93.05 106.17 98.32 103.66 108 105.18"/><polygon class="cls-5" points="107.91 117.53 100.42 121.11 90.92 119.49 98.42 115.91 107.91 117.53"/><polygon class="cls-4" points="102.76 126.14 95.59 129.56 95.56 129.77 86.01 128.14 86.04 127.97 93.27 124.52 102.76 126.14"/><polygon class="cls-5" points="100.42 121.11 93.27 124.52 83.77 122.91 90.92 119.49 100.42 121.11"/><polygon class="cls-5" points="98.42 115.91 90.92 119.49 81.43 117.87 88.93 114.29 98.42 115.91"/><polygon class="cls-3" points="88.51 102.11 98.32 103.66 93.05 106.17 83.56 104.56 88.5 102.2 88.51 102.11"/><polygon class="cls-3" points="96.53 110.67 96.2 110.83 96.19 110.83 96.51 110.67 96.53 110.67"/><polygon class="cls-3" points="86.99 109.07 96.51 110.67 96.19 110.83 86.71 109.21 86.99 109.07"/><polygon class="cls-3" points="96.2 110.83 88.98 114.27 88.97 114.27 96.19 110.83 96.2 110.83"/><polygon class="cls-3" points="96.19 110.83 88.97 114.27 79.48 112.65 86.71 109.21 96.19 110.83"/><polygon class="cls-3" points="93.27 124.52 86.04 127.97 86.01 128.14 76.47 126.51 76.5 126.38 83.77 122.91 93.27 124.52"/><polygon class="cls-3" points="93.05 106.17 86.71 109.21 86.7 109.21 77.21 107.59 83.56 104.56 93.05 106.17"/><polygon class="cls-6" points="90.92 119.49 83.77 122.91 74.28 121.29 81.43 117.87 90.92 119.49"/><polygon class="cls-5" points="88.98 114.27 96.2 110.83 105.69 112.44 98.42 115.91 88.93 114.29 88.97 114.27 88.98 114.27"/><polygon class="cls-6" points="88.93 114.29 81.43 117.87 71.94 116.25 79.43 112.67 88.93 114.29"/><polygon class="cls-3" points="88.51 102.11 88.5 102.2 83.56 104.56 74.11 102.95 74.1 102.92 78.95 100.61 88.51 102.11"/><polygon class="cls-3" points="86.71 109.21 93.05 106.17 102.54 107.79 96.51 110.67 86.99 109.07 86.71 109.21"/><polygon class="cls-3" points="86.71 109.21 79.48 112.65 86.7 109.21 86.71 109.21"/><polygon class="cls-3" points="86.7 109.21 79.48 112.65 79.43 112.67 69.95 111.06 77.21 107.59 86.7 109.21"/><polygon class="cls-6" points="83.77 122.91 76.5 126.38 76.47 126.51 66.93 124.89 66.95 124.78 74.28 121.29 83.77 122.91"/><polygon class="cls-3" points="83.56 104.56 77.21 107.59 67.87 106 67.83 105.92 74.1 102.92 74.11 102.95 83.56 104.56"/><polygon class="cls-6" points="81.43 117.87 74.28 121.29 64.79 119.67 71.94 116.25 81.43 117.87"/><polygon class="cls-3" points="79.48 112.65 88.97 114.27 88.93 114.29 79.43 112.67 79.48 112.65"/><polygon class="cls-6" points="79.43 112.67 71.94 116.25 62.44 114.64 69.95 111.06 79.43 112.67"/><polygon class="cls-2" points="77.21 107.59 69.95 111.06 60.45 109.44 67.83 105.92 67.87 106 77.21 107.59"/><polygon class="cls-3" points="74.28 121.29 66.95 124.78 66.93 124.89 57.39 123.26 57.4 123.19 64.79 119.67 74.28 121.29"/><polygon class="cls-3" points="71.94 116.25 64.79 119.67 55.3 118.05 62.44 114.64 71.94 116.25"/><polygon class="cls-2" points="69.95 111.06 62.44 114.64 52.95 113.02 60.45 109.44 69.95 111.06"/><polygon class="cls-2" points="64.79 119.67 57.4 123.19 57.39 123.26 47.85 121.64 47.85 121.61 55.3 118.05 64.79 119.67"/><polygon class="cls-2" points="62.44 114.64 55.3 118.05 45.8 116.43 52.95 113.02 62.44 114.64"/><polygon class="cls-2" points="55.3 118.05 47.85 121.61 47.85 121.64 38.3 120.01 45.8 116.43 55.3 118.05"/><polyline class="cls-7" points="108.01 105.18 117.69 106.71 127.38 108.24 137.06 109.76 146.75 111.29 159.39 113.28 152.74 116.35 146.03 119.44 138.66 122.85 130.98 126.39 123.76 129.72"/><polyline class="cls-7" points="123.75 129.72 116.07 133.26 105.1 131.39 95.56 129.77 86.01 128.14 76.47 126.51 66.93 124.89 57.39 123.26 47.85 121.64 38.3 120.01 45.8 116.43 52.95 113.02 60.45 109.44 67.83 105.92 74.1 102.92 78.95 100.61 88.51 102.11 98.32 103.66 108 105.18"/><polyline class="cls-7" points="47.85 121.61 55.3 118.05 62.44 114.64 69.95 111.06 77.21 107.59 83.56 104.56 88.5 102.2"/><polyline class="cls-7" points="86.71 109.21 93.05 106.17 98.32 103.66 98.42 103.61"/><polyline class="cls-7" points="57.4 123.19 64.79 119.67 71.94 116.25 79.43 112.67 79.48 112.65 86.7 109.21"/><polyline class="cls-7" points="96.51 110.67 102.54 107.79 108 105.18 108.01 105.18"/><polyline class="cls-7" points="66.95 124.78 74.28 121.29 81.43 117.87 88.93 114.29 88.97 114.27"/><polyline class="cls-7" points="76.5 126.38 83.77 122.91 90.92 119.49 98.42 115.91 105.69 112.44 112.04 109.41 117.69 106.71"/><polyline class="cls-7" points="86.04 127.97 93.27 124.52 100.42 121.11 107.91 117.53 115.18 114.06 121.53 111.03 127.38 108.24"/><polyline class="cls-7" points="117.67 119.02 124.67 115.68 131.03 112.64 137.06 109.76"/><polyline class="cls-7" points="95.59 129.56 102.76 126.14 109.91 122.73 110.41 122.49"/><polyline class="cls-7" points="105.14 131.15 112.25 127.76 119.4 124.34 126.9 120.76 134.17 117.3 140.52 114.26 146.75 111.29"/><polyline class="cls-7" points="123.76 129.72 123.75 129.72 112.25 127.76 102.76 126.14 93.27 124.52 83.77 122.91 74.28 121.29 64.79 119.67 55.3 118.05 45.8 116.43"/><polyline class="cls-7" points="130.94 126.31 119.4 124.34 109.91 122.73 100.42 121.11 90.92 119.49 81.43 117.87 71.94 116.25 62.44 114.64 52.95 113.02 52.89 113.01"/><polyline class="cls-7" points="116.71 119.03 107.91 117.53 98.42 115.91 88.93 114.29 79.43 112.67 69.95 111.06 60.45 109.44"/><polyline class="cls-7" points="138.62 122.76 126.9 120.76 126.21 120.65"/><polyline class="cls-7" points="86.71 109.21 86.7 109.21 77.21 107.59 67.87 106"/><polyline class="cls-7" points="145.97 119.31 134.17 117.3 124.67 115.68 115.18 114.06 105.69 112.44 96.2 110.83"/><polyline class="cls-7" points="152.74 116.35 140.52 114.26 131.03 112.64 121.53 111.03 112.04 109.41 102.54 107.79 93.05 106.17 83.56 104.56 74.11 102.95"/><polygon class="cls-7" points="79.48 112.65 88.97 114.27 88.98 114.27 96.2 110.83 96.53 110.67 96.51 110.67 86.99 109.07 86.71 109.21 79.48 112.65"/><polygon class="cls-7" points="116.71 119.03 109.71 122.37 110.41 122.49 119.2 123.99 126.21 120.65 126.47 120.52 117.67 119.02 116.98 118.9 116.71 119.03"/><polygon class="cls-2" points="159.39 98.22 152.74 101.28 140.52 99.2 146.75 96.23 159.39 98.22"/><polygon class="cls-2" points="152.74 101.28 146.03 104.38 145.97 104.25 134.17 102.23 140.52 99.2 152.74 101.28"/><polygon class="cls-3" points="146.75 96.23 140.52 99.2 131.03 97.58 137.06 94.7 146.75 96.23"/><polygon class="cls-2" points="145.97 104.25 146.03 104.38 138.66 107.78 138.62 107.7 126.9 105.7 134.17 102.23 145.97 104.25"/><polygon class="cls-3" points="140.52 99.2 134.17 102.23 124.67 100.62 131.03 97.58 140.52 99.2"/><polygon class="cls-2" points="138.62 107.7 138.66 107.78 130.98 111.32 130.94 111.25 119.4 109.28 126.9 105.7 138.62 107.7"/><polygon class="cls-3" points="137.06 94.7 131.03 97.58 121.53 95.97 127.38 93.17 137.06 94.7"/><polygon class="cls-3" points="131.03 97.58 124.67 100.62 115.18 99 121.53 95.97 131.03 97.58"/><polygon class="cls-2" points="130.94 111.25 130.98 111.32 123.76 114.66 123.75 114.66 112.25 112.7 119.4 109.28 130.94 111.25"/><polygon class="cls-3" points="127.38 93.17 121.53 95.97 112.04 94.35 117.69 91.65 127.38 93.17"/><polygon class="cls-3" points="126.9 105.7 126.21 105.59 126.47 105.46 117.67 103.96 124.67 100.62 134.17 102.23 126.9 105.7"/><polygon class="cls-3" points="126.47 105.46 126.21 105.59 117.41 104.08 117.67 103.96 126.47 105.46"/><polygon class="cls-5" points="117.41 104.08 126.21 105.59 119.2 108.93 110.41 107.43 117.41 104.08"/><polygon class="cls-5" points="124.67 100.62 117.67 103.96 116.98 103.84 116.71 103.97 107.91 102.47 115.18 99 124.67 100.62"/><polygon class="cls-2" points="123.75 114.66 116.07 118.2 105.1 116.33 105.14 116.09 112.25 112.7 123.75 114.66"/><polygon class="cls-3" points="121.53 95.97 115.18 99 105.69 97.38 112.04 94.35 121.53 95.97"/><polygon class="cls-2" points="119.4 109.28 112.25 112.7 102.76 111.08 109.91 107.66 119.4 109.28"/><polygon class="cls-3" points="126.21 105.59 126.9 105.7 119.4 109.28 109.91 107.66 110.41 107.43 119.2 108.93 126.21 105.59"/><polygon class="cls-3" points="117.69 91.65 112.04 94.35 102.54 92.73 108 90.12 108.01 90.12 117.69 91.65"/><polygon class="cls-3" points="117.67 103.96 117.41 104.08 116.71 103.97 116.98 103.84 117.67 103.96"/><polygon class="cls-5" points="117.41 104.08 110.41 107.43 109.71 107.31 116.71 103.97 117.41 104.08"/><polygon class="cls-5" points="115.18 99 107.91 102.47 98.42 100.85 105.69 97.38 115.18 99"/><polygon class="cls-2" points="102.76 111.08 112.25 112.7 105.14 116.09 105.1 116.33 95.56 114.71 95.59 114.5 102.76 111.08"/><polygon class="cls-3" points="112.04 94.35 105.69 97.38 96.2 95.76 96.53 95.61 96.51 95.61 102.54 92.73 112.04 94.35"/><polygon class="cls-4" points="109.71 107.31 110.41 107.43 109.91 107.66 100.42 106.05 107.91 102.47 116.71 103.97 109.71 107.31"/><polygon class="cls-2" points="109.91 107.66 102.76 111.08 93.27 109.46 100.42 106.05 109.91 107.66"/><polygon class="cls-3" points="108 90.12 102.54 92.73 93.05 91.11 98.32 88.6 108 90.12"/><polygon class="cls-5" points="107.91 102.47 100.42 106.05 90.92 104.43 98.42 100.85 107.91 102.47"/><polygon class="cls-2" points="102.76 111.08 95.59 114.5 95.56 114.71 86.01 113.08 86.04 112.91 93.27 109.46 102.76 111.08"/><polygon class="cls-2" points="100.42 106.05 93.27 109.46 83.77 107.84 90.92 104.43 100.42 106.05"/><polygon class="cls-5" points="98.42 100.85 90.92 104.43 81.43 102.81 88.93 99.23 98.42 100.85"/><polygon class="cls-3" points="88.51 87.05 98.32 88.6 93.05 91.11 83.56 89.5 88.5 87.14 88.51 87.05"/><polygon class="cls-3" points="96.53 95.61 96.2 95.76 96.19 95.76 96.51 95.61 96.53 95.61"/><polygon class="cls-3" points="86.99 94.01 96.51 95.61 96.19 95.76 86.71 94.14 86.99 94.01"/><polygon class="cls-3" points="96.2 95.76 88.98 99.21 88.97 99.21 96.19 95.76 96.2 95.76"/><polygon class="cls-3" points="96.19 95.76 88.97 99.21 79.48 97.59 86.71 94.14 96.19 95.76"/><polygon class="cls-2" points="93.27 109.46 86.04 112.91 86.01 113.08 76.47 111.45 76.5 111.32 83.77 107.84 93.27 109.46"/><polygon class="cls-3" points="93.05 91.11 86.71 94.14 86.7 94.14 77.21 92.53 83.56 89.5 93.05 91.11"/><polygon class="cls-6" points="90.92 104.43 83.77 107.84 74.28 106.22 81.43 102.81 90.92 104.43"/><polygon class="cls-5" points="88.98 99.21 96.2 95.76 105.69 97.38 98.42 100.85 88.93 99.23 88.97 99.21 88.98 99.21"/><polygon class="cls-6" points="88.93 99.23 81.43 102.81 71.94 101.19 79.43 97.61 88.93 99.23"/><polygon class="cls-3" points="88.51 87.05 88.5 87.14 83.56 89.5 74.11 87.89 74.1 87.86 78.95 85.55 88.51 87.05"/><polygon class="cls-3" points="86.71 94.14 93.05 91.11 102.54 92.73 96.51 95.61 86.99 94.01 86.71 94.14"/><polygon class="cls-3" points="86.71 94.14 79.48 97.59 86.7 94.14 86.71 94.14"/><polygon class="cls-3" points="86.7 94.14 79.48 97.59 79.43 97.61 69.95 96 77.21 92.53 86.7 94.14"/><polygon class="cls-4" points="83.77 107.84 76.5 111.32 76.47 111.45 66.93 109.83 66.95 109.72 74.28 106.22 83.77 107.84"/><polygon class="cls-3" points="83.56 89.5 77.21 92.53 67.87 90.93 67.83 90.86 74.1 87.86 74.11 87.89 83.56 89.5"/><polygon class="cls-4" points="81.43 102.81 74.28 106.22 64.79 104.6 71.94 101.19 81.43 102.81"/><polygon class="cls-3" points="79.48 97.59 88.97 99.21 88.93 99.23 79.43 97.61 79.48 97.59"/><polygon class="cls-6" points="79.43 97.61 71.94 101.19 62.44 99.58 69.95 96 79.43 97.61"/><polygon class="cls-2" points="77.21 92.53 69.95 96 60.45 94.38 67.83 90.86 67.87 90.93 77.21 92.53"/><polygon class="cls-3" points="74.28 106.22 66.95 109.72 66.93 109.83 57.39 108.2 57.4 108.13 64.79 104.6 74.28 106.22"/><polygon class="cls-3" points="71.94 101.19 64.79 104.6 55.3 102.99 62.44 99.58 71.94 101.19"/><polygon class="cls-2" points="69.95 96 62.44 99.58 52.95 97.96 60.45 94.38 69.95 96"/><polygon class="cls-2" points="64.79 104.6 57.4 108.13 57.39 108.2 47.85 106.58 47.85 106.54 55.3 102.99 64.79 104.6"/><polygon class="cls-2" points="62.44 99.58 55.3 102.99 45.8 101.37 52.95 97.96 62.44 99.58"/><polygon class="cls-2" points="55.3 102.99 47.85 106.54 47.85 106.58 38.3 104.95 45.8 101.37 55.3 102.99"/><polyline class="cls-7" points="108.01 90.12 117.69 91.65 127.38 93.17 137.06 94.7 146.75 96.23 159.39 98.22 152.74 101.28 146.03 104.38 138.66 107.78 130.98 111.32 123.76 114.66"/><polyline class="cls-7" points="123.75 114.66 116.07 118.2 105.1 116.33 95.56 114.71 86.01 113.08 76.47 111.45 66.93 109.83 57.39 108.2 47.85 106.58 38.3 104.95 45.8 101.37 52.95 97.96 60.45 94.38 67.83 90.86 74.1 87.86 78.95 85.55 88.51 87.05 98.32 88.6 108 90.12"/><polyline class="cls-7" points="47.85 106.54 55.3 102.99 62.44 99.58 69.95 96 77.21 92.53 83.56 89.5 88.5 87.14"/><polyline class="cls-7" points="86.71 94.14 93.05 91.11 98.32 88.6 98.42 88.55"/><polyline class="cls-7" points="57.4 108.13 64.79 104.6 71.94 101.19 79.43 97.61 79.48 97.59 86.7 94.14"/><polyline class="cls-7" points="96.51 95.61 102.54 92.73 108 90.12 108.01 90.12"/><polyline class="cls-7" points="66.95 109.72 74.28 106.22 81.43 102.81 88.93 99.23 88.97 99.21"/><polyline class="cls-7" points="76.5 111.32 83.77 107.84 90.92 104.43 98.42 100.85 105.69 97.38 112.04 94.35 117.69 91.65"/><polyline class="cls-7" points="86.04 112.91 93.27 109.46 100.42 106.05 107.91 102.47 115.18 99 121.53 95.97 127.38 93.17"/><polyline class="cls-7" points="117.67 103.96 124.67 100.62 131.03 97.58 137.06 94.7"/><polyline class="cls-7" points="95.59 114.5 102.76 111.08 109.91 107.66 110.41 107.43"/><polyline class="cls-7" points="105.14 116.09 112.25 112.7 119.4 109.28 126.9 105.7 134.17 102.23 140.52 99.2 146.75 96.23"/><polyline class="cls-7" points="123.76 114.66 123.75 114.66 112.25 112.7 102.76 111.08 93.27 109.46 83.77 107.84 74.28 106.22 64.79 104.6 55.3 102.99 45.8 101.37"/><polyline class="cls-7" points="130.94 111.25 119.4 109.28 109.91 107.66 100.42 106.05 90.92 104.43 81.43 102.81 71.94 101.19 62.44 99.58 52.95 97.96 52.89 97.95"/><polyline class="cls-7" points="116.71 103.97 107.91 102.47 98.42 100.85 88.93 99.23 79.43 97.61 69.95 96 60.45 94.38"/><polyline class="cls-7" points="138.62 107.7 126.9 105.7 126.21 105.59"/><polyline class="cls-7" points="86.71 94.14 86.7 94.14 77.21 92.53 67.87 90.93"/><polyline class="cls-7" points="145.97 104.25 134.17 102.23 124.67 100.62 115.18 99 105.69 97.38 96.2 95.76"/><polyline class="cls-7" points="152.74 101.28 140.52 99.2 131.03 97.58 121.53 95.97 112.04 94.35 102.54 92.73 93.05 91.11 83.56 89.5 74.11 87.89"/><polygon class="cls-7" points="79.48 97.59 88.97 99.21 88.98 99.21 96.2 95.76 96.53 95.61 96.51 95.61 86.99 94.01 86.71 94.14 79.48 97.59"/><polygon class="cls-7" points="116.71 103.97 109.71 107.31 110.41 107.43 119.2 108.93 126.21 105.59 126.47 105.46 117.67 103.96 116.98 103.84 116.71 103.97"/><polygon class="cls-2" points="159.39 83.15 152.74 86.22 140.52 84.14 146.75 81.16 159.39 83.15"/><polygon class="cls-2" points="152.74 86.22 146.03 89.32 145.97 89.18 134.17 87.17 140.52 84.14 152.74 86.22"/><polygon class="cls-3" points="146.75 81.16 140.52 84.14 131.03 82.52 137.06 79.64 146.75 81.16"/><polygon class="cls-2" points="145.97 89.18 146.03 89.32 138.66 92.72 138.62 92.64 126.9 90.64 134.17 87.17 145.97 89.18"/><polygon class="cls-3" points="140.52 84.14 134.17 87.17 124.67 85.55 131.03 82.52 140.52 84.14"/><polygon class="cls-2" points="138.62 92.64 138.66 92.72 130.98 96.26 130.94 96.19 119.4 94.22 126.9 90.64 138.62 92.64"/><polygon class="cls-3" points="137.06 79.64 131.03 82.52 121.53 80.9 127.38 78.11 137.06 79.64"/><polygon class="cls-3" points="131.03 82.52 124.67 85.55 115.18 83.94 121.53 80.9 131.03 82.52"/><polygon class="cls-2" points="130.94 96.19 130.98 96.26 123.76 99.59 123.75 99.59 112.25 97.64 119.4 94.22 130.94 96.19"/><polygon class="cls-3" points="127.38 78.11 121.53 80.9 112.04 79.28 117.69 76.58 127.38 78.11"/><polygon class="cls-3" points="126.9 90.64 126.21 90.52 126.47 90.4 117.67 88.89 124.67 85.55 134.17 87.17 126.9 90.64"/><polygon class="cls-3" points="126.47 90.4 126.21 90.52 117.41 89.02 117.67 88.89 126.47 90.4"/><polygon class="cls-5" points="117.41 89.02 126.21 90.52 119.2 93.86 110.41 92.36 117.41 89.02"/><polygon class="cls-5" points="124.67 85.55 117.67 88.89 116.98 88.78 116.71 88.9 107.91 87.4 115.18 83.94 124.67 85.55"/><polygon class="cls-2" points="123.75 99.59 116.07 103.14 105.1 101.27 105.14 101.03 112.25 97.64 123.75 99.59"/><polygon class="cls-3" points="121.53 80.9 115.18 83.94 105.69 82.32 112.04 79.28 121.53 80.9"/><polygon class="cls-5" points="119.4 94.22 112.25 97.64 102.76 96.02 109.91 92.6 119.4 94.22"/><polygon class="cls-3" points="126.21 90.52 126.9 90.64 119.4 94.22 109.91 92.6 110.41 92.36 119.2 93.86 126.21 90.52"/><polygon class="cls-3" points="117.69 76.58 112.04 79.28 102.54 77.67 108 75.06 108.01 75.06 117.69 76.58"/><polygon class="cls-3" points="117.67 88.89 117.41 89.02 116.71 88.9 116.98 88.78 117.67 88.89"/><polygon class="cls-5" points="117.41 89.02 110.41 92.36 109.71 92.25 116.71 88.9 117.41 89.02"/><polygon class="cls-5" points="115.18 83.94 107.91 87.4 98.42 85.78 105.69 82.32 115.18 83.94"/><polygon class="cls-2" points="102.76 96.02 112.25 97.64 105.14 101.03 105.1 101.27 95.56 99.64 95.59 99.44 102.76 96.02"/><polygon class="cls-3" points="112.04 79.28 105.69 82.32 96.2 80.7 96.53 80.55 96.51 80.55 102.54 77.67 112.04 79.28"/><polygon class="cls-5" points="109.71 92.25 110.41 92.36 109.91 92.6 100.42 90.98 107.91 87.4 116.71 88.9 109.71 92.25"/><polygon class="cls-5" points="109.91 92.6 102.76 96.02 93.27 94.4 100.42 90.98 109.91 92.6"/><polygon class="cls-3" points="108 75.06 102.54 77.67 93.05 76.05 98.32 73.54 108 75.06"/><polygon class="cls-5" points="107.91 87.4 100.42 90.98 90.92 89.37 98.42 85.78 107.91 87.4"/><polygon class="cls-2" points="102.76 96.02 95.59 99.44 95.56 99.64 86.01 98.02 86.04 97.84 93.27 94.4 102.76 96.02"/><polygon class="cls-2" points="100.42 90.98 93.27 94.4 83.77 92.78 90.92 89.37 100.42 90.98"/><polygon class="cls-5" points="98.42 85.78 90.92 89.37 81.43 87.75 88.93 84.17 98.42 85.78"/><polygon class="cls-3" points="88.51 71.99 98.32 73.54 93.05 76.05 83.56 74.43 88.5 72.08 88.51 71.99"/><polygon class="cls-3" points="96.53 80.55 96.2 80.7 96.19 80.7 96.51 80.55 96.53 80.55"/><polygon class="cls-3" points="86.99 78.95 96.51 80.55 96.19 80.7 86.71 79.08 86.99 78.95"/><polygon class="cls-3" points="96.2 80.7 88.98 84.15 88.97 84.15 96.19 80.7 96.2 80.7"/><polygon class="cls-3" points="96.19 80.7 88.97 84.15 79.48 82.53 86.71 79.08 96.19 80.7"/><polygon class="cls-3" points="93.27 94.4 86.04 97.84 86.01 98.02 76.47 96.39 76.5 96.25 83.77 92.78 93.27 94.4"/><polygon class="cls-3" points="93.05 76.05 86.71 79.08 86.7 79.08 77.21 77.47 83.56 74.43 93.05 76.05"/><polygon class="cls-6" points="90.92 89.37 83.77 92.78 74.28 91.16 81.43 87.75 90.92 89.37"/><polygon class="cls-5" points="88.98 84.15 96.2 80.7 105.69 82.32 98.42 85.78 88.93 84.17 88.97 84.15 88.98 84.15"/><polygon class="cls-6" points="88.93 84.17 81.43 87.75 71.94 86.13 79.43 82.55 88.93 84.17"/><polygon class="cls-3" points="88.51 71.99 88.5 72.08 83.56 74.43 74.11 72.82 74.1 72.8 78.95 70.48 88.51 71.99"/><polygon class="cls-3" points="86.71 79.08 93.05 76.05 102.54 77.67 96.51 80.55 86.99 78.95 86.71 79.08"/><polygon class="cls-3" points="86.71 79.08 79.48 82.53 86.7 79.08 86.71 79.08"/><polygon class="cls-3" points="86.7 79.08 79.48 82.53 79.43 82.55 69.95 80.93 77.21 77.47 86.7 79.08"/><polygon class="cls-4" points="83.77 92.78 76.5 96.25 76.47 96.39 66.93 94.77 66.95 94.66 74.28 91.16 83.77 92.78"/><polygon class="cls-3" points="83.56 74.43 77.21 77.47 67.87 75.87 67.83 75.8 74.1 72.8 74.11 72.82 83.56 74.43"/><polygon class="cls-6" points="81.43 87.75 74.28 91.16 64.79 89.54 71.94 86.13 81.43 87.75"/><polygon class="cls-3" points="79.48 82.53 88.97 84.15 88.93 84.17 79.43 82.55 79.48 82.53"/><polygon class="cls-6" points="79.43 82.55 71.94 86.13 62.44 84.51 69.95 80.93 79.43 82.55"/><polygon class="cls-2" points="77.21 77.47 69.95 80.93 60.45 79.31 67.83 75.8 67.87 75.87 77.21 77.47"/><polygon class="cls-3" points="74.28 91.16 66.95 94.66 66.93 94.77 57.39 93.14 57.4 93.07 64.79 89.54 74.28 91.16"/><polygon class="cls-3" points="71.94 86.13 64.79 89.54 55.3 87.93 62.44 84.51 71.94 86.13"/><polygon class="cls-2" points="69.95 80.93 62.44 84.51 52.95 82.89 60.45 79.31 69.95 80.93"/><polygon class="cls-2" points="64.79 89.54 57.4 93.07 57.39 93.14 47.85 91.51 47.85 91.48 55.3 87.93 64.79 89.54"/><polygon class="cls-2" points="62.44 84.51 55.3 87.93 45.8 86.31 52.95 82.89 62.44 84.51"/><polygon class="cls-2" points="55.3 87.93 47.85 91.48 47.85 91.51 38.3 89.89 45.8 86.31 55.3 87.93"/><polyline class="cls-7" points="108.01 75.06 117.69 76.58 127.38 78.11 137.06 79.64 146.75 81.16 159.39 83.15 152.74 86.22 146.03 89.32 138.66 92.72 130.98 96.26 123.76 99.59"/><polyline class="cls-7" points="123.75 99.59 116.07 103.14 105.1 101.27 95.56 99.64 86.01 98.02 76.47 96.39 66.93 94.77 57.39 93.14 47.85 91.51 38.3 89.89 45.8 86.31 52.95 82.89 60.45 79.31 67.83 75.8 74.1 72.8 78.95 70.48 88.51 71.99 98.32 73.54 108 75.06"/><polyline class="cls-7" points="47.85 91.48 55.3 87.93 62.44 84.51 69.95 80.93 77.21 77.47 83.56 74.43 88.5 72.08"/><polyline class="cls-7" points="86.71 79.08 93.05 76.05 98.32 73.54 98.42 73.49"/><polyline class="cls-7" points="57.4 93.07 64.79 89.54 71.94 86.13 79.43 82.55 79.48 82.53 86.7 79.08"/><polyline class="cls-7" points="96.51 80.55 102.54 77.67 108 75.06 108.01 75.06"/><polyline class="cls-7" points="66.95 94.66 74.28 91.16 81.43 87.75 88.93 84.17 88.97 84.15"/><polyline class="cls-7" points="76.5 96.25 83.77 92.78 90.92 89.37 98.42 85.78 105.69 82.32 112.04 79.28 117.69 76.58"/><polyline class="cls-7" points="86.04 97.84 93.27 94.4 100.42 90.98 107.91 87.4 115.18 83.94 121.53 80.9 127.38 78.11"/><polyline class="cls-7" points="117.67 88.89 124.67 85.55 131.03 82.52 137.06 79.64"/><polyline class="cls-7" points="95.59 99.44 102.76 96.02 109.91 92.6 110.41 92.36"/><polyline class="cls-7" points="105.14 101.03 112.25 97.64 119.4 94.22 126.9 90.64 134.17 87.17 140.52 84.14 146.75 81.16"/><polyline class="cls-7" points="123.76 99.59 123.75 99.59 112.25 97.64 102.76 96.02 93.27 94.4 83.77 92.78 74.28 91.16 64.79 89.54 55.3 87.93 45.8 86.31"/><polyline class="cls-7" points="130.94 96.19 119.4 94.22 109.91 92.6 100.42 90.98 90.92 89.37 81.43 87.75 71.94 86.13 62.44 84.51 52.95 82.89 52.89 82.89"/><polyline class="cls-7" points="116.71 88.9 107.91 87.4 98.42 85.78 88.93 84.17 79.43 82.55 69.95 80.93 60.45 79.31"/><polyline class="cls-7" points="138.62 92.64 126.9 90.64 126.21 90.52"/><polyline class="cls-7" points="86.71 79.08 86.7 79.08 77.21 77.47 67.87 75.87"/><polyline class="cls-7" points="145.97 89.18 134.17 87.17 124.67 85.55 115.18 83.94 105.69 82.32 96.2 80.7"/><polyline class="cls-7" points="152.74 86.22 140.52 84.14 131.03 82.52 121.53 80.9 112.04 79.28 102.54 77.67 93.05 76.05 83.56 74.43 74.11 72.82"/><polygon class="cls-7" points="79.48 82.53 88.97 84.15 88.98 84.15 96.2 80.7 96.53 80.55 96.51 80.55 86.99 78.95 86.71 79.08 79.48 82.53"/><polygon class="cls-7" points="116.71 88.9 109.71 92.25 110.41 92.36 119.2 93.86 126.21 90.52 126.47 90.4 117.67 88.89 116.98 88.78 116.71 88.9"/><polygon class="cls-2" points="159.39 68.09 152.74 71.16 140.52 69.08 146.75 66.1 159.39 68.09"/><polygon class="cls-2" points="152.74 71.16 146.03 74.25 145.97 74.12 134.17 72.11 140.52 69.08 152.74 71.16"/><polygon class="cls-3" points="146.75 66.1 140.52 69.08 131.03 67.46 137.06 64.58 146.75 66.1"/><polygon class="cls-2" points="145.97 74.12 146.03 74.25 138.66 77.66 138.62 77.57 126.9 75.58 134.17 72.11 145.97 74.12"/><polygon class="cls-3" points="140.52 69.08 134.17 72.11 124.67 70.49 131.03 67.46 140.52 69.08"/><polygon class="cls-2" points="138.62 77.57 138.66 77.66 130.98 81.2 130.94 81.12 119.4 79.15 126.9 75.58 138.62 77.57"/><polygon class="cls-3" points="137.06 64.58 131.03 67.46 121.53 65.84 127.38 63.05 137.06 64.58"/><polygon class="cls-3" points="131.03 67.46 124.67 70.49 115.18 68.87 121.53 65.84 131.03 67.46"/><polygon class="cls-2" points="130.94 81.12 130.98 81.2 123.76 84.53 123.75 84.53 112.25 82.57 119.4 79.15 130.94 81.12"/><polygon class="cls-3" points="127.38 63.05 121.53 65.84 112.04 64.22 117.69 61.52 127.38 63.05"/><polygon class="cls-3" points="126.9 75.58 126.21 75.46 126.47 75.33 117.67 73.83 124.67 70.49 134.17 72.11 126.9 75.58"/><polygon class="cls-3" points="126.47 75.33 126.21 75.46 117.41 73.96 117.67 73.83 126.47 75.33"/><polygon class="cls-2" points="117.41 73.96 126.21 75.46 119.2 78.8 110.41 77.3 117.41 73.96"/><polygon class="cls-4" points="124.67 70.49 117.67 73.83 116.98 73.71 116.71 73.84 107.91 72.34 115.18 68.87 124.67 70.49"/><polygon class="cls-2" points="123.75 84.53 116.07 88.08 105.1 86.21 105.14 85.96 112.25 82.57 123.75 84.53"/><polygon class="cls-4" points="121.53 65.84 115.18 68.87 105.69 67.26 112.04 64.22 121.53 65.84"/><polygon class="cls-5" points="119.4 79.15 112.25 82.57 102.76 80.95 109.91 77.54 119.4 79.15"/><polygon class="cls-3" points="126.21 75.46 126.9 75.58 119.4 79.15 109.91 77.54 110.41 77.3 119.2 78.8 126.21 75.46"/><polygon class="cls-3" points="117.69 61.52 112.04 64.22 102.54 62.61 108 60 108.01 60 117.69 61.52"/><polygon class="cls-3" points="117.67 73.83 117.41 73.96 116.71 73.84 116.98 73.71 117.67 73.83"/><polygon class="cls-2" points="117.41 73.96 110.41 77.3 109.71 77.18 116.71 73.84 117.41 73.96"/><polygon class="cls-4" points="115.18 68.87 107.91 72.34 98.42 70.72 105.69 67.26 115.18 68.87"/><polygon class="cls-2" points="102.76 80.95 112.25 82.57 105.14 85.96 105.1 86.21 95.56 84.58 95.59 84.37 102.76 80.95"/><polygon class="cls-3" points="112.04 64.22 105.69 67.26 96.2 65.64 96.53 65.48 96.51 65.48 102.54 62.61 112.04 64.22"/><polygon class="cls-2" points="109.71 77.18 110.41 77.3 109.91 77.54 100.42 75.92 107.91 72.34 116.71 73.84 109.71 77.18"/><polygon class="cls-5" points="109.91 77.54 102.76 80.95 93.27 79.33 100.42 75.92 109.91 77.54"/><polygon class="cls-3" points="108 60 102.54 62.61 93.05 60.99 98.32 58.48 108 60"/><polygon class="cls-5" points="107.91 72.34 100.42 75.92 90.92 74.3 98.42 70.72 107.91 72.34"/><polygon class="cls-2" points="102.76 80.95 95.59 84.37 95.56 84.58 86.01 82.95 86.04 82.78 93.27 79.33 102.76 80.95"/><polygon class="cls-2" points="100.42 75.92 93.27 79.33 83.77 77.72 90.92 74.3 100.42 75.92"/><polygon class="cls-5" points="98.42 70.72 90.92 74.3 81.43 72.69 88.93 69.11 98.42 70.72"/><polygon class="cls-3" points="88.51 56.93 98.32 58.48 93.05 60.99 83.56 59.37 88.5 57.01 88.51 56.93"/><polygon class="cls-3" points="96.53 65.48 96.2 65.64 96.19 65.64 96.51 65.48 96.53 65.48"/><polygon class="cls-3" points="86.99 63.89 96.51 65.48 96.19 65.64 86.71 64.02 86.99 63.89"/><polygon class="cls-3" points="96.2 65.64 88.98 69.08 88.97 69.08 96.19 65.64 96.2 65.64"/><polygon class="cls-3" points="96.19 65.64 88.97 69.08 79.48 67.47 86.71 64.02 96.19 65.64"/><polygon class="cls-2" points="93.27 79.33 86.04 82.78 86.01 82.95 76.47 81.33 76.5 81.19 83.77 77.72 93.27 79.33"/><polygon class="cls-3" points="93.05 60.99 86.71 64.02 86.7 64.02 77.21 62.4 83.56 59.37 93.05 60.99"/><polygon class="cls-6" points="90.92 74.3 83.77 77.72 74.28 76.1 81.43 72.69 90.92 74.3"/><polygon class="cls-5" points="88.98 69.08 96.2 65.64 105.69 67.26 98.42 70.72 88.93 69.11 88.97 69.08 88.98 69.08"/><polygon class="cls-6" points="88.93 69.11 81.43 72.69 71.94 71.06 79.43 67.49 88.93 69.11"/><polygon class="cls-3" points="88.51 56.93 88.5 57.01 83.56 59.37 74.11 57.76 74.1 57.73 78.95 55.42 88.51 56.93"/><polygon class="cls-3" points="86.71 64.02 93.05 60.99 102.54 62.61 96.51 65.48 86.99 63.89 86.71 64.02"/><polygon class="cls-3" points="86.71 64.02 79.48 67.47 86.7 64.02 86.71 64.02"/><polygon class="cls-3" points="86.7 64.02 79.48 67.47 79.43 67.49 69.95 65.87 77.21 62.4 86.7 64.02"/><polygon class="cls-6" points="83.77 77.72 76.5 81.19 76.47 81.33 66.93 79.7 66.95 79.6 74.28 76.1 83.77 77.72"/><polygon class="cls-3" points="83.56 59.37 77.21 62.4 67.87 60.81 67.83 60.73 74.1 57.73 74.11 57.76 83.56 59.37"/><polygon class="cls-6" points="81.43 72.69 74.28 76.1 64.79 74.48 71.94 71.06 81.43 72.69"/><polygon class="cls-3" points="79.48 67.47 88.97 69.08 88.93 69.11 79.43 67.49 79.48 67.47"/><polygon class="cls-6" points="79.43 67.49 71.94 71.06 62.44 69.45 69.95 65.87 79.43 67.49"/><polygon class="cls-2" points="77.21 62.4 69.95 65.87 60.45 64.25 67.83 60.73 67.87 60.81 77.21 62.4"/><polygon class="cls-3" points="74.28 76.1 66.95 79.6 66.93 79.7 57.39 78.08 57.4 78.01 64.79 74.48 74.28 76.1"/><polygon class="cls-3" points="71.94 71.06 64.79 74.48 55.3 72.86 62.44 69.45 71.94 71.06"/><polygon class="cls-2" points="69.95 65.87 62.44 69.45 52.95 67.83 60.45 64.25 69.95 65.87"/><polygon class="cls-2" points="64.79 74.48 57.4 78.01 57.39 78.08 47.85 76.45 47.85 76.42 55.3 72.86 64.79 74.48"/><polygon class="cls-2" points="62.44 69.45 55.3 72.86 45.8 71.24 52.95 67.83 62.44 69.45"/><polygon class="cls-2" points="55.3 72.86 47.85 76.42 47.85 76.45 38.3 74.82 45.8 71.24 55.3 72.86"/><polyline class="cls-7" points="108.01 60 117.69 61.52 127.38 63.05 137.06 64.58 146.75 66.1 159.39 68.09 152.74 71.16 146.03 74.25 138.66 77.66 130.98 81.2 123.76 84.53"/><polyline class="cls-7" points="123.75 84.53 116.07 88.08 105.1 86.21 95.56 84.58 86.01 82.95 76.47 81.33 66.93 79.7 57.39 78.08 47.85 76.45 38.3 74.82 45.8 71.24 52.95 67.83 60.45 64.25 67.83 60.73 74.1 57.73 78.95 55.42 88.51 56.93 98.32 58.48 108 60"/><polyline class="cls-7" points="47.85 76.42 55.3 72.86 62.44 69.45 69.95 65.87 77.21 62.4 83.56 59.37 88.5 57.01"/><polyline class="cls-7" points="86.71 64.02 93.05 60.99 98.32 58.48 98.42 58.42"/><polyline class="cls-7" points="57.4 78.01 64.79 74.48 71.94 71.06 79.43 67.49 79.48 67.47 86.7 64.02"/><polyline class="cls-7" points="96.51 65.48 102.54 62.61 108 60 108.01 60"/><polyline class="cls-7" points="66.95 79.6 74.28 76.1 81.43 72.69 88.93 69.11 88.97 69.08"/><polyline class="cls-7" points="76.5 81.19 83.77 77.72 90.92 74.3 98.42 70.72 105.69 67.26 112.04 64.22 117.69 61.52"/><polyline class="cls-7" points="86.04 82.78 93.27 79.33 100.42 75.92 107.91 72.34 115.18 68.87 121.53 65.84 127.38 63.05"/><polyline class="cls-7" points="117.67 73.83 124.67 70.49 131.03 67.46 137.06 64.58"/><polyline class="cls-7" points="95.59 84.37 102.76 80.95 109.91 77.54 110.41 77.3"/><polyline class="cls-7" points="105.14 85.96 112.25 82.57 119.4 79.15 126.9 75.58 134.17 72.11 140.52 69.08 146.75 66.1"/><polyline class="cls-7" points="123.76 84.53 123.75 84.53 112.25 82.57 102.76 80.95 93.27 79.33 83.77 77.72 74.28 76.1 64.79 74.48 55.3 72.86 45.8 71.24"/><polyline class="cls-7" points="130.94 81.12 119.4 79.15 109.91 77.54 100.42 75.92 90.92 74.3 81.43 72.69 71.94 71.06 62.44 69.45 52.95 67.83 52.89 67.82"/><polyline class="cls-7" points="116.71 73.84 107.91 72.34 98.42 70.72 88.93 69.11 79.43 67.49 69.95 65.87 60.45 64.25"/><polyline class="cls-7" points="138.62 77.57 126.9 75.58 126.21 75.46"/><polyline class="cls-7" points="86.71 64.02 86.7 64.02 77.21 62.4 67.87 60.81"/><polyline class="cls-7" points="145.97 74.12 134.17 72.11 124.67 70.49 115.18 68.87 105.69 67.26 96.2 65.64"/><polyline class="cls-7" points="152.74 71.16 140.52 69.08 131.03 67.46 121.53 65.84 112.04 64.22 102.54 62.61 93.05 60.99 83.56 59.37 74.11 57.76"/><polygon class="cls-7" points="79.48 67.47 88.97 69.08 88.98 69.08 96.2 65.64 96.53 65.48 96.51 65.48 86.99 63.89 86.71 64.02 79.48 67.47"/><polygon class="cls-7" points="116.71 73.84 109.71 77.18 110.41 77.3 119.2 78.8 126.21 75.46 126.47 75.33 117.67 73.83 116.98 73.71 116.71 73.84"/><text class="cls-8" transform="translate(67.06 21.93)">Daymet daily<tspan x="-29.05" y="13.2">temperature/precipitation</tspan><tspan x="21.08" y="26.4">data</tspan></text><text class="cls-8" transform="translate(277.07 21.93)">PoPS daily<tspan x="-33.94" y="13.2">temperature/precipitation</tspan><tspan x="-0.51" y="26.4">coe</tspan><tspan class="cls-9" x="17.22" y="26.4">f</tspan><tspan x="20.08" y="26.4">ficients</tspan></text><text class="cls-8" transform="translate(471.69 21.93)">PoPS average <tspan x="-0.6" y="13.2">weekly/monthly</tspan><tspan x="-23.84" y="26.4">temperature/precipitation</tspan><tspan x="9.58" y="39.6">coe</tspan><tspan class="cls-9" x="27.32" y="39.6">f</tspan><tspan x="30.17" y="39.6">ficients</tspan></text><polygon class="cls-10" points="569.24 90.93 562.58 94 550.35 91.91 556.59 88.93 556.59 88.93 569.24 90.93"/><polygon class="cls-10" points="562.58 94 555.88 97.09 555.82 96.95 544.01 94.94 550.35 91.91 562.58 94"/><polygon class="cls-10" points="556.59 88.93 550.35 91.91 540.86 90.29 546.9 87.41 546.91 87.41 556.59 88.93"/><polygon class="cls-10" points="555.82 96.95 555.88 97.09 548.5 100.5 548.46 100.41 536.73 98.41 544.01 94.94 555.82 96.95"/><polygon class="cls-10" points="550.35 91.91 544.01 94.94 534.51 93.33 540.86 90.29 550.35 91.91"/><polygon class="cls-10" points="548.46 100.41 548.5 100.5 540.82 104.04 540.78 103.96 529.24 101.99 536.73 98.41 548.46 100.41"/><polygon class="cls-10" points="546.9 87.41 540.86 90.29 531.37 88.68 537.22 85.89 546.9 87.41"/><polygon class="cls-10" points="540.86 90.29 534.51 93.33 525.03 91.71 531.37 88.68 540.86 90.29"/><polygon class="cls-10" points="540.78 103.96 540.82 104.04 533.6 107.36 522.09 105.41 529.24 101.99 540.78 103.96"/><polygon class="cls-10" points="537.22 85.89 531.37 88.68 521.88 87.06 527.54 84.36 537.22 85.89"/><polygon class="cls-10" points="536.73 98.41 536.05 98.29 536.31 98.17 527.51 96.67 534.51 93.33 544.01 94.94 536.73 98.41"/><polygon class="cls-10" points="536.31 98.17 536.05 98.29 527.25 96.79 527.51 96.67 536.31 98.17"/><polygon class="cls-10" points="536.05 98.29 529.04 101.64 520.24 100.14 527.25 96.79 536.05 98.29"/><polygon class="cls-11" points="534.51 93.33 527.51 96.67 526.82 96.55 526.55 96.68 517.76 95.18 525.03 91.71 534.51 93.33"/><polygon class="cls-10" points="533.6 107.36 525.91 110.91 514.94 109.04 514.98 108.8 522.09 105.41 533.6 107.36"/><polygon class="cls-10" points="521.88 87.06 531.37 88.68 525.03 91.71 515.53 90.09 521.88 87.06"/><polygon class="cls-10" points="529.24 101.99 522.09 105.41 512.6 103.79 519.75 100.37 529.24 101.99"/><polygon class="cls-10" points="529.24 101.99 519.75 100.37 520.24 100.14 529.04 101.64 536.05 98.29 536.73 98.41 529.24 101.99"/><polygon class="cls-10" points="527.54 84.36 521.88 87.06 512.39 85.44 517.85 82.83 527.54 84.36"/><polygon class="cls-10" points="526.82 96.55 527.51 96.67 527.25 96.79 526.55 96.68 526.82 96.55"/><polygon class="cls-10" points="527.25 96.79 520.24 100.14 519.55 100.02 526.55 96.68 527.25 96.79"/><polygon class="cls-11" points="525.03 91.71 517.76 95.18 508.26 93.56 515.53 90.09 525.03 91.71"/><polygon class="cls-10" points="512.6 103.79 522.09 105.41 514.98 108.8 514.94 109.04 505.4 107.42 505.43 107.21 512.6 103.79"/><polygon class="cls-11" points="521.88 87.06 515.53 90.09 506.04 88.47 506.36 88.32 506.37 88.32 512.39 85.44 521.88 87.06"/><polygon class="cls-11" points="519.55 100.02 520.24 100.14 519.75 100.37 510.26 98.76 517.76 95.18 526.55 96.68 519.55 100.02"/><polygon class="cls-12" points="519.75 100.37 512.6 103.79 503.11 102.17 510.26 98.76 519.75 100.37"/><polygon class="cls-10" points="517.85 82.83 512.39 85.44 502.89 83.83 508.17 81.31 517.85 82.83"/><polygon class="cls-12" points="517.76 95.18 510.26 98.76 500.76 97.14 508.26 93.56 517.76 95.18"/><polygon class="cls-10" points="512.6 103.79 505.43 107.21 505.4 107.42 495.86 105.79 495.88 105.62 503.11 102.17 512.6 103.79"/><polygon class="cls-12" points="510.26 98.76 503.11 102.17 493.62 100.55 500.76 97.14 510.26 98.76"/><polygon class="cls-12" points="508.26 93.56 500.76 97.14 491.27 95.52 498.77 91.94 508.26 93.56"/><polygon class="cls-10" points="508.17 81.31 502.89 83.83 493.4 82.2 498.34 79.85 498.35 79.76 508.17 81.31"/><polygon class="cls-10" points="506.36 88.32 506.04 88.47 506.04 88.47 496.56 86.86 496.83 86.72 506.36 88.32"/><polygon class="cls-13" points="506.04 88.47 498.82 91.92 506.04 88.47 506.04 88.47"/><polygon class="cls-13" points="506.04 88.47 498.82 91.92 498.82 91.92 489.33 90.3 496.56 86.86 506.04 88.47"/><polygon class="cls-10" points="493.62 100.55 503.11 102.17 495.88 105.62 495.86 105.79 486.31 104.16 486.34 104.02 493.62 100.55"/><polygon class="cls-13" points="493.4 82.2 502.89 83.83 496.55 86.85 487.05 85.24 493.4 82.2"/><polygon class="cls-10" points="500.76 97.14 493.62 100.55 484.12 98.93 491.27 95.52 500.76 97.14"/><polygon class="cls-11" points="498.82 91.92 506.04 88.47 515.53 90.09 508.26 93.56 498.77 91.94 498.82 91.92 498.82 91.92"/><polygon class="cls-12" points="498.77 91.94 491.27 95.52 481.78 93.9 489.28 90.32 498.77 91.94"/><polygon class="cls-10" points="498.35 79.76 498.34 79.85 493.4 82.2 483.95 80.59 483.94 80.57 488.79 78.26 498.35 79.76"/><polygon class="cls-10" points="496.55 86.85 502.89 83.83 512.39 85.44 506.37 88.32 506.36 88.32 496.83 86.72 496.56 86.86 496.55 86.85"/><polygon class="cls-13" points="496.55 86.85 489.28 90.32 479.78 88.7 487.05 85.24 496.55 86.85"/><polygon class="cls-13" points="493.62 100.55 486.34 104.02 486.31 104.16 476.77 102.54 476.79 102.43 484.12 98.93 493.62 100.55"/><polygon class="cls-10" points="493.4 82.2 487.05 85.24 477.71 83.64 477.67 83.56 483.94 80.57 483.95 80.59 493.4 82.2"/><polygon class="cls-13" points="491.27 95.52 484.12 98.93 474.63 97.31 481.78 93.9 491.27 95.52"/><polygon class="cls-10" points="489.33 90.3 498.82 91.92 498.77 91.94 489.28 90.32 496.55 86.85 496.56 86.86 489.33 90.3"/><polygon class="cls-10" points="479.78 88.7 489.28 90.32 481.78 93.9 472.29 92.28 479.78 88.7"/><polygon class="cls-10" points="487.05 85.24 479.78 88.7 470.29 87.08 477.67 83.56 477.71 83.64 487.05 85.24"/><polygon class="cls-13" points="484.12 98.93 476.79 102.43 476.77 102.54 467.23 100.91 467.24 100.84 474.63 97.31 484.12 98.93"/><polygon class="cls-13" points="481.78 93.9 474.63 97.31 465.14 95.7 472.29 92.28 481.78 93.9"/><polygon class="cls-10" points="479.78 88.7 472.29 92.28 462.79 90.66 470.29 87.08 479.78 88.7"/><polygon class="cls-10" points="474.63 97.31 467.24 100.84 467.23 100.91 457.69 99.28 457.69 99.25 465.14 95.7 474.63 97.31"/><polygon class="cls-10" points="472.29 92.28 465.14 95.7 455.64 94.08 462.79 90.66 472.29 92.28"/><polygon class="cls-10" points="465.14 95.7 457.69 99.25 457.69 99.28 448.14 97.66 455.64 94.08 465.14 95.7"/><polyline class="cls-7" points="556.59 88.93 569.24 90.93 562.58 94 555.88 97.09 548.5 100.5 540.82 104.04 533.6 107.36 525.91 110.91 514.94 109.04 505.4 107.42 495.86 105.79 486.31 104.16 476.77 102.54 467.23 100.91 457.69 99.28 448.14 97.66 455.64 94.08 462.79 90.66 470.29 87.08 477.67 83.56 483.94 80.57 488.79 78.26 498.35 79.76 508.17 81.31 517.85 82.83 527.54 84.36 537.22 85.89 546.9 87.41"/><line class="cls-7" x1="546.91" y1="87.41" x2="556.59" y2="88.93"/><polyline class="cls-7" points="457.69 99.25 465.14 95.7 472.29 92.28 479.78 88.7 487.05 85.24 493.4 82.2 498.34 79.85"/><polyline class="cls-7" points="467.24 100.84 474.63 97.31 481.78 93.9 489.28 90.32 496.55 86.85 502.89 83.83 508.17 81.31 508.26 81.26"/><line class="cls-7" x1="512.39" y1="85.44" x2="517.85" y2="82.83"/><polyline class="cls-7" points="476.79 102.43 484.12 98.93 491.27 95.52 498.77 91.94 498.82 91.92"/><polyline class="cls-7" points="486.34 104.02 493.62 100.55 500.76 97.14 508.26 93.56 515.53 90.09 521.88 87.06 527.54 84.36"/><polyline class="cls-7" points="495.88 105.62 503.11 102.17 510.26 98.76 517.76 95.18 525.03 91.71 531.37 88.68 537.22 85.89"/><polyline class="cls-7" points="527.51 96.67 534.51 93.33 540.86 90.29 546.9 87.41 546.91 87.41"/><polyline class="cls-7" points="505.43 107.21 512.6 103.79 519.75 100.37 520.24 100.14"/><polyline class="cls-7" points="514.98 108.8 522.09 105.41 529.24 101.99 536.73 98.41 544.01 94.94 550.35 91.91 556.59 88.93 556.59 88.93"/><polyline class="cls-7" points="533.6 107.36 522.09 105.41 512.6 103.79 503.11 102.17 493.62 100.55 484.12 98.93 474.63 97.31 465.14 95.7 455.64 94.08"/><polyline class="cls-7" points="540.78 103.96 529.24 101.99 519.75 100.37 510.26 98.76 500.76 97.14 491.27 95.52 481.78 93.9 472.29 92.28 462.79 90.66 462.73 90.66"/><polyline class="cls-7" points="526.55 96.68 517.76 95.18 508.26 93.56 498.77 91.94 489.28 90.32 479.78 88.7 470.29 87.08"/><polyline class="cls-7" points="548.46 100.41 536.73 98.41 536.05 98.29"/><polyline class="cls-7" points="496.56 86.86 496.55 86.85 487.05 85.24 477.71 83.64"/><polyline class="cls-7" points="555.82 96.95 544.01 94.94 534.51 93.33 525.03 91.71 515.53 90.09 506.04 88.47"/><polyline class="cls-7" points="562.58 94 550.35 91.91 540.86 90.29 531.37 88.68 521.88 87.06 512.39 85.44 502.89 83.83 493.4 82.2 483.95 80.59"/><polyline class="cls-7" points="506.36 88.32 496.83 86.72 496.56 86.86 489.33 90.3 498.82 91.92"/><polyline class="cls-7" points="506.36 88.32 506.37 88.32 512.39 85.44"/><polygon class="cls-7" points="526.55 96.68 519.55 100.02 520.24 100.14 529.04 101.64 536.05 98.29 536.31 98.17 527.51 96.67 526.82 96.55 526.55 96.68"/><polygon class="cls-10" points="364.52 112.69 357.87 115.75 345.64 113.67 351.88 110.69 351.88 110.69 364.52 112.69"/><polygon class="cls-10" points="357.87 115.75 351.17 118.85 351.1 118.71 339.29 116.7 345.64 113.67 357.87 115.75"/><polygon class="cls-10" points="351.88 110.69 345.64 113.67 336.15 112.05 342.19 109.17 342.19 109.17 351.88 110.69"/><polygon class="cls-10" points="351.1 118.71 351.17 118.85 343.78 122.25 343.75 122.17 332.02 120.17 339.29 116.7 351.1 118.71"/><polygon class="cls-10" points="345.64 113.67 339.29 116.7 329.8 115.08 336.15 112.05 345.64 113.67"/><polygon class="cls-10" points="343.75 122.17 343.78 122.25 336.11 125.79 336.07 125.72 324.52 123.75 332.02 120.17 343.75 122.17"/><polygon class="cls-10" points="342.19 109.17 336.15 112.05 326.66 110.44 332.51 107.64 342.19 109.17"/><polygon class="cls-10" points="336.15 112.05 329.8 115.08 320.31 113.46 326.66 110.44 336.15 112.05"/><polygon class="cls-10" points="336.07 125.72 336.11 125.79 328.88 129.12 317.38 127.16 324.52 123.75 336.07 125.72"/><polygon class="cls-10" points="332.51 107.64 326.66 110.44 317.17 108.82 322.82 106.12 332.51 107.64"/><polygon class="cls-10" points="332.02 120.17 331.33 120.05 331.6 119.92 322.79 118.43 329.8 115.08 339.29 116.7 332.02 120.17"/><polygon class="cls-10" points="331.6 119.92 331.33 120.05 322.53 118.55 322.79 118.43 331.6 119.92"/><polygon class="cls-10" points="331.33 120.05 324.33 123.39 315.53 121.9 322.53 118.55 331.33 120.05"/><polygon class="cls-11" points="329.8 115.08 322.79 118.43 322.11 118.31 321.84 118.44 313.05 116.94 320.31 113.46 329.8 115.08"/><polygon class="cls-10" points="328.88 129.12 321.19 132.67 310.22 130.8 310.27 130.56 317.38 127.16 328.88 129.12"/><polygon class="cls-10" points="317.17 108.82 326.66 110.44 320.31 113.46 310.82 111.85 317.17 108.82"/><polygon class="cls-10" points="324.52 123.75 317.38 127.16 307.89 125.54 315.04 122.13 324.52 123.75"/><polygon class="cls-10" points="331.33 120.05 332.02 120.17 324.52 123.75 315.04 122.13 315.53 121.9 324.33 123.39 331.33 120.05"/><polygon class="cls-10" points="322.82 106.12 317.17 108.82 307.67 107.2 313.14 104.59 322.82 106.12"/><polygon class="cls-10" points="322.11 118.31 322.79 118.43 322.53 118.55 321.84 118.44 322.11 118.31"/><polygon class="cls-10" points="322.53 118.55 315.53 121.9 314.84 121.78 321.84 118.44 322.53 118.55"/><polygon class="cls-11" points="320.31 113.46 313.05 116.94 303.55 115.32 310.82 111.85 320.31 113.46"/><polygon class="cls-10" points="307.89 125.54 317.38 127.16 310.27 130.56 310.22 130.8 300.69 129.17 300.72 128.97 307.89 125.54"/><polygon class="cls-11" points="317.17 108.82 310.82 111.85 301.33 110.23 301.65 110.08 301.65 110.08 307.67 107.2 317.17 108.82"/><polygon class="cls-11" points="314.84 121.78 315.53 121.9 315.04 122.13 305.55 120.51 313.05 116.94 321.84 118.44 314.84 121.78"/><polygon class="cls-12" points="315.04 122.13 307.89 125.54 298.4 123.93 305.55 120.51 315.04 122.13"/><polygon class="cls-10" points="313.14 104.59 307.67 107.2 298.18 105.58 303.45 103.06 313.14 104.59"/><polygon class="cls-12" points="313.05 116.94 305.55 120.51 296.05 118.89 303.55 115.32 313.05 116.94"/><polygon class="cls-10" points="307.89 125.54 300.72 128.97 300.69 129.17 291.14 127.55 291.17 127.38 298.4 123.93 307.89 125.54"/><polygon class="cls-12" points="305.55 120.51 298.4 123.93 288.9 122.31 296.05 118.89 305.55 120.51"/><polygon class="cls-12" points="303.55 115.32 296.05 118.89 286.56 117.28 294.06 113.7 303.55 115.32"/><polygon class="cls-10" points="303.45 103.06 298.18 105.58 288.69 103.96 293.63 101.6 293.64 101.52 303.45 103.06"/><polygon class="cls-10" points="301.65 110.08 301.33 110.23 301.33 110.23 291.84 108.61 292.12 108.48 301.65 110.08"/><polygon class="cls-13" points="301.33 110.23 294.11 113.67 301.33 110.23 301.33 110.23"/><polygon class="cls-13" points="301.33 110.23 294.11 113.67 294.11 113.67 284.61 112.06 291.84 108.61 301.33 110.23"/><polygon class="cls-10" points="288.9 122.31 298.4 123.93 291.17 127.38 291.14 127.55 281.6 125.92 281.63 125.78 288.9 122.31"/><polygon class="cls-13" points="288.69 103.96 298.18 105.58 291.83 108.61 282.34 106.99 288.69 103.96"/><polygon class="cls-10" points="296.05 118.89 288.9 122.31 279.41 120.69 286.56 117.28 296.05 118.89"/><polygon class="cls-11" points="294.11 113.67 301.33 110.23 310.82 111.85 303.55 115.32 294.06 113.7 294.11 113.67 294.11 113.67"/><polygon class="cls-12" points="294.06 113.7 286.56 117.28 277.06 115.66 284.57 112.08 294.06 113.7"/><polygon class="cls-10" points="293.64 101.52 293.63 101.6 288.69 103.96 279.24 102.35 279.23 102.33 284.08 100.01 293.64 101.52"/><polygon class="cls-10" points="291.83 108.61 298.18 105.58 307.67 107.2 301.65 110.08 301.65 110.08 292.12 108.48 291.84 108.61 291.83 108.61"/><polygon class="cls-13" points="291.83 108.61 284.57 112.08 275.07 110.46 282.34 106.99 291.83 108.61"/><polygon class="cls-13" points="288.9 122.31 281.63 125.78 281.6 125.92 272.06 124.29 272.07 124.19 279.41 120.69 288.9 122.31"/><polygon class="cls-10" points="288.69 103.96 282.34 106.99 273 105.4 272.96 105.32 279.23 102.33 279.24 102.35 288.69 103.96"/><polygon class="cls-13" points="286.56 117.28 279.41 120.69 269.92 119.07 277.06 115.66 286.56 117.28"/><polygon class="cls-10" points="284.61 112.06 294.11 113.67 294.06 113.7 284.57 112.08 291.83 108.61 291.84 108.61 284.61 112.06"/><polygon class="cls-10" points="275.07 110.46 284.57 112.08 277.06 115.66 267.57 114.04 275.07 110.46"/><polygon class="cls-10" points="282.34 106.99 275.07 110.46 265.58 108.84 272.96 105.32 273 105.4 282.34 106.99"/><polygon class="cls-13" points="279.41 120.69 272.07 124.19 272.06 124.29 262.51 122.67 262.53 122.6 269.92 119.07 279.41 120.69"/><polygon class="cls-13" points="277.06 115.66 269.92 119.07 260.43 117.45 267.57 114.04 277.06 115.66"/><polygon class="cls-10" points="275.07 110.46 267.57 114.04 258.08 112.42 265.58 108.84 275.07 110.46"/><polygon class="cls-10" points="269.92 119.07 262.53 122.6 262.51 122.67 252.98 121.04 252.98 121.01 260.43 117.45 269.92 119.07"/><polygon class="cls-10" points="267.57 114.04 260.43 117.45 250.93 115.83 258.08 112.42 267.57 114.04"/><polygon class="cls-10" points="260.43 117.45 252.98 121.01 252.98 121.04 243.43 119.41 250.93 115.83 260.43 117.45"/><polyline class="cls-7" points="351.88 110.69 364.52 112.69 357.87 115.75 351.17 118.85 343.78 122.25 336.11 125.79 328.88 129.12 321.19 132.67 310.22 130.8 300.69 129.17 291.14 127.55 281.6 125.92 272.06 124.29 262.51 122.67 252.98 121.04 243.43 119.41 250.93 115.83 258.08 112.42 265.58 108.84 272.96 105.32 279.23 102.33 284.08 100.01 293.64 101.52 303.45 103.06 313.14 104.59 322.82 106.12 332.51 107.64 342.19 109.17"/><line class="cls-7" x1="342.19" y1="109.17" x2="351.88" y2="110.69"/><polyline class="cls-7" points="252.98 121.01 260.43 117.45 267.57 114.04 275.07 110.46 282.34 106.99 288.69 103.96 293.63 101.6"/><polyline class="cls-7" points="262.53 122.6 269.92 119.07 277.06 115.66 284.57 112.08 291.83 108.61 298.18 105.58 303.45 103.06 303.55 103.02"/><line class="cls-7" x1="307.67" y1="107.2" x2="313.14" y2="104.59"/><polyline class="cls-7" points="272.07 124.19 279.41 120.69 286.56 117.28 294.06 113.7 294.11 113.67"/><polyline class="cls-7" points="281.63 125.78 288.9 122.31 296.05 118.89 303.55 115.32 310.82 111.85 317.17 108.82 322.82 106.12"/><polyline class="cls-7" points="291.17 127.38 298.4 123.93 305.55 120.51 313.05 116.94 320.31 113.46 326.66 110.44 332.51 107.64"/><polyline class="cls-7" points="322.79 118.43 329.8 115.08 336.15 112.05 342.19 109.17 342.19 109.17"/><polyline class="cls-7" points="300.72 128.97 307.89 125.54 315.04 122.13 315.53 121.9"/><polyline class="cls-7" points="310.27 130.56 317.38 127.16 324.52 123.75 332.02 120.17 339.29 116.7 345.64 113.67 351.88 110.69 351.88 110.69"/><polyline class="cls-7" points="328.88 129.12 317.38 127.16 307.89 125.54 298.4 123.93 288.9 122.31 279.41 120.69 269.92 119.07 260.43 117.45 250.93 115.83"/><polyline class="cls-7" points="336.07 125.72 324.52 123.75 315.04 122.13 305.55 120.51 296.05 118.89 286.56 117.28 277.06 115.66 267.57 114.04 258.08 112.42 258.02 112.41"/><polyline class="cls-7" points="321.84 118.44 313.05 116.94 303.55 115.32 294.06 113.7 284.57 112.08 275.07 110.46 265.58 108.84"/><polyline class="cls-7" points="343.75 122.17 332.02 120.17 331.33 120.05"/><polyline class="cls-7" points="291.84 108.61 291.83 108.61 282.34 106.99 273 105.4"/><polyline class="cls-7" points="351.1 118.71 339.29 116.7 329.8 115.08 320.31 113.46 310.82 111.85 301.33 110.23"/><polyline class="cls-7" points="357.87 115.75 345.64 113.67 336.15 112.05 326.66 110.44 317.17 108.82 307.67 107.2 298.18 105.58 288.69 103.96 279.24 102.35"/><polyline class="cls-7" points="301.65 110.08 292.12 108.48 291.84 108.61 284.61 112.06 294.11 113.67"/><polyline class="cls-7" points="301.65 110.08 301.65 110.08 307.67 107.2"/><polygon class="cls-7" points="321.84 118.44 314.84 121.78 315.53 121.9 324.33 123.39 331.33 120.05 331.6 119.92 322.79 118.43 322.11 118.31 321.84 118.44"/><polygon class="cls-10" points="364.52 97.62 357.87 100.69 345.64 98.61 351.88 95.63 351.88 95.63 364.52 97.62"/><polygon class="cls-10" points="357.87 100.69 351.17 103.78 351.1 103.65 339.29 101.64 345.64 98.61 357.87 100.69"/><polygon class="cls-10" points="351.88 95.63 345.64 98.61 336.15 96.99 342.19 94.1 342.19 94.1 351.88 95.63"/><polygon class="cls-10" points="351.1 103.65 351.17 103.78 343.78 107.19 343.75 107.11 332.02 105.11 339.29 101.64 351.1 103.65"/><polygon class="cls-10" points="345.64 98.61 339.29 101.64 329.8 100.02 336.15 96.99 345.64 98.61"/><polygon class="cls-10" points="343.75 107.11 343.78 107.19 336.11 110.73 336.07 110.66 324.52 108.69 332.02 105.11 343.75 107.11"/><polygon class="cls-10" points="342.19 94.1 336.15 96.99 326.66 95.37 332.51 92.58 342.19 94.1"/><polygon class="cls-10" points="336.15 96.99 329.8 100.02 320.31 98.4 326.66 95.37 336.15 96.99"/><polygon class="cls-10" points="336.07 110.66 336.11 110.73 328.88 114.06 317.38 112.1 324.52 108.69 336.07 110.66"/><polygon class="cls-10" points="332.51 92.58 326.66 95.37 317.17 93.75 322.82 91.06 332.51 92.58"/><polygon class="cls-10" points="332.02 105.11 331.33 104.99 331.6 104.86 322.79 103.36 329.8 100.02 339.29 101.64 332.02 105.11"/><polygon class="cls-10" points="331.6 104.86 331.33 104.99 322.53 103.49 322.79 103.36 331.6 104.86"/><polygon class="cls-10" points="331.33 104.99 324.33 108.33 315.53 106.83 322.53 103.49 331.33 104.99"/><polygon class="cls-11" points="329.8 100.02 322.79 103.36 322.11 103.25 321.84 103.37 313.05 101.87 320.31 98.4 329.8 100.02"/><polygon class="cls-10" points="328.88 114.06 321.19 117.61 310.22 115.74 310.27 115.49 317.38 112.1 328.88 114.06"/><polygon class="cls-10" points="317.17 93.75 326.66 95.37 320.31 98.4 310.82 96.78 317.17 93.75"/><polygon class="cls-10" points="324.52 108.69 317.38 112.1 307.89 110.48 315.04 107.07 324.52 108.69"/><polygon class="cls-10" points="331.33 104.99 332.02 105.11 324.52 108.69 315.04 107.07 315.53 106.83 324.33 108.33 331.33 104.99"/><polygon class="cls-10" points="322.82 91.06 317.17 93.75 307.67 92.13 313.14 89.53 322.82 91.06"/><polygon class="cls-10" points="322.11 103.25 322.79 103.36 322.53 103.49 321.84 103.37 322.11 103.25"/><polygon class="cls-10" points="322.53 103.49 315.53 106.83 314.84 106.71 321.84 103.37 322.53 103.49"/><polygon class="cls-11" points="320.31 98.4 313.05 101.87 303.55 100.25 310.82 96.78 320.31 98.4"/><polygon class="cls-10" points="307.89 110.48 317.38 112.1 310.27 115.49 310.22 115.74 300.69 114.11 300.72 113.9 307.89 110.48"/><polygon class="cls-11" points="317.17 93.75 310.82 96.78 301.33 95.17 301.65 95.01 301.65 95.01 307.67 92.13 317.17 93.75"/><polygon class="cls-11" points="314.84 106.71 315.53 106.83 315.04 107.07 305.55 105.45 313.05 101.87 321.84 103.37 314.84 106.71"/><polygon class="cls-12" points="315.04 107.07 307.89 110.48 298.4 108.86 305.55 105.45 315.04 107.07"/><polygon class="cls-10" points="313.14 89.53 307.67 92.13 298.18 90.52 303.45 88 313.14 89.53"/><polygon class="cls-12" points="313.05 101.87 305.55 105.45 296.05 103.83 303.55 100.25 313.05 101.87"/><polygon class="cls-10" points="307.89 110.48 300.72 113.9 300.69 114.11 291.14 112.49 291.17 112.31 298.4 108.86 307.89 110.48"/><polygon class="cls-12" points="305.55 105.45 298.4 108.86 288.9 107.25 296.05 103.83 305.55 105.45"/><polygon class="cls-12" points="303.55 100.25 296.05 103.83 286.56 102.21 294.06 98.63 303.55 100.25"/><polygon class="cls-10" points="303.45 88 298.18 90.52 288.69 88.9 293.63 86.54 293.64 86.45 303.45 88"/><polygon class="cls-10" points="301.65 95.01 301.33 95.17 301.33 95.17 291.84 93.55 292.12 93.42 301.65 95.01"/><polygon class="cls-13" points="301.33 95.17 294.11 98.61 301.33 95.17 301.33 95.17"/><polygon class="cls-13" points="301.33 95.17 294.11 98.61 294.11 98.61 284.61 97 291.84 93.55 301.33 95.17"/><polygon class="cls-10" points="288.9 107.25 298.4 108.86 291.17 112.31 291.14 112.49 281.6 110.86 281.63 110.72 288.9 107.25"/><polygon class="cls-13" points="288.69 88.9 298.18 90.52 291.83 93.55 282.34 91.93 288.69 88.9"/><polygon class="cls-10" points="296.05 103.83 288.9 107.25 279.41 105.63 286.56 102.21 296.05 103.83"/><polygon class="cls-11" points="294.11 98.61 301.33 95.17 310.82 96.78 303.55 100.25 294.06 98.63 294.11 98.61 294.11 98.61"/><polygon class="cls-12" points="294.06 98.63 286.56 102.21 277.06 100.6 284.57 97.02 294.06 98.63"/><polygon class="cls-10" points="293.64 86.45 293.63 86.54 288.69 88.9 279.24 87.29 279.23 87.26 284.08 84.95 293.64 86.45"/><polygon class="cls-10" points="291.83 93.55 298.18 90.52 307.67 92.13 301.65 95.01 301.65 95.01 292.12 93.42 291.84 93.55 291.83 93.55"/><polygon class="cls-13" points="291.83 93.55 284.57 97.02 275.07 95.4 282.34 91.93 291.83 93.55"/><polygon class="cls-13" points="288.9 107.25 281.63 110.72 281.6 110.86 272.06 109.23 272.07 109.13 279.41 105.63 288.9 107.25"/><polygon class="cls-10" points="288.69 88.9 282.34 91.93 273 90.34 272.96 90.26 279.23 87.26 279.24 87.29 288.69 88.9"/><polygon class="cls-13" points="286.56 102.21 279.41 105.63 269.92 104.01 277.06 100.6 286.56 102.21"/><polygon class="cls-10" points="284.61 97 294.11 98.61 294.06 98.63 284.57 97.02 291.83 93.55 291.84 93.55 284.61 97"/><polygon class="cls-10" points="275.07 95.4 284.57 97.02 277.06 100.6 267.57 98.98 275.07 95.4"/><polygon class="cls-10" points="282.34 91.93 275.07 95.4 265.58 93.78 272.96 90.26 273 90.34 282.34 91.93"/><polygon class="cls-13" points="279.41 105.63 272.07 109.13 272.06 109.23 262.51 107.6 262.53 107.53 269.92 104.01 279.41 105.63"/><polygon class="cls-13" points="277.06 100.6 269.92 104.01 260.43 102.39 267.57 98.98 277.06 100.6"/><polygon class="cls-10" points="275.07 95.4 267.57 98.98 258.08 97.36 265.58 93.78 275.07 95.4"/><polygon class="cls-10" points="269.92 104.01 262.53 107.53 262.51 107.6 252.98 105.98 252.98 105.94 260.43 102.39 269.92 104.01"/><polygon class="cls-10" points="267.57 98.98 260.43 102.39 250.93 100.77 258.08 97.36 267.57 98.98"/><polygon class="cls-10" points="260.43 102.39 252.98 105.94 252.98 105.98 243.43 104.35 250.93 100.77 260.43 102.39"/><polyline class="cls-7" points="351.88 95.63 364.52 97.62 357.87 100.69 351.17 103.78 343.78 107.19 336.11 110.73 328.88 114.06 321.19 117.61 310.22 115.74 300.69 114.11 291.14 112.49 281.6 110.86 272.06 109.23 262.51 107.6 252.98 105.98 243.43 104.35 250.93 100.77 258.08 97.36 265.58 93.78 272.96 90.26 279.23 87.26 284.08 84.95 293.64 86.45 303.45 88 313.14 89.53 322.82 91.06 332.51 92.58 342.19 94.1"/><line class="cls-7" x1="342.19" y1="94.1" x2="351.88" y2="95.63"/><polyline class="cls-7" points="252.98 105.94 260.43 102.39 267.57 98.98 275.07 95.4 282.34 91.93 288.69 88.9 293.63 86.54"/><polyline class="cls-7" points="262.53 107.53 269.92 104.01 277.06 100.6 284.57 97.02 291.83 93.55 298.18 90.52 303.45 88 303.55 87.96"/><line class="cls-7" x1="307.67" y1="92.13" x2="313.14" y2="89.53"/><polyline class="cls-7" points="272.07 109.13 279.41 105.63 286.56 102.21 294.06 98.63 294.11 98.61"/><polyline class="cls-7" points="281.63 110.72 288.9 107.25 296.05 103.83 303.55 100.25 310.82 96.78 317.17 93.75 322.82 91.06"/><polyline class="cls-7" points="291.17 112.31 298.4 108.86 305.55 105.45 313.05 101.87 320.31 98.4 326.66 95.37 332.51 92.58"/><polyline class="cls-7" points="322.79 103.36 329.8 100.02 336.15 96.99 342.19 94.1 342.19 94.1"/><polyline class="cls-7" points="300.72 113.9 307.89 110.48 315.04 107.07 315.53 106.83"/><polyline class="cls-7" points="310.27 115.49 317.38 112.1 324.52 108.69 332.02 105.11 339.29 101.64 345.64 98.61 351.88 95.63 351.88 95.63"/><polyline class="cls-7" points="328.88 114.06 317.38 112.1 307.89 110.48 298.4 108.86 288.9 107.25 279.41 105.63 269.92 104.01 260.43 102.39 250.93 100.77"/><polyline class="cls-7" points="336.07 110.66 324.52 108.69 315.04 107.07 305.55 105.45 296.05 103.83 286.56 102.21 277.06 100.6 267.57 98.98 258.08 97.36 258.02 97.35"/><polyline class="cls-7" points="321.84 103.37 313.05 101.87 303.55 100.25 294.06 98.63 284.57 97.02 275.07 95.4 265.58 93.78"/><polyline class="cls-7" points="343.75 107.11 332.02 105.11 331.33 104.99"/><polyline class="cls-7" points="291.84 93.55 291.83 93.55 282.34 91.93 273 90.34"/><polyline class="cls-7" points="351.1 103.65 339.29 101.64 329.8 100.02 320.31 98.4 310.82 96.78 301.33 95.17"/><polyline class="cls-7" points="357.87 100.69 345.64 98.61 336.15 96.99 326.66 95.37 317.17 93.75 307.67 92.13 298.18 90.52 288.69 88.9 279.24 87.29"/><polyline class="cls-7" points="301.65 95.01 292.12 93.42 291.84 93.55 284.61 97 294.11 98.61"/><polyline class="cls-7" points="301.65 95.01 301.65 95.01 307.67 92.13"/><polygon class="cls-7" points="321.84 103.37 314.84 106.71 315.53 106.83 324.33 108.33 331.33 104.99 331.6 104.86 322.79 103.36 322.11 103.25 321.84 103.37"/><polygon class="cls-10" points="364.52 82.56 357.87 85.63 345.64 83.55 351.88 80.57 351.88 80.57 364.52 82.56"/><polygon class="cls-10" points="357.87 85.63 351.17 88.72 351.1 88.59 339.29 86.57 345.64 83.55 357.87 85.63"/><polygon class="cls-10" points="351.88 80.57 345.64 83.55 336.15 81.93 342.19 79.04 342.19 79.04 351.88 80.57"/><polygon class="cls-10" points="351.1 88.59 351.17 88.72 343.78 92.13 343.75 92.04 332.02 90.05 339.29 86.57 351.1 88.59"/><polygon class="cls-10" points="345.64 83.55 339.29 86.57 329.8 84.96 336.15 81.93 345.64 83.55"/><polygon class="cls-10" points="343.75 92.04 343.78 92.13 336.11 95.67 336.07 95.59 324.52 93.62 332.02 90.05 343.75 92.04"/><polygon class="cls-10" points="342.19 79.04 336.15 81.93 326.66 80.31 332.51 77.52 342.19 79.04"/><polygon class="cls-10" points="336.15 81.93 329.8 84.96 320.31 83.34 326.66 80.31 336.15 81.93"/><polygon class="cls-10" points="336.07 95.59 336.11 95.67 328.88 99 317.38 97.04 324.52 93.62 336.07 95.59"/><polygon class="cls-10" points="332.51 77.52 326.66 80.31 317.17 78.69 322.82 75.99 332.51 77.52"/><polygon class="cls-10" points="332.02 90.05 331.33 89.93 331.6 89.8 322.79 88.3 329.8 84.96 339.29 86.57 332.02 90.05"/><polygon class="cls-10" points="331.6 89.8 331.33 89.93 322.53 88.42 322.79 88.3 331.6 89.8"/><polygon class="cls-10" points="331.33 89.93 324.33 93.27 315.53 91.77 322.53 88.42 331.33 89.93"/><polygon class="cls-11" points="329.8 84.96 322.79 88.3 322.11 88.18 321.84 88.31 313.05 86.81 320.31 83.34 329.8 84.96"/><polygon class="cls-10" points="328.88 99 321.19 102.55 310.22 100.68 310.27 100.43 317.38 97.04 328.88 99"/><polygon class="cls-10" points="317.17 78.69 326.66 80.31 320.31 83.34 310.82 81.72 317.17 78.69"/><polygon class="cls-10" points="324.52 93.62 317.38 97.04 307.89 95.42 315.04 92 324.52 93.62"/><polygon class="cls-10" points="331.33 89.93 332.02 90.05 324.52 93.62 315.04 92 315.53 91.77 324.33 93.27 331.33 89.93"/><polygon class="cls-10" points="322.82 75.99 317.17 78.69 307.67 77.07 313.14 74.47 322.82 75.99"/><polygon class="cls-10" points="322.11 88.18 322.79 88.3 322.53 88.42 321.84 88.31 322.11 88.18"/><polygon class="cls-10" points="322.53 88.42 315.53 91.77 314.84 91.65 321.84 88.31 322.53 88.42"/><polygon class="cls-11" points="320.31 83.34 313.05 86.81 303.55 85.19 310.82 81.72 320.31 83.34"/><polygon class="cls-10" points="307.89 95.42 317.38 97.04 310.27 100.43 310.22 100.68 300.69 99.05 300.72 98.84 307.89 95.42"/><polygon class="cls-11" points="317.17 78.69 310.82 81.72 301.33 80.1 301.65 79.95 301.65 79.95 307.67 77.07 317.17 78.69"/><polygon class="cls-11" points="314.84 91.65 315.53 91.77 315.04 92 305.55 90.39 313.05 86.81 321.84 88.31 314.84 91.65"/><polygon class="cls-12" points="315.04 92 307.89 95.42 298.4 93.8 305.55 90.39 315.04 92"/><polygon class="cls-10" points="313.14 74.47 307.67 77.07 298.18 75.46 303.45 72.94 313.14 74.47"/><polygon class="cls-12" points="313.05 86.81 305.55 90.39 296.05 88.77 303.55 85.19 313.05 86.81"/><polygon class="cls-10" points="307.89 95.42 300.72 98.84 300.69 99.05 291.14 97.42 291.17 97.25 298.4 93.8 307.89 95.42"/><polygon class="cls-12" points="305.55 90.39 298.4 93.8 288.9 92.18 296.05 88.77 305.55 90.39"/><polygon class="cls-12" points="303.55 85.19 296.05 88.77 286.56 87.15 294.06 83.57 303.55 85.19"/><polygon class="cls-10" points="303.45 72.94 298.18 75.46 288.69 73.84 293.63 71.48 293.64 71.39 303.45 72.94"/><polygon class="cls-10" points="301.65 79.95 301.33 80.1 301.33 80.1 291.84 78.49 292.12 78.36 301.65 79.95"/><polygon class="cls-13" points="301.33 80.1 294.11 83.55 301.33 80.1 301.33 80.1"/><polygon class="cls-13" points="301.33 80.1 294.11 83.55 294.11 83.55 284.61 81.93 291.84 78.49 301.33 80.1"/><polygon class="cls-10" points="288.9 92.18 298.4 93.8 291.17 97.25 291.14 97.42 281.6 95.8 281.63 95.66 288.9 92.18"/><polygon class="cls-13" points="288.69 73.84 298.18 75.46 291.83 78.48 282.34 76.87 288.69 73.84"/><polygon class="cls-10" points="296.05 88.77 288.9 92.18 279.41 90.56 286.56 87.15 296.05 88.77"/><polygon class="cls-11" points="294.11 83.55 301.33 80.1 310.82 81.72 303.55 85.19 294.06 83.57 294.11 83.55 294.11 83.55"/><polygon class="cls-12" points="294.06 83.57 286.56 87.15 277.06 85.53 284.57 81.96 294.06 83.57"/><polygon class="cls-10" points="293.64 71.39 293.63 71.48 288.69 73.84 279.24 72.23 279.23 72.2 284.08 69.89 293.64 71.39"/><polygon class="cls-10" points="291.83 78.48 298.18 75.46 307.67 77.07 301.65 79.95 301.65 79.95 292.12 78.36 291.84 78.49 291.83 78.48"/><polygon class="cls-13" points="291.83 78.48 284.57 81.96 275.07 80.34 282.34 76.87 291.83 78.48"/><polygon class="cls-13" points="288.9 92.18 281.63 95.66 281.6 95.8 272.06 94.17 272.07 94.07 279.41 90.56 288.9 92.18"/><polygon class="cls-10" points="288.69 73.84 282.34 76.87 273 75.27 272.96 75.2 279.23 72.2 279.24 72.23 288.69 73.84"/><polygon class="cls-13" points="286.56 87.15 279.41 90.56 269.92 88.94 277.06 85.53 286.56 87.15"/><polygon class="cls-10" points="284.61 81.93 294.11 83.55 294.06 83.57 284.57 81.96 291.83 78.48 291.84 78.49 284.61 81.93"/><polygon class="cls-10" points="275.07 80.34 284.57 81.96 277.06 85.53 267.57 83.92 275.07 80.34"/><polygon class="cls-10" points="282.34 76.87 275.07 80.34 265.58 78.72 272.96 75.2 273 75.27 282.34 76.87"/><polygon class="cls-13" points="279.41 90.56 272.07 94.07 272.06 94.17 262.51 92.54 262.53 92.47 269.92 88.94 279.41 90.56"/><polygon class="cls-13" points="277.06 85.53 269.92 88.94 260.43 87.33 267.57 83.92 277.06 85.53"/><polygon class="cls-10" points="275.07 80.34 267.57 83.92 258.08 82.3 265.58 78.72 275.07 80.34"/><polygon class="cls-10" points="269.92 88.94 262.53 92.47 262.51 92.54 252.98 90.92 252.98 90.88 260.43 87.33 269.92 88.94"/><polygon class="cls-10" points="267.57 83.92 260.43 87.33 250.93 85.71 258.08 82.3 267.57 83.92"/><polygon class="cls-10" points="260.43 87.33 252.98 90.88 252.98 90.92 243.43 89.29 250.93 85.71 260.43 87.33"/><polyline class="cls-7" points="351.88 80.57 364.52 82.56 357.87 85.63 351.17 88.72 343.78 92.13 336.11 95.67 328.88 99 321.19 102.55 310.22 100.68 300.69 99.05 291.14 97.42 281.6 95.8 272.06 94.17 262.51 92.54 252.98 90.92 243.43 89.29 250.93 85.71 258.08 82.3 265.58 78.72 272.96 75.2 279.23 72.2 284.08 69.89 293.64 71.39 303.45 72.94 313.14 74.47 322.82 75.99 332.51 77.52 342.19 79.04"/><line class="cls-7" x1="342.19" y1="79.04" x2="351.88" y2="80.57"/><polyline class="cls-7" points="252.98 90.88 260.43 87.33 267.57 83.92 275.07 80.34 282.34 76.87 288.69 73.84 293.63 71.48"/><polyline class="cls-7" points="262.53 92.47 269.92 88.94 277.06 85.53 284.57 81.96 291.83 78.48 298.18 75.46 303.45 72.94 303.55 72.89"/><line class="cls-7" x1="307.67" y1="77.07" x2="313.14" y2="74.47"/><polyline class="cls-7" points="272.07 94.07 279.41 90.56 286.56 87.15 294.06 83.57 294.11 83.55"/><polyline class="cls-7" points="281.63 95.66 288.9 92.18 296.05 88.77 303.55 85.19 310.82 81.72 317.17 78.69 322.82 75.99"/><polyline class="cls-7" points="291.17 97.25 298.4 93.8 305.55 90.39 313.05 86.81 320.31 83.34 326.66 80.31 332.51 77.52"/><polyline class="cls-7" points="322.79 88.3 329.8 84.96 336.15 81.93 342.19 79.04 342.19 79.04"/><polyline class="cls-7" points="300.72 98.84 307.89 95.42 315.04 92 315.53 91.77"/><polyline class="cls-7" points="310.27 100.43 317.38 97.04 324.52 93.62 332.02 90.05 339.29 86.57 345.64 83.55 351.88 80.57 351.88 80.57"/><polyline class="cls-7" points="328.88 99 317.38 97.04 307.89 95.42 298.4 93.8 288.9 92.18 279.41 90.56 269.92 88.94 260.43 87.33 250.93 85.71"/><polyline class="cls-7" points="336.07 95.59 324.52 93.62 315.04 92 305.55 90.39 296.05 88.77 286.56 87.15 277.06 85.53 267.57 83.92 258.08 82.3 258.02 82.29"/><polyline class="cls-7" points="321.84 88.31 313.05 86.81 303.55 85.19 294.06 83.57 284.57 81.96 275.07 80.34 265.58 78.72"/><polyline class="cls-7" points="343.75 92.04 332.02 90.05 331.33 89.93"/><polyline class="cls-7" points="291.84 78.49 291.83 78.48 282.34 76.87 273 75.27"/><polyline class="cls-7" points="351.1 88.59 339.29 86.57 329.8 84.96 320.31 83.34 310.82 81.72 301.33 80.1"/><polyline class="cls-7" points="357.87 85.63 345.64 83.55 336.15 81.93 326.66 80.31 317.17 78.69 307.67 77.07 298.18 75.46 288.69 73.84 279.24 72.23"/><polyline class="cls-7" points="301.65 79.95 292.12 78.36 291.84 78.49 284.61 81.93 294.11 83.55"/><polyline class="cls-7" points="301.65 79.95 301.65 79.95 307.67 77.07"/><polygon class="cls-7" points="321.84 88.31 314.84 91.65 315.53 91.77 324.33 93.27 331.33 89.93 331.6 89.8 322.79 88.3 322.11 88.18 321.84 88.31"/><polygon class="cls-10" points="364.52 67.5 357.87 70.57 345.64 68.48 351.88 65.5 351.88 65.5 364.52 67.5"/><polygon class="cls-10" points="357.87 70.57 351.17 73.66 351.1 73.52 339.29 71.51 345.64 68.48 357.87 70.57"/><polygon class="cls-10" points="351.88 65.5 345.64 68.48 336.15 66.86 342.19 63.98 342.19 63.98 351.88 65.5"/><polygon class="cls-10" points="351.1 73.52 351.17 73.66 343.78 77.06 343.75 76.98 332.02 74.98 339.29 71.51 351.1 73.52"/><polygon class="cls-10" points="345.64 68.48 339.29 71.51 329.8 69.89 336.15 66.86 345.64 68.48"/><polygon class="cls-10" points="343.75 76.98 343.78 77.06 336.11 80.61 336.07 80.53 324.52 78.56 332.02 74.98 343.75 76.98"/><polygon class="cls-10" points="342.19 63.98 336.15 66.86 326.66 65.25 332.51 62.45 342.19 63.98"/><polygon class="cls-10" points="336.15 66.86 329.8 69.89 320.31 68.28 326.66 65.25 336.15 66.86"/><polygon class="cls-10" points="336.07 80.53 336.11 80.61 328.88 83.93 317.38 81.97 324.52 78.56 336.07 80.53"/><polygon class="cls-10" points="332.51 62.45 326.66 65.25 317.17 63.63 322.82 60.93 332.51 62.45"/><polygon class="cls-10" points="331.6 74.74 322.79 73.24 329.8 69.89 339.29 71.51 332.02 74.98 331.33 74.86 331.6 74.74"/><polygon class="cls-10" points="331.6 74.74 331.33 74.86 322.53 73.36 322.79 73.24 331.6 74.74"/><polygon class="cls-10" points="331.33 74.86 324.33 78.2 315.53 76.71 322.53 73.36 331.33 74.86"/><polygon class="cls-11" points="329.8 69.89 322.79 73.24 322.11 73.12 321.84 73.25 313.05 71.75 320.31 68.28 329.8 69.89"/><polygon class="cls-10" points="328.88 83.93 321.19 87.48 310.22 85.61 310.27 85.37 317.38 81.97 328.88 83.93"/><polygon class="cls-10" points="317.17 63.63 326.66 65.25 320.31 68.28 310.82 66.66 317.17 63.63"/><polygon class="cls-10" points="324.52 78.56 317.38 81.97 307.89 80.36 315.04 76.94 324.52 78.56"/><polygon class="cls-10" points="324.52 78.56 315.04 76.94 315.53 76.71 324.33 78.2 331.33 74.86 332.02 74.98 324.52 78.56"/><polygon class="cls-10" points="322.82 60.93 317.17 63.63 307.67 62.01 313.14 59.4 322.82 60.93"/><polygon class="cls-10" points="322.11 73.12 322.79 73.24 322.53 73.36 321.84 73.25 322.11 73.12"/><polygon class="cls-10" points="322.53 73.36 315.53 76.71 314.84 76.59 321.84 73.25 322.53 73.36"/><polygon class="cls-11" points="320.31 68.28 313.05 71.75 303.55 70.13 310.82 66.66 320.31 68.28"/><polygon class="cls-10" points="307.89 80.36 317.38 81.97 310.27 85.37 310.22 85.61 300.69 83.98 300.72 83.78 307.89 80.36"/><polygon class="cls-11" points="317.17 63.63 310.82 66.66 301.33 65.04 301.65 64.89 301.65 64.89 307.67 62.01 317.17 63.63"/><polygon class="cls-11" points="314.84 76.59 315.53 76.71 315.04 76.94 305.55 75.33 313.05 71.75 321.84 73.25 314.84 76.59"/><polygon class="cls-12" points="315.04 76.94 307.89 80.36 298.4 78.74 305.55 75.33 315.04 76.94"/><polygon class="cls-10" points="313.14 59.4 307.67 62.01 298.18 60.39 303.45 57.88 313.14 59.4"/><polygon class="cls-12" points="313.05 71.75 305.55 75.33 296.05 73.71 303.55 70.13 313.05 71.75"/><polygon class="cls-10" points="307.89 80.36 300.72 83.78 300.69 83.98 291.14 82.36 291.17 82.19 298.4 78.74 307.89 80.36"/><polygon class="cls-12" points="305.55 75.33 298.4 78.74 288.9 77.12 296.05 73.71 305.55 75.33"/><polygon class="cls-12" points="303.55 70.13 296.05 73.71 286.56 72.09 294.06 68.51 303.55 70.13"/><polygon class="cls-10" points="303.45 57.88 298.18 60.39 288.69 58.77 293.63 56.41 293.64 56.33 303.45 57.88"/><polygon class="cls-10" points="301.65 64.89 301.33 65.04 301.33 65.04 291.84 63.42 292.12 63.29 301.65 64.89"/><polygon class="cls-13" points="301.33 65.04 294.11 68.49 301.33 65.04 301.33 65.04"/><polygon class="cls-13" points="301.33 65.04 294.11 68.49 294.11 68.49 284.61 66.87 291.84 63.42 301.33 65.04"/><polygon class="cls-10" points="288.9 77.12 298.4 78.74 291.17 82.19 291.14 82.36 281.6 80.73 281.63 80.59 288.9 77.12"/><polygon class="cls-13" points="288.69 58.77 298.18 60.39 291.83 63.42 282.34 61.8 288.69 58.77"/><polygon class="cls-10" points="296.05 73.71 288.9 77.12 279.41 75.5 286.56 72.09 296.05 73.71"/><polygon class="cls-11" points="294.11 68.49 301.33 65.04 310.82 66.66 303.55 70.13 294.06 68.51 294.11 68.49 294.11 68.49"/><polygon class="cls-12" points="294.06 68.51 286.56 72.09 277.06 70.47 284.57 66.89 294.06 68.51"/><polygon class="cls-10" points="293.64 56.33 293.63 56.41 288.69 58.77 279.24 57.16 279.23 57.14 284.08 54.83 293.64 56.33"/><polygon class="cls-10" points="291.83 63.42 298.18 60.39 307.67 62.01 301.65 64.89 301.65 64.89 292.12 63.29 291.84 63.42 291.83 63.42"/><polygon class="cls-13" points="291.83 63.42 284.57 66.89 275.07 65.27 282.34 61.8 291.83 63.42"/><polygon class="cls-13" points="288.9 77.12 281.63 80.59 281.6 80.73 272.06 79.11 272.07 79 279.41 75.5 288.9 77.12"/><polygon class="cls-10" points="288.69 58.77 282.34 61.8 273 60.21 272.96 60.13 279.23 57.14 279.24 57.16 288.69 58.77"/><polygon class="cls-13" points="286.56 72.09 279.41 75.5 269.92 73.88 277.06 70.47 286.56 72.09"/><polygon class="cls-10" points="284.61 66.87 294.11 68.49 294.06 68.51 284.57 66.89 291.83 63.42 291.84 63.42 284.61 66.87"/><polygon class="cls-10" points="275.07 65.27 284.57 66.89 277.06 70.47 267.57 68.85 275.07 65.27"/><polygon class="cls-10" points="282.34 61.8 275.07 65.27 265.58 63.65 272.96 60.13 273 60.21 282.34 61.8"/><polygon class="cls-13" points="279.41 75.5 272.07 79 272.06 79.11 262.51 77.48 262.53 77.41 269.92 73.88 279.41 75.5"/><polygon class="cls-13" points="277.06 70.47 269.92 73.88 260.43 72.27 267.57 68.85 277.06 70.47"/><polygon class="cls-10" points="275.07 65.27 267.57 68.85 258.08 67.23 265.58 63.65 275.07 65.27"/><polygon class="cls-10" points="269.92 73.88 262.53 77.41 262.51 77.48 252.98 75.85 252.98 75.82 260.43 72.27 269.92 73.88"/><polygon class="cls-10" points="267.57 68.85 260.43 72.27 250.93 70.65 258.08 67.23 267.57 68.85"/><polygon class="cls-10" points="260.43 72.27 252.98 75.82 252.98 75.85 243.43 74.22 250.93 70.65 260.43 72.27"/><polyline class="cls-7" points="351.88 65.5 364.52 67.5 357.87 70.57 351.17 73.66 343.78 77.06 336.11 80.61 328.88 83.93 321.19 87.48 310.22 85.61 300.69 83.98 291.14 82.36 281.6 80.73 272.06 79.11 262.51 77.48 252.98 75.85 243.43 74.22 250.93 70.65 258.08 67.23 265.58 63.65 272.96 60.13 279.23 57.14 284.08 54.83 293.64 56.33 303.45 57.88 313.14 59.4 322.82 60.93 332.51 62.45 342.19 63.98"/><line class="cls-7" x1="342.19" y1="63.98" x2="351.88" y2="65.5"/><polyline class="cls-7" points="252.98 75.82 260.43 72.27 267.57 68.85 275.07 65.27 282.34 61.8 288.69 58.77 293.63 56.41"/><polyline class="cls-7" points="262.53 77.41 269.92 73.88 277.06 70.47 284.57 66.89 291.83 63.42 298.18 60.39 303.45 57.88 303.55 57.83"/><line class="cls-7" x1="307.67" y1="62.01" x2="313.14" y2="59.4"/><polyline class="cls-7" points="272.07 79 279.41 75.5 286.56 72.09 294.06 68.51 294.11 68.49"/><polyline class="cls-7" points="281.63 80.59 288.9 77.12 296.05 73.71 303.55 70.13 310.82 66.66 317.17 63.63 322.82 60.93"/><polyline class="cls-7" points="291.17 82.19 298.4 78.74 305.55 75.33 313.05 71.75 320.31 68.28 326.66 65.25 332.51 62.45"/><polyline class="cls-7" points="322.79 73.24 329.8 69.89 336.15 66.86 342.19 63.98 342.19 63.98"/><polyline class="cls-7" points="300.72 83.78 307.89 80.36 315.04 76.94 315.53 76.71"/><polyline class="cls-7" points="310.27 85.37 317.38 81.97 324.52 78.56 332.02 74.98 339.29 71.51 345.64 68.48 351.88 65.5 351.88 65.5"/><polyline class="cls-7" points="328.88 83.93 317.38 81.97 307.89 80.36 298.4 78.74 288.9 77.12 279.41 75.5 269.92 73.88 260.43 72.27 250.93 70.65"/><polyline class="cls-7" points="336.07 80.53 324.52 78.56 315.04 76.94 305.55 75.33 296.05 73.71 286.56 72.09 277.06 70.47 267.57 68.85 258.08 67.23 258.02 67.22"/><polyline class="cls-7" points="321.84 73.25 313.05 71.75 303.55 70.13 294.06 68.51 284.57 66.89 275.07 65.27 265.58 63.65"/><polyline class="cls-7" points="343.75 76.98 332.02 74.98 331.33 74.86"/><polyline class="cls-7" points="291.84 63.42 291.83 63.42 282.34 61.8 273 60.21"/><polyline class="cls-7" points="351.1 73.52 339.29 71.51 329.8 69.89 320.31 68.28 310.82 66.66 301.33 65.04"/><polyline class="cls-7" points="357.87 70.57 345.64 68.48 336.15 66.86 326.66 65.25 317.17 63.63 307.67 62.01 298.18 60.39 288.69 58.77 279.24 57.16"/><polyline class="cls-7" points="301.65 64.89 292.12 63.29 291.84 63.42 284.61 66.87 294.11 68.49"/><polyline class="cls-7" points="301.65 64.89 301.65 64.89 307.67 62.01"/><polygon class="cls-7" points="321.84 73.25 314.84 76.59 315.53 76.71 324.33 78.2 331.33 74.86 331.6 74.74 322.79 73.24 322.11 73.12 321.84 73.25"/><line class="cls-14" x1="164.11" y1="92.16" x2="231.21" y2="92.16"/><polygon class="cls-15" points="229.75 97.15 238.38 92.17 229.75 87.18 229.75 97.15"/><text class="cls-16" transform="translate(162.42 87.03)">reclassification<tspan x="15.28" y="14">function</tspan></text><line class="cls-14" x1="371.11" y1="92.16" x2="438.21" y2="92.16"/><polygon class="cls-15" points="436.75 97.15 445.38 92.17 436.75 87.18 436.75 97.15"/><text class="cls-16" transform="translate(375.03 87.03)">average over<tspan x="2.23" y="14">week/month</tspan></text><text class="cls-17" transform="translate(24.87 83.29)">day = 2</text><text class="cls-17" transform="translate(24.87 66.29)">day = 1</text><text class="cls-17" transform="translate(24.87 114.29)">day = n</text><circle class="cls-18" cx="32.71" cy="102.33" r="0.36"/><circle class="cls-18" cx="32.71" cy="98.33" r="0.36"/><circle class="cls-18" cx="32.71" cy="94.33" r="0.36"/><circle class="cls-18" cx="32.71" cy="90.33" r="0.36"/></g></g></svg>