<svg xmlns="http://www.w3.org/2000/svg" viewBox="0 0 224.16 114.11"><defs><style>.cls-1{font-size:16.03px;font-family:Arial-ItalicMT, Arial;font-style:italic;}.cls-1,.cls-10{fill:#fff;}.cls-2{letter-spacing:0.05em;}.cls-3,.cls-4,.cls-5,.cls-7,.cls-8{font-family:ArialMT, Arial;font-style:normal;}.cls-4,.cls-7{font-size:13.35px;}.cls-5{letter-spacing:0.2em;}.cls-6{letter-spacing:0em;}.cls-7{letter-spacing:0em;}.cls-8{letter-spacing:0.2em;}.cls-9{letter-spacing:0em;}.cls-11,.cls-13,.cls-14,.cls-15{fill:none;stroke:#fff;stroke-miterlimit:10;}.cls-11{stroke-width:0.8px;}.cls-12{fill:#808285;}.cls-13{stroke-width:0.88px;}.cls-14{stroke-width:0.46px;}.cls-15{stroke-width:0.4px;}</style></defs><g id="Layer_2" data-name="Layer 2"><g id="_Layer_" data-name="&lt;Layer&gt;"><text class="cls-1" transform="translate(46.52 54.5)"><tspan class="cls-2">K</tspan><tspan class="cls-3" x="11.49" y="0">(</tspan><tspan x="16.83" y="0">d</tspan><tspan class="cls-4" x="25.74" y="4.01">ij</tspan><tspan class="cls-5" x="31.67" y="0">;</tspan><tspan class="cls-6" x="39.33" y="0">α</tspan><tspan class="cls-7" x="48.47" y="4.01">1</tspan><tspan class="cls-8" x="55.9" y="0">,</tspan><tspan x="63.55" y="0">α</tspan><tspan class="cls-4" x="72.69" y="4.01">2</tspan><tspan class="cls-5" x="80.12" y="0">,</tspan><tspan x="87.78" y="0">γ</tspan><tspan class="cls-8" x="95.79" y="0">,</tspan><tspan class="cls-3" x="103.45" y="0">D(</tspan><tspan class="cls-9" x="120.36" y="0">ω</tspan><tspan class="cls-3" x="132.84" y="0">,</tspan><tspan x="137.29" y="0">κ</tspan><tspan class="cls-3" x="145.3" y="0">))</tspan></text><path class="cls-10" d="M6.59,70.07v6.51c0,.46,0,1,0,1.34H6.13c0-.15,0-.56,0-.84A1.26,1.26,0,0,1,4.77,78c-1.13,0-1.64-.93-1.64-2.92,0-1.8.71-2.78,1.79-2.78A1.12,1.12,0,0,1,6.11,73V70.07Zm-3,5c0,1.79.45,2.45,1.21,2.45,1,0,1.27-.87,1.27-2.47,0-1.83-.3-2.3-1.2-2.3C4.17,72.78,3.63,73.48,3.63,75.1Z" transform="translate(-0.38 -1.25)"/><path class="cls-10" d="M8,70.07H8.5v1.06H8Zm0,2.34h.48v5.51H8Z" transform="translate(-0.38 -1.25)"/><path class="cls-10" d="M10,76.38a1.12,1.12,0,0,0,1.15,1.19,1,1,0,0,0,1.06-1c0-.69-.37-1-1.13-1.29-1-.41-1.37-.79-1.37-1.54a1.31,1.31,0,0,1,1.44-1.37,1.35,1.35,0,0,1,1.45,1.47h-.49a1,1,0,0,0-1-1,.83.83,0,0,0-.91.92c0,.5.18.75,1,1.08,1,.4,1.49.75,1.49,1.73A1.45,1.45,0,0,1,11.08,78a1.5,1.5,0,0,1-1.6-1.64Z" transform="translate(-0.38 -1.25)"/><path class="cls-10" d="M13.11,72.41h.81V70.88h.47v1.53h1v.44h-1v4c0,.42.1.69.53.69a2.94,2.94,0,0,0,.44,0v.4a2.12,2.12,0,0,1-.57.07c-.49,0-.87-.22-.87-1V72.85h-.81Z" transform="translate(-0.38 -1.25)"/><path class="cls-10" d="M19.15,77.09a8.28,8.28,0,0,0,.05.83h-.45a4.39,4.39,0,0,1-.05-.7,1.3,1.3,0,0,1-1.34.8,1.41,1.41,0,0,1-1.43-1.57c0-.93.62-1.73,2.1-1.73a5.84,5.84,0,0,1,.65,0v-.82c0-.5-.1-1.16-1-1.16s-1,.73-1.07,1.11h-.48a1.45,1.45,0,0,1,1.56-1.55c1,0,1.44.51,1.44,1.5Zm-.45-1.91a4.71,4.71,0,0,0-.64,0c-1.14,0-1.64.56-1.64,1.28a1,1,0,0,0,1,1.14c.91,0,1.27-.62,1.27-2Z" transform="translate(-0.38 -1.25)"/><path class="cls-10" d="M20.59,74.11c0-1.13,0-1.47,0-1.7H21a6.16,6.16,0,0,1,0,.82,1.34,1.34,0,0,1,1.36-.91c.73,0,1.42.38,1.42,1.68v3.92h-.49V74.07c0-.76-.3-1.29-1-1.29-.91,0-1.28.63-1.28,2v3.19h-.49Z" transform="translate(-0.38 -1.25)"/><path class="cls-10" d="M28.35,76.36A1.67,1.67,0,0,1,26.72,78C25.37,78,25,76.74,25,75.16s.51-2.84,1.81-2.84A1.55,1.55,0,0,1,28.35,74h-.51c0-.23-.11-1.19-1-1.19s-1.31,1-1.31,2.38.38,2.42,1.25,2.42,1.06-.94,1.11-1.21Z" transform="translate(-0.38 -1.25)"/><path class="cls-10" d="M29.65,75.19c0,1.33.25,2.38,1.23,2.38a1.22,1.22,0,0,0,1.18-1.15h.49A1.7,1.7,0,0,1,30.88,78c-1.51,0-1.72-1.48-1.72-2.84,0-1.74.55-2.86,1.78-2.86s1.65,1.19,1.65,2.53c0,0,0,.18,0,.34Zm2.45-.43c0-1.21-.29-2-1.18-2-1.18,0-1.24,1.63-1.26,2Z" transform="translate(-0.38 -1.25)"/><line class="cls-11" x1="35.19" y1="74.5" x2="65.05" y2="58.91"/><polygon class="cls-10" points="67.55 57.61 64.77 60.89 64.86 59.01 63.27 58.01 67.55 57.61"/><path class="cls-12" d="M1.76,81.2a5.69,5.69,0,0,0-1,3.37,6,6,0,0,0,1,3.46H1.39a6,6,0,0,1-1-3.47,5.83,5.83,0,0,1,1-3.36Z" transform="translate(-0.38 -1.25)"/><path class="cls-12" d="M4.68,85.79c0,.14-.11,1.21-1.18,1.21s-1.26-.93-1.26-2.08.37-2.06,1.31-2.06a1.12,1.12,0,0,1,1.13,1.19H4.31c0-.17-.08-.87-.76-.87s-.95.75-.95,1.74.28,1.75.91,1.75.77-.68.81-.88Z" transform="translate(-0.38 -1.25)"/><path class="cls-12" d="M5.63,85c0,1,.18,1.72.89,1.72a.88.88,0,0,0,.86-.84h.36A1.24,1.24,0,0,1,6.52,87c-1.1,0-1.25-1.08-1.25-2.06,0-1.26.4-2.08,1.29-2.08s1.21.86,1.21,1.83c0,0,0,.14,0,.26Zm1.78-.32c0-.88-.21-1.45-.85-1.45-.87,0-.91,1.19-.93,1.45Z" transform="translate(-0.38 -1.25)"/><path class="cls-12" d="M8.58,86.92v-5.7h.35v5.7Z" transform="translate(-0.38 -1.25)"/><path class="cls-12" d="M10,86.92v-5.7h.35v5.7Z" transform="translate(-0.38 -1.25)"/><path class="cls-12" d="M12.93,81.22h.35V82h-.35Zm0,1.7h.35v4h-.35Z" transform="translate(-0.38 -1.25)"/><path class="cls-12" d="M15.34,82.92h.59V81.81h.35v1.11H17v.33h-.74v2.91c0,.3.07.5.38.5l.32,0v.28a1.47,1.47,0,0,1-.42.06c-.35,0-.63-.16-.63-.73v-3h-.59Z" transform="translate(-0.38 -1.25)"/><path class="cls-12" d="M19.94,84.87c0,1.38-.44,2.13-1.29,2.13s-1.3-.73-1.3-2.12.51-2,1.31-2S19.94,83.53,19.94,84.87Zm-2.23,0c0,1.25.36,1.79.93,1.79s.93-.56.93-1.8-.32-1.69-.93-1.69S17.71,83.65,17.71,84.88Z" transform="translate(-0.38 -1.25)"/><path class="cls-12" d="M24.56,85.79c0,.14-.11,1.21-1.18,1.21s-1.26-.93-1.26-2.08.37-2.06,1.31-2.06a1.12,1.12,0,0,1,1.13,1.19h-.37c0-.17-.08-.87-.76-.87s-.95.75-.95,1.74.28,1.75.91,1.75.77-.68.81-.88Z" transform="translate(-0.38 -1.25)"/><path class="cls-12" d="M25.51,85c0,1,.18,1.72.89,1.72a.88.88,0,0,0,.86-.84h.36A1.24,1.24,0,0,1,26.4,87c-1.1,0-1.25-1.08-1.25-2.06,0-1.26.4-2.08,1.29-2.08s1.21.86,1.21,1.83c0,0,0,.14,0,.26Zm1.78-.32c0-.88-.21-1.45-.86-1.45-.86,0-.9,1.19-.92,1.45Z" transform="translate(-0.38 -1.25)"/><path class="cls-12" d="M28.46,86.92v-5.7h.35v5.7Z" transform="translate(-0.38 -1.25)"/><path class="cls-12" d="M29.87,86.92v-5.7h.35v5.7Z" transform="translate(-0.38 -1.25)"/><path class="cls-12" d="M33.18,82.92v4.37c0,.68-.09,1.19-.75,1.19l-.18,0v-.32h.17c.34,0,.41-.23.41-.74V82.92ZM32.84,82v-.78h.35V82Z" transform="translate(-0.38 -1.25)"/><path class="cls-12" d="M33.94,88a5.62,5.62,0,0,0,1-3.37,5.94,5.94,0,0,0-1-3.46h.37a6,6,0,0,1,1,3.47,5.83,5.83,0,0,1-1,3.36Z" transform="translate(-0.38 -1.25)"/><path class="cls-10" d="M169.08,77.68c.62,2.73.95,4.15,1.06,4.93h0c.12-.7.34-1.59,1.15-4.93h.51c.79,3.42,1,4.33,1.09,4.9h0c.09-.61.36-1.74,1.09-4.9h.52l-1.36,5.5h-.55c-.44-1.88-.94-4-1.07-4.88h0c-.11.84-.55,2.63-1.1,4.88h-.58l-1.28-5.5Z" transform="translate(-0.38 -1.25)"/><path class="cls-10" d="M175.47,75.34H176V76.4h-.48Zm0,2.34H176v5.5h-.48Z" transform="translate(-0.38 -1.25)"/><path class="cls-10" d="M177.38,79.37c0-1.12,0-1.46,0-1.69h.47c0,.13,0,.34,0,.82a1.34,1.34,0,0,1,1.36-.91c.73,0,1.42.38,1.42,1.67v3.92h-.49V79.33c0-.75-.3-1.29-1-1.29-.91,0-1.28.63-1.28,2v3.18h-.49Z" transform="translate(-0.38 -1.25)"/><path class="cls-10" d="M185.24,75.34v6.51c0,.45,0,1,0,1.33h-.47c0-.14,0-.55,0-.84a1.26,1.26,0,0,1-1.34.94c-1.14,0-1.64-.93-1.64-2.91,0-1.81.71-2.78,1.78-2.78a1.13,1.13,0,0,1,1.2.67V75.34Zm-3,5c0,1.79.45,2.45,1.21,2.45,1,0,1.27-.88,1.27-2.48,0-1.82-.31-2.3-1.2-2.3S182.28,78.74,182.28,80.37Z" transform="translate(-0.38 -1.25)"/><path class="cls-10" d="M165.42,85.34v6.51c0,.45,0,1,0,1.33H165c0-.14,0-.55,0-.84a1.26,1.26,0,0,1-1.34.94c-1.14,0-1.64-.93-1.64-2.91,0-1.81.71-2.78,1.78-2.78a1.13,1.13,0,0,1,1.2.67V85.34Zm-3,5c0,1.79.45,2.45,1.21,2.45,1,0,1.27-.88,1.27-2.48,0-1.82-.3-2.3-1.2-2.3C163,88,162.46,88.74,162.46,90.37Z" transform="translate(-0.38 -1.25)"/><path class="cls-10" d="M166.84,85.34h.48V86.4h-.48Zm0,2.34h.48v5.5h-.48Z" transform="translate(-0.38 -1.25)"/><path class="cls-10" d="M168.75,89.56c0-.86,0-1.49,0-1.88h.46c0,.17,0,.45,0,1a1.58,1.58,0,0,1,1.46-1.11v.52c-1,.06-1.46.87-1.46,1.87v3.19h-.48Z" transform="translate(-0.38 -1.25)"/><path class="cls-10" d="M171.61,90.46c0,1.33.25,2.38,1.24,2.38s1.14-1,1.18-1.16h.49a1.7,1.7,0,0,1-1.67,1.6c-1.52,0-1.73-1.47-1.73-2.83,0-1.74.56-2.86,1.78-2.86s1.66,1.19,1.66,2.52c0,0,0,.19,0,.35Zm2.46-.43c0-1.22-.29-2-1.18-2-1.19,0-1.24,1.64-1.26,2Z" transform="translate(-0.38 -1.25)"/><path class="cls-10" d="M178.85,91.62a1.66,1.66,0,0,1-1.63,1.66c-1.34,0-1.73-1.28-1.73-2.85s.52-2.84,1.81-2.84a1.55,1.55,0,0,1,1.55,1.63h-.5c0-.23-.12-1.19-1-1.19s-1.31,1-1.31,2.39.38,2.42,1.26,2.42,1.05-.94,1.1-1.22Z" transform="translate(-0.38 -1.25)"/><path class="cls-10" d="M179.38,87.68h.82V86.15h.47v1.53h1v.44h-1v4c0,.41.1.69.52.69a1.94,1.94,0,0,0,.44,0v.4a1.73,1.73,0,0,1-.56.08c-.5,0-.87-.22-.87-1V88.12h-.82Z" transform="translate(-0.38 -1.25)"/><path class="cls-10" d="M182.55,85.34H183V86.4h-.48Zm0,2.34H183v5.5h-.48Z" transform="translate(-0.38 -1.25)"/><path class="cls-10" d="M187.73,90.35c0,1.9-.6,2.93-1.77,2.93s-1.79-1-1.79-2.91.69-2.78,1.8-2.78S187.73,88.5,187.73,90.35Zm-3.06,0c0,1.7.49,2.46,1.28,2.46s1.27-.78,1.27-2.49c0-1.53-.44-2.32-1.27-2.32S184.67,88.68,184.67,90.38Z" transform="translate(-0.38 -1.25)"/><path class="cls-10" d="M188.86,89.37c0-1.12,0-1.46,0-1.69h.47c0,.13,0,.34,0,.82a1.36,1.36,0,0,1,1.37-.91c.73,0,1.42.38,1.42,1.67v3.92h-.49V89.33c0-.75-.3-1.29-1-1.29-.91,0-1.28.63-1.28,2v3.18h-.5Z" transform="translate(-0.38 -1.25)"/><path class="cls-10" d="M202.29,77.68c.62,2.73,1,4.15,1.06,4.93h0c.12-.7.34-1.59,1.15-4.93H205c.79,3.42,1,4.33,1.09,4.9h0c.09-.61.36-1.74,1.09-4.9h.52l-1.36,5.5h-.55c-.44-1.87-.94-4-1.08-4.88h0c-.11.84-.56,2.63-1.1,4.88h-.58l-1.28-5.5Z" transform="translate(-0.38 -1.25)"/><path class="cls-10" d="M208.68,75.34h.48V76.4h-.48Zm0,2.34h.48v5.5h-.48Z" transform="translate(-0.38 -1.25)"/><path class="cls-10" d="M210.58,79.37c0-1.12,0-1.46,0-1.69H211c0,.13,0,.34,0,.82a1.36,1.36,0,0,1,1.37-.91c.73,0,1.42.38,1.42,1.67v3.92h-.49V79.33c0-.75-.3-1.29-1-1.29-.91,0-1.28.63-1.28,2v3.18h-.5Z" transform="translate(-0.38 -1.25)"/><path class="cls-10" d="M218.45,75.34v6.51c0,.45,0,1,0,1.33H218c0-.14,0-.55,0-.84a1.26,1.26,0,0,1-1.34.94c-1.14,0-1.64-.93-1.64-2.91,0-1.81.71-2.78,1.78-2.78a1.14,1.14,0,0,1,1.2.67V75.34Zm-3,5c0,1.79.44,2.45,1.21,2.45,1,0,1.27-.88,1.27-2.48,0-1.82-.31-2.3-1.2-2.3S215.49,78.74,215.49,80.37Z" transform="translate(-0.38 -1.25)"/><path class="cls-10" d="M196.32,91.65c.06.73.45,1.19,1.15,1.19a1,1,0,0,0,1.07-1.06c0-.68-.37-1-1.14-1.28-1-.41-1.37-.79-1.37-1.54a1.3,1.3,0,0,1,1.44-1.37,1.34,1.34,0,0,1,1.45,1.47h-.49a1,1,0,0,0-1-1,.83.83,0,0,0-.91.92c0,.5.19.75,1,1.08,1,.4,1.49.75,1.49,1.73a1.44,1.44,0,0,1-1.61,1.52,1.5,1.5,0,0,1-1.6-1.63Z" transform="translate(-0.38 -1.25)"/><path class="cls-10" d="M199.46,87.68h.81V86.15h.47v1.53h1v.44h-1v4c0,.41.1.69.53.69a2.94,2.94,0,0,0,.44,0v.39a1.79,1.79,0,0,1-.57.08c-.49,0-.87-.22-.87-1V88.12h-.81Z" transform="translate(-0.38 -1.25)"/><path class="cls-10" d="M202.58,89.56c0-.86,0-1.49,0-1.88H203c0,.17,0,.45,0,1a1.58,1.58,0,0,1,1.47-1.11v.52c-1,.06-1.47.87-1.47,1.87v3.19h-.48Z" transform="translate(-0.38 -1.25)"/><path class="cls-10" d="M205.45,90.46c0,1.33.25,2.38,1.23,2.38a1.22,1.22,0,0,0,1.18-1.16h.49a1.69,1.69,0,0,1-1.67,1.6c-1.51,0-1.72-1.47-1.72-2.83,0-1.74.55-2.86,1.78-2.86s1.66,1.19,1.66,2.52c0,0,0,.19,0,.35Zm2.46-.43c0-1.22-.3-2-1.18-2-1.19,0-1.25,1.64-1.27,2Z" transform="translate(-0.38 -1.25)"/><path class="cls-10" d="M209.51,89.37c0-1.12,0-1.46,0-1.69H210c0,.13,0,.34,0,.82a1.36,1.36,0,0,1,1.37-.91c.73,0,1.42.38,1.42,1.67v3.92h-.5V89.33c0-.75-.29-1.29-1-1.29-.91,0-1.29.63-1.29,2v3.18h-.49Z" transform="translate(-0.38 -1.25)"/><path class="cls-10" d="M217.38,92.89c0,1.37-.27,2.43-1.8,2.43a1.48,1.48,0,0,1-1.64-1.47h.5a1.07,1.07,0,0,0,1.15,1c1.09,0,1.31-.78,1.31-2v-.67a1.3,1.3,0,0,1-1.35,1c-1.07,0-1.65-.88-1.65-2.68,0-2,.77-2.91,1.77-2.91a1.12,1.12,0,0,1,1.23.81,5.47,5.47,0,0,1,0-.72h.46c0,.25,0,.82,0,1.54Zm-3-2.39c0,1.46.42,2.23,1.22,2.23,1,0,1.29-1,1.29-2.35S216.66,88,215.71,88,214.41,88.94,214.41,90.5Z" transform="translate(-0.38 -1.25)"/><path class="cls-10" d="M218.15,87.68H219V86.15h.47v1.53h1v.44h-1v4c0,.41.1.69.53.69a2.94,2.94,0,0,0,.44,0v.39a1.79,1.79,0,0,1-.57.08c-.49,0-.87-.22-.87-1V88.12h-.81Z" transform="translate(-0.38 -1.25)"/><path class="cls-10" d="M221.77,85.34v3.1a1.36,1.36,0,0,1,1.38-.85c.74,0,1.39.44,1.39,1.66v3.93h-.49V89.36c0-.77-.26-1.32-1-1.32s-1.26.76-1.26,1.87v3.27h-.49V85.34Z" transform="translate(-0.38 -1.25)"/><path class="cls-10" d="M52.46,81.78A1.11,1.11,0,0,0,53.61,83a1,1,0,0,0,1.06-1.06c0-.69-.37-1-1.13-1.29-1-.41-1.37-.78-1.37-1.53a1.3,1.3,0,0,1,1.43-1.37,1.34,1.34,0,0,1,1.45,1.47h-.49a.94.94,0,0,0-1-1,.83.83,0,0,0-.91.91c0,.51.18.76,1,1.09,1,.39,1.49.75,1.49,1.73a1.44,1.44,0,0,1-1.61,1.52A1.5,1.5,0,0,1,52,81.78Z" transform="translate(-0.38 -1.25)"/><path class="cls-10" d="M56.75,75.47v3.1a1.35,1.35,0,0,1,1.37-.85c.74,0,1.4.44,1.4,1.66v3.93H59V79.48c0-.76-.26-1.31-1-1.31s-1.25.75-1.25,1.87v3.27h-.49V75.47Z" transform="translate(-0.38 -1.25)"/><path class="cls-10" d="M64.19,80.48c0,1.9-.59,2.93-1.77,2.93s-1.79-1-1.79-2.92.7-2.77,1.81-2.77S64.19,78.63,64.19,80.48Zm-3,0c0,1.71.49,2.47,1.27,2.47s1.28-.78,1.28-2.49c0-1.53-.44-2.32-1.28-2.32S61.14,78.81,61.14,80.5Z" transform="translate(-0.38 -1.25)"/><path class="cls-10" d="M65.33,79.69c0-.86,0-1.49,0-1.89h.47c0,.18,0,.45,0,1a1.57,1.57,0,0,1,1.47-1.11v.51a1.66,1.66,0,0,0-1.47,1.87v3.2h-.48Z" transform="translate(-0.38 -1.25)"/><path class="cls-10" d="M67.73,77.8h.81V76.28H69V77.8h1v.45H69v4c0,.42.1.69.53.69a2.94,2.94,0,0,0,.44,0v.4a1.79,1.79,0,0,1-.57.08c-.49,0-.87-.23-.87-1V78.25h-.81Z" transform="translate(-0.38 -1.25)"/><path class="cls-10" d="M49.66,85.47V92c0,.46,0,1,0,1.34H49.2c0-.14,0-.56,0-.84a1.27,1.27,0,0,1-1.34.94c-1.14,0-1.64-.93-1.64-2.92,0-1.8.71-2.77,1.78-2.77a1.14,1.14,0,0,1,1.2.66V85.47Zm-3,5c0,1.8.45,2.45,1.21,2.45,1,0,1.27-.87,1.27-2.47,0-1.83-.3-2.3-1.2-2.3C47.23,88.17,46.7,88.87,46.7,90.49Z" transform="translate(-0.38 -1.25)"/><path class="cls-10" d="M51.08,85.47h.48v1.06h-.48Zm0,2.33h.48v5.51h-.48Z" transform="translate(-0.38 -1.25)"/><path class="cls-10" d="M53,91.78c.05.73.44,1.19,1.14,1.19a1,1,0,0,0,1.07-1.06c0-.69-.37-1-1.14-1.29-1-.41-1.37-.78-1.37-1.53a1.3,1.3,0,0,1,1.44-1.37,1.34,1.34,0,0,1,1.45,1.47h-.49a1,1,0,0,0-1-1,.83.83,0,0,0-.92.91c0,.51.19.76,1,1.09,1,.39,1.49.75,1.49,1.73a1.44,1.44,0,0,1-1.6,1.52,1.5,1.5,0,0,1-1.6-1.63Z" transform="translate(-0.38 -1.25)"/><path class="cls-10" d="M56.18,87.8H57V86.28h.47V87.8h1v.45h-1v4c0,.42.1.69.53.69a2.81,2.81,0,0,0,.43,0v.4a1.73,1.73,0,0,1-.56.08c-.5,0-.87-.23-.87-1V88.25h-.81Z" transform="translate(-0.38 -1.25)"/><path class="cls-10" d="M62.22,92.49c0,.39,0,.7,0,.82h-.44a4.14,4.14,0,0,1-.06-.7,1.29,1.29,0,0,1-1.34.8A1.4,1.4,0,0,1,59,91.84c0-.93.62-1.73,2.1-1.73a3.91,3.91,0,0,1,.65,0v-.83c0-.5-.11-1.15-1-1.15s-1,.73-1.07,1.1h-.48a1.43,1.43,0,0,1,1.56-1.54c1,0,1.44.5,1.44,1.5Zm-.46-1.91a3.08,3.08,0,0,0-.63,0c-1.15,0-1.64.56-1.64,1.28a1,1,0,0,0,1,1.15c.91,0,1.26-.63,1.26-2Z" transform="translate(-0.38 -1.25)"/><path class="cls-10" d="M63.65,89.5c0-1.12,0-1.46,0-1.7h.47c0,.14,0,.35,0,.83a1.35,1.35,0,0,1,1.37-.91c.73,0,1.42.37,1.42,1.67v3.92h-.49V89.46c0-.75-.3-1.29-1-1.29-.91,0-1.28.63-1.28,2v3.19h-.5Z" transform="translate(-0.38 -1.25)"/><path class="cls-10" d="M71.41,91.75a1.66,1.66,0,0,1-1.62,1.66c-1.35,0-1.74-1.28-1.74-2.85s.52-2.84,1.82-2.84a1.54,1.54,0,0,1,1.54,1.63h-.5c0-.23-.12-1.19-1-1.19s-1.31,1-1.31,2.39S68.94,93,69.81,93s1.06-.94,1.1-1.22Z" transform="translate(-0.38 -1.25)"/><path class="cls-10" d="M72.71,90.59C72.71,91.92,73,93,74,93s1.14-1,1.18-1.16h.49A1.7,1.7,0,0,1,74,93.41c-1.52,0-1.73-1.48-1.73-2.83,0-1.74.56-2.86,1.78-2.86s1.66,1.19,1.66,2.52c0,.05,0,.18,0,.35Zm2.46-.43c0-1.22-.29-2-1.18-2-1.19,0-1.24,1.63-1.26,2Z" transform="translate(-0.38 -1.25)"/><path class="cls-10" d="M48.81,95.47V102c0,.46,0,1,0,1.34h-.47c0-.14,0-.56,0-.84a1.26,1.26,0,0,1-1.34.94c-1.13,0-1.64-.93-1.64-2.92,0-1.8.71-2.77,1.78-2.77a1.14,1.14,0,0,1,1.2.66V95.47Zm-3,5c0,1.8.45,2.45,1.21,2.45,1,0,1.27-.87,1.27-2.47,0-1.83-.3-2.3-1.2-2.3C46.39,98.17,45.85,98.87,45.85,100.49Z" transform="translate(-0.38 -1.25)"/><path class="cls-10" d="M50.23,95.47h.48v1.06h-.48Zm0,2.33h.48v5.51h-.48Z" transform="translate(-0.38 -1.25)"/><path class="cls-10" d="M52.19,101.78A1.11,1.11,0,0,0,53.34,103a1,1,0,0,0,1.06-1.06c0-.69-.37-1-1.13-1.29-1-.41-1.37-.78-1.37-1.53a1.3,1.3,0,0,1,1.43-1.37,1.35,1.35,0,0,1,1.46,1.47h-.5a.94.94,0,0,0-1-1,.83.83,0,0,0-.91.91c0,.51.18.76,1,1.09s1.49.75,1.49,1.73a1.44,1.44,0,0,1-1.61,1.52,1.5,1.5,0,0,1-1.6-1.63Z" transform="translate(-0.38 -1.25)"/><path class="cls-10" d="M56.38,102.65v2.71H55.9V99.42c0-.76,0-1.27,0-1.62h.47c0,.09,0,.52,0,.84a1.33,1.33,0,0,1,1.36-.92c1.06,0,1.61,1,1.61,2.77s-.67,2.92-1.76,2.92A1.17,1.17,0,0,1,56.38,102.65Zm2.47-2.14c0-1.43-.35-2.34-1.19-2.34-1,0-1.3,1-1.3,2.4s.16,2.38,1.22,2.38C58.41,103,58.85,102,58.85,100.51Z" transform="translate(-0.38 -1.25)"/><path class="cls-10" d="M60.71,100.59c0,1.33.25,2.38,1.24,2.38s1.14-1,1.18-1.16h.49a1.7,1.7,0,0,1-1.67,1.6c-1.52,0-1.73-1.48-1.73-2.83,0-1.74.56-2.86,1.78-2.86s1.66,1.19,1.66,2.52c0,.05,0,.18,0,.35Zm2.46-.43c0-1.22-.29-2-1.18-2-1.19,0-1.24,1.63-1.27,2Z" transform="translate(-0.38 -1.25)"/><path class="cls-10" d="M64.78,99.69c0-.86,0-1.49,0-1.89h.47c0,.18,0,.45,0,1a1.56,1.56,0,0,1,1.46-1.11v.51c-1,.07-1.46.88-1.46,1.87v3.2h-.48Z" transform="translate(-0.38 -1.25)"/><path class="cls-10" d="M67.62,101.78c.06.73.45,1.19,1.15,1.19a1,1,0,0,0,1.07-1.06c0-.69-.37-1-1.14-1.29-1-.41-1.37-.78-1.37-1.53a1.3,1.3,0,0,1,1.44-1.37,1.34,1.34,0,0,1,1.45,1.47h-.49a1,1,0,0,0-1-1,.83.83,0,0,0-.92.91c0,.51.19.76,1,1.09,1,.39,1.49.75,1.49,1.73a1.44,1.44,0,0,1-1.61,1.52,1.5,1.5,0,0,1-1.6-1.63Z" transform="translate(-0.38 -1.25)"/><path class="cls-10" d="M74.29,102.49c0,.39,0,.7,0,.82h-.44a3.31,3.31,0,0,1-.06-.7,1.3,1.3,0,0,1-1.34.8,1.4,1.4,0,0,1-1.42-1.57c0-.93.62-1.73,2.09-1.73a4,4,0,0,1,.66,0v-.83c0-.5-.11-1.15-1-1.15s-1,.73-1.07,1.1h-.48a1.43,1.43,0,0,1,1.56-1.54c1,0,1.44.5,1.44,1.5Zm-.46-1.91a3.14,3.14,0,0,0-.63,0c-1.15,0-1.64.56-1.64,1.28a1,1,0,0,0,1,1.15c.91,0,1.27-.63,1.27-2Z" transform="translate(-0.38 -1.25)"/><path class="cls-10" d="M75.72,103.31V95.47h.48v7.84Z" transform="translate(-0.38 -1.25)"/><path class="cls-10" d="M52.44,111.78c.05.73.44,1.19,1.14,1.19a1,1,0,0,0,1.07-1.06c0-.69-.37-1-1.14-1.29-1-.41-1.37-.78-1.37-1.53a1.3,1.3,0,0,1,1.44-1.37A1.34,1.34,0,0,1,55,109.19h-.49a1,1,0,0,0-1-1,.83.83,0,0,0-.92.91c0,.51.19.76,1,1.09s1.48.75,1.48,1.73a1.44,1.44,0,0,1-1.6,1.52,1.5,1.5,0,0,1-1.6-1.63Z" transform="translate(-0.38 -1.25)"/><path class="cls-10" d="M59.3,111.75a1.67,1.67,0,0,1-1.63,1.66c-1.35,0-1.73-1.28-1.73-2.85s.52-2.84,1.81-2.84a1.55,1.55,0,0,1,1.55,1.63h-.5c0-.23-.12-1.19-1-1.19s-1.31,1-1.31,2.39S56.82,113,57.7,113s1-.94,1.1-1.22Z" transform="translate(-0.38 -1.25)"/><path class="cls-10" d="M63.27,112.49a5.82,5.82,0,0,0,0,.82h-.45a4.14,4.14,0,0,1-.06-.7,1.29,1.29,0,0,1-1.34.8,1.4,1.4,0,0,1-1.42-1.57c0-.93.62-1.73,2.1-1.73a3.91,3.91,0,0,1,.65,0v-.83c0-.5-.11-1.15-1-1.15s-1,.73-1.07,1.1h-.48a1.43,1.43,0,0,1,1.56-1.54c1,0,1.44.5,1.44,1.5Zm-.46-1.91a3.08,3.08,0,0,0-.63,0c-1.15,0-1.64.56-1.64,1.28a1,1,0,0,0,1,1.15c.91,0,1.26-.63,1.26-2Z" transform="translate(-0.38 -1.25)"/><path class="cls-10" d="M64.71,113.31v-7.84h.48v7.84Z" transform="translate(-0.38 -1.25)"/><path class="cls-10" d="M66.81,110.59c0,1.33.25,2.38,1.24,2.38s1.14-1,1.18-1.16h.49a1.7,1.7,0,0,1-1.67,1.6c-1.52,0-1.73-1.48-1.73-2.83,0-1.74.56-2.86,1.78-2.86s1.66,1.19,1.66,2.52c0,.05,0,.18,0,.35Zm2.46-.43c0-1.22-.29-2-1.18-2-1.19,0-1.24,1.63-1.27,2Z" transform="translate(-0.38 -1.25)"/><path class="cls-10" d="M90.49,83.31V75.47H91v7.84Z" transform="translate(-0.38 -1.25)"/><path class="cls-10" d="M95.67,80.48c0,1.9-.6,2.93-1.77,2.93s-1.79-1-1.79-2.92.69-2.77,1.8-2.77S95.67,78.63,95.67,80.48Zm-3.06,0c0,1.71.49,2.46,1.28,2.46s1.27-.77,1.27-2.48c0-1.53-.44-2.32-1.27-2.32S92.61,78.81,92.61,80.5Z" transform="translate(-0.38 -1.25)"/><path class="cls-10" d="M96.8,79.5c0-1.12,0-1.46,0-1.7h.47c0,.14,0,.35,0,.82a1.35,1.35,0,0,1,1.37-.9c.73,0,1.42.37,1.42,1.67v3.92h-.5V79.46c0-.75-.29-1.29-1-1.29-.91,0-1.29.63-1.29,2v3.19H96.8Z" transform="translate(-0.38 -1.25)"/><path class="cls-10" d="M104.68,83c0,1.37-.28,2.42-1.81,2.42A1.47,1.47,0,0,1,101.23,84h.5a1.06,1.06,0,0,0,1.16,1c1.08,0,1.31-.78,1.31-2v-.67a1.31,1.31,0,0,1-1.35,1c-1.07,0-1.66-.89-1.66-2.69,0-2,.77-2.9,1.78-2.9a1.12,1.12,0,0,1,1.23.81,4.47,4.47,0,0,1,0-.73h.46c0,.26,0,.82,0,1.55Zm-3-2.4c0,1.47.42,2.23,1.22,2.23,1,0,1.29-1,1.29-2.34,0-1.5-.26-2.34-1.2-2.34S101.7,79.07,101.7,80.62Z" transform="translate(-0.38 -1.25)"/><path class="cls-10" d="M86.33,85.47V92c0,.46,0,1,0,1.34h-.46c0-.14,0-.56,0-.84a1.26,1.26,0,0,1-1.34.94c-1.13,0-1.64-.93-1.64-2.92,0-1.8.71-2.77,1.79-2.77a1.12,1.12,0,0,1,1.19.66V85.47Zm-3,5c0,1.8.44,2.45,1.21,2.45,1,0,1.26-.87,1.26-2.47,0-1.83-.3-2.3-1.2-2.3C83.91,88.17,83.38,88.87,83.38,90.49Z" transform="translate(-0.38 -1.25)"/><path class="cls-10" d="M87.76,85.47h.48v1.06h-.48Zm0,2.33h.48v5.51h-.48Z" transform="translate(-0.38 -1.25)"/><path class="cls-10" d="M89.71,91.78c.06.73.45,1.19,1.15,1.19a1,1,0,0,0,1.07-1.06c0-.69-.37-1-1.14-1.29-1-.41-1.37-.78-1.37-1.53a1.3,1.3,0,0,1,1.44-1.37,1.34,1.34,0,0,1,1.45,1.47h-.49a1,1,0,0,0-1-1,.83.83,0,0,0-.91.91c0,.51.19.76,1,1.09,1,.39,1.49.75,1.49,1.72a1.45,1.45,0,0,1-1.61,1.53,1.5,1.5,0,0,1-1.6-1.63Z" transform="translate(-0.38 -1.25)"/><path class="cls-10" d="M92.85,87.8h.81V86.28h.47V87.8h1v.45h-1v4c0,.42.1.69.53.69a2.94,2.94,0,0,0,.44,0v.4a2.12,2.12,0,0,1-.57.08c-.49,0-.87-.23-.87-1V88.25h-.81Z" transform="translate(-0.38 -1.25)"/><path class="cls-10" d="M98.9,92.49c0,.39,0,.7,0,.82h-.45a4.3,4.3,0,0,1,0-.7,1.3,1.3,0,0,1-1.34.8,1.4,1.4,0,0,1-1.42-1.57c0-.93.62-1.73,2.09-1.73a6,6,0,0,1,.66,0v-.82c0-.5-.11-1.15-1-1.15s-1,.73-1.06,1.1H95.9a1.43,1.43,0,0,1,1.56-1.54c1,0,1.44.5,1.44,1.5Zm-.46-1.91a3.26,3.26,0,0,0-.64,0c-1.14,0-1.63.56-1.63,1.28a1,1,0,0,0,1,1.15c.91,0,1.27-.63,1.27-2Z" transform="translate(-0.38 -1.25)"/><path class="cls-10" d="M100.33,89.5c0-1.12,0-1.46,0-1.7h.47c0,.14,0,.35,0,.82a1.34,1.34,0,0,1,1.36-.9c.73,0,1.42.37,1.42,1.67v3.92h-.49V89.46c0-.75-.29-1.29-1-1.29-.92,0-1.29.63-1.29,2v3.19h-.49Z" transform="translate(-0.38 -1.25)"/><path class="cls-10" d="M108.09,91.75a1.66,1.66,0,0,1-1.63,1.66c-1.34,0-1.73-1.28-1.73-2.85s.52-2.84,1.81-2.84a1.55,1.55,0,0,1,1.55,1.63h-.5c0-.23-.12-1.19-1-1.19s-1.31,1-1.31,2.38.38,2.42,1.26,2.42,1.05-.93,1.1-1.21Z" transform="translate(-0.38 -1.25)"/><path class="cls-10" d="M109.39,90.59c0,1.32.25,2.37,1.23,2.37a1.22,1.22,0,0,0,1.18-1.15h.49a1.69,1.69,0,0,1-1.67,1.6c-1.51,0-1.72-1.48-1.72-2.83,0-1.74.55-2.86,1.78-2.86s1.66,1.19,1.66,2.52c0,.05,0,.18,0,.35Zm2.46-.43c0-1.22-.3-2-1.18-2-1.19,0-1.25,1.63-1.27,2Z" transform="translate(-0.38 -1.25)"/><path class="cls-10" d="M85.49,95.47V102c0,.46,0,1,0,1.34H85c0-.14,0-.56,0-.84a1.27,1.27,0,0,1-1.34.94c-1.14,0-1.64-.93-1.64-2.92,0-1.8.71-2.77,1.78-2.77a1.15,1.15,0,0,1,1.2.66V95.47Zm-3,5c0,1.8.44,2.45,1.21,2.45,1,0,1.27-.87,1.27-2.47,0-1.83-.31-2.3-1.2-2.3S82.53,98.87,82.53,100.49Z" transform="translate(-0.38 -1.25)"/><path class="cls-10" d="M86.91,95.47h.48v1.06h-.48Zm0,2.33h.48v5.51h-.48Z" transform="translate(-0.38 -1.25)"/><path class="cls-10" d="M88.86,101.78c.06.73.45,1.19,1.15,1.19a1,1,0,0,0,1.07-1.06c0-.69-.37-1-1.14-1.29-1-.41-1.37-.78-1.37-1.53A1.3,1.3,0,0,1,90,97.72a1.34,1.34,0,0,1,1.45,1.47H91a1,1,0,0,0-1-1,.83.83,0,0,0-.92.91c0,.51.19.76,1,1.09,1,.39,1.49.75,1.49,1.72a1.44,1.44,0,0,1-1.6,1.53,1.51,1.51,0,0,1-1.61-1.63Z" transform="translate(-0.38 -1.25)"/><path class="cls-10" d="M93.05,102.65v2.71h-.48V99.42c0-.76,0-1.27,0-1.62H93c0,.09,0,.52,0,.84a1.34,1.34,0,0,1,1.37-.92c1,0,1.6,1,1.6,2.77s-.67,2.92-1.76,2.92A1.18,1.18,0,0,1,93.05,102.65Zm2.47-2.14c0-1.43-.35-2.34-1.19-2.34s-1.3,1-1.3,2.4.16,2.38,1.22,2.38C95.08,103,95.52,102,95.52,100.51Z" transform="translate(-0.38 -1.25)"/><path class="cls-10" d="M97.39,100.59c0,1.32.25,2.37,1.23,2.37a1.22,1.22,0,0,0,1.18-1.15h.49a1.69,1.69,0,0,1-1.67,1.6c-1.51,0-1.72-1.48-1.72-2.83,0-1.74.55-2.86,1.78-2.86s1.66,1.19,1.66,2.52c0,.05,0,.18,0,.35Zm2.45-.43c0-1.22-.29-2-1.17-2-1.19,0-1.25,1.63-1.27,2Z" transform="translate(-0.38 -1.25)"/><path class="cls-10" d="M101.45,99.69c0-.86,0-1.49,0-1.89h.47c0,.18,0,.45,0,1a1.56,1.56,0,0,1,1.46-1.11v.51a1.66,1.66,0,0,0-1.46,1.87v3.2h-.48Z" transform="translate(-0.38 -1.25)"/><path class="cls-10" d="M104.3,101.78c0,.73.44,1.19,1.14,1.19a1,1,0,0,0,1.07-1.06c0-.69-.37-1-1.14-1.29-1-.41-1.37-.78-1.37-1.53a1.3,1.3,0,0,1,1.44-1.37,1.34,1.34,0,0,1,1.45,1.47h-.49a1,1,0,0,0-1-1,.83.83,0,0,0-.92.91c0,.51.19.76,1,1.09,1,.39,1.49.75,1.49,1.72a1.44,1.44,0,0,1-1.6,1.53,1.5,1.5,0,0,1-1.6-1.63Z" transform="translate(-0.38 -1.25)"/><path class="cls-10" d="M111,102.49a8,8,0,0,0,.05.82h-.45a4.14,4.14,0,0,1-.06-.7,1.29,1.29,0,0,1-1.34.8,1.4,1.4,0,0,1-1.42-1.57c0-.93.62-1.73,2.1-1.73a5.84,5.84,0,0,1,.65,0v-.82c0-.5-.11-1.15-1-1.15s-1,.73-1.07,1.1H108a1.43,1.43,0,0,1,1.56-1.54c1,0,1.44.5,1.44,1.5Zm-.46-1.91a3.08,3.08,0,0,0-.63,0c-1.15,0-1.64.56-1.64,1.28a1,1,0,0,0,1,1.15c.91,0,1.26-.63,1.26-2Z" transform="translate(-0.38 -1.25)"/><path class="cls-10" d="M112.4,103.31V95.47h.48v7.84Z" transform="translate(-0.38 -1.25)"/><path class="cls-10" d="M89.11,111.78c.06.73.45,1.19,1.15,1.19a1,1,0,0,0,1.07-1.06c0-.69-.37-1-1.14-1.29-1-.41-1.37-.78-1.37-1.53a1.3,1.3,0,0,1,1.44-1.37,1.34,1.34,0,0,1,1.45,1.47h-.49a1,1,0,0,0-1-1,.83.83,0,0,0-.92.91c0,.51.19.76,1,1.09,1,.39,1.49.75,1.49,1.72a1.45,1.45,0,0,1-1.61,1.53,1.51,1.51,0,0,1-1.6-1.63Z" transform="translate(-0.38 -1.25)"/><path class="cls-10" d="M96,111.75a1.66,1.66,0,0,1-1.62,1.66c-1.35,0-1.74-1.28-1.74-2.85s.52-2.84,1.81-2.84A1.54,1.54,0,0,1,96,109.35h-.5c0-.23-.12-1.19-1-1.19s-1.3,1-1.3,2.38S93.5,113,94.37,113s1.06-.93,1.1-1.21Z" transform="translate(-0.38 -1.25)"/><path class="cls-10" d="M100,112.49c0,.39,0,.7,0,.82h-.45a4.3,4.3,0,0,1-.05-.7,1.3,1.3,0,0,1-1.34.8,1.4,1.4,0,0,1-1.42-1.57c0-.93.62-1.73,2.09-1.73a6,6,0,0,1,.66,0v-.82c0-.5-.11-1.15-1-1.15s-1,.73-1.07,1.1H97a1.43,1.43,0,0,1,1.56-1.54c1,0,1.44.5,1.44,1.5Zm-.46-1.91a3.19,3.19,0,0,0-.64,0c-1.14,0-1.63.56-1.63,1.28a1,1,0,0,0,1,1.15c.91,0,1.27-.63,1.27-2Z" transform="translate(-0.38 -1.25)"/><path class="cls-10" d="M101.38,113.31v-7.84h.48v7.84Z" transform="translate(-0.38 -1.25)"/><path class="cls-10" d="M103.49,110.59c0,1.32.25,2.37,1.23,2.37a1.22,1.22,0,0,0,1.18-1.15h.49a1.69,1.69,0,0,1-1.67,1.6c-1.51,0-1.72-1.48-1.72-2.83,0-1.74.55-2.86,1.78-2.86s1.66,1.19,1.66,2.52c0,.05,0,.18,0,.35Zm2.45-.43c0-1.22-.29-2-1.17-2-1.19,0-1.25,1.63-1.27,2Z" transform="translate(-0.38 -1.25)"/><line class="cls-11" x1="98.56" y1="73.54" x2="111.36" y2="59.76"/><polygon class="cls-10" points="113.28 57.69 111.76 61.71 111.21 59.91 109.38 59.5 113.28 57.69"/><path class="cls-10" d="M136.08,77.89c0,1.24-.32,2.07-1.28,2.08s-1.26-.82-1.26-2,.49-2,1.28-2S136.08,76.52,136.08,77.89Zm-2.08,0c0,1.17.27,1.63.82,1.63s.81-.46.81-1.64c0-1-.22-1.55-.82-1.55S134,76.78,134,77.92Zm.34,5.39,4-7.28h.48l-4,7.28Zm5.31-2c0,1.26-.33,2.07-1.28,2.08s-1.26-.79-1.26-2,.48-2,1.28-2S139.65,80,139.65,81.34Zm-2.08,0c0,1.16.27,1.63.82,1.63s.81-.46.81-1.64c0-1-.22-1.55-.82-1.55S137.57,80.31,137.57,81.37Z" transform="translate(-0.38 -1.25)"/><path class="cls-10" d="M128.13,91.78c.06.73.45,1.19,1.15,1.19a1,1,0,0,0,1.07-1.06c0-.69-.37-1-1.14-1.29-1-.41-1.37-.78-1.37-1.53a1.3,1.3,0,0,1,1.44-1.37,1.34,1.34,0,0,1,1.45,1.47h-.49a1,1,0,0,0-1-1,.83.83,0,0,0-.92.91c0,.51.19.76,1,1.09,1,.39,1.49.75,1.49,1.72a1.44,1.44,0,0,1-1.6,1.53,1.51,1.51,0,0,1-1.61-1.63Z" transform="translate(-0.38 -1.25)"/><path class="cls-10" d="M132.42,85.47v3.1a1.36,1.36,0,0,1,1.38-.85c.74,0,1.39.44,1.39,1.66v3.93h-.49V89.48c0-.76-.26-1.31-1-1.31s-1.26.75-1.26,1.87v3.27h-.49V85.47Z" transform="translate(-0.38 -1.25)"/><path class="cls-10" d="M139.87,90.48c0,1.9-.6,2.93-1.77,2.93s-1.79-1-1.79-2.92.7-2.77,1.8-2.77S139.87,88.63,139.87,90.48Zm-3.06,0c0,1.71.49,2.46,1.28,2.46s1.28-.77,1.28-2.48c0-1.53-.45-2.32-1.28-2.32S136.81,88.81,136.81,90.5Z" transform="translate(-0.38 -1.25)"/><path class="cls-10" d="M141,89.69c0-.86,0-1.49,0-1.89h.46c0,.18,0,.45,0,1A1.56,1.56,0,0,1,143,87.73v.51c-1,.07-1.46.88-1.46,1.87v3.2H141Z" transform="translate(-0.38 -1.25)"/><path class="cls-10" d="M143.41,87.8h.81V86.28h.47V87.8h1v.45h-1v4c0,.42.1.69.53.69a2.81,2.81,0,0,0,.43,0v.4a2,2,0,0,1-.56.08c-.5,0-.87-.23-.87-1V88.25h-.81Z" transform="translate(-0.38 -1.25)"/><path class="cls-10" d="M125.33,95.47V102c0,.46,0,1,0,1.34h-.46c0-.14,0-.56,0-.84a1.26,1.26,0,0,1-1.34.94c-1.13,0-1.64-.93-1.64-2.92,0-1.8.71-2.77,1.79-2.77a1.12,1.12,0,0,1,1.19.66V95.47Zm-3,5c0,1.8.44,2.45,1.21,2.45,1,0,1.26-.87,1.26-2.47,0-1.83-.3-2.3-1.2-2.3C122.91,98.17,122.38,98.87,122.38,100.49Z" transform="translate(-0.38 -1.25)"/><path class="cls-10" d="M126.76,95.47h.48v1.06h-.48Zm0,2.33h.48v5.51h-.48Z" transform="translate(-0.38 -1.25)"/><path class="cls-10" d="M128.71,101.78c.06.73.45,1.19,1.15,1.19a1,1,0,0,0,1.07-1.06c0-.69-.37-1-1.14-1.29-1-.41-1.37-.78-1.37-1.53a1.3,1.3,0,0,1,1.44-1.37,1.34,1.34,0,0,1,1.45,1.47h-.49a1,1,0,0,0-1-1,.83.83,0,0,0-.91.91c0,.51.19.76,1,1.09,1,.39,1.49.75,1.49,1.72a1.45,1.45,0,0,1-1.61,1.53,1.5,1.5,0,0,1-1.6-1.63Z" transform="translate(-0.38 -1.25)"/><path class="cls-10" d="M131.85,97.8h.81V96.28h.47V97.8h1v.45h-1v4c0,.42.1.69.53.69a2.94,2.94,0,0,0,.44,0v.4a2.12,2.12,0,0,1-.57.08c-.49,0-.87-.23-.87-1V98.25h-.81Z" transform="translate(-0.38 -1.25)"/><path class="cls-10" d="M137.9,102.49c0,.39,0,.7,0,.82h-.45a4.3,4.3,0,0,1-.05-.7,1.3,1.3,0,0,1-1.34.8,1.4,1.4,0,0,1-1.42-1.57c0-.93.62-1.73,2.09-1.73a6,6,0,0,1,.66,0v-.82c0-.5-.11-1.15-1-1.15s-1,.73-1.06,1.1h-.48a1.43,1.43,0,0,1,1.56-1.54c1,0,1.44.5,1.44,1.5Zm-.46-1.91a3.26,3.26,0,0,0-.64,0c-1.14,0-1.63.56-1.63,1.28a1,1,0,0,0,1,1.15c.91,0,1.27-.63,1.27-2Z" transform="translate(-0.38 -1.25)"/><path class="cls-10" d="M139.33,99.5c0-1.12,0-1.46,0-1.7h.47c0,.14,0,.35,0,.82a1.34,1.34,0,0,1,1.36-.9c.73,0,1.42.37,1.42,1.67v3.92h-.49V99.46c0-.75-.29-1.29-1-1.29-.92,0-1.29.63-1.29,2v3.19h-.49Z" transform="translate(-0.38 -1.25)"/><path class="cls-10" d="M147.09,101.75a1.66,1.66,0,0,1-1.63,1.66c-1.34,0-1.73-1.28-1.73-2.85s.52-2.84,1.81-2.84a1.55,1.55,0,0,1,1.55,1.63h-.5c0-.23-.12-1.19-1.05-1.19s-1.31,1-1.31,2.38.38,2.42,1.26,2.42,1-.93,1.1-1.21Z" transform="translate(-0.38 -1.25)"/><path class="cls-10" d="M148.39,100.59c0,1.32.25,2.37,1.23,2.37a1.22,1.22,0,0,0,1.18-1.15h.49a1.69,1.69,0,0,1-1.67,1.6c-1.51,0-1.72-1.48-1.72-2.83,0-1.74.55-2.86,1.78-2.86s1.66,1.19,1.66,2.52c0,.05,0,.18,0,.35Zm2.46-.43c0-1.22-.3-2-1.18-2-1.19,0-1.25,1.63-1.27,2Z" transform="translate(-0.38 -1.25)"/><path class="cls-10" d="M124.49,105.47V112c0,.46,0,1,0,1.34H124c0-.14,0-.56,0-.84a1.27,1.27,0,0,1-1.34.94c-1.14,0-1.64-.93-1.64-2.92,0-1.8.71-2.77,1.78-2.77a1.15,1.15,0,0,1,1.2.66v-2.91Zm-3,5c0,1.8.44,2.45,1.21,2.45,1,0,1.27-.87,1.27-2.47,0-1.83-.31-2.3-1.2-2.3S121.53,108.87,121.53,110.49Z" transform="translate(-0.38 -1.25)"/><path class="cls-10" d="M125.91,105.47h.48v1.06h-.48Zm0,2.33h.48v5.51h-.48Z" transform="translate(-0.38 -1.25)"/><path class="cls-10" d="M127.86,111.78c.06.73.45,1.19,1.15,1.19a1,1,0,0,0,1.07-1.06c0-.69-.37-1-1.14-1.29-1-.41-1.37-.78-1.37-1.53a1.3,1.3,0,0,1,1.44-1.37,1.34,1.34,0,0,1,1.45,1.47H130a1,1,0,0,0-1-1,.83.83,0,0,0-.92.91c0,.51.19.76,1,1.09,1,.39,1.49.75,1.49,1.72a1.44,1.44,0,0,1-1.6,1.53,1.51,1.51,0,0,1-1.61-1.63Z" transform="translate(-0.38 -1.25)"/><path class="cls-10" d="M132.05,112.65v2.71h-.48v-5.94c0-.76,0-1.27,0-1.62H132c0,.09,0,.52,0,.84a1.34,1.34,0,0,1,1.37-.92c1.05,0,1.6,1,1.6,2.77s-.67,2.92-1.76,2.92A1.18,1.18,0,0,1,132.05,112.65Zm2.47-2.14c0-1.43-.35-2.34-1.19-2.34-1,0-1.3,1-1.3,2.4s.16,2.38,1.22,2.38C134.08,113,134.52,112,134.52,110.51Z" transform="translate(-0.38 -1.25)"/><path class="cls-10" d="M136.39,110.59c0,1.32.25,2.37,1.23,2.37a1.22,1.22,0,0,0,1.18-1.15h.49a1.69,1.69,0,0,1-1.67,1.6c-1.51,0-1.72-1.48-1.72-2.83,0-1.74.55-2.86,1.78-2.86s1.66,1.19,1.66,2.52c0,.05,0,.18,0,.35Zm2.45-.43c0-1.22-.29-2-1.17-2-1.19,0-1.25,1.63-1.27,2Z" transform="translate(-0.38 -1.25)"/><path class="cls-10" d="M140.45,109.69c0-.86,0-1.49,0-1.89h.47c0,.18,0,.45,0,1a1.56,1.56,0,0,1,1.46-1.11v.51a1.66,1.66,0,0,0-1.46,1.87v3.2h-.48Z" transform="translate(-0.38 -1.25)"/><path class="cls-10" d="M143.3,111.78c0,.73.44,1.19,1.14,1.19a1,1,0,0,0,1.07-1.06c0-.69-.37-1-1.14-1.29-1-.41-1.37-.78-1.37-1.53a1.3,1.3,0,0,1,1.44-1.37,1.34,1.34,0,0,1,1.45,1.47h-.49a1,1,0,0,0-1-1,.83.83,0,0,0-.92.91c0,.51.19.76,1,1.09,1,.39,1.49.75,1.49,1.72a1.44,1.44,0,0,1-1.6,1.53,1.5,1.5,0,0,1-1.6-1.63Z" transform="translate(-0.38 -1.25)"/><path class="cls-10" d="M150,112.49a8,8,0,0,0,0,.82h-.45a4.14,4.14,0,0,1-.06-.7,1.29,1.29,0,0,1-1.34.8,1.4,1.4,0,0,1-1.42-1.57c0-.93.62-1.73,2.1-1.73a5.84,5.84,0,0,1,.65,0v-.82c0-.5-.11-1.15-1-1.15s-1,.73-1.07,1.1H147a1.43,1.43,0,0,1,1.56-1.54c1,0,1.44.5,1.44,1.5Zm-.46-1.91a3.08,3.08,0,0,0-.63,0c-1.15,0-1.64.56-1.64,1.28a1,1,0,0,0,1,1.15c.91,0,1.26-.63,1.26-2Z" transform="translate(-0.38 -1.25)"/><path class="cls-10" d="M151.4,113.31v-7.84h.48v7.84Z" transform="translate(-0.38 -1.25)"/><line class="cls-11" x1="136.21" y1="72.72" x2="137.69" y2="62.75"/><polygon class="cls-10" points="138.11 59.96 139.13 64.13 137.66 62.96 135.92 63.65 138.11 59.96"/><line class="cls-11" x1="63.31" y1="73.9" x2="86.99" y2="59.05"/><polygon class="cls-10" points="89.38 57.55 86.87 61.04 86.81 59.16 85.15 58.29 89.38 57.55"/><line class="cls-11" x1="176.12" y1="71.16" x2="175.38" y2="62.15"/><polygon class="cls-10" points="175.15 59.34 177.09 63.17 175.4 62.36 173.85 63.44 175.15 59.34"/><line class="cls-11" x1="203.97" y1="71.7" x2="191.81" y2="60.15"/><polygon class="cls-10" points="189.76 58.2 193.77 59.77 191.96 60.29 191.53 62.12 189.76 58.2"/></g><g id="Overall_Infection" data-name="Overall Infection"><path class="cls-13" d="M200.08,23.22h0c0-2.8-8.65-5.07-19.32-5.07H143.25c-10.68,0-19.33-2.27-19.33-5.06v-.26h0v.26c0,2.79-8.65,5.06-19.32,5.06H67.09c-10.67,0-19.33,2.27-19.33,5.07h0" transform="translate(-0.38 -1.25)"/><path class="cls-10" d="M101.93,1.67h2.76a3.28,3.28,0,0,1,3.46,3.52,3.42,3.42,0,0,1-3.51,3.69h-2.71Zm1.35,6.11h1.29c1.49,0,2.17-1.1,2.17-2.58a2.15,2.15,0,0,0-2.16-2.43h-1.3Z" transform="translate(-0.38 -1.25)"/><path class="cls-10" d="M109.4,1.25h1.3V2.52h-1.3Zm0,2.27h1.3V8.88h-1.3Z" transform="translate(-0.38 -1.25)"/><path class="cls-10" d="M112.94,7.3a1,1,0,0,0,1.12.75c.62,0,.86-.24.86-.62s-.23-.57-1.09-.78c-1.67-.41-2-.92-2-1.67s.56-1.59,2.09-1.59,2.1.86,2.16,1.6h-1.24c-.06-.25-.23-.66-1-.66-.58,0-.76.26-.76.54s.18.46,1.09.68c1.73.41,2,1,2,1.78S115.54,9,114,9s-2.23-.76-2.35-1.71Z" transform="translate(-0.38 -1.25)"/><path class="cls-10" d="M118.56,8.34V11h-1.29V4.82c0-.44,0-.88,0-1.3h1.26a6.94,6.94,0,0,1,0,.73,1.73,1.73,0,0,1,1.62-.86c1.22,0,2.14,1,2.14,2.68,0,1.9-1,2.94-2.33,2.94A1.52,1.52,0,0,1,118.56,8.34ZM121,6.12c0-1-.44-1.67-1.21-1.67-.94,0-1.28.6-1.28,1.75S118.81,8,119.72,8,121,7.29,121,6.12Z" transform="translate(-0.38 -1.25)"/><path class="cls-10" d="M124.44,6.47c0,.81.41,1.51,1.21,1.51a1,1,0,0,0,1.06-.66H128A2.31,2.31,0,0,1,125.61,9a2.46,2.46,0,0,1-2.48-2.74c0-1.65.85-2.88,2.54-2.88A2.34,2.34,0,0,1,128.08,6a3.24,3.24,0,0,1,0,.45Zm2.34-.83c0-.71-.33-1.3-1.12-1.3s-1.12.55-1.19,1.3Z" transform="translate(-0.38 -1.25)"/><path class="cls-10" d="M129.17,5c0-.6,0-1.06,0-1.45h1.27c0,.13,0,.62,0,1a1.78,1.78,0,0,1,1.75-1.12V4.64c-1.09,0-1.75.38-1.75,1.82V8.88h-1.3Z" transform="translate(-0.38 -1.25)"/><path class="cls-10" d="M134,7.3a1,1,0,0,0,1.11.75c.63,0,.87-.24.87-.62s-.24-.57-1.09-.78c-1.68-.41-2-.92-2-1.67s.56-1.59,2.1-1.59,2.1.86,2.15,1.6H136c-.06-.25-.24-.66-1-.66-.58,0-.76.26-.76.54s.19.46,1.1.68c1.73.41,2,1,2,1.78S136.63,9,135.09,9s-2.22-.76-2.34-1.71Z" transform="translate(-0.38 -1.25)"/><path class="cls-10" d="M142.72,7.57a11,11,0,0,0,.07,1.31h-1.24a2.7,2.7,0,0,1-.08-.58,1.61,1.61,0,0,1-1.56.71,1.65,1.65,0,0,1-1.83-1.67c0-1.21,1-1.77,2.55-1.77h.82V5.2c0-.42-.14-.86-.94-.86s-.86.33-.94.73h-1.24c.08-.89.63-1.68,2.23-1.68,1.39,0,2.16.56,2.16,1.82Zm-1.27-1.19h-.69c-1,0-1.37.28-1.37.88a.77.77,0,0,0,.86.8c1.06,0,1.2-.73,1.2-1.53Z" transform="translate(-0.38 -1.25)"/><path class="cls-10" d="M144.15,8.88V1.25h1.3V8.88Z" transform="translate(-0.38 -1.25)"/><path class="cls-14" d="M144.61,41.16h0c0-2-3.35-3.57-7.48-3.57H122.61c-4.14,0-7.49-1.6-7.49-3.58v-.18h0V34c0,2-3.34,3.58-7.48,3.58H93.12c-4.13,0-7.48,1.6-7.48,3.57h0" transform="translate(-0.38 -1.25)"/><path class="cls-15" d="M195,41.16h0c0-2-2.52-3.57-5.63-3.57H178.41c-3.1,0-5.62-1.6-5.62-3.58v-.18h0V34c0,2-2.51,3.58-5.62,3.58H156.26c-3.1,0-5.62,1.6-5.62,3.57h0" transform="translate(-0.38 -1.25)"/><path class="cls-10" d="M94.46,22.67h2.76a3.27,3.27,0,0,1,3.45,3.52,3.42,3.42,0,0,1-3.5,3.69H94.46Zm1.35,6.11H97.1c1.49,0,2.17-1.1,2.17-2.58a2.15,2.15,0,0,0-2.16-2.43h-1.3Z" transform="translate(-0.38 -1.25)"/><path class="cls-10" d="M101.93,22.25h1.29v1.27h-1.29Zm0,2.27h1.29v5.36h-1.29Z" transform="translate(-0.38 -1.25)"/><path class="cls-10" d="M105.47,28.3a1,1,0,0,0,1.11.75c.63,0,.87-.24.87-.62s-.24-.57-1.09-.78c-1.68-.41-2-.92-2-1.67s.55-1.59,2.09-1.59,2.1.86,2.16,1.6H107.4c-.06-.25-.23-.66-1-.66-.58,0-.75.26-.75.54s.18.46,1.09.68c1.73.41,2,1,2,1.78s-.7,1.68-2.23,1.68-2.23-.76-2.35-1.71Z" transform="translate(-0.38 -1.25)"/><path class="cls-10" d="M109.19,24.52h.86V23h1.3v1.5h1.09v1h-1.09v2.82c0,.44.12.64.58.64a2.64,2.64,0,0,0,.38,0v.91a2.93,2.93,0,0,1-.93.11c-1,0-1.33-.52-1.33-1.44v-3h-.86Z" transform="translate(-0.38 -1.25)"/><path class="cls-10" d="M117.64,28.57a10.47,10.47,0,0,0,.08,1.31h-1.24a2.19,2.19,0,0,1-.08-.58,1.61,1.61,0,0,1-1.56.71A1.65,1.65,0,0,1,113,28.34c0-1.21,1-1.77,2.55-1.77h.82V26.2c0-.42-.15-.86-.94-.86s-.86.33-.94.73h-1.24c.08-.89.62-1.68,2.23-1.68,1.39,0,2.15.56,2.15,1.82Zm-1.26-1.19h-.69c-1,0-1.37.28-1.37.88a.77.77,0,0,0,.86.8c1.06,0,1.2-.73,1.2-1.53Z" transform="translate(-0.38 -1.25)"/><path class="cls-10" d="M119.09,25.87c0-.46,0-.95,0-1.35h1.25a5.9,5.9,0,0,1,0,.75,1.66,1.66,0,0,1,1.6-.88c1.06,0,1.79.69,1.79,2.07v3.42h-1.3V26.61c0-.68-.24-1.15-1-1.15s-1.14.49-1.14,1.48v2.94h-1.29Z" transform="translate(-0.38 -1.25)"/><path class="cls-10" d="M129.68,28.18A2.21,2.21,0,0,1,127.33,30c-1.6,0-2.48-1.13-2.48-2.77a2.58,2.58,0,0,1,2.55-2.85,2.08,2.08,0,0,1,2.28,1.87h-1.27a1,1,0,0,0-1-.84c-.77,0-1.21.67-1.21,1.77s.45,1.79,1.19,1.79a1,1,0,0,0,1-.8Z" transform="translate(-0.38 -1.25)"/><path class="cls-10" d="M131.7,27.47c0,.81.41,1.51,1.21,1.51a1,1,0,0,0,1.05-.66h1.3A2.29,2.29,0,0,1,132.87,30a2.46,2.46,0,0,1-2.48-2.74c0-1.65.84-2.88,2.54-2.88A2.34,2.34,0,0,1,135.34,27a3.24,3.24,0,0,1,0,.45Zm2.33-.83c0-.71-.32-1.3-1.11-1.3s-1.12.55-1.19,1.3Z" transform="translate(-0.38 -1.25)"/><path class="cls-10" d="M151.54,22.67h2.76a3.27,3.27,0,0,1,3.45,3.52,3.42,3.42,0,0,1-3.5,3.69h-2.71Zm1.35,6.11h1.29c1.49,0,2.17-1.1,2.17-2.58a2.15,2.15,0,0,0-2.17-2.43h-1.29Z" transform="translate(-0.38 -1.25)"/><path class="cls-10" d="M159,22.25h1.3v1.27H159Zm0,2.27h1.3v5.36H159Z" transform="translate(-0.38 -1.25)"/><path class="cls-10" d="M161.72,26c0-.6,0-1.06,0-1.45H163c0,.13,0,.62,0,1a1.78,1.78,0,0,1,1.75-1.12v1.25c-1.09,0-1.75.38-1.75,1.82v2.42h-1.3Z" transform="translate(-0.38 -1.25)"/><path class="cls-10" d="M166.56,27.47c0,.81.41,1.51,1.21,1.51a1,1,0,0,0,1.06-.66h1.3a2.31,2.31,0,0,1-2.4,1.69,2.46,2.46,0,0,1-2.48-2.74c0-1.65.85-2.88,2.54-2.88A2.34,2.34,0,0,1,170.2,27a3.24,3.24,0,0,1,0,.45Zm2.34-.83c0-.71-.33-1.3-1.12-1.3s-1.12.55-1.19,1.3Z" transform="translate(-0.38 -1.25)"/><path class="cls-10" d="M175.86,28.18A2.21,2.21,0,0,1,173.51,30c-1.6,0-2.48-1.13-2.48-2.77a2.58,2.58,0,0,1,2.55-2.85,2.09,2.09,0,0,1,2.28,1.87h-1.27a1,1,0,0,0-1-.84c-.77,0-1.21.67-1.21,1.77S172.8,29,173.54,29a1,1,0,0,0,1-.8Z" transform="translate(-0.38 -1.25)"/><path class="cls-10" d="M176.36,24.52h.86V23h1.3v1.5h1.09v1h-1.09v2.82c0,.44.12.64.58.64a2.64,2.64,0,0,0,.38,0v.91a2.93,2.93,0,0,1-.93.11c-1,0-1.33-.52-1.33-1.44v-3h-.86Z" transform="translate(-0.38 -1.25)"/><path class="cls-10" d="M180.5,22.25h1.29v1.27H180.5Zm0,2.27h1.29v5.36H180.5Z" transform="translate(-0.38 -1.25)"/><path class="cls-10" d="M188.08,27.19A2.57,2.57,0,0,1,185.45,30a2.54,2.54,0,0,1-2.58-2.8,2.58,2.58,0,0,1,2.65-2.82A2.53,2.53,0,0,1,188.08,27.19Zm-3.88,0c0,1.08.49,1.78,1.29,1.78s1.26-.68,1.26-1.77-.45-1.79-1.28-1.79S184.2,26,184.2,27.2Z" transform="translate(-0.38 -1.25)"/><path class="cls-10" d="M189.17,25.87c0-.46,0-.95,0-1.35h1.26c0,.14,0,.58.05.75a1.63,1.63,0,0,1,1.6-.88c1.05,0,1.78.69,1.78,2.07v3.42h-1.3V26.61c0-.68-.24-1.15-1-1.15s-1.13.49-1.13,1.48v2.94h-1.3Z" transform="translate(-0.38 -1.25)"/></g></g></svg>