<svg xmlns="http://www.w3.org/2000/svg" viewBox="0 0 196.52 66.71"><defs><style>.cls-1{font-size:16.03px;font-family:Arial-ItalicMT, Arial;font-style:italic;}.cls-1,.cls-8{fill:#fff;}.cls-2{letter-spacing:0.2em;}.cls-3{letter-spacing:0.02em;}.cls-4,.cls-5,.cls-6{font-size:13.35px;font-family:ArialMT, Arial;font-style:normal;}.cls-4{letter-spacing:0em;}.cls-5{letter-spacing:0.2em;}.cls-7{letter-spacing:0em;}.cls-11,.cls-9{fill:none;stroke:#fff;stroke-miterlimit:10;}.cls-9{stroke-width:0.8px;}.cls-10{fill:#808285;}.cls-11{stroke-width:0.74px;}</style></defs><g id="Layer_2" data-name="Layer 2"><g id="_Layer_" data-name="&lt;Layer&gt;"><text class="cls-1" transform="translate(35.96 31.37)"><tspan class="cls-2">β</tspan><tspan class="cls-3" x="12.36" y="0">X</tspan><tspan class="cls-4" x="23.37" y="4.01">i</tspan><tspan class="cls-5" x="26.34" y="4.01">t</tspan><tspan x="32.72" y="0">P</tspan><tspan class="cls-4" x="43.41" y="4.01">i</tspan><tspan class="cls-5" x="46.37" y="4.01">t</tspan><tspan x="52.75" y="0">T</tspan><tspan class="cls-6" x="62.54" y="4.01">i</tspan><tspan class="cls-5" x="65.51" y="4.01">t</tspan><tspan class="cls-7" x="71.89" y="0">I</tspan><tspan class="cls-6" x="76.34" y="4.01">it</tspan></text><path class="cls-8" d="M.72,21.94H1.2v3.19a1.36,1.36,0,0,1,1.38-.94c1,0,1.6.81,1.6,2.71,0,1.68-.47,3-1.75,3a1.23,1.23,0,0,1-1.24-.82c0,.22,0,.48,0,.73H.71c0-.25,0-.74,0-1.49Zm3,5c0-1.58-.43-2.26-1.17-2.26-1,0-1.33,1-1.33,2.38s.24,2.39,1.24,2.39C3.24,29.42,3.68,28.61,3.68,26.91Z" transform="translate(-0.71 -1.25)"/><path class="cls-8" d="M5.52,27.06c0,1.33.24,2.38,1.23,2.38a1.23,1.23,0,0,0,1.18-1.15h.49a1.7,1.7,0,0,1-1.67,1.6C5.23,29.89,5,28.41,5,27.05c0-1.74.56-2.86,1.78-2.86s1.66,1.19,1.66,2.53c0,0,0,.18,0,.34ZM8,26.63c0-1.21-.29-2-1.18-2-1.19,0-1.24,1.63-1.26,2Z" transform="translate(-0.71 -1.25)"/><path class="cls-8" d="M9,24.28h.81V22.75h.47v1.53h1v.44h-1v4c0,.42.1.69.53.69a2.81,2.81,0,0,0,.43,0v.4a2,2,0,0,1-.56.07c-.5,0-.87-.22-.87-1V24.72H9Z" transform="translate(-0.71 -1.25)"/><path class="cls-8" d="M15,29c0,.4,0,.7,0,.83h-.44a3.37,3.37,0,0,1-.06-.7,1.29,1.29,0,0,1-1.34.8,1.4,1.4,0,0,1-1.42-1.57c0-.93.62-1.73,2.09-1.73a6,6,0,0,1,.66,0v-.82c0-.5-.11-1.16-1-1.16s-1,.73-1.07,1.11H12a1.44,1.44,0,0,1,1.56-1.55c1,0,1.44.51,1.44,1.5Zm-.46-1.91a4.54,4.54,0,0,0-.63,0c-1.15,0-1.64.56-1.64,1.28a1,1,0,0,0,1,1.14c.9,0,1.26-.62,1.26-2Z" transform="translate(-0.71 -1.25)"/><path class="cls-8" d="M2.13,48.87c.06.73.45,1.19,1.15,1.19A1,1,0,0,0,4.35,49c0-.69-.37-1-1.14-1.29-1-.41-1.37-.79-1.37-1.54a1.31,1.31,0,0,1,1.44-1.37,1.34,1.34,0,0,1,1.45,1.47H4.24a1,1,0,0,0-1-1,.84.84,0,0,0-.92.92c0,.5.19.75,1,1.08,1,.4,1.49.75,1.49,1.73a1.44,1.44,0,0,1-1.6,1.52,1.51,1.51,0,0,1-1.61-1.63Z" transform="translate(-0.71 -1.25)"/><path class="cls-8" d="M6.13,47.68c0,1.33.24,2.38,1.23,2.38s1.14-1,1.18-1.16H9a1.69,1.69,0,0,1-1.67,1.6c-1.52,0-1.73-1.47-1.73-2.83,0-1.74.56-2.86,1.78-2.86S9.07,46,9.07,47.34c0,0,0,.18,0,.34Zm2.45-.43c0-1.21-.29-2-1.18-2-1.19,0-1.24,1.63-1.26,2Z" transform="translate(-0.71 -1.25)"/><path class="cls-8" d="M13,49.58a8.28,8.28,0,0,0,.05.83h-.45a4.39,4.39,0,0,1-.05-.7,1.3,1.3,0,0,1-1.34.79,1.4,1.4,0,0,1-1.43-1.56c0-.93.62-1.73,2.1-1.73a5.84,5.84,0,0,1,.65,0v-.82c0-.5-.1-1.16-1-1.16s-1,.73-1.07,1.11H10a1.44,1.44,0,0,1,1.56-1.55c1,0,1.44.51,1.44,1.5Zm-.45-1.91a4.71,4.71,0,0,0-.64,0c-1.15,0-1.64.56-1.64,1.28a1,1,0,0,0,1,1.14c.91,0,1.27-.62,1.27-2Z" transform="translate(-0.71 -1.25)"/><path class="cls-8" d="M14.44,48.87c.06.73.45,1.19,1.15,1.19A1,1,0,0,0,16.66,49c0-.69-.37-1-1.14-1.29-1-.41-1.37-.79-1.37-1.54a1.31,1.31,0,0,1,1.44-1.37A1.34,1.34,0,0,1,17,46.28h-.49a1,1,0,0,0-1-1,.83.83,0,0,0-.91.92c0,.5.19.75,1,1.08,1,.4,1.49.75,1.49,1.73a1.44,1.44,0,0,1-1.61,1.52A1.5,1.5,0,0,1,14,48.87Z" transform="translate(-0.71 -1.25)"/><path class="cls-8" d="M21.5,47.58c0,1.89-.6,2.92-1.77,2.92s-1.79-1-1.79-2.91.7-2.78,1.81-2.78S21.5,45.73,21.5,47.58Zm-3.05,0c0,1.7.48,2.46,1.27,2.46S21,49.28,21,47.58c0-1.54-.45-2.32-1.28-2.32S18.45,45.9,18.45,47.6Z" transform="translate(-0.71 -1.25)"/><path class="cls-8" d="M22.64,46.6c0-1.13,0-1.47,0-1.7h.47c0,.13,0,.34,0,.82a1.35,1.35,0,0,1,1.36-.91c.73,0,1.42.38,1.42,1.68v3.92h-.49V46.56c0-.76-.29-1.29-1-1.29-.92,0-1.29.63-1.29,1.95v3.19h-.49Z" transform="translate(-0.71 -1.25)"/><path class="cls-8" d="M30.15,49.58c0,.4,0,.7,0,.83h-.44a3.37,3.37,0,0,1-.06-.7,1.3,1.3,0,0,1-1.34.79,1.39,1.39,0,0,1-1.42-1.56c0-.93.62-1.73,2.09-1.73a6,6,0,0,1,.66,0v-.82c0-.5-.11-1.16-1-1.16s-1,.73-1.07,1.11h-.48a1.44,1.44,0,0,1,1.56-1.55c1,0,1.44.51,1.44,1.5Zm-.46-1.91a4.54,4.54,0,0,0-.63,0c-1.15,0-1.64.56-1.64,1.28a1,1,0,0,0,1,1.14c.91,0,1.27-.62,1.27-2Z" transform="translate(-0.71 -1.25)"/><path class="cls-8" d="M31.58,50.41V42.56h.48v7.85Z" transform="translate(-0.71 -1.25)"/><path class="cls-8" d="M33.48,42.56H34v1.06h-.49Zm0,2.34H34v5.51h-.48Z" transform="translate(-0.71 -1.25)"/><path class="cls-8" d="M34.75,44.9h.81V43.37H36V44.9h1v.44H36v4c0,.42.1.69.53.69A2.94,2.94,0,0,0,37,50v.39a1.79,1.79,0,0,1-.57.08c-.49,0-.87-.22-.87-1V45.34h-.81Z" transform="translate(-0.71 -1.25)"/><path class="cls-8" d="M38.08,44.9c.72,2.66,1.23,4.4,1.3,4.94h0c.1-.53.68-2.6,1.3-4.94h.53l-1.63,5.8c-.43,1.55-.74,1.84-1.53,1.84a1.58,1.58,0,0,1-.32,0V52a1.65,1.65,0,0,0,.34,0c.64,0,.79-.49,1.06-1.52L37.56,44.9Z" transform="translate(-0.71 -1.25)"/><path class="cls-8" d="M55.15,57.76v2.7h-.48V54.53c0-.76,0-1.28,0-1.62h.47c0,.09,0,.51,0,.83a1.34,1.34,0,0,1,1.37-.92c1,0,1.6,1,1.6,2.77s-.67,2.92-1.76,2.92A1.19,1.19,0,0,1,55.15,57.76Zm2.47-2.14c0-1.43-.35-2.34-1.19-2.34s-1.3.95-1.3,2.39.16,2.39,1.22,2.39C57.18,58.06,57.62,57.05,57.62,55.62Z" transform="translate(-0.71 -1.25)"/><path class="cls-8" d="M59.27,54.79c0-.86,0-1.49,0-1.88h.47c0,.17,0,.45,0,1a1.58,1.58,0,0,1,1.46-1.11v.52c-1,.06-1.46.87-1.46,1.87v3.19h-.48Z" transform="translate(-0.71 -1.25)"/><path class="cls-8" d="M62.14,55.69c0,1.33.25,2.38,1.23,2.38a1.22,1.22,0,0,0,1.18-1.16H65a1.68,1.68,0,0,1-1.67,1.6c-1.51,0-1.72-1.47-1.72-2.83,0-1.74.55-2.86,1.78-2.86s1.66,1.19,1.66,2.52c0,0,0,.19,0,.35Zm2.45-.43c0-1.22-.29-2-1.17-2-1.19,0-1.25,1.64-1.27,2Z" transform="translate(-0.71 -1.25)"/><path class="cls-8" d="M69.37,56.85a1.66,1.66,0,0,1-1.62,1.66c-1.35,0-1.74-1.27-1.74-2.85s.52-2.84,1.82-2.84a1.54,1.54,0,0,1,1.54,1.64h-.5c0-.24-.12-1.2-1-1.2s-1.31,1-1.31,2.39.38,2.42,1.25,2.42,1.06-.94,1.1-1.22Z" transform="translate(-0.71 -1.25)"/><path class="cls-8" d="M70.42,50.57h.49v1.06h-.49Zm0,2.34h.49v5.5h-.49Z" transform="translate(-0.71 -1.25)"/><path class="cls-8" d="M72.81,57.76v2.7h-.48V54.53c0-.76,0-1.28,0-1.62h.47c0,.09,0,.51,0,.83a1.33,1.33,0,0,1,1.36-.92c1.06,0,1.61,1,1.61,2.77S75.1,58.51,74,58.51A1.17,1.17,0,0,1,72.81,57.76Zm2.47-2.14c0-1.43-.36-2.34-1.2-2.34s-1.29.95-1.29,2.39S73,58.06,74,58.06C74.84,58.06,75.28,57.05,75.28,55.62Z" transform="translate(-0.71 -1.25)"/><path class="cls-8" d="M76.93,50.57h.48v1.06h-.48Zm0,2.34h.48v5.5h-.48Z" transform="translate(-0.71 -1.25)"/><path class="cls-8" d="M78.19,52.91H79V51.38h.47v1.53h1v.44h-1v4c0,.42.1.69.53.69a2.94,2.94,0,0,0,.44,0v.39a1.79,1.79,0,0,1-.57.08c-.49,0-.87-.22-.87-1V53.35h-.81Z" transform="translate(-0.71 -1.25)"/><path class="cls-8" d="M84.24,57.59c0,.39,0,.7,0,.82h-.44a3.31,3.31,0,0,1-.06-.7,1.29,1.29,0,0,1-1.34.8A1.39,1.39,0,0,1,81,57c0-.93.62-1.73,2.09-1.73a6,6,0,0,1,.66,0v-.82c0-.5-.11-1.16-1-1.16s-1,.73-1.07,1.11h-.48a1.43,1.43,0,0,1,1.56-1.55c1,0,1.44.51,1.44,1.5Zm-.46-1.91a4.54,4.54,0,0,0-.63,0c-1.15,0-1.64.55-1.64,1.27a1,1,0,0,0,1,1.15c.91,0,1.27-.62,1.27-2Z" transform="translate(-0.71 -1.25)"/><path class="cls-8" d="M84.94,52.91h.81V51.38h.47v1.53h1v.44h-1v4c0,.42.1.69.53.69a2.81,2.81,0,0,0,.43,0v.39a1.73,1.73,0,0,1-.56.08c-.5,0-.87-.22-.87-1V53.35h-.81Z" transform="translate(-0.71 -1.25)"/><path class="cls-8" d="M88.1,50.57h.48v1.06H88.1Zm0,2.34h.48v5.5H88.1Z" transform="translate(-0.71 -1.25)"/><path class="cls-8" d="M93.28,55.58c0,1.9-.6,2.93-1.77,2.93s-1.79-1-1.79-2.91.7-2.78,1.8-2.78S93.28,53.74,93.28,55.58Zm-3.06,0c0,1.7.49,2.46,1.28,2.46s1.28-.78,1.28-2.48c0-1.54-.45-2.33-1.28-2.33S90.22,53.91,90.22,55.61Z" transform="translate(-0.71 -1.25)"/><path class="cls-8" d="M94.42,54.6c0-1.12,0-1.46,0-1.69h.47c0,.13,0,.34,0,.82a1.34,1.34,0,0,1,1.36-.91c.73,0,1.42.38,1.42,1.67v3.92h-.49V54.57c0-.76-.3-1.29-1-1.29-.91,0-1.28.63-1.28,1.95v3.18h-.49Z" transform="translate(-0.71 -1.25)"/><path class="cls-8" d="M107.33,45.9h.81V44.37h.47V45.9h1v.44h-1v4c0,.42.1.69.53.69a2.94,2.94,0,0,0,.44,0v.39a1.79,1.79,0,0,1-.57.08c-.49,0-.87-.22-.87-1V46.34h-.81Z" transform="translate(-0.71 -1.25)"/><path class="cls-8" d="M110.58,48.68c0,1.33.25,2.38,1.23,2.38A1.22,1.22,0,0,0,113,49.9h.49a1.68,1.68,0,0,1-1.67,1.6c-1.51,0-1.72-1.47-1.72-2.83,0-1.74.55-2.86,1.78-2.86s1.66,1.19,1.66,2.53c0,0,0,.18,0,.34Zm2.46-.43c0-1.21-.3-2-1.18-2-1.19,0-1.25,1.63-1.27,2Z" transform="translate(-0.71 -1.25)"/><path class="cls-8" d="M114.64,47.55c0-.9,0-1.38,0-1.65h.47c0,.2,0,.49,0,.8a1.26,1.26,0,0,1,1.25-.89,1.06,1.06,0,0,1,1.15.87,1.34,1.34,0,0,1,1.32-.87c.62,0,1.29.29,1.29,1.57v4h-.48V47.48c0-.64-.17-1.21-.9-1.21s-1.12.77-1.12,1.55v3.59h-.48V47.5c0-.8-.26-1.23-.88-1.23s-1.15.76-1.15,1.66v3.48h-.48Z" transform="translate(-0.71 -1.25)"/><path class="cls-8" d="M122,50.75v2.7h-.48V47.52c0-.76,0-1.28,0-1.62H122c0,.09,0,.52,0,.83a1.34,1.34,0,0,1,1.36-.92c1.06,0,1.61,1,1.61,2.78s-.67,2.91-1.76,2.91A1.19,1.19,0,0,1,122,50.75Zm2.47-2.14c0-1.43-.35-2.34-1.19-2.34-1,0-1.3.95-1.3,2.39s.16,2.39,1.22,2.39C124.07,51.05,124.51,50.05,124.51,48.61Z" transform="translate(-0.71 -1.25)"/><path class="cls-8" d="M126.38,48.68c0,1.33.24,2.38,1.23,2.38s1.14-1,1.18-1.16h.49a1.69,1.69,0,0,1-1.67,1.6c-1.52,0-1.73-1.47-1.73-2.83,0-1.74.56-2.86,1.78-2.86s1.66,1.19,1.66,2.53c0,0,0,.18,0,.34Zm2.45-.43c0-1.21-.29-2-1.18-2-1.19,0-1.24,1.63-1.26,2Z" transform="translate(-0.71 -1.25)"/><path class="cls-8" d="M130.44,47.78c0-.86,0-1.48,0-1.88h.47c0,.18,0,.45,0,1a1.58,1.58,0,0,1,1.46-1.11v.52c-1,.06-1.46.88-1.46,1.87v3.2h-.48Z" transform="translate(-0.71 -1.25)"/><path class="cls-8" d="M136,50.58c0,.4,0,.7,0,.83h-.44a3.37,3.37,0,0,1-.06-.7,1.3,1.3,0,0,1-1.34.79,1.39,1.39,0,0,1-1.42-1.56c0-.93.62-1.73,2.09-1.73a6,6,0,0,1,.66,0v-.82c0-.5-.11-1.16-1-1.16s-1,.73-1.07,1.11H133a1.43,1.43,0,0,1,1.56-1.55c1,0,1.44.51,1.44,1.5Zm-.46-1.91a4.54,4.54,0,0,0-.63,0c-1.15,0-1.64.56-1.64,1.28a1,1,0,0,0,1,1.14c.91,0,1.27-.62,1.27-2Z" transform="translate(-0.71 -1.25)"/><path class="cls-8" d="M136.67,45.9h.81V44.37H138V45.9h1v.44h-1v4c0,.42.1.69.53.69a2.81,2.81,0,0,0,.43,0v.39a1.73,1.73,0,0,1-.56.08c-.5,0-.87-.22-.87-1V46.34h-.81Z" transform="translate(-0.71 -1.25)"/><path class="cls-8" d="M142.91,50c0,.62,0,1.18,0,1.44h-.46a6.81,6.81,0,0,1,0-.83,1.31,1.31,0,0,1-1.37.92c-.54,0-1.37-.18-1.37-1.64v-4h.49v3.84c0,.81.25,1.32,1,1.32s1.25-.45,1.25-1.84V45.9h.49Z" transform="translate(-0.71 -1.25)"/><path class="cls-8" d="M144.32,47.78c0-.86,0-1.48,0-1.88h.47c0,.18,0,.45,0,1a1.58,1.58,0,0,1,1.46-1.11v.52c-1,.06-1.46.88-1.46,1.87v3.2h-.48Z" transform="translate(-0.71 -1.25)"/><path class="cls-8" d="M147.19,48.68c0,1.33.25,2.38,1.23,2.38a1.22,1.22,0,0,0,1.18-1.16h.49a1.69,1.69,0,0,1-1.67,1.6c-1.51,0-1.72-1.47-1.72-2.83,0-1.74.55-2.86,1.78-2.86s1.65,1.19,1.65,2.53c0,0,0,.18,0,.34Zm2.45-.43c0-1.21-.29-2-1.18-2-1.18,0-1.24,1.63-1.26,2Z" transform="translate(-0.71 -1.25)"/><path class="cls-8" d="M139.94,26c0-1.13,0-1.47,0-1.7h.46a6.16,6.16,0,0,1,0,.82,1.34,1.34,0,0,1,1.36-.91c.73,0,1.42.38,1.42,1.68v3.92h-.49V25.94c0-.76-.3-1.29-1-1.29-.91,0-1.28.63-1.28,2v3.19h-.49Z" transform="translate(-0.71 -1.25)"/><path class="cls-8" d="M147.84,28.35c0,.62,0,1.18,0,1.44h-.46a6.72,6.72,0,0,1,0-.82,1.32,1.32,0,0,1-1.36.92c-.55,0-1.38-.19-1.38-1.64v-4h.49v3.84c0,.81.25,1.32,1,1.32s1.24-.45,1.24-1.84V24.28h.49Z" transform="translate(-0.71 -1.25)"/><path class="cls-8" d="M149.25,25.93c0-.9,0-1.37,0-1.65h.47c0,.2,0,.49,0,.8a1.26,1.26,0,0,1,1.25-.89,1.06,1.06,0,0,1,1.15.87,1.34,1.34,0,0,1,1.32-.87c.62,0,1.29.29,1.29,1.57v4h-.48V25.86c0-.63-.17-1.21-.9-1.21s-1.11.77-1.11,1.55v3.59h-.49V25.88c0-.8-.26-1.23-.88-1.23s-1.15.76-1.15,1.66v3.48h-.48Z" transform="translate(-0.71 -1.25)"/><path class="cls-8" d="M156.18,21.94h.48v3.19a1.36,1.36,0,0,1,1.38-.94c1,0,1.6.81,1.6,2.71,0,1.68-.47,3-1.75,3a1.23,1.23,0,0,1-1.24-.82c0,.22,0,.48,0,.73h-.45c0-.25,0-.74,0-1.49Zm3,5c0-1.58-.43-2.26-1.17-2.26-1,0-1.33,1-1.33,2.38s.24,2.39,1.24,2.39C158.7,29.42,159.14,28.61,159.14,26.91Z" transform="translate(-0.71 -1.25)"/><path class="cls-8" d="M161,27.06c0,1.33.25,2.38,1.23,2.38a1.22,1.22,0,0,0,1.18-1.15h.49a1.7,1.7,0,0,1-1.67,1.6c-1.51,0-1.72-1.48-1.72-2.84,0-1.74.55-2.86,1.77-2.86s1.66,1.19,1.66,2.53c0,0,0,.18,0,.34Zm2.45-.43c0-1.21-.29-2-1.18-2-1.19,0-1.24,1.63-1.26,2Z" transform="translate(-0.71 -1.25)"/><path class="cls-8" d="M165,26.16c0-.86,0-1.48,0-1.88h.47c0,.18,0,.45,0,1A1.58,1.58,0,0,1,167,24.2v.52c-1,.06-1.46.88-1.46,1.87v3.2H165Z" transform="translate(-0.71 -1.25)"/><path class="cls-8" d="M169.94,21.94h.48V23h-.48Zm0,2.34h.48v5.51h-.48Z" transform="translate(-0.71 -1.25)"/><path class="cls-8" d="M171.85,26c0-1.13,0-1.47,0-1.7h.46a6.16,6.16,0,0,1,0,.82,1.34,1.34,0,0,1,1.36-.91c.73,0,1.42.38,1.42,1.68v3.92h-.49V25.94c0-.76-.3-1.29-1-1.29-.91,0-1.28.63-1.28,2v3.19h-.49Z" transform="translate(-0.71 -1.25)"/><path class="cls-8" d="M176.6,29.79V24.72h-.77v-.44h.77v-.9c0-.75.21-1.49,1.15-1.49a1.62,1.62,0,0,1,.4.05v.47a1.89,1.89,0,0,0-.4-.06c-.48,0-.67.32-.67,1v.93H178v.44h-.92v5.07Z" transform="translate(-0.71 -1.25)"/><path class="cls-8" d="M178.86,27.06c0,1.33.25,2.38,1.23,2.38a1.22,1.22,0,0,0,1.18-1.15h.49a1.69,1.69,0,0,1-1.67,1.6c-1.51,0-1.72-1.48-1.72-2.84,0-1.74.55-2.86,1.78-2.86s1.66,1.19,1.66,2.53c0,0,0,.18,0,.34Zm2.46-.43c0-1.21-.29-2-1.18-2-1.19,0-1.25,1.63-1.27,2Z" transform="translate(-0.71 -1.25)"/><path class="cls-8" d="M186.1,28.23a1.67,1.67,0,0,1-1.63,1.66c-1.35,0-1.73-1.28-1.73-2.86s.51-2.84,1.81-2.84a1.55,1.55,0,0,1,1.55,1.64h-.51c0-.23-.11-1.19-1-1.19s-1.31,1-1.31,2.38.38,2.42,1.25,2.42,1.06-.94,1.11-1.21Z" transform="translate(-0.71 -1.25)"/><path class="cls-8" d="M186.63,24.28h.82V22.75h.47v1.53h1v.44h-1v4c0,.42.09.69.52.69a2.94,2.94,0,0,0,.44,0v.4a2.12,2.12,0,0,1-.57.07c-.49,0-.86-.22-.86-1V24.72h-.82Z" transform="translate(-0.71 -1.25)"/><path class="cls-8" d="M189.88,27.06c0,1.33.25,2.38,1.24,2.38s1.14-1,1.18-1.15h.49a1.71,1.71,0,0,1-1.67,1.6c-1.52,0-1.73-1.48-1.73-2.84,0-1.74.55-2.86,1.78-2.86s1.66,1.19,1.66,2.53c0,0,0,.18,0,.34Zm2.46-.43c0-1.21-.29-2-1.18-2-1.19,0-1.24,1.63-1.27,2Z" transform="translate(-0.71 -1.25)"/><path class="cls-8" d="M197.22,21.94v6.51c0,.46,0,1,0,1.34h-.47c0-.15,0-.56,0-.85a1.27,1.27,0,0,1-1.34.95c-1.14,0-1.64-.93-1.64-2.92,0-1.8.71-2.78,1.78-2.78a1.13,1.13,0,0,1,1.2.67V21.94Zm-3,5c0,1.79.45,2.45,1.21,2.45,1,0,1.27-.87,1.27-2.47,0-1.83-.3-2.3-1.2-2.3C194.79,24.65,194.26,25.35,194.26,27Z" transform="translate(-0.71 -1.25)"/><line class="cls-9" x1="20.33" y1="24.54" x2="28.36" y2="24.54"/><polygon class="cls-8" points="31.19 24.54 27.21 26.16 28.15 24.54 27.21 22.91 31.19 24.54"/><line class="cls-9" x1="43.16" y1="44.74" x2="51.2" y2="35.37"/><polygon class="cls-8" points="53.04 33.23 51.68 37.31 51.07 35.53 49.22 35.19 53.04 33.23"/><line class="cls-9" x1="75.26" y1="46.74" x2="75.26" y2="37.11"/><polygon class="cls-8" points="75.26 34.29 76.88 38.27 75.26 37.32 73.63 38.27 75.26 34.29"/><line class="cls-9" x1="104.71" y1="46.17" x2="96.18" y2="36.41"/><polygon class="cls-8" points="94.33 34.29 98.17 36.22 96.32 36.57 95.72 38.35 94.33 34.29"/><line class="cls-9" x1="135.42" y1="24.54" x2="125.6" y2="24.54"/><polygon class="cls-8" points="122.77 24.54 126.75 22.91 125.81 24.54 126.75 26.16 122.77 24.54"/><path class="cls-10" d="M6.58,53.69a5.69,5.69,0,0,0-1,3.37,6,6,0,0,0,1,3.46H6.21a6,6,0,0,1-1-3.47,5.84,5.84,0,0,1,1-3.36Z" transform="translate(-0.71 -1.25)"/><path class="cls-10" d="M9.5,58.28c0,.14-.11,1.21-1.18,1.21s-1.26-.93-1.26-2.08.37-2.06,1.31-2.06A1.12,1.12,0,0,1,9.5,56.54H9.13c0-.17-.08-.87-.76-.87s-.95.75-.95,1.74.28,1.75.91,1.75.77-.68.81-.88Z" transform="translate(-0.71 -1.25)"/><path class="cls-10" d="M10.45,57.43c0,1,.18,1.73.89,1.73a.88.88,0,0,0,.86-.84h.36a1.24,1.24,0,0,1-1.22,1.17c-1.1,0-1.25-1.08-1.25-2.06,0-1.27.4-2.08,1.29-2.08s1.21.86,1.21,1.83c0,0,0,.14,0,.25Zm1.78-.31c0-.88-.21-1.45-.85-1.45-.87,0-.91,1.19-.92,1.45Z" transform="translate(-0.71 -1.25)"/><path class="cls-10" d="M13.4,59.41v-5.7h.35v5.7Z" transform="translate(-0.71 -1.25)"/><path class="cls-10" d="M14.81,59.41v-5.7h.35v5.7Z" transform="translate(-0.71 -1.25)"/><path class="cls-10" d="M17.75,53.71h.35v.77h-.35Zm0,1.7h.35v4h-.35Z" transform="translate(-0.71 -1.25)"/><path class="cls-10" d="M18.72,60.36a5.52,5.52,0,0,0,.42-1.83h.35A4.78,4.78,0,0,1,19,60.36Z" transform="translate(-0.71 -1.25)"/><path class="cls-10" d="M21.22,55.41h.59V54.3h.34v1.11h.75v.33h-.75v2.91c0,.3.07.5.38.5a1.51,1.51,0,0,0,.32,0v.29a1.35,1.35,0,0,1-.41.06c-.36,0-.63-.16-.63-.73v-3h-.59Z" transform="translate(-0.71 -1.25)"/><path class="cls-10" d="M23.52,53.71h.35v.77h-.35Zm0,1.7h.35v4h-.35Z" transform="translate(-0.71 -1.25)"/><path class="cls-10" d="M24.91,56.61c0-.66,0-1,0-1.2h.34c0,.15,0,.36,0,.58a.92.92,0,0,1,.91-.64A.78.78,0,0,1,27,56a1,1,0,0,1,1-.63c.45,0,.94.21.94,1.14v2.92h-.35V56.56c0-.46-.13-.88-.66-.88s-.81.56-.81,1.13v2.6h-.35V56.58c0-.58-.19-.9-.64-.9s-.84.55-.84,1.21v2.52h-.34Z" transform="translate(-0.71 -1.25)"/><path class="cls-10" d="M30.09,57.43c0,1,.18,1.73.89,1.73a.88.88,0,0,0,.86-.84h.36A1.24,1.24,0,0,1,31,59.49c-1.1,0-1.25-1.08-1.25-2.06,0-1.27.4-2.08,1.29-2.08s1.21.86,1.21,1.83c0,0,0,.14,0,.25Zm1.78-.31c0-.88-.21-1.45-.85-1.45-.87,0-.91,1.19-.93,1.45Z" transform="translate(-0.71 -1.25)"/><path class="cls-10" d="M34.07,55.41h.59V54.3H35v1.11h.75v.33H35v2.91c0,.3.07.5.38.5a1.51,1.51,0,0,0,.32,0v.29a1.35,1.35,0,0,1-.41.06c-.36,0-.63-.16-.63-.73v-3h-.59Z" transform="translate(-0.71 -1.25)"/><path class="cls-10" d="M36.13,60.52a5.69,5.69,0,0,0,1-3.37,5.94,5.94,0,0,0-1-3.46h.37a6,6,0,0,1,1,3.47,5.83,5.83,0,0,1-1,3.36Z" transform="translate(-0.71 -1.25)"/><path class="cls-10" d="M61.36,61.13a5.72,5.72,0,0,0-1,3.37,6,6,0,0,0,1,3.46H61a6,6,0,0,1-1-3.47,5.86,5.86,0,0,1,1-3.36Z" transform="translate(-0.71 -1.25)"/><path class="cls-10" d="M64.28,65.73a1.21,1.21,0,0,1-1.18,1.2c-1,0-1.26-.93-1.26-2.07s.37-2.07,1.31-2.07A1.13,1.13,0,0,1,64.28,64h-.36c0-.16-.09-.86-.77-.86s-.95.74-.95,1.73.28,1.76.92,1.76.76-.68.8-.88Z" transform="translate(-0.71 -1.25)"/><path class="cls-10" d="M65.23,64.88c0,1,.18,1.73.89,1.73a.89.89,0,0,0,.86-.84h.36a1.24,1.24,0,0,1-1.22,1.16c-1.1,0-1.25-1.07-1.25-2.06,0-1.26.4-2.08,1.29-2.08s1.21.87,1.21,1.84c0,0,0,.13,0,.25ZM67,64.57c0-.89-.21-1.45-.85-1.45-.87,0-.91,1.18-.92,1.45Z" transform="translate(-0.71 -1.25)"/><path class="cls-10" d="M68.18,66.86v-5.7h.35v5.7Z" transform="translate(-0.71 -1.25)"/><path class="cls-10" d="M69.59,66.86v-5.7h.35v5.7Z" transform="translate(-0.71 -1.25)"/><path class="cls-10" d="M72.53,61.16h.35v.77h-.35Zm0,1.7h.35v4h-.35Z" transform="translate(-0.71 -1.25)"/><path class="cls-10" d="M73.5,67.81A5.52,5.52,0,0,0,73.92,66h.35a4.78,4.78,0,0,1-.46,1.84Z" transform="translate(-0.71 -1.25)"/><path class="cls-10" d="M76,62.86h.59V61.75h.34v1.11h.75v.32h-.75v2.91c0,.31.07.5.38.5a1.57,1.57,0,0,0,.32,0v.29a1.35,1.35,0,0,1-.41.06c-.36,0-.63-.17-.63-.74v-3H76Z" transform="translate(-0.71 -1.25)"/><path class="cls-10" d="M78.3,61.16h.35v.77H78.3Zm0,1.7h.35v4H78.3Z" transform="translate(-0.71 -1.25)"/><path class="cls-10" d="M79.69,64.06c0-.66,0-1,0-1.2H80c0,.14,0,.36,0,.58a.92.92,0,0,1,.91-.65.78.78,0,0,1,.84.63,1,1,0,0,1,1-.63c.45,0,.94.21.94,1.14v2.93h-.35V64c0-.47-.13-.88-.66-.88s-.81.56-.81,1.12v2.61h-.35V64c0-.58-.19-.89-.64-.89s-.83.55-.83,1.2v2.53h-.35Z" transform="translate(-0.71 -1.25)"/><path class="cls-10" d="M84.87,64.88c0,1,.18,1.73.89,1.73a.89.89,0,0,0,.86-.84H87a1.24,1.24,0,0,1-1.22,1.16c-1.1,0-1.25-1.07-1.25-2.06,0-1.26.4-2.08,1.29-2.08S87,63.66,87,64.63c0,0,0,.13,0,.25Zm1.78-.31c0-.89-.21-1.45-.85-1.45-.87,0-.91,1.18-.92,1.45Z" transform="translate(-0.71 -1.25)"/><path class="cls-10" d="M88.85,62.86h.59V61.75h.34v1.11h.75v.32h-.75v2.91c0,.31.07.5.38.5a1.57,1.57,0,0,0,.32,0v.29a1.35,1.35,0,0,1-.41.06c-.36,0-.63-.17-.63-.74v-3h-.59Z" transform="translate(-0.71 -1.25)"/><path class="cls-10" d="M90.91,68a5.66,5.66,0,0,0,1-3.36,6,6,0,0,0-1-3.47h.37a6,6,0,0,1,1,3.47,5.8,5.8,0,0,1-1,3.36Z" transform="translate(-0.71 -1.25)"/><path class="cls-10" d="M114.16,54.69a5.69,5.69,0,0,0-1,3.37,5.94,5.94,0,0,0,1,3.46h-.37a6,6,0,0,1-1-3.47,5.83,5.83,0,0,1,1-3.36Z" transform="translate(-0.71 -1.25)"/><path class="cls-10" d="M117.08,59.28c0,.14-.11,1.21-1.18,1.21s-1.26-.93-1.26-2.08.37-2.06,1.31-2.06a1.13,1.13,0,0,1,1.13,1.19h-.37c0-.17-.08-.87-.76-.87s-1,.75-1,1.74.28,1.75.91,1.75.77-.68.8-.88Z" transform="translate(-0.71 -1.25)"/><path class="cls-10" d="M118,58.43c0,1,.19,1.73.9,1.73s.83-.72.86-.84h.35a1.22,1.22,0,0,1-1.21,1.17c-1.1,0-1.25-1.08-1.25-2.06,0-1.27.4-2.08,1.29-2.08s1.21.86,1.21,1.83c0,0,0,.14,0,.25Zm1.79-.31c0-.88-.21-1.45-.86-1.45-.86,0-.9,1.19-.92,1.45Z" transform="translate(-0.71 -1.25)"/><path class="cls-10" d="M121,60.41v-5.7h.35v5.7Z" transform="translate(-0.71 -1.25)"/><path class="cls-10" d="M122.39,60.41v-5.7h.35v5.7Z" transform="translate(-0.71 -1.25)"/><path class="cls-10" d="M125.33,54.71h.35v.77h-.35Zm0,1.7h.35v4h-.35Z" transform="translate(-0.71 -1.25)"/><path class="cls-10" d="M126.3,61.36a5.52,5.52,0,0,0,.42-1.83h.35a4.78,4.78,0,0,1-.46,1.83Z" transform="translate(-0.71 -1.25)"/><path class="cls-10" d="M128.8,56.41h.59V55.3h.34v1.11h.75v.33h-.75v2.91c0,.3.07.5.38.5a1.51,1.51,0,0,0,.32,0v.29a1.35,1.35,0,0,1-.41.06c-.36,0-.63-.16-.63-.73v-3h-.59Z" transform="translate(-0.71 -1.25)"/><path class="cls-10" d="M131.1,54.71h.35v.77h-.35Zm0,1.7h.35v4h-.35Z" transform="translate(-0.71 -1.25)"/><path class="cls-10" d="M132.48,57.61c0-.66,0-1,0-1.2h.35c0,.15,0,.36,0,.58a.92.92,0,0,1,.91-.64.78.78,0,0,1,.83.63,1,1,0,0,1,1-.63c.45,0,.93.21.93,1.14v2.92h-.35V57.56c0-.46-.12-.88-.65-.88s-.81.56-.81,1.13v2.6h-.35V57.58c0-.58-.19-.9-.65-.9s-.83.55-.83,1.21v2.52h-.35Z" transform="translate(-0.71 -1.25)"/><path class="cls-10" d="M137.66,58.43c0,1,.19,1.73.9,1.73s.83-.72.86-.84h.35a1.22,1.22,0,0,1-1.21,1.17c-1.1,0-1.25-1.08-1.25-2.06,0-1.27.4-2.08,1.29-2.08s1.21.86,1.21,1.83c0,0,0,.14,0,.25Zm1.79-.31c0-.88-.21-1.45-.86-1.45-.86,0-.9,1.19-.92,1.45Z" transform="translate(-0.71 -1.25)"/><path class="cls-10" d="M141.64,56.41h.59V55.3h.35v1.11h.75v.33h-.75v2.91c0,.3.07.5.38.5a1.58,1.58,0,0,0,.32,0v.29a1.45,1.45,0,0,1-.41.06c-.36,0-.64-.16-.64-.73v-3h-.59Z" transform="translate(-0.71 -1.25)"/><path class="cls-10" d="M143.71,61.52a5.69,5.69,0,0,0,1-3.37,6,6,0,0,0-1-3.46h.37a6,6,0,0,1,1,3.47,5.83,5.83,0,0,1-1,3.36Z" transform="translate(-0.71 -1.25)"/><path class="cls-10" d="M153.8,31.81a5.69,5.69,0,0,0-1,3.37,6,6,0,0,0,1,3.46h-.37a6,6,0,0,1-1-3.47,5.84,5.84,0,0,1,1-3.36Z" transform="translate(-0.71 -1.25)"/><path class="cls-10" d="M156.72,36.4a1.21,1.21,0,0,1-1.18,1.21c-1,0-1.26-.93-1.26-2.07s.37-2.07,1.31-2.07a1.13,1.13,0,0,1,1.13,1.19h-.36c0-.17-.09-.87-.77-.87s-1,.75-1,1.74.28,1.76.92,1.76.76-.69.8-.89Z" transform="translate(-0.71 -1.25)"/><path class="cls-10" d="M157.67,35.56c0,1,.18,1.73.89,1.73a.89.89,0,0,0,.86-.84h.36a1.24,1.24,0,0,1-1.22,1.16c-1.1,0-1.25-1.07-1.25-2.06,0-1.26.4-2.08,1.29-2.08s1.21.87,1.21,1.84c0,0,0,.13,0,.25Zm1.78-.31c0-.89-.21-1.46-.85-1.46-.87,0-.91,1.19-.92,1.46Z" transform="translate(-0.71 -1.25)"/><path class="cls-10" d="M160.62,37.54v-5.7H161v5.7Z" transform="translate(-0.71 -1.25)"/><path class="cls-10" d="M162,37.54v-5.7h.35v5.7Z" transform="translate(-0.71 -1.25)"/><path class="cls-10" d="M165,31.84h.35v.77H165Zm0,1.7h.35v4H165Z" transform="translate(-0.71 -1.25)"/><path class="cls-10" d="M166,38.49a5.84,5.84,0,0,0,.41-1.84h.35a4.78,4.78,0,0,1-.46,1.84Z" transform="translate(-0.71 -1.25)"/><path class="cls-10" d="M168.44,33.54H169V32.43h.34v1.11h.75v.32h-.75v2.91c0,.3.07.5.38.5l.32,0v.29a1.36,1.36,0,0,1-.41.05c-.36,0-.63-.16-.63-.73v-3h-.59Z" transform="translate(-0.71 -1.25)"/><path class="cls-10" d="M170.74,31.84h.35v.77h-.35Zm0,1.7h.35v4h-.35Z" transform="translate(-0.71 -1.25)"/><path class="cls-10" d="M172.13,34.74c0-.66,0-1,0-1.2h.34c0,.14,0,.35,0,.58a.92.92,0,0,1,.91-.65.78.78,0,0,1,.84.63,1,1,0,0,1,1-.63c.45,0,.94.21.94,1.14v2.93h-.35V34.68c0-.46-.13-.88-.66-.88s-.81.56-.81,1.13v2.61H174V34.7c0-.58-.19-.9-.64-.9s-.83.56-.83,1.21v2.53h-.35Z" transform="translate(-0.71 -1.25)"/><path class="cls-10" d="M177.31,35.56c0,1,.18,1.73.89,1.73a.89.89,0,0,0,.86-.84h.36a1.24,1.24,0,0,1-1.22,1.16c-1.1,0-1.25-1.07-1.25-2.06,0-1.26.4-2.08,1.29-2.08s1.21.87,1.21,1.84c0,0,0,.13,0,.25Zm1.78-.31c0-.89-.21-1.46-.85-1.46-.87,0-.91,1.19-.92,1.46Z" transform="translate(-0.71 -1.25)"/><path class="cls-10" d="M181.29,33.54h.59V32.43h.34v1.11H183v.32h-.75v2.91c0,.3.07.5.38.5l.32,0v.29a1.36,1.36,0,0,1-.41.05c-.36,0-.63-.16-.63-.73v-3h-.59Z" transform="translate(-0.71 -1.25)"/><path class="cls-10" d="M183.35,38.64a5.69,5.69,0,0,0,1-3.37,5.94,5.94,0,0,0-1-3.46h.37a6,6,0,0,1,1,3.47,5.83,5.83,0,0,1-1,3.36Z" transform="translate(-0.71 -1.25)"/></g><g id="Overall_Infection" data-name="Overall Infection"><path class="cls-8" d="M49.16,5.89v3H47.83V1.67h3.05c1.55,0,2.38.84,2.38,2a1.68,1.68,0,0,1-1.12,1.7c.44.14,1,.54,1,1.82v.34a5.76,5.76,0,0,0,.1,1.39H51.92a5,5,0,0,1-.14-1.59V7.16c0-.87-.23-1.27-1.44-1.27Zm0-1.09h1.4c.94,0,1.32-.35,1.32-1s-.42-1-1.26-1H49.16Z" transform="translate(-0.71 -1.25)"/><path class="cls-8" d="M55.42,6.47c0,.81.41,1.51,1.21,1.51a1,1,0,0,0,1-.66H59A2.29,2.29,0,0,1,56.59,9a2.46,2.46,0,0,1-2.48-2.74c0-1.65.84-2.88,2.54-2.88A2.34,2.34,0,0,1,59.06,6a3.24,3.24,0,0,1,0,.45Zm2.33-.83c0-.71-.32-1.3-1.11-1.3s-1.12.55-1.19,1.3Z" transform="translate(-0.71 -1.25)"/><path class="cls-8" d="M61.44,8.34V11H60.15V4.82c0-.44,0-.88,0-1.3h1.25a4.81,4.81,0,0,1,0,.73,1.73,1.73,0,0,1,1.62-.86c1.22,0,2.14,1,2.14,2.68C65.2,8,64.16,9,62.86,9A1.5,1.5,0,0,1,61.44,8.34Zm2.44-2.22c0-1-.44-1.67-1.22-1.67s-1.28.6-1.28,1.75S61.69,8,62.6,8,63.88,7.29,63.88,6.12Z" transform="translate(-0.71 -1.25)"/><path class="cls-8" d="M66.29,5c0-.6,0-1.06,0-1.45h1.28c0,.13,0,.62,0,1a1.79,1.79,0,0,1,1.75-1.12V4.64c-1.08,0-1.75.38-1.75,1.82V8.88H66.29Z" transform="translate(-0.71 -1.25)"/><path class="cls-8" d="M75,6.19a2.61,2.61,0,1,1-5.2,0,2.57,2.57,0,0,1,2.65-2.82A2.53,2.53,0,0,1,75,6.19Zm-3.88,0c0,1.08.49,1.78,1.29,1.78S73.7,7.3,73.7,6.21s-.46-1.79-1.29-1.79S71.14,5,71.14,6.2Z" transform="translate(-0.71 -1.25)"/><path class="cls-8" d="M80.94,1.25V7.39c0,.5,0,1,0,1.49H79.7c0-.15,0-.47-.06-.63A1.63,1.63,0,0,1,78.06,9c-1.36,0-2.22-1.1-2.22-2.76s.92-2.86,2.42-2.86c.84,0,1.25.31,1.38.57V1.25Zm-3.76,5c0,1.13.47,1.74,1.24,1.74,1.1,0,1.27-.87,1.27-1.78s-.17-1.72-1.22-1.72C77.63,4.45,77.18,5.1,77.18,6.21Z" transform="translate(-0.71 -1.25)"/><path class="cls-8" d="M86.92,7.32c0,.52,0,1.14,0,1.56H85.66a6.26,6.26,0,0,1,0-.68A1.55,1.55,0,0,1,84.1,9c-1,0-1.79-.59-1.79-2V3.52h1.3V6.76c0,.63.19,1.17.92,1.17s1.1-.42,1.1-1.58V3.52h1.29Z" transform="translate(-0.71 -1.25)"/><path class="cls-8" d="M92.88,7.18A2.21,2.21,0,0,1,90.53,9c-1.6,0-2.48-1.13-2.48-2.77A2.58,2.58,0,0,1,90.6,3.39a2.09,2.09,0,0,1,2.28,1.87H91.61a1,1,0,0,0-1-.84c-.77,0-1.21.67-1.21,1.77S89.82,8,90.56,8a1,1,0,0,0,1-.8Z" transform="translate(-0.71 -1.25)"/><path class="cls-8" d="M93.38,3.52h.86V2h1.3v1.5h1.09v1H95.54V7.33c0,.44.12.64.58.64a2.64,2.64,0,0,0,.38,0v.91a2.93,2.93,0,0,1-.93.11c-1,0-1.33-.52-1.33-1.44v-3h-.86Z" transform="translate(-0.71 -1.25)"/><path class="cls-8" d="M97.52,1.25h1.29V2.52H97.52Zm0,2.27h1.29V8.88H97.52Z" transform="translate(-0.71 -1.25)"/><path class="cls-8" d="M105.09,6.19a2.61,2.61,0,1,1-5.2,0,2.58,2.58,0,0,1,2.65-2.82A2.52,2.52,0,0,1,105.09,6.19Zm-3.87,0c0,1.08.49,1.78,1.29,1.78s1.26-.68,1.26-1.77-.45-1.79-1.28-1.79S101.22,5,101.22,6.2Z" transform="translate(-0.71 -1.25)"/><path class="cls-8" d="M106.19,4.87c0-.46,0-1,0-1.35h1.26c0,.14,0,.58,0,.75a1.63,1.63,0,0,1,1.6-.88c1,0,1.78.69,1.78,2.07V8.88h-1.3V5.61c0-.68-.24-1.15-.95-1.15s-1.13.49-1.13,1.48V8.88h-1.3Z" transform="translate(-0.71 -1.25)"/><path class="cls-11" d="M120.48,18.77h0c0-2-4.68-3.57-10.46-3.57H89.72c-5.78,0-10.47-1.6-10.47-3.58v-.18h0v.18c0,2-4.68,3.58-10.46,3.58H48.49C42.71,15.2,38,16.8,38,18.77h0" transform="translate(-0.71 -1.25)"/></g></g></svg>