<svg xmlns="http://www.w3.org/2000/svg" viewBox="0 0 516.48 224.51"><defs><style>.cls-1{fill:#fff;}.cls-2,.cls-3,.cls-8{fill:#231f20;}.cls-2{opacity:0.06;}.cls-3{font-size:12px;}.cls-3,.cls-6,.cls-8{font-family:ArialMT, Arial;}.cls-4{letter-spacing:-0.02em;}.cls-5{letter-spacing:-0.11em;}.cls-6{font-size:14px;fill:#58595b;}.cls-7,.cls-9{fill:none;stroke-miterlimit:10;}.cls-7{stroke:#231f20;}.cls-8{font-size:10px;}.cls-9{stroke:#ed1c24;stroke-width:2px;}.cls-10{fill:#ed1c24;}</style></defs><g id="Layer_2" data-name="Layer 2"><g id="Layer_1-2" data-name="Layer 1"><rect class="cls-1" width="516.48" height="224.51"/></g><g id="Landscape"><rect class="cls-2" x="326.98" y="48.82" width="171.09" height="139.85"/><text class="cls-3" transform="translate(95.21 25.64)">SLF<tspan class="cls-4" x="22.01" y="0"> </tspan><tspan class="cls-5" x="25.13" y="0">T</tspan><tspan x="31.13" y="0">emperature</tspan><tspan x="-20.12" y="14.4">Reclassification Function</tspan></text><text class="cls-3" transform="translate(365.77 24.64)">SLF Precipitation<tspan x="-20.67" y="14.4">Reclassification Function</tspan></text><text class="cls-6" transform="translate(395.79 118.75)">None</text><rect class="cls-2" x="56.98" y="47.97" width="171.09" height="139.85"/></g><g id="Layer_32" data-name="Layer 32"><polyline class="cls-7" points="228.07 188.25 56.98 188.25 56.98 48.82"/><line class="cls-7" x1="52.68" y1="76.71" x2="56.98" y2="76.71"/><line class="cls-7" x1="52.68" y1="104.59" x2="56.98" y2="104.59"/><line class="cls-7" x1="52.68" y1="132.48" x2="56.98" y2="132.48"/><line class="cls-7" x1="52.68" y1="160.36" x2="56.98" y2="160.36"/><line class="cls-7" x1="52.68" y1="188.25" x2="56.98" y2="188.25"/><text class="cls-8" transform="translate(36.82 190.82)">0.0</text><text class="cls-8" transform="translate(36.82 163.02)">0.2</text><text class="cls-8" transform="translate(36.82 135.22)">0.4</text><text class="cls-8" transform="translate(36.82 107.42)">0.6</text><text class="cls-8" transform="translate(36.82 79.62)">0.8</text><text class="cls-8" transform="translate(36.82 51.82)">1.0</text><text class="cls-8" transform="translate(29.35 180.95) rotate(-90)"><tspan class="cls-5">T</tspan><tspan x="5" y="0">emperature reclassification</tspan></text><text class="cls-8" transform="translate(104.4 212.25)"><tspan class="cls-5">T</tspan><tspan x="5" y="0">emperature (˚C)</tspan></text><line class="cls-7" x1="225.4" y1="188.67" x2="225.4" y2="192.97"/><line class="cls-7" x1="196.09" y1="188.67" x2="196.09" y2="192.97"/><line class="cls-7" x1="137.46" y1="188.67" x2="137.46" y2="192.97"/><line class="cls-7" x1="166.77" y1="188.67" x2="166.77" y2="192.97"/><line class="cls-7" x1="108.15" y1="188.67" x2="108.15" y2="192.97"/><line class="cls-7" x1="78.83" y1="188.67" x2="78.83" y2="192.97"/><text class="cls-8" transform="translate(70.51 201.39)">-10</text><text class="cls-8" transform="translate(131.37 201.39)">10</text><text class="cls-8" transform="translate(160.97 201.39)">20</text><text class="cls-8" transform="translate(104.55 201.39)">0</text><text class="cls-8" transform="translate(190.57 201.39)">30</text><text class="cls-8" transform="translate(220.17 201.39)">40</text><polyline class="cls-7" points="498.07 188.25 326.98 188.25 326.98 48.82"/><line class="cls-7" x1="322.68" y1="48.82" x2="326.98" y2="48.82"/><line class="cls-7" x1="322.68" y1="76.71" x2="326.98" y2="76.71"/><line class="cls-7" x1="322.68" y1="104.59" x2="326.98" y2="104.59"/><line class="cls-7" x1="322.68" y1="132.48" x2="326.98" y2="132.48"/><line class="cls-7" x1="322.68" y1="160.36" x2="326.98" y2="160.36"/><line class="cls-7" x1="322.68" y1="188.25" x2="326.98" y2="188.25"/><text class="cls-8" transform="translate(306.82 190.82)">0.0</text><text class="cls-8" transform="translate(306.82 163.02)">0.2</text><text class="cls-8" transform="translate(306.82 135.22)">0.4</text><text class="cls-8" transform="translate(306.82 107.42)">0.6</text><text class="cls-8" transform="translate(306.82 79.62)">0.8</text><text class="cls-8" transform="translate(306.82 51.82)">1.0</text><text class="cls-8" transform="translate(299.35 181.54) rotate(-90)"><tspan xml:space="preserve"> Precipitation reclassification</tspan></text><text class="cls-8" transform="translate(356.6 212.25)">Precipitation (days/week)</text><line class="cls-7" x1="486.4" y1="188.67" x2="486.4" y2="192.97"/><line class="cls-7" x1="395.3" y1="188.67" x2="395.3" y2="192.97"/><line class="cls-7" x1="418.08" y1="188.67" x2="418.08" y2="192.97"/><line class="cls-7" x1="440.85" y1="188.67" x2="440.85" y2="192.97"/><line class="cls-7" x1="463.63" y1="188.67" x2="463.63" y2="192.97"/><line class="cls-7" x1="372.53" y1="188.67" x2="372.53" y2="192.97"/><line class="cls-7" x1="349.75" y1="188.67" x2="349.75" y2="192.97"/><line class="cls-7" x1="326.98" y1="188.67" x2="326.98" y2="192.97"/><text class="cls-8" transform="translate(346.81 201.39)">1</text><text class="cls-8" transform="translate(323.95 201.39)">0</text><text class="cls-8" transform="translate(369.67 201.39)">2</text><text class="cls-8" transform="translate(392.52 201.39)">3</text><text class="cls-8" transform="translate(483.95 201.39)">7</text><text class="cls-8" transform="translate(461.09 201.39)">6</text><text class="cls-8" transform="translate(438.24 201.39)">5</text><text class="cls-8" transform="translate(415.38 201.39)">4</text></g><g id="Layer_33" data-name="Layer 33"><line class="cls-9" x1="56.98" y1="188.25" x2="68.92" y2="188.25"/><path class="cls-10" d="M68.92,189.75a1.5,1.5,0,1,0-1.5-1.5A1.5,1.5,0,0,0,68.92,189.75Z"/><line class="cls-9" x1="68.92" y1="173.85" x2="76.6" y2="173.85"/><circle class="cls-1" cx="68.92" cy="173.85" r="1.5"/><path class="cls-10" d="M68.92,175.55a1.71,1.71,0,1,0-1.7-1.7,1.7,1.7,0,0,0,1.7,1.7Zm0-3a1.31,1.31,0,1,1-1.3,1.31,1.31,1.31,0,0,1,1.3-1.31Z"/><path class="cls-10" d="M76.6,175.35a1.51,1.51,0,1,0-1.5-1.5A1.5,1.5,0,0,0,76.6,175.35Z"/><line class="cls-9" x1="76.6" y1="160.39" x2="82.36" y2="160.39"/><path class="cls-1" d="M76.6,161.9a1.51,1.51,0,1,1,1.51-1.51A1.51,1.51,0,0,1,76.6,161.9Z"/><path class="cls-10" d="M76.6,162.1a1.71,1.71,0,1,0-1.7-1.71,1.72,1.72,0,0,0,1.7,1.71Zm0-3a1.31,1.31,0,1,1-1.3,1.3,1.31,1.31,0,0,1,1.3-1.3Z"/><path class="cls-10" d="M82.36,161.9a1.51,1.51,0,1,0-1.51-1.51A1.51,1.51,0,0,0,82.36,161.9Z"/><line class="cls-9" x1="82.36" y1="147.03" x2="89.37" y2="147.03"/><circle class="cls-1" cx="82.36" cy="147.03" r="1.5"/><path class="cls-10" d="M82.36,148.74A1.71,1.71,0,1,0,80.65,147a1.71,1.71,0,0,0,1.71,1.71Zm0-3a1.31,1.31,0,1,1-1.31,1.3,1.3,1.3,0,0,1,1.31-1.3Z"/><circle class="cls-10" cx="89.37" cy="147.03" r="1.5"/><line class="cls-9" x1="89.37" y1="132.75" x2="96.02" y2="132.75"/><path class="cls-1" d="M89.37,134.26a1.51,1.51,0,1,1,1.5-1.51A1.5,1.5,0,0,1,89.37,134.26Z"/><path class="cls-10" d="M89.37,134.46a1.71,1.71,0,1,0-1.7-1.71,1.71,1.71,0,0,0,1.7,1.71Zm0-3a1.31,1.31,0,1,1-1.3,1.3,1.3,1.3,0,0,1,1.3-1.3Z"/><circle class="cls-10" cx="96.02" cy="132.75" r="1.5"/><line class="cls-9" x1="96.02" y1="118.62" x2="103.03" y2="118.62"/><circle class="cls-1" cx="96.02" cy="118.62" r="1.5"/><path class="cls-10" d="M96,120.33a1.71,1.71,0,1,0-1.7-1.71,1.71,1.71,0,0,0,1.7,1.71Zm0-3a1.31,1.31,0,1,1-1.3,1.3,1.3,1.3,0,0,1,1.3-1.3Z"/><circle class="cls-10" cx="103.03" cy="118.62" r="1.5"/><line class="cls-9" x1="103.03" y1="104.89" x2="109.86" y2="104.89"/><circle class="cls-1" cx="103.03" cy="104.89" r="1.5"/><path class="cls-10" d="M103,106.59a1.7,1.7,0,1,0-1.7-1.7,1.71,1.71,0,0,0,1.7,1.7Zm0-3a1.3,1.3,0,1,1-1.3,1.3,1.31,1.31,0,0,1,1.3-1.3Z"/><path class="cls-10" d="M109.86,106.39a1.5,1.5,0,1,0-1.5-1.5A1.51,1.51,0,0,0,109.86,106.39Z"/><line class="cls-9" x1="109.86" y1="90.59" x2="116.34" y2="90.59"/><circle class="cls-1" cx="109.86" cy="90.59" r="1.5"/><path class="cls-10" d="M109.86,92.3a1.71,1.71,0,1,0,0-3.41,1.71,1.71,0,0,0,0,3.41Zm0-3a1.31,1.31,0,1,1-1.3,1.3,1.31,1.31,0,0,1,1.3-1.3Z"/><circle class="cls-10" cx="116.34" cy="90.59" r="1.5"/><line class="cls-9" x1="116.34" y1="77.04" x2="122.99" y2="77.04"/><circle class="cls-1" cx="116.34" cy="77.04" r="1.5"/><path class="cls-10" d="M116.34,78.75A1.71,1.71,0,1,0,114.63,77a1.71,1.71,0,0,0,1.71,1.71Zm0-3A1.31,1.31,0,1,1,115,77a1.31,1.31,0,0,1,1.31-1.3Z"/><circle class="cls-10" cx="122.99" cy="77.04" r="1.5"/><line class="cls-9" x1="122.99" y1="62.75" x2="130.18" y2="62.75"/><circle class="cls-1" cx="122.99" cy="62.75" r="1.5"/><path class="cls-10" d="M123,64.45A1.71,1.71,0,0,0,123,61a1.71,1.71,0,1,0,0,3.41Zm0-3a1.31,1.31,0,1,1-1.31,1.31A1.31,1.31,0,0,1,123,61.44Z"/><circle class="cls-10" cx="130.18" cy="62.75" r="1.5"/><line class="cls-9" x1="130.18" y1="48.82" x2="195.26" y2="48.82"/><circle class="cls-1" cx="130.18" cy="48.82" r="1.5"/><path class="cls-10" d="M130.18,50.53a1.71,1.71,0,1,0-1.71-1.71,1.71,1.71,0,0,0,1.71,1.71Zm0-3a1.31,1.31,0,0,1,0,2.61,1.31,1.31,0,1,1,0-2.61Z"/><circle class="cls-10" cx="195.26" cy="48.82" r="1.5"/><line class="cls-9" x1="195.26" y1="62.75" x2="198.67" y2="62.75"/><circle class="cls-1" cx="195.26" cy="62.75" r="1.5"/><path class="cls-10" d="M195.26,64.45a1.71,1.71,0,0,0,0-3.41,1.71,1.71,0,1,0,0,3.41Zm0-3A1.31,1.31,0,1,1,194,62.75a1.31,1.31,0,0,1,1.31-1.31Z"/><circle class="cls-10" cx="198.67" cy="62.75" r="1.5"/><line class="cls-9" x1="198.67" y1="77.04" x2="201.55" y2="77.04"/><circle class="cls-1" cx="198.67" cy="77.04" r="1.5"/><path class="cls-10" d="M198.67,78.75A1.71,1.71,0,1,0,197,77a1.72,1.72,0,0,0,1.7,1.71Zm0-3a1.31,1.31,0,1,1-1.3,1.3,1.31,1.31,0,0,1,1.3-1.3Z"/><circle class="cls-10" cx="201.55" cy="77.04" r="1.5"/><line class="cls-9" x1="201.55" y1="90.59" x2="204.43" y2="90.59"/><circle class="cls-1" cx="201.55" cy="90.59" r="1.5"/><path class="cls-10" d="M201.55,92.3a1.71,1.71,0,1,0-1.71-1.71,1.71,1.71,0,0,0,1.71,1.71Zm0-3a1.31,1.31,0,0,1,0,2.61,1.31,1.31,0,1,1,0-2.61Z"/><circle class="cls-10" cx="204.43" cy="90.59" r="1.5"/><line class="cls-9" x1="204.43" y1="104.89" x2="207.3" y2="104.89"/><circle class="cls-1" cx="204.43" cy="104.89" r="1.5"/><path class="cls-10" d="M204.43,106.59a1.7,1.7,0,1,0-1.71-1.7,1.7,1.7,0,0,0,1.71,1.7Zm0-3a1.3,1.3,0,1,1-1.31,1.3,1.3,1.3,0,0,1,1.31-1.3Z"/><circle class="cls-10" cx="207.3" cy="104.89" r="1.5"/><line class="cls-9" x1="207.3" y1="118.62" x2="210.36" y2="118.62"/><circle class="cls-1" cx="207.3" cy="118.62" r="1.5"/><path class="cls-10" d="M207.3,120.33a1.71,1.71,0,1,0-1.7-1.71,1.72,1.72,0,0,0,1.7,1.71Zm0-3a1.31,1.31,0,1,1-1.3,1.3,1.31,1.31,0,0,1,1.3-1.3Z"/><path class="cls-10" d="M210.36,120.13a1.51,1.51,0,1,0-1.51-1.51A1.5,1.5,0,0,0,210.36,120.13Z"/><line class="cls-9" x1="210.36" y1="132.75" x2="212.87" y2="132.75"/><circle class="cls-1" cx="210.36" cy="132.75" r="1.5"/><path class="cls-10" d="M210.36,134.46a1.71,1.71,0,1,0-1.71-1.71,1.71,1.71,0,0,0,1.71,1.71Zm0-3a1.31,1.31,0,1,1-1.31,1.3,1.3,1.3,0,0,1,1.31-1.3Z"/><circle class="cls-10" cx="212.87" cy="132.75" r="1.5"/><line class="cls-9" x1="212.87" y1="147.03" x2="215.93" y2="147.03"/><path class="cls-1" d="M212.87,148.54a1.51,1.51,0,1,1,1.51-1.51A1.5,1.5,0,0,1,212.87,148.54Z"/><path class="cls-10" d="M212.87,148.74a1.71,1.71,0,1,0-1.7-1.71,1.72,1.72,0,0,0,1.7,1.71Zm0-3a1.31,1.31,0,1,1-1.3,1.3,1.31,1.31,0,0,1,1.3-1.3Z"/><circle class="cls-10" cx="215.93" cy="147.03" r="1.5"/><line class="cls-9" x1="215.93" y1="167.73" x2="218.81" y2="167.73"/><circle class="cls-1" cx="215.93" cy="167.73" r="1.5"/><path class="cls-10" d="M215.93,169.43a1.7,1.7,0,1,0-1.7-1.7,1.7,1.7,0,0,0,1.7,1.7Zm0-3a1.3,1.3,0,1,1-1.3,1.3,1.3,1.3,0,0,1,1.3-1.3Z"/><circle class="cls-10" cx="218.81" cy="167.73" r="1.5"/><line class="cls-9" x1="218.81" y1="188.25" x2="227.76" y2="188.25"/><path class="cls-1" d="M218.81,189.75a1.5,1.5,0,1,1,1.5-1.5A1.51,1.51,0,0,1,218.81,189.75Z"/><path class="cls-10" d="M218.81,190a1.7,1.7,0,1,0-1.71-1.7,1.7,1.7,0,0,0,1.71,1.7Zm0-3a1.3,1.3,0,1,1-1.31,1.3,1.3,1.3,0,0,1,1.31-1.3Z"/></g></g></svg>