<svg xmlns="http://www.w3.org/2000/svg" xmlns:xlink="http://www.w3.org/1999/xlink" viewBox="0 0 485.63 126.78"><defs><style>.cls-1{fill:#464648;stroke:#6d6e71;stroke-width:0.63px;}.cls-1,.cls-10,.cls-11,.cls-12,.cls-13,.cls-14,.cls-15,.cls-16,.cls-17,.cls-18,.cls-19,.cls-20,.cls-21,.cls-22,.cls-23,.cls-24,.cls-25,.cls-26,.cls-27,.cls-28,.cls-29,.cls-30,.cls-31,.cls-32,.cls-33,.cls-34,.cls-35,.cls-36,.cls-38,.cls-5,.cls-6,.cls-7,.cls-8,.cls-9{stroke-miterlimit:10;}.cls-2{fill:#bbbaac;}.cls-3{fill:#b0b4ba;}.cls-4{fill:#231f20;}.cls-10,.cls-11,.cls-12,.cls-13,.cls-14,.cls-15,.cls-16,.cls-17,.cls-18,.cls-19,.cls-20,.cls-21,.cls-22,.cls-23,.cls-24,.cls-25,.cls-26,.cls-27,.cls-28,.cls-29,.cls-30,.cls-31,.cls-32,.cls-33,.cls-34,.cls-35,.cls-36,.cls-5,.cls-6,.cls-7,.cls-8,.cls-9{stroke:#fff;stroke-width:0.84px;}.cls-5{fill:url(#radial-gradient);}.cls-10,.cls-11,.cls-14,.cls-15,.cls-16,.cls-17,.cls-18,.cls-19,.cls-22,.cls-23,.cls-24,.cls-25,.cls-26,.cls-27,.cls-30,.cls-31,.cls-32,.cls-33,.cls-34,.cls-35,.cls-6,.cls-7,.cls-8,.cls-9{stroke-linecap:round;}.cls-6{fill:url(#radial-gradient-2);}.cls-7{fill:url(#radial-gradient-3);}.cls-8{fill:url(#radial-gradient-4);}.cls-9{fill:url(#radial-gradient-5);}.cls-10{fill:url(#radial-gradient-6);}.cls-11{fill:url(#radial-gradient-7);}.cls-12{fill:url(#radial-gradient-8);}.cls-13{fill:url(#radial-gradient-9);}.cls-14{fill:url(#radial-gradient-10);}.cls-15{fill:url(#radial-gradient-11);}.cls-16{fill:url(#radial-gradient-12);}.cls-17{fill:url(#radial-gradient-13);}.cls-18{fill:url(#radial-gradient-14);}.cls-19{fill:url(#radial-gradient-15);}.cls-20{fill:url(#radial-gradient-16);}.cls-21{fill:url(#radial-gradient-17);}.cls-22{fill:url(#radial-gradient-18);}.cls-23{fill:url(#radial-gradient-19);}.cls-24{fill:url(#radial-gradient-20);}.cls-25{fill:url(#radial-gradient-21);}.cls-26{fill:url(#radial-gradient-22);}.cls-27{fill:url(#radial-gradient-23);}.cls-28{fill:url(#radial-gradient-24);}.cls-29{fill:url(#radial-gradient-25);}.cls-30{fill:url(#radial-gradient-26);}.cls-31{fill:url(#radial-gradient-27);}.cls-32{fill:url(#radial-gradient-28);}.cls-33{fill:url(#radial-gradient-29);}.cls-34{fill:url(#radial-gradient-30);}.cls-35{fill:url(#radial-gradient-31);}.cls-36{fill:url(#radial-gradient-32);}.cls-37{font-size:12px;fill:#d1d3d4;font-family:Arial-BoldMT, Arial;font-weight:700;}.cls-38{fill:#fff200;stroke:#ed1c24;stroke-width:0.5px;}</style><radialGradient id="radial-gradient" cx="967.36" cy="275.98" r="2.01" gradientTransform="matrix(0.26, -0.97, -0.95, -0.26, 310.19, 1069.27)" gradientUnits="userSpaceOnUse"><stop offset="0" stop-color="#ffde17"/><stop offset="0" stop-color="#ffdd17"/><stop offset="0.15" stop-color="#faa31b"/><stop offset="0.29" stop-color="#f5731e"/><stop offset="0.42" stop-color="#f24d21"/><stop offset="0.55" stop-color="#ef3223"/><stop offset="0.66" stop-color="#ee2224"/><stop offset="0.74" stop-color="#ed1c24"/></radialGradient><radialGradient id="radial-gradient-2" cx="343.44" cy="-570.71" r="1.27" gradientTransform="matrix(0.26, -0.97, 0.95, 0.26, 751.42, 546.63)" xlink:href="#radial-gradient"/><radialGradient id="radial-gradient-3" cx="346.89" cy="-565.63" r="1.3" gradientTransform="matrix(0.26, -0.97, 0.95, 0.26, 739.64, 547.56)" xlink:href="#radial-gradient"/><radialGradient id="radial-gradient-4" cx="345.69" cy="-560.89" r="1.15" gradientTransform="matrix(0.26, -0.97, 0.95, 0.26, 732.9, 540.98)" xlink:href="#radial-gradient"/><radialGradient id="radial-gradient-5" cx="337.93" cy="-558.78" r="1.16" gradientTransform="matrix(0.26, -0.97, 0.95, 0.26, 736.87, 525.94)" xlink:href="#radial-gradient"/><radialGradient id="radial-gradient-6" cx="334.62" cy="-562.18" r="1.3" gradientTransform="matrix(0.26, -0.97, 0.95, 0.26, 745.71, 523.64)" xlink:href="#radial-gradient"/><radialGradient id="radial-gradient-7" cx="334.97" cy="-568.37" r="1.26" gradientTransform="matrix(0.26, -0.97, 0.95, 0.26, 755.68, 530.18)" xlink:href="#radial-gradient"/><radialGradient id="radial-gradient-8" cx="967.18" cy="270.45" r="4.92" gradientTransform="matrix(0.26, -0.97, -0.95, -0.26, 300.23, 1064.85)" xlink:href="#radial-gradient"/><radialGradient id="radial-gradient-9" cx="1043.91" cy="162.32" r="2.01" gradientTransform="matrix(0.84, 0.54, 0.53, -0.83, -807.2, -370.32)" xlink:href="#radial-gradient"/><radialGradient id="radial-gradient-10" cx="447.56" cy="-481.62" r="1.27" gradientTransform="matrix(0.84, 0.54, -0.53, 0.83, -477.45, 213)" xlink:href="#radial-gradient"/><radialGradient id="radial-gradient-11" cx="451.01" cy="-476.54" r="1.3" gradientTransform="matrix(0.84, 0.54, -0.53, 0.83, -474.8, 201.49)" xlink:href="#radial-gradient"/><radialGradient id="radial-gradient-12" cx="449.81" cy="-471.79" r="1.15" gradientTransform="matrix(0.84, 0.54, -0.53, 0.83, -466.51, 197.04)" xlink:href="#radial-gradient"/><radialGradient id="radial-gradient-13" cx="442.05" cy="-469.69" r="1.16" gradientTransform="matrix(0.84, 0.54, -0.53, 0.83, -453.35, 205.34)" xlink:href="#radial-gradient"/><radialGradient id="radial-gradient-14" cx="438.73" cy="-473.08" r="1.3" gradientTransform="matrix(0.84, 0.54, -0.53, 0.83, -453.8, 214.46)" xlink:href="#radial-gradient"/><radialGradient id="radial-gradient-15" cx="439.09" cy="-479.28" r="1.26" gradientTransform="matrix(0.84, 0.54, -0.53, 0.83, -463.04, 222.01)" xlink:href="#radial-gradient"/><radialGradient id="radial-gradient-16" cx="1043.74" cy="156.79" r="4.92" gradientTransform="matrix(0.84, 0.54, 0.53, -0.83, -799.98, -378.5)" xlink:href="#radial-gradient"/><radialGradient id="radial-gradient-17" cx="976.92" cy="58.76" r="2.01" gradientTransform="matrix(0.52, -0.85, -0.84, -0.51, -155.22, 892.24)" xlink:href="#radial-gradient"/><radialGradient id="radial-gradient-18" cx="410.65" cy="-363.93" r="1.27" gradientTransform="matrix(0.52, -0.85, 0.84, 0.51, 393.59, 568.9)" xlink:href="#radial-gradient"/><radialGradient id="radial-gradient-19" cx="414.11" cy="-358.85" r="1.3" gradientTransform="matrix(0.52, -0.85, 0.84, 0.51, 382.03, 566.49)" xlink:href="#radial-gradient"/><radialGradient id="radial-gradient-20" cx="412.9" cy="-354.11" r="1.15" gradientTransform="matrix(0.52, -0.85, 0.84, 0.51, 377.41, 558.29)" xlink:href="#radial-gradient"/><radialGradient id="radial-gradient-21" cx="405.14" cy="-352" r="1.16" gradientTransform="matrix(0.52, -0.85, 0.84, 0.51, 385.43, 544.96)" xlink:href="#radial-gradient"/><radialGradient id="radial-gradient-22" cx="401.83" cy="-355.4" r="1.3" gradientTransform="matrix(0.52, -0.85, 0.84, 0.51, 394.56, 545.23)" xlink:href="#radial-gradient"/><radialGradient id="radial-gradient-23" cx="402.19" cy="-361.59" r="1.26" gradientTransform="matrix(0.52, -0.85, 0.84, 0.51, 402.3, 554.31)" xlink:href="#radial-gradient"/><radialGradient id="radial-gradient-24" cx="976.75" cy="53.23" r="4.92" gradientTransform="matrix(0.52, -0.85, -0.84, -0.51, -163.54, 885.19)" xlink:href="#radial-gradient"/><radialGradient id="radial-gradient-25" cx="974.22" cy="109.36" r="2.01" gradientTransform="matrix(0.54, -0.84, -0.83, -0.54, -202.26, 942.29)" xlink:href="#radial-gradient"/><radialGradient id="radial-gradient-26" cx="394.54" cy="-411.97" r="1.27" gradientTransform="matrix(0.54, -0.84, 0.83, 0.54, 359.67, 620.2)" xlink:href="#radial-gradient"/><radialGradient id="radial-gradient-27" cx="398" cy="-406.89" r="1.3" gradientTransform="matrix(0.54, -0.84, 0.83, 0.54, 348.17, 617.5)" xlink:href="#radial-gradient"/><radialGradient id="radial-gradient-28" cx="396.79" cy="-402.15" r="1.15" gradientTransform="matrix(0.54, -0.84, 0.83, 0.54, 343.75, 609.19)" xlink:href="#radial-gradient"/><radialGradient id="radial-gradient-29" cx="389.03" cy="-400.04" r="1.16" gradientTransform="matrix(0.54, -0.84, 0.83, 0.54, 352.11, 596.06)" xlink:href="#radial-gradient"/><radialGradient id="radial-gradient-30" cx="385.72" cy="-403.43" r="1.3" gradientTransform="matrix(0.54, -0.84, 0.83, 0.54, 361.23, 596.56)" xlink:href="#radial-gradient"/><radialGradient id="radial-gradient-31" cx="386.08" cy="-409.63" r="1.26" gradientTransform="matrix(0.54, -0.84, 0.83, 0.54, 368.74, 605.83)" xlink:href="#radial-gradient"/><radialGradient id="radial-gradient-32" cx="974.05" cy="103.83" r="4.92" gradientTransform="matrix(0.54, -0.84, -0.83, -0.54, -210.4, 935.03)" xlink:href="#radial-gradient"/></defs><g id="Layer_2" data-name="Layer 2"><g id="Layer_38" data-name="Layer 38"><polygon class="cls-1" points="174.13 0.32 484.54 49.29 311.5 126.46 1.09 77.5 174.13 0.32"/><line class="cls-1" x1="29.93" y1="64.63" x2="340.34" y2="113.6"/><line class="cls-1" x1="58.77" y1="51.77" x2="369.18" y2="100.74"/><line class="cls-1" x1="87.61" y1="38.91" x2="398.02" y2="87.87"/><line class="cls-1" x1="116.45" y1="26.05" x2="426.86" y2="75.01"/><line class="cls-1" x1="145.29" y1="13.19" x2="455.7" y2="62.15"/><line class="cls-1" x1="445.74" y1="43.17" x2="272.7" y2="120.34"/><line class="cls-1" x1="406.94" y1="37.05" x2="233.9" y2="114.22"/><line class="cls-1" x1="368.14" y1="30.93" x2="195.1" y2="108.1"/><line class="cls-1" x1="329.34" y1="24.81" x2="156.3" y2="101.98"/><line class="cls-1" x1="290.53" y1="18.69" x2="117.49" y2="95.86"/><line class="cls-1" x1="251.73" y1="12.56" x2="78.69" y2="89.74"/><line class="cls-1" x1="212.93" y1="6.44" x2="39.89" y2="83.62"/></g><g id="Layer_39" data-name="Layer 39"><polygon class="cls-2" points="165.21 51.25 204.01 57.27 232.96 44.43 193.81 38.4 165.21 51.25"/><polygon class="cls-3" points="330.38 94.61 359.22 81.75 320.53 75.73 291.91 88.55 330.38 94.61"/><path class="cls-4" d="M312.77,88.77a1.68,1.68,0,0,1-2,1.11,1.87,1.87,0,0,1-1.55-2.39,2,2,0,0,1,2.27-1.85,1.59,1.59,0,0,1,1.5,1.68l-1-.15a.74.74,0,0,0-.69-.75c-.58-.09-1,.36-1.12,1.19s.13,1.41.7,1.5a.8.8,0,0,0,.88-.49Z"/><path class="cls-4" d="M314.39,88.47c-.1.61.13,1.19.73,1.28a.75.75,0,0,0,.88-.37l1,.15a1.76,1.76,0,0,1-2,1,1.88,1.88,0,0,1-1.56-2.36,1.94,1.94,0,0,1,2.26-1.89,1.8,1.8,0,0,1,1.51,2.28,2.79,2.79,0,0,1-.06.33Zm1.86-.35c.08-.54-.09-1-.69-1.12s-.91.29-1.05.85Z"/><path class="cls-4" d="M317.68,90.85l.89-5.78,1,.15L318.66,91Z"/><path class="cls-4" d="M319.73,91.17l.9-5.78,1,.15-.89,5.78Z"/><path class="cls-4" d="M325.35,87.88l-.63,4.05c-.18,1.15-.5,1.62-1.54,1.46l-.32-.06.13-.8.12,0c.4.06.52-.1.6-.58l.65-4.24Zm-.87-.91.15-1,1,.15-.15,1Z"/><path class="cls-4" d="M189,51.21a1.67,1.67,0,0,1-2,1.11,1.87,1.87,0,0,1-1.55-2.39,2,2,0,0,1,2.26-1.85,1.6,1.6,0,0,1,1.51,1.68l-1-.15a.75.75,0,0,0-.69-.75c-.58-.09-1,.36-1.12,1.2s.13,1.4.69,1.49a.8.8,0,0,0,.89-.49Z"/><path class="cls-4" d="M190.58,50.91c-.1.62.13,1.19.73,1.29a.75.75,0,0,0,.88-.38l1,.15a1.75,1.75,0,0,1-2,1,1.87,1.87,0,0,1-1.56-2.36,1.92,1.92,0,0,1,2.26-1.88A1.79,1.79,0,0,1,193.38,51a3,3,0,0,1-.06.34Zm1.86-.35c.08-.54-.09-1-.69-1.11s-.91.28-1.05.84Z"/><path class="cls-4" d="M193.87,53.29l.89-5.77,1,.15-.89,5.78Z"/><path class="cls-4" d="M195.92,53.61l.9-5.78,1,.16-.9,5.78Z"/><path class="cls-4" d="M200.55,50.17l1,.15-.63,4.07-1-.16Zm.27-1.72,1,.16-.15,1-1-.16Z"/></g><g id="PoPS_Bugs" data-name="PoPS Bugs"><circle class="cls-5" cx="300.95" cy="64.45" r="2.01"/><path class="cls-6" d="M299.46,69.33c-1.49-.83-2.31-2.17-1.85-3"/><path class="cls-7" d="M290.7,67.46a2.61,2.61,0,0,0,3.35-1.41"/><path class="cls-8" d="M288.29,62.26c1.51.84,2.93,1.15,3.18.7"/><path class="cls-9" d="M292.57,54.55c1.51.84,2.53,1.88,2.28,2.33"/><path class="cls-10" d="M298.26,53.85c1.08.6,1.34,2.21.57,3.59"/><path class="cls-11" d="M304.51,60.23c-1.48-.83-3.06-.82-3.52,0"/><circle class="cls-12" cx="296.2" cy="61.61" r="4.92"/><circle class="cls-13" cx="158.03" cy="58.24" r="2.01"/><path class="cls-14" d="M153.82,55.35c1.24-1.17,2.77-1.56,3.42-.86"/><path class="cls-15" d="M158.24,47.56c-.9.85-.75,2.47.34,3.62"/><path class="cls-16" d="M163.92,46.82c-1.25,1.18-2,2.45-1.62,2.82"/><path class="cls-17" d="M170,53.22c-1.26,1.18-2.56,1.84-2.91,1.47"/><path class="cls-18" d="M169,58.85a2.61,2.61,0,0,1-3.6-.53"/><path class="cls-19" d="M161,62.9c1.23-1.17,1.7-2.67,1-3.37"/><circle class="cls-20" cx="162.17" cy="54.56" r="4.92"/><circle class="cls-21" cx="305.4" cy="28.77" r="2.01"/><path class="cls-22" d="M302.6,33c-1.19-1.21-1.61-2.73-.93-3.4"/><path class="cls-23" d="M294.72,28.79c.87.89,2.49.7,3.61-.41"/><path class="cls-24" d="M293.87,23.13c1.21,1.22,2.48,1.92,2.85,1.56"/><path class="cls-25" d="M300.14,16.93c1.21,1.23,1.89,2.51,1.53,2.88"/><path class="cls-26" d="M305.79,17.85c.87.88.67,2.5-.45,3.61"/><path class="cls-27" d="M310,25.72c-1.2-1.21-2.71-1.64-3.39-1"/><circle class="cls-28" cx="301.64" cy="24.72" r="4.92"/><circle class="cls-29" cx="236.57" cy="65.84" r="2.01"/><path class="cls-30" d="M233.66,70c-1.17-1.24-1.55-2.77-.85-3.42"/><path class="cls-31" d="M225.89,65.59c.85.9,2.46.76,3.62-.33"/><path class="cls-32" d="M225.17,59.9c1.18,1.26,2.44,2,2.82,1.63"/><path class="cls-33" d="M231.6,53.86c1.18,1.26,1.83,2.56,1.45,2.92"/><path class="cls-34" d="M237.22,54.93c.86.9.61,2.51-.54,3.59"/><path class="cls-35" d="M241.24,62.9c-1.16-1.24-2.67-1.71-3.36-1.06"/><circle class="cls-36" cx="232.9" cy="61.69" r="4.92"/></g><g id="Cell_i" data-name="Cell i"><text class="cls-37" transform="matrix(0.99, 0.16, -0.16, 0.99, 122.51, 108.5)">Landscape</text><path class="cls-38" d="M134.75,48.18l-1.91-.59c3.5-11.28,16.1-19.11,30.69-19.11h.26c10.78.07,23.77,5.1,27.89,19l-1.91.57c-3.25-10.94-13-17.52-26-17.6h-.21C152.29,30.48,138.53,36,134.75,48.18Z"/><polygon class="cls-38" points="130.17 43.87 134.25 46.46 138.94 45.32 132.84 54.99 130.17 43.87"/><path class="cls-38" d="M144.82,66.13l-1.94-.47c4-16.54,21.56-29,33.12-27.63,5.47.65,8.6,4.57,8.6,10.74h-2c0-5.19-2.36-8.22-6.84-8.76C166.35,38.89,148.82,49.6,144.82,66.13Z"/><polygon class="cls-38" points="140.05 61.97 144.2 64.44 148.86 63.18 143.03 73.01 140.05 61.97"/><path class="cls-38" d="M322.86,78.67c-2.72-13.33-15.43-25-35.78-32.86-17-6.55-38-9.77-53.57-8.19C221.75,38.81,215,42.53,215,47.83h-2c0-6.54,7.21-10.88,20.3-12.2C249.18,34,270.57,37.29,287.8,44c21,8.11,34.15,20.3,37,34.32Z"/><polygon class="cls-38" points="318.94 75.58 323.55 77.01 327.78 74.69 324.42 85.62 318.94 75.58"/><path class="cls-38" d="M200.09,45.08l-2-.1C199,26.4,194,18.66,190.61,18.16c-2.14-.32-4.11,2-5.13,6l-1.94-.49c1.29-5.11,4.12-8,7.37-7.5C196,16.94,201,26.31,200.09,45.08Z"/><polygon class="cls-38" points="180.71 20.02 184.87 22.48 189.52 21.19 183.73 31.05 180.71 20.02"/><path class="cls-38" d="M203,45.08C201.85,22.93,223.48,5.33,238.89,3c9.77-1.51,16.7,2.68,19,11.51l-1.94.5c-2.74-10.56-11.67-10.82-16.75-10C222.89,7.45,204,25.87,205,45Z"/><polygon class="cls-38" points="251.85 12.03 256.51 13.27 260.65 10.78 257.73 21.83 251.85 12.03"/><path class="cls-38" d="M209.65,45.06c-.28-9.15,9.24-16.59,26.12-20.4,27.48-6.21,63.48-.85,71.2,16.75l-1.84.81C298,26,262.88,20.59,236.22,26.61,220.35,30.19,211.4,36.89,211.65,45Z"/><polygon class="cls-38" points="300.7 39.64 305.46 40.43 309.33 37.55 307.5 48.83 300.7 39.64"/><path class="cls-38" d="M247.08,67.12c-4-14.61-20.12-20.84-29.78-19.55-2,.26-6.51,1.29-6.51,5.2h-2c0-3.81,3.08-6.49,8.24-7.18,10.37-1.39,27.72,5.31,32,21Z"/><polygon class="cls-38" points="242.97 64.23 247.65 65.42 251.75 62.88 248.96 73.97 242.97 64.23"/></g></g></svg>