<svg xmlns="http://www.w3.org/2000/svg" viewBox="0 0 202.25 99.04"><defs><style>.cls-1{font-size:16.03px;font-family:Arial-ItalicMT, Arial;font-style:italic;}.cls-1,.cls-3{fill:#fff;}.cls-2,.cls-6,.cls-7,.cls-8{font-size:13.35px;font-family:ArialMT, Arial;font-style:normal;}.cls-10,.cls-11,.cls-4{fill:none;stroke:#fff;stroke-miterlimit:10;}.cls-4{stroke-width:0.8px;}.cls-5{fill:#808285;}.cls-6{letter-spacing:0em;}.cls-7{letter-spacing:0.2em;}.cls-8{letter-spacing:0.2em;}.cls-9{letter-spacing:0em;}.cls-10{stroke-width:1.34px;}.cls-11{stroke-width:0.74px;}</style></defs><g id="Layer_2" data-name="Layer 2"><g id="_Layer_" data-name="&lt;Layer&gt;"><text class="cls-1" transform="translate(90.55 62.41)">N<tspan class="cls-2" x="11.57" y="4.01">j</tspan></text><path class="cls-3" d="M1.19,20.56v2.7H.71V17.33c0-.76,0-1.28,0-1.62h.47c0,.09,0,.52,0,.83a1.34,1.34,0,0,1,1.36-.91c1.06,0,1.61.95,1.61,2.77s-.67,2.92-1.76,2.92A1.18,1.18,0,0,1,1.19,20.56Zm2.47-2.14c0-1.43-.35-2.34-1.19-2.34-1,0-1.3,1-1.3,2.39s.16,2.39,1.22,2.39C3.22,20.86,3.66,19.86,3.66,18.42Z" transform="translate(-0.7 -1.25)"/><path class="cls-3" d="M5.31,17.6c0-.86,0-1.49,0-1.89h.47c0,.18,0,.45,0,1a1.56,1.56,0,0,1,1.46-1.11v.51A1.66,1.66,0,0,0,5.79,18v3.2H5.31Z" transform="translate(-0.7 -1.25)"/><path class="cls-3" d="M8.18,18.5c0,1.32.25,2.37,1.23,2.37a1.22,1.22,0,0,0,1.18-1.15h.49a1.7,1.7,0,0,1-1.67,1.6c-1.51,0-1.72-1.48-1.72-2.83,0-1.74.55-2.86,1.78-2.86s1.66,1.18,1.66,2.52c0,.05,0,.18,0,.35Zm2.45-.43c0-1.22-.29-2-1.17-2-1.19,0-1.25,1.63-1.27,2Z" transform="translate(-0.7 -1.25)"/><path class="cls-3" d="M15.41,19.66a1.66,1.66,0,0,1-1.62,1.66c-1.35,0-1.74-1.28-1.74-2.86s.52-2.83,1.81-2.83a1.54,1.54,0,0,1,1.55,1.63h-.5c0-.23-.12-1.19-1.05-1.19s-1.3,1-1.3,2.38.38,2.42,1.25,2.42,1.06-.93,1.1-1.21Z" transform="translate(-0.7 -1.25)"/><path class="cls-3" d="M16.46,13.38H17v1.06h-.49Zm0,2.33h.48v5.51h-.48Z" transform="translate(-0.7 -1.25)"/><path class="cls-3" d="M18.85,20.56v2.7h-.48V17.33c0-.76,0-1.28,0-1.62h.46c0,.09,0,.52,0,.83a1.32,1.32,0,0,1,1.36-.91c1.05,0,1.61.95,1.61,2.77s-.68,2.92-1.77,2.92A1.16,1.16,0,0,1,18.85,20.56Zm2.46-2.14c0-1.43-.35-2.34-1.19-2.34-1,0-1.3,1-1.3,2.39s.17,2.39,1.23,2.39C20.88,20.86,21.31,19.86,21.31,18.42Z" transform="translate(-0.7 -1.25)"/><path class="cls-3" d="M23,13.38h.49v1.06H23Zm0,2.33h.49v5.51H23Z" transform="translate(-0.7 -1.25)"/><path class="cls-3" d="M24.23,15.71H25V14.19h.47v1.52h1v.45h-1v4c0,.42.1.69.53.69a2.94,2.94,0,0,0,.44,0v.4a2.12,2.12,0,0,1-.57.08c-.49,0-.87-.23-.87-1V16.16h-.81Z" transform="translate(-0.7 -1.25)"/><path class="cls-3" d="M30.28,20.4c0,.39,0,.69,0,.82h-.44a3.31,3.31,0,0,1-.06-.7,1.3,1.3,0,0,1-1.34.8,1.4,1.4,0,0,1-1.42-1.57c0-.93.62-1.73,2.09-1.73a6,6,0,0,1,.66,0v-.82c0-.5-.11-1.15-1-1.15s-1,.73-1.07,1.1h-.48a1.43,1.43,0,0,1,1.56-1.54c1,0,1.44.5,1.44,1.5Zm-.46-1.92a4.61,4.61,0,0,0-.64,0c-1.14,0-1.63.56-1.63,1.28a1,1,0,0,0,1,1.15c.91,0,1.27-.63,1.27-2Z" transform="translate(-0.7 -1.25)"/><path class="cls-3" d="M31,15.71h.82V14.19h.47v1.52h1v.45h-1v4c0,.42.1.69.52.69a2.85,2.85,0,0,0,.44,0v.4a2,2,0,0,1-.56.08c-.5,0-.87-.23-.87-1V16.16H31Z" transform="translate(-0.7 -1.25)"/><path class="cls-3" d="M34.14,13.38h.48v1.06h-.48Zm0,2.33h.48v5.51h-.48Z" transform="translate(-0.7 -1.25)"/><path class="cls-3" d="M39.32,18.39c0,1.9-.6,2.93-1.77,2.93s-1.79-1-1.79-2.92.69-2.77,1.8-2.77S39.32,16.54,39.32,18.39Zm-3.06,0c0,1.71.49,2.46,1.28,2.46s1.27-.77,1.27-2.48c0-1.53-.44-2.32-1.27-2.32S36.26,16.72,36.26,18.41Z" transform="translate(-0.7 -1.25)"/><path class="cls-3" d="M40.45,17.41c0-1.12,0-1.46,0-1.7h.47c0,.14,0,.35,0,.82a1.35,1.35,0,0,1,1.37-.9c.73,0,1.42.37,1.42,1.67v3.92h-.49V17.37c0-.75-.3-1.29-1-1.29-.91,0-1.28.63-1.28,2v3.19h-.5Z" transform="translate(-0.7 -1.25)"/><line class="cls-4" x1="46.11" y1="20.61" x2="76.12" y2="26.18"/><polygon class="cls-3" points="78.89 26.69 74.69 27.56 75.91 26.14 75.28 24.37 78.89 26.69"/><path class="cls-5" d="M7.39,23.62a5.62,5.62,0,0,0-1,3.37,5.94,5.94,0,0,0,1,3.46H7A6,6,0,0,1,6,27a5.91,5.91,0,0,1,1-3.36Z" transform="translate(-0.7 -1.25)"/><path class="cls-5" d="M10.3,28.21a1.21,1.21,0,0,1-1.18,1.21c-1,0-1.26-.93-1.26-2.07s.38-2.07,1.32-2.07a1.12,1.12,0,0,1,1.12,1.19H9.94c0-.17-.09-.86-.76-.86s-.95.74-.95,1.73.27,1.76.91,1.76.77-.68.8-.89Z" transform="translate(-0.7 -1.25)"/><path class="cls-5" d="M11.25,27.37c0,1,.18,1.73.9,1.73s.83-.73.85-.84h.36a1.24,1.24,0,0,1-1.21,1.16c-1.1,0-1.26-1.07-1.26-2.06,0-1.26.4-2.08,1.3-2.08s1.2.87,1.2,1.84c0,0,0,.13,0,.25ZM13,27.06c0-.89-.22-1.45-.86-1.45-.87,0-.91,1.18-.92,1.45Z" transform="translate(-0.7 -1.25)"/><path class="cls-5" d="M14.2,29.35v-5.7h.35v5.7Z" transform="translate(-0.7 -1.25)"/><path class="cls-5" d="M15.61,29.35v-5.7H16v5.7Z" transform="translate(-0.7 -1.25)"/><path class="cls-5" d="M18.92,25.35v4.37c0,.67-.09,1.18-.74,1.18l-.19,0v-.32h.18c.34,0,.4-.22.4-.74V25.35Zm-.33-.93v-.77h.35v.77Z" transform="translate(-0.7 -1.25)"/><path class="cls-5" d="M19.56,30.3A5.84,5.84,0,0,0,20,28.46h.34a4.8,4.8,0,0,1-.45,1.84Z" transform="translate(-0.7 -1.25)"/><path class="cls-5" d="M22.05,25.35h.59V24.24H23v1.11h.75v.32H23v2.91c0,.3.07.5.38.5l.32,0v.29a1.44,1.44,0,0,1-.41,0c-.36,0-.64-.16-.64-.73v-3h-.59Z" transform="translate(-0.7 -1.25)"/><path class="cls-5" d="M24.36,23.65h.35v.77h-.35Zm0,1.7h.35v4h-.35Z" transform="translate(-0.7 -1.25)"/><path class="cls-5" d="M25.74,26.55c0-.66,0-1,0-1.2h.34a4.89,4.89,0,0,1,0,.58.9.9,0,0,1,.9-.65.78.78,0,0,1,.84.63,1,1,0,0,1,1-.63c.45,0,.94.21.94,1.14v2.93h-.35V26.49c0-.46-.13-.88-.66-.88s-.81.56-.81,1.13v2.61h-.35V26.51c0-.58-.19-.9-.64-.9s-.83.56-.83,1.21v2.53h-.35Z" transform="translate(-0.7 -1.25)"/><path class="cls-5" d="M30.92,27.37c0,1,.18,1.73.9,1.73a.88.88,0,0,0,.85-.84H33a1.23,1.23,0,0,1-1.21,1.16c-1.1,0-1.26-1.07-1.26-2.06,0-1.26.41-2.08,1.3-2.08s1.2.87,1.2,1.84c0,0,0,.13,0,.25Zm1.79-.31c0-.89-.22-1.45-.86-1.45-.87,0-.9,1.18-.92,1.45Z" transform="translate(-0.7 -1.25)"/><path class="cls-5" d="M34.9,25.35h.59V24.24h.34v1.11h.75v.32h-.75v2.91c0,.3.08.5.39.5l.31,0v.29a1.36,1.36,0,0,1-.41,0c-.36,0-.63-.16-.63-.73v-3H34.9Z" transform="translate(-0.7 -1.25)"/><path class="cls-5" d="M37,30.45a5.62,5.62,0,0,0,1-3.37,5.94,5.94,0,0,0-1-3.46h.37a6,6,0,0,1,1,3.47,5.83,5.83,0,0,1-1,3.36Z" transform="translate(-0.7 -1.25)"/><path class="cls-3" d="M147.38,15.71h.81V14.19h.47v1.52h1v.45h-1v4c0,.42.1.69.53.69a2.94,2.94,0,0,0,.44,0v.4a2.12,2.12,0,0,1-.57.08c-.49,0-.87-.23-.87-1V16.16h-.81Z" transform="translate(-0.7 -1.25)"/><path class="cls-3" d="M150.63,18.5c0,1.32.25,2.37,1.24,2.37A1.22,1.22,0,0,0,153,19.72h.5a1.71,1.71,0,0,1-1.67,1.6c-1.52,0-1.73-1.48-1.73-2.83,0-1.74.55-2.86,1.78-2.86s1.66,1.18,1.66,2.52c0,.05,0,.18,0,.35Zm2.46-.43c0-1.22-.29-2-1.18-2-1.19,0-1.24,1.63-1.27,2Z" transform="translate(-0.7 -1.25)"/><path class="cls-3" d="M154.69,17.37c0-.91,0-1.38,0-1.66h.47c0,.2,0,.5,0,.8a1.26,1.26,0,0,1,1.25-.88,1.06,1.06,0,0,1,1.15.86,1.33,1.33,0,0,1,1.32-.86c.62,0,1.29.28,1.29,1.56v4h-.47V17.29c0-.63-.18-1.21-.91-1.21s-1.11.77-1.11,1.55v3.59h-.48V17.31c0-.79-.27-1.23-.89-1.23s-1.15.76-1.15,1.66v3.48h-.48Z" transform="translate(-0.7 -1.25)"/><path class="cls-3" d="M162.09,20.56v2.7h-.48V17.33c0-.76,0-1.28,0-1.62h.47c0,.09,0,.52,0,.83a1.35,1.35,0,0,1,1.37-.91c1,0,1.6.95,1.6,2.77s-.67,2.92-1.76,2.92A1.18,1.18,0,0,1,162.09,20.56Zm2.47-2.14c0-1.43-.35-2.34-1.19-2.34-1,0-1.3,1-1.3,2.39s.16,2.39,1.22,2.39C164.12,20.86,164.56,19.86,164.56,18.42Z" transform="translate(-0.7 -1.25)"/><path class="cls-3" d="M166.43,18.5c0,1.32.25,2.37,1.23,2.37a1.22,1.22,0,0,0,1.18-1.15h.49a1.7,1.7,0,0,1-1.67,1.6c-1.51,0-1.72-1.48-1.72-2.83,0-1.74.55-2.86,1.77-2.86s1.66,1.18,1.66,2.52c0,.05,0,.18,0,.35Zm2.45-.43c0-1.22-.29-2-1.18-2-1.19,0-1.24,1.63-1.26,2Z" transform="translate(-0.7 -1.25)"/><path class="cls-3" d="M170.49,17.6c0-.86,0-1.49,0-1.89H171c0,.18,0,.45,0,1a1.56,1.56,0,0,1,1.46-1.11v.51A1.66,1.66,0,0,0,171,18v3.2h-.48Z" transform="translate(-0.7 -1.25)"/><path class="cls-3" d="M176,20.4c0,.39,0,.69,0,.82h-.44a3.31,3.31,0,0,1-.06-.7,1.3,1.3,0,0,1-1.34.8,1.4,1.4,0,0,1-1.42-1.57c0-.93.62-1.73,2.09-1.73a6,6,0,0,1,.66,0v-.82c0-.5-.11-1.15-1-1.15s-1,.73-1.07,1.1H173a1.43,1.43,0,0,1,1.56-1.54c1,0,1.44.5,1.44,1.5Zm-.46-1.92a4.54,4.54,0,0,0-.63,0c-1.15,0-1.64.56-1.64,1.28a1,1,0,0,0,1,1.15c.91,0,1.27-.63,1.27-2Z" transform="translate(-0.7 -1.25)"/><path class="cls-3" d="M176.72,15.71h.81V14.19H178v1.52h1v.45h-1v4c0,.42.1.69.53.69a2.72,2.72,0,0,0,.43,0v.4a2,2,0,0,1-.56.08c-.49,0-.87-.23-.87-1V16.16h-.81Z" transform="translate(-0.7 -1.25)"/><path class="cls-3" d="M183,19.78c0,.62,0,1.18,0,1.44h-.46a6.6,6.6,0,0,1,0-.82,1.32,1.32,0,0,1-1.36.92c-.55,0-1.38-.18-1.38-1.64v-4h.49v3.84c0,.81.25,1.32,1,1.32s1.25-.44,1.25-1.84V15.71H183Z" transform="translate(-0.7 -1.25)"/><path class="cls-3" d="M184.37,17.6c0-.86,0-1.49,0-1.89h.47c0,.18,0,.45,0,1a1.56,1.56,0,0,1,1.46-1.11v.51A1.66,1.66,0,0,0,184.85,18v3.2h-.48Z" transform="translate(-0.7 -1.25)"/><path class="cls-3" d="M187.24,18.5c0,1.32.25,2.37,1.23,2.37a1.22,1.22,0,0,0,1.18-1.15h.49a1.69,1.69,0,0,1-1.67,1.6c-1.51,0-1.72-1.48-1.72-2.83,0-1.74.55-2.86,1.78-2.86s1.66,1.18,1.66,2.52a2.92,2.92,0,0,1,0,.35Zm2.46-.43c0-1.22-.3-2-1.18-2-1.19,0-1.25,1.63-1.27,2Z" transform="translate(-0.7 -1.25)"/><path class="cls-3" d="M18.67,61.22c0,.73.44,1.19,1.14,1.19a1,1,0,0,0,1.07-1.06c0-.69-.37-1-1.14-1.29-1-.41-1.37-.78-1.37-1.53a1.3,1.3,0,0,1,1.44-1.37,1.34,1.34,0,0,1,1.45,1.47h-.49a1,1,0,0,0-1-1,.83.83,0,0,0-.92.91c0,.51.19.76,1,1.09,1,.39,1.49.75,1.49,1.73a1.44,1.44,0,0,1-1.6,1.52,1.5,1.5,0,0,1-1.6-1.63Z" transform="translate(-0.7 -1.25)"/><path class="cls-3" d="M22.66,60c0,1.32.25,2.38,1.23,2.38a1.23,1.23,0,0,0,1.18-1.16h.49a1.69,1.69,0,0,1-1.67,1.6c-1.51,0-1.72-1.48-1.72-2.83,0-1.74.55-2.86,1.78-2.86s1.66,1.19,1.66,2.52a2.92,2.92,0,0,1,0,.35Zm2.46-.43c0-1.22-.3-2-1.18-2-1.19,0-1.25,1.63-1.27,2Z" transform="translate(-0.7 -1.25)"/><path class="cls-3" d="M29.57,61.93c0,.39,0,.7,0,.82h-.44a3.31,3.31,0,0,1-.06-.7,1.3,1.3,0,0,1-1.34.8,1.4,1.4,0,0,1-1.42-1.57c0-.93.62-1.73,2.09-1.73a4,4,0,0,1,.66,0v-.83c0-.5-.11-1.15-1-1.15s-1,.73-1.07,1.1h-.48a1.43,1.43,0,0,1,1.56-1.54c1,0,1.44.5,1.44,1.5ZM29.11,60a4.54,4.54,0,0,0-.63,0c-1.15,0-1.64.56-1.64,1.28a1,1,0,0,0,1,1.15c.91,0,1.27-.63,1.27-2Z" transform="translate(-0.7 -1.25)"/><path class="cls-3" d="M31,61.22c.05.73.44,1.19,1.14,1.19a1,1,0,0,0,1.07-1.06c0-.69-.37-1-1.14-1.29-1-.41-1.37-.78-1.37-1.53a1.3,1.3,0,0,1,1.44-1.37,1.34,1.34,0,0,1,1.45,1.47h-.49a1,1,0,0,0-1-1,.83.83,0,0,0-.92.91c0,.51.19.76,1,1.09,1,.39,1.49.75,1.49,1.73a1.44,1.44,0,0,1-1.6,1.52,1.51,1.51,0,0,1-1.61-1.63Z" transform="translate(-0.7 -1.25)"/><path class="cls-3" d="M38,59.92c0,1.9-.6,2.93-1.77,2.93s-1.79-1-1.79-2.92.69-2.77,1.8-2.77S38,58.07,38,59.92Zm-3.06,0c0,1.71.49,2.47,1.28,2.47s1.27-.78,1.27-2.49c0-1.53-.44-2.32-1.27-2.32S35,58.25,35,59.94Z" transform="translate(-0.7 -1.25)"/><path class="cls-3" d="M39.17,58.94c0-1.12,0-1.46,0-1.7h.47c0,.14,0,.35,0,.82a1.35,1.35,0,0,1,1.37-.9c.73,0,1.42.37,1.42,1.67v3.92h-.5V58.9c0-.75-.29-1.29-1-1.29-.91,0-1.29.63-1.29,2v3.19h-.49Z" transform="translate(-0.7 -1.25)"/><path class="cls-3" d="M46.68,61.93a8,8,0,0,0,0,.82h-.45a4.3,4.3,0,0,1-.05-.7,1.31,1.31,0,0,1-1.35.8,1.4,1.4,0,0,1-1.42-1.57c0-.93.62-1.73,2.1-1.73a3.91,3.91,0,0,1,.65,0v-.83c0-.5-.11-1.15-1-1.15s-1,.73-1.07,1.1h-.48a1.44,1.44,0,0,1,1.56-1.54c1,0,1.44.5,1.44,1.5ZM46.22,60a4.44,4.44,0,0,0-.63,0c-1.15,0-1.64.56-1.64,1.28a1,1,0,0,0,1,1.15c.91,0,1.26-.63,1.26-2Z" transform="translate(-0.7 -1.25)"/><path class="cls-3" d="M48.12,62.75V54.91h.48v7.84Z" transform="translate(-0.7 -1.25)"/><path class="cls-3" d="M50,54.91h.48V56H50Zm0,2.33h.48v5.51H50Z" transform="translate(-0.7 -1.25)"/><path class="cls-3" d="M51.29,57.24h.81V55.72h.47v1.52h1v.45h-1v4c0,.42.1.69.53.69a2.81,2.81,0,0,0,.43,0v.4a2,2,0,0,1-.56.08c-.5,0-.87-.23-.87-1V57.69h-.81Z" transform="translate(-0.7 -1.25)"/><path class="cls-3" d="M54.62,57.24c.72,2.66,1.22,4.4,1.3,4.95h0c.1-.54.68-2.61,1.3-4.95h.52l-1.63,5.81c-.43,1.54-.73,1.83-1.52,1.83a1.69,1.69,0,0,1-.33,0v-.47a1.16,1.16,0,0,0,.35,0c.63,0,.79-.49,1.06-1.53l-1.59-5.65Z" transform="translate(-0.7 -1.25)"/><line class="cls-4" x1="39.45" y1="51.78" x2="56.01" y2="44.63"/><polygon class="cls-3" points="58.6 43.51 55.59 46.58 55.82 44.71 54.3 43.59 58.6 43.51"/><path class="cls-5" d="M23.1,64.48a5.69,5.69,0,0,0-1,3.37,5.94,5.94,0,0,0,1,3.46h-.37a6,6,0,0,1-1-3.47,5.83,5.83,0,0,1,1-3.36Z" transform="translate(-0.7 -1.25)"/><path class="cls-5" d="M26,69.07a1.22,1.22,0,0,1-1.19,1.21c-1,0-1.25-.93-1.25-2.07s.37-2.07,1.31-2.07A1.13,1.13,0,0,1,26,67.33h-.37c0-.17-.09-.87-.76-.87s-.95.75-.95,1.74.28,1.76.91,1.76.77-.69.8-.89Z" transform="translate(-0.7 -1.25)"/><path class="cls-5" d="M27,68.23c0,1,.19,1.73.9,1.73s.83-.73.86-.85h.35a1.22,1.22,0,0,1-1.21,1.17c-1.1,0-1.25-1.07-1.25-2.06,0-1.26.4-2.08,1.29-2.08S29.1,67,29.1,68v.26Zm1.79-.32c0-.88-.21-1.45-.86-1.45-.86,0-.9,1.19-.92,1.45Z" transform="translate(-0.7 -1.25)"/><path class="cls-5" d="M29.92,70.21v-5.7h.35v5.7Z" transform="translate(-0.7 -1.25)"/><path class="cls-5" d="M31.33,70.21v-5.7h.34v5.7Z" transform="translate(-0.7 -1.25)"/><path class="cls-5" d="M34.63,66.21v4.37c0,.67-.08,1.18-.74,1.18l-.19,0v-.32h.18c.34,0,.4-.23.4-.74V66.21Zm-.33-.93v-.77h.35v.77Z" transform="translate(-0.7 -1.25)"/><path class="cls-5" d="M35.27,71.16a5.58,5.58,0,0,0,.42-1.84H36a4.78,4.78,0,0,1-.46,1.84Z" transform="translate(-0.7 -1.25)"/><path class="cls-5" d="M37.77,66.21h.59V65.1h.34v1.11h.75v.32H38.7v2.91c0,.3.07.5.38.5l.32,0v.29a1.36,1.36,0,0,1-.41.05c-.36,0-.63-.16-.63-.73v-3h-.59Z" transform="translate(-0.7 -1.25)"/><path class="cls-5" d="M40.07,64.51h.35v.77h-.35Zm0,1.7h.35v4h-.35Z" transform="translate(-0.7 -1.25)"/><path class="cls-5" d="M41.45,67.41c0-.66,0-1,0-1.2h.35c0,.14,0,.35,0,.58a.92.92,0,0,1,.91-.65.78.78,0,0,1,.83.63,1,1,0,0,1,1-.63c.46,0,.94.21.94,1.14v2.93h-.35V67.35c0-.46-.12-.88-.65-.88s-.81.56-.81,1.13v2.61h-.35V67.37c0-.58-.19-.9-.65-.9s-.83.55-.83,1.21v2.53h-.35Z" transform="translate(-0.7 -1.25)"/><path class="cls-5" d="M46.63,68.23c0,1,.19,1.73.9,1.73s.83-.73.86-.85h.36a1.24,1.24,0,0,1-1.22,1.17c-1.1,0-1.25-1.07-1.25-2.06,0-1.26.4-2.08,1.29-2.08S48.78,67,48.78,68c0,0,0,.14,0,.26Zm1.79-.32c0-.88-.21-1.45-.86-1.45-.86,0-.9,1.19-.92,1.45Z" transform="translate(-0.7 -1.25)"/><path class="cls-5" d="M50.61,66.21h.6V65.1h.34v1.11h.75v.32h-.75v2.91c0,.3.07.5.38.5l.32,0v.29a1.44,1.44,0,0,1-.41.05c-.36,0-.63-.16-.63-.73v-3h-.6Z" transform="translate(-0.7 -1.25)"/><path class="cls-5" d="M52.68,71.31a5.69,5.69,0,0,0,1-3.37,6,6,0,0,0-1-3.46h.37a6,6,0,0,1,1,3.47,5.83,5.83,0,0,1-1,3.36Z" transform="translate(-0.7 -1.25)"/><line class="cls-4" x1="145.11" y1="20.61" x2="117.55" y2="26.63"/><polygon class="cls-3" points="114.79 27.23 118.33 24.79 117.76 26.58 119.03 27.97 114.79 27.23"/><path class="cls-5" d="M154.21,23.94a5.62,5.62,0,0,0-1,3.37,5.94,5.94,0,0,0,1,3.46h-.38a6,6,0,0,1-1-3.47,5.91,5.91,0,0,1,1-3.36Z" transform="translate(-0.7 -1.25)"/><path class="cls-5" d="M157.12,28.53a1.21,1.21,0,0,1-1.18,1.21c-1,0-1.26-.93-1.26-2.08s.38-2.06,1.32-2.06a1.12,1.12,0,0,1,1.12,1.19h-.36c0-.17-.09-.87-.76-.87s-.95.75-.95,1.74.27,1.75.91,1.75.77-.68.8-.88Z" transform="translate(-0.7 -1.25)"/><path class="cls-5" d="M158.07,27.68c0,1,.18,1.73.9,1.73a.87.87,0,0,0,.85-.84h.36A1.24,1.24,0,0,1,159,29.74c-1.1,0-1.26-1.08-1.26-2.06,0-1.26.41-2.08,1.3-2.08s1.2.86,1.2,1.83c0,0,0,.14,0,.25Zm1.79-.31c0-.88-.22-1.45-.86-1.45-.87,0-.91,1.19-.92,1.45Z" transform="translate(-0.7 -1.25)"/><path class="cls-5" d="M161,29.66V24h.35v5.7Z" transform="translate(-0.7 -1.25)"/><path class="cls-5" d="M162.43,29.66V24h.35v5.7Z" transform="translate(-0.7 -1.25)"/><path class="cls-5" d="M165.74,25.66V30c0,.68-.09,1.18-.74,1.18h-.19v-.32H165c.34,0,.4-.22.4-.73V25.66Zm-.33-.92V24h.35v.78Z" transform="translate(-0.7 -1.25)"/><path class="cls-5" d="M166.38,30.61a5.78,5.78,0,0,0,.42-1.83h.34a4.69,4.69,0,0,1-.45,1.83Z" transform="translate(-0.7 -1.25)"/><path class="cls-5" d="M168.87,25.66h.59V24.55h.35v1.11h.75V26h-.75V28.9c0,.3.07.5.38.5l.32,0v.28a1.45,1.45,0,0,1-.41.06c-.36,0-.64-.16-.64-.73V26h-.59Z" transform="translate(-0.7 -1.25)"/><path class="cls-5" d="M171.18,24h.35v.78h-.35Zm0,1.7h.35v4h-.35Z" transform="translate(-0.7 -1.25)"/><path class="cls-5" d="M172.56,26.86c0-.66,0-1,0-1.2h.34a5,5,0,0,1,0,.58.91.91,0,0,1,.9-.64.78.78,0,0,1,.84.63,1,1,0,0,1,1-.63c.45,0,.94.21.94,1.14v2.92h-.35V26.81c0-.46-.13-.88-.66-.88s-.81.56-.81,1.13v2.6h-.35V26.83c0-.58-.19-.9-.64-.9s-.83.55-.83,1.21v2.52h-.35Z" transform="translate(-0.7 -1.25)"/><path class="cls-5" d="M177.74,27.68c0,1,.18,1.73.9,1.73s.83-.72.86-.84h.35a1.23,1.23,0,0,1-1.21,1.17c-1.1,0-1.26-1.08-1.26-2.06,0-1.26.41-2.08,1.3-2.08s1.2.86,1.2,1.83v.25Zm1.79-.31c0-.88-.22-1.45-.86-1.45-.87,0-.9,1.19-.92,1.45Z" transform="translate(-0.7 -1.25)"/><path class="cls-5" d="M181.72,25.66h.59V24.55h.34v1.11h.75V26h-.75V28.9c0,.3.08.5.39.5l.31,0v.28a1.35,1.35,0,0,1-.41.06c-.36,0-.63-.16-.63-.73V26h-.59Z" transform="translate(-0.7 -1.25)"/><path class="cls-5" d="M183.79,30.77a5.69,5.69,0,0,0,1-3.37,6,6,0,0,0-1-3.46h.37a6,6,0,0,1,1,3.47,5.91,5.91,0,0,1-1,3.36Z" transform="translate(-0.7 -1.25)"/><path class="cls-3" d="M133.69,57.94c0-1.12,0-1.46,0-1.69h.47c0,.13,0,.34,0,.81a1.34,1.34,0,0,1,1.36-.9c.73,0,1.42.37,1.42,1.67v3.92h-.49V57.9c0-.75-.29-1.29-1-1.29-.91,0-1.28.63-1.28,2v3.19h-.49Z" transform="translate(-0.7 -1.25)"/><path class="cls-3" d="M141.59,60.31c0,.62,0,1.19,0,1.44h-.46a6.6,6.6,0,0,1,0-.82,1.32,1.32,0,0,1-1.36.92c-.55,0-1.38-.18-1.38-1.64v-4h.49v3.83c0,.81.25,1.32,1,1.32s1.24-.44,1.24-1.84V56.25h.49Z" transform="translate(-0.7 -1.25)"/><path class="cls-3" d="M143,57.9c0-.91,0-1.38,0-1.65h.47c0,.19,0,.49,0,.79a1.26,1.26,0,0,1,1.25-.88,1.06,1.06,0,0,1,1.15.86,1.33,1.33,0,0,1,1.33-.86c.62,0,1.29.29,1.29,1.56v4H148V57.82c0-.63-.18-1.21-.91-1.21s-1.11.77-1.11,1.55v3.59h-.48V57.84c0-.79-.27-1.23-.89-1.23s-1.15.76-1.15,1.66v3.48H143Z" transform="translate(-0.7 -1.25)"/><path class="cls-3" d="M149.93,53.91h.48V57.1a1.37,1.37,0,0,1,1.38-.94c1,0,1.6.8,1.6,2.7,0,1.68-.47,3-1.75,3A1.22,1.22,0,0,1,150.4,61c0,.22,0,.47,0,.72h-.45c0-.25,0-.73,0-1.49Zm3,5c0-1.59-.43-2.27-1.17-2.27-1,0-1.33,1-1.33,2.39s.24,2.38,1.24,2.38C152.45,61.38,152.89,60.57,152.89,58.88Z" transform="translate(-0.7 -1.25)"/><path class="cls-3" d="M154.73,59c0,1.32.25,2.38,1.23,2.38a1.23,1.23,0,0,0,1.18-1.16h.49a1.7,1.7,0,0,1-1.67,1.6c-1.51,0-1.72-1.48-1.72-2.83,0-1.74.55-2.86,1.78-2.86s1.65,1.19,1.65,2.52c0,0,0,.18,0,.35Zm2.45-.43c0-1.22-.29-2-1.18-2-1.18,0-1.24,1.63-1.26,2Z" transform="translate(-0.7 -1.25)"/><path class="cls-3" d="M158.79,58.13c0-.86,0-1.49,0-1.88h.47c0,.17,0,.44,0,1a1.56,1.56,0,0,1,1.46-1.11v.51c-1,.07-1.46.88-1.46,1.87v3.2h-.48Z" transform="translate(-0.7 -1.25)"/><path class="cls-3" d="M163.75,60.22c.05.73.44,1.19,1.14,1.19A1,1,0,0,0,166,60.35c0-.69-.37-1-1.14-1.29-1-.41-1.37-.78-1.37-1.53a1.3,1.3,0,0,1,1.44-1.37,1.34,1.34,0,0,1,1.45,1.47h-.49a1,1,0,0,0-1-1,.83.83,0,0,0-.92.91c0,.51.19.76,1,1.09,1,.39,1.49.75,1.49,1.73a1.44,1.44,0,0,1-1.6,1.52,1.5,1.5,0,0,1-1.6-1.63Z" transform="translate(-0.7 -1.25)"/><path class="cls-3" d="M170.65,60.31c0,.62,0,1.19,0,1.44h-.45a4.6,4.6,0,0,1,0-.82,1.31,1.31,0,0,1-1.36.92c-.54,0-1.38-.18-1.38-1.64v-4h.5v3.83c0,.81.25,1.32,1,1.32s1.24-.44,1.24-1.84V56.25h.49Z" transform="translate(-0.7 -1.25)"/><path class="cls-3" d="M172.12,60.22c0,.73.44,1.19,1.14,1.19a1,1,0,0,0,1.07-1.06c0-.69-.37-1-1.13-1.29-1-.41-1.38-.78-1.38-1.53a1.31,1.31,0,0,1,1.44-1.37,1.34,1.34,0,0,1,1.45,1.47h-.49a.94.94,0,0,0-1-1,.83.83,0,0,0-.91.91c0,.51.18.76,1,1.09,1,.39,1.48.75,1.48,1.73a1.44,1.44,0,0,1-1.6,1.52,1.5,1.5,0,0,1-1.6-1.63Z" transform="translate(-0.7 -1.25)"/><path class="cls-3" d="M179,60.19a1.66,1.66,0,0,1-1.63,1.66c-1.34,0-1.73-1.28-1.73-2.85s.52-2.84,1.81-2.84A1.55,1.55,0,0,1,179,57.79h-.5c0-.23-.12-1.19-1-1.19s-1.31,1-1.31,2.39.38,2.42,1.26,2.42,1.05-.94,1.1-1.22Z" transform="translate(-0.7 -1.25)"/><path class="cls-3" d="M180.28,59c0,1.32.25,2.38,1.23,2.38a1.23,1.23,0,0,0,1.18-1.16h.49a1.69,1.69,0,0,1-1.67,1.6c-1.51,0-1.72-1.48-1.72-2.83,0-1.74.55-2.86,1.78-2.86s1.66,1.19,1.66,2.52c0,0,0,.18,0,.35Zm2.46-.43c0-1.22-.3-2-1.18-2-1.19,0-1.25,1.63-1.27,2Z" transform="translate(-0.7 -1.25)"/><path class="cls-3" d="M184.82,61.09V63.8h-.48V57.86c0-.76,0-1.27,0-1.61h.47c0,.08,0,.51,0,.83a1.34,1.34,0,0,1,1.36-.92c1.06,0,1.61,1,1.61,2.77s-.67,2.92-1.76,2.92A1.18,1.18,0,0,1,184.82,61.09ZM187.29,59c0-1.43-.35-2.34-1.19-2.34-1,0-1.3,1-1.3,2.4s.16,2.38,1.22,2.38C186.85,61.39,187.29,60.39,187.29,59Z" transform="translate(-0.7 -1.25)"/><path class="cls-3" d="M188.21,56.25H189V54.72h.47v1.53h1v.44h-1v4c0,.42.1.69.52.69a2.85,2.85,0,0,0,.44,0v.4a2,2,0,0,1-.56.08c-.5,0-.87-.23-.87-1V56.69h-.81Z" transform="translate(-0.7 -1.25)"/><path class="cls-3" d="M191.37,53.91h.48V55h-.48Zm0,2.34h.48v5.5h-.48Z" transform="translate(-0.7 -1.25)"/><path class="cls-3" d="M193.32,53.91h.48V57.1a1.35,1.35,0,0,1,1.37-.94c1,0,1.61.8,1.61,2.7,0,1.68-.47,3-1.75,3a1.2,1.2,0,0,1-1.24-.81,6.13,6.13,0,0,1,0,.72h-.44c0-.25,0-.73,0-1.49Zm3,5c0-1.59-.44-2.27-1.17-2.27-1,0-1.33,1-1.33,2.39s.24,2.38,1.23,2.38C195.83,61.38,196.28,60.57,196.28,58.88Z" transform="translate(-0.7 -1.25)"/><path class="cls-3" d="M197.89,61.75V53.91h.48v7.84Z" transform="translate(-0.7 -1.25)"/><path class="cls-3" d="M200,59c0,1.32.25,2.38,1.24,2.38s1.14-1,1.18-1.16h.49a1.71,1.71,0,0,1-1.67,1.6c-1.52,0-1.73-1.48-1.73-2.83,0-1.74.55-2.86,1.78-2.86S203,57.35,203,58.68c0,0,0,.18,0,.35Zm2.46-.43c0-1.22-.29-2-1.18-2-1.19,0-1.24,1.63-1.27,2Z" transform="translate(-0.7 -1.25)"/><path class="cls-3" d="M159.65,63.91V67a1.36,1.36,0,0,1,1.37-.85c.74,0,1.4.44,1.4,1.66v3.93h-.49V67.92c0-.76-.26-1.31-1-1.31s-1.25.75-1.25,1.87v3.27h-.49V63.91Z" transform="translate(-0.7 -1.25)"/><path class="cls-3" d="M167.09,68.92c0,1.9-.59,2.93-1.76,2.93s-1.79-1-1.79-2.92.69-2.77,1.8-2.77S167.09,67.07,167.09,68.92Zm-3.05,0c0,1.71.49,2.47,1.28,2.47s1.27-.78,1.27-2.49c0-1.53-.44-2.32-1.27-2.32S164,67.25,164,68.94Z" transform="translate(-0.7 -1.25)"/><path class="cls-3" d="M168.35,70.22a1.12,1.12,0,0,0,1.15,1.19,1,1,0,0,0,1.07-1.06c0-.69-.37-1-1.14-1.29-1-.41-1.37-.78-1.37-1.53a1.3,1.3,0,0,1,1.44-1.37A1.34,1.34,0,0,1,171,67.63h-.49a1,1,0,0,0-1-1,.83.83,0,0,0-.91.91c0,.51.19.76,1,1.09,1,.39,1.49.75,1.49,1.73a1.44,1.44,0,0,1-1.61,1.52,1.5,1.5,0,0,1-1.6-1.63Z" transform="translate(-0.7 -1.25)"/><path class="cls-3" d="M171.49,66.25h.81V64.72h.47v1.53h1v.44h-1v4c0,.42.1.69.53.69a2.94,2.94,0,0,0,.44,0v.4a2.12,2.12,0,0,1-.57.08c-.49,0-.87-.23-.87-1V66.69h-.81Z" transform="translate(-0.7 -1.25)"/><path class="cls-3" d="M174.82,70.22c.05.73.44,1.19,1.14,1.19A1,1,0,0,0,177,70.35c0-.69-.37-1-1.13-1.29-1-.41-1.38-.78-1.38-1.53A1.31,1.31,0,0,1,176,66.16a1.34,1.34,0,0,1,1.45,1.47h-.49a.94.94,0,0,0-1-1,.83.83,0,0,0-.91.91c0,.51.18.76,1,1.09s1.49.75,1.49,1.73a1.44,1.44,0,0,1-1.61,1.52,1.5,1.5,0,0,1-1.6-1.63Z" transform="translate(-0.7 -1.25)"/><line class="cls-4" x1="151.19" y1="50.62" x2="140.6" y2="45.7"/><polygon class="cls-3" points="138.04 44.51 142.34 44.71 140.79 45.79 140.96 47.66 138.04 44.51"/><path class="cls-5" d="M153.38,73.47a5.62,5.62,0,0,0-1,3.37,5.94,5.94,0,0,0,1,3.46H153a6,6,0,0,1-1-3.47,5.91,5.91,0,0,1,1-3.36Z" transform="translate(-0.7 -1.25)"/><path class="cls-5" d="M156.29,78.06a1.21,1.21,0,0,1-1.18,1.21c-1,0-1.26-.93-1.26-2.08s.38-2.06,1.32-2.06a1.12,1.12,0,0,1,1.12,1.19h-.36c0-.17-.09-.87-.76-.87s-1,.75-1,1.74.28,1.75.92,1.75.77-.68.8-.88Z" transform="translate(-0.7 -1.25)"/><path class="cls-5" d="M157.24,77.22c0,1,.18,1.73.9,1.73s.83-.73.85-.85h.36a1.24,1.24,0,0,1-1.21,1.17c-1.1,0-1.26-1.08-1.26-2.06,0-1.26.4-2.08,1.3-2.08s1.2.86,1.2,1.83c0,0,0,.14,0,.26ZM159,76.9c0-.88-.21-1.45-.85-1.45-.87,0-.91,1.19-.92,1.45Z" transform="translate(-0.7 -1.25)"/><path class="cls-5" d="M160.19,79.2V73.5h.35v5.7Z" transform="translate(-0.7 -1.25)"/><path class="cls-5" d="M161.6,79.2V73.5H162v5.7Z" transform="translate(-0.7 -1.25)"/><path class="cls-5" d="M164.91,75.19v4.37c0,.68-.09,1.19-.74,1.19l-.19,0v-.32h.18c.34,0,.4-.23.4-.74V75.19Zm-.33-.92V73.5h.35v.77Z" transform="translate(-0.7 -1.25)"/><path class="cls-5" d="M165.55,80.14a5.78,5.78,0,0,0,.42-1.83h.34a4.68,4.68,0,0,1-.46,1.83Z" transform="translate(-0.7 -1.25)"/><path class="cls-5" d="M168,75.19h.59V74.08H169v1.11h.74v.33H169v2.91c0,.3.07.5.38.5l.32,0v.28a1.19,1.19,0,0,1-.42.06c-.35,0-.63-.16-.63-.73v-3H168Z" transform="translate(-0.7 -1.25)"/><path class="cls-5" d="M170.34,73.5h.35v.77h-.35Zm0,1.69h.35v4h-.35Z" transform="translate(-0.7 -1.25)"/><path class="cls-5" d="M171.73,76.39c0-.65,0-1,0-1.2h.34a5,5,0,0,1,0,.58.91.91,0,0,1,.9-.64.78.78,0,0,1,.84.63,1,1,0,0,1,1-.63c.45,0,.94.21.94,1.14V79.2h-.35V76.34c0-.46-.13-.88-.66-.88s-.81.56-.81,1.13V79.2h-.35V76.36c0-.58-.19-.9-.64-.9s-.83.55-.83,1.21V79.2h-.35Z" transform="translate(-0.7 -1.25)"/><path class="cls-5" d="M176.91,77.22c0,1,.18,1.73.9,1.73s.83-.73.85-.85H179a1.24,1.24,0,0,1-1.21,1.17c-1.1,0-1.26-1.08-1.26-2.06,0-1.26.41-2.08,1.3-2.08s1.2.86,1.2,1.83c0,0,0,.14,0,.26Zm1.79-.32c0-.88-.22-1.45-.86-1.45-.87,0-.91,1.19-.92,1.45Z" transform="translate(-0.7 -1.25)"/><path class="cls-5" d="M180.89,75.19h.59V74.08h.34v1.11h.75v.33h-.75v2.91c0,.3.07.5.39.5l.31,0v.28a1.1,1.1,0,0,1-.41.06c-.36,0-.63-.16-.63-.73v-3h-.59Z" transform="translate(-0.7 -1.25)"/><path class="cls-5" d="M183,80.3a5.62,5.62,0,0,0,1-3.37,5.94,5.94,0,0,0-1-3.46h.37a6,6,0,0,1,1,3.47,5.83,5.83,0,0,1-1,3.36Z" transform="translate(-0.7 -1.25)"/><path class="cls-3" d="M70.43,90.47c0,.39,0,.7,0,.82H70a3.31,3.31,0,0,1-.06-.7,1.3,1.3,0,0,1-1.34.8,1.39,1.39,0,0,1-1.42-1.56c0-.93.62-1.74,2.09-1.74a4,4,0,0,1,.66,0V87.3c0-.51-.11-1.16-1-1.16s-1,.73-1.07,1.1h-.48A1.43,1.43,0,0,1,69,85.7c1,0,1.44.51,1.44,1.5ZM70,88.56a3.14,3.14,0,0,0-.63,0c-1.15,0-1.64.56-1.64,1.28a1,1,0,0,0,1,1.15c.91,0,1.27-.63,1.27-2Z" transform="translate(-0.7 -1.25)"/><path class="cls-3" d="M71.86,91.29V83.45h.48v7.84Z" transform="translate(-0.7 -1.25)"/><path class="cls-3" d="M73.8,91.29V83.45h.48v7.84Z" transform="translate(-0.7 -1.25)"/><path class="cls-3" d="M78.33,90.64v2.7h-.49V87.4c0-.76,0-1.27,0-1.61h.47c0,.09,0,.51,0,.83a1.32,1.32,0,0,1,1.36-.92c1,0,1.6,1,1.6,2.77s-.67,2.92-1.76,2.92A1.17,1.17,0,0,1,78.33,90.64Zm2.46-2.15c0-1.42-.35-2.34-1.19-2.34s-1.3.95-1.3,2.4.17,2.39,1.23,2.39C80.36,90.94,80.79,89.93,80.79,88.49Z" transform="translate(-0.7 -1.25)"/><path class="cls-3" d="M85.73,88.46c0,1.9-.6,2.93-1.77,2.93s-1.79-1-1.79-2.92.69-2.77,1.8-2.77S85.73,86.61,85.73,88.46Zm-3.06,0c0,1.71.49,2.47,1.28,2.47s1.27-.78,1.27-2.49c0-1.53-.44-2.32-1.27-2.32S82.67,86.79,82.67,88.48Z" transform="translate(-0.7 -1.25)"/><path class="cls-3" d="M86.13,85.79h.81V84.26h.47v1.53h1v.44h-1v4c0,.41.1.68.53.68a2.94,2.94,0,0,0,.44,0v.4a1.79,1.79,0,0,1-.57.08c-.49,0-.87-.22-.87-1V86.23h-.81Z" transform="translate(-0.7 -1.25)"/><path class="cls-3" d="M89.38,88.57c0,1.33.25,2.38,1.23,2.38a1.23,1.23,0,0,0,1.18-1.16h.49a1.69,1.69,0,0,1-1.67,1.6c-1.51,0-1.72-1.48-1.72-2.83,0-1.74.55-2.86,1.78-2.86s1.66,1.19,1.66,2.52c0,0,0,.18,0,.35Zm2.46-.43c0-1.22-.3-2-1.18-2-1.19,0-1.25,1.63-1.27,2Z" transform="translate(-0.7 -1.25)"/><path class="cls-3" d="M93.44,87.48c0-1.12,0-1.46,0-1.69h.47c0,.13,0,.34,0,.82a1.35,1.35,0,0,1,1.37-.91c.73,0,1.42.38,1.42,1.67v3.92h-.5V87.44c0-.75-.29-1.29-1-1.29-.92,0-1.29.63-1.29,1.95v3.19h-.49Z" transform="translate(-0.7 -1.25)"/><path class="cls-3" d="M97.39,85.79h.82V84.26h.47v1.53h1v.44h-1v4c0,.41.09.68.52.68a2.94,2.94,0,0,0,.44,0v.4a1.79,1.79,0,0,1-.57.08c-.49,0-.86-.22-.86-1V86.23h-.82Z" transform="translate(-0.7 -1.25)"/><path class="cls-3" d="M100.56,83.45H101v1.06h-.48Zm0,2.34H101v5.5h-.48Z" transform="translate(-0.7 -1.25)"/><path class="cls-3" d="M105.34,90.47c0,.39,0,.7,0,.82h-.44a4.14,4.14,0,0,1-.06-.7,1.29,1.29,0,0,1-1.34.8,1.4,1.4,0,0,1-1.42-1.56c0-.93.62-1.74,2.1-1.74a3.91,3.91,0,0,1,.65,0V87.3c0-.51-.11-1.16-1-1.16s-1,.73-1.07,1.1h-.48a1.43,1.43,0,0,1,1.56-1.54c1,0,1.44.51,1.44,1.5Zm-.46-1.91a3.08,3.08,0,0,0-.63,0c-1.15,0-1.64.56-1.64,1.28a1,1,0,0,0,1,1.15c.91,0,1.26-.63,1.26-2Z" transform="translate(-0.7 -1.25)"/><path class="cls-3" d="M106.77,91.29V83.45h.48v7.84Z" transform="translate(-0.7 -1.25)"/><path class="cls-3" d="M111.32,83.45v3.1a1.36,1.36,0,0,1,1.38-.85c.74,0,1.39.44,1.39,1.66v3.93h-.49V87.46c0-.76-.26-1.31-1-1.31s-1.26.75-1.26,1.87v3.27h-.49V83.45Z" transform="translate(-0.7 -1.25)"/><path class="cls-3" d="M118.77,88.46c0,1.9-.6,2.93-1.77,2.93s-1.79-1-1.79-2.92.7-2.77,1.8-2.77S118.77,86.61,118.77,88.46Zm-3.06,0c0,1.71.49,2.47,1.28,2.47s1.28-.78,1.28-2.49c0-1.53-.45-2.32-1.28-2.32S115.71,86.79,115.71,88.48Z" transform="translate(-0.7 -1.25)"/><path class="cls-3" d="M120,89.76c0,.73.44,1.19,1.14,1.19a1,1,0,0,0,1.07-1.06c0-.69-.37-1-1.14-1.29-1-.41-1.37-.78-1.37-1.53a1.3,1.3,0,0,1,1.44-1.37,1.34,1.34,0,0,1,1.45,1.47h-.49a1,1,0,0,0-1-1,.83.83,0,0,0-.92.91c0,.51.19.76,1,1.09,1,.39,1.49.75,1.49,1.73a1.43,1.43,0,0,1-1.6,1.52,1.5,1.5,0,0,1-1.6-1.63Z" transform="translate(-0.7 -1.25)"/><path class="cls-3" d="M123.17,85.79H124V84.26h.47v1.53h1v.44h-1v4c0,.41.1.68.53.68a2.81,2.81,0,0,0,.43,0v.4a1.73,1.73,0,0,1-.56.08c-.5,0-.87-.22-.87-1V86.23h-.81Z" transform="translate(-0.7 -1.25)"/><path class="cls-3" d="M126.49,89.76c.06.73.45,1.19,1.15,1.19a1,1,0,0,0,1.07-1.06c0-.69-.37-1-1.14-1.29-1-.41-1.37-.78-1.37-1.53a1.3,1.3,0,0,1,1.44-1.37,1.34,1.34,0,0,1,1.45,1.47h-.49a1,1,0,0,0-1-1,.83.83,0,0,0-.92.91c0,.51.19.76,1,1.09,1,.39,1.49.75,1.49,1.73a1.44,1.44,0,0,1-1.6,1.52A1.51,1.51,0,0,1,126,89.76Z" transform="translate(-0.7 -1.25)"/><line class="cls-4" x1="97.31" y1="79.61" x2="97.31" y2="69.99"/><polygon class="cls-3" points="97.31 67.16 98.94 71.14 97.31 70.2 95.69 71.14 97.31 67.16"/><path class="cls-5" d="M83.39,93a5.69,5.69,0,0,0-1,3.37,6,6,0,0,0,1,3.46H83a6,6,0,0,1-1-3.47A5.83,5.83,0,0,1,83,93Z" transform="translate(-0.7 -1.25)"/><path class="cls-5" d="M86.31,97.6c0,.14-.11,1.21-1.18,1.21s-1.26-.93-1.26-2.07.37-2.07,1.31-2.07a1.13,1.13,0,0,1,1.13,1.19h-.37c0-.17-.08-.87-.76-.87s-1,.75-1,1.74.28,1.76.91,1.76.77-.69.8-.89Z" transform="translate(-0.7 -1.25)"/><path class="cls-5" d="M87.25,96.76c0,1,.19,1.73.9,1.73s.83-.73.86-.84h.36a1.24,1.24,0,0,1-1.22,1.16c-1.1,0-1.25-1.07-1.25-2.06,0-1.26.4-2.08,1.29-2.08s1.21.87,1.21,1.84c0,0,0,.13,0,.25ZM89,96.45c0-.89-.21-1.46-.86-1.46-.86,0-.9,1.19-.92,1.46Z" transform="translate(-0.7 -1.25)"/><path class="cls-5" d="M90.21,98.74V93h.35v5.7Z" transform="translate(-0.7 -1.25)"/><path class="cls-5" d="M91.62,98.74V93H92v5.7Z" transform="translate(-0.7 -1.25)"/><path class="cls-5" d="M94.93,94.74v4.37c0,.67-.09,1.18-.75,1.18l-.19,0V100h.18c.34,0,.41-.23.41-.74V94.74Zm-.34-.93V93h.35v.77Z" transform="translate(-0.7 -1.25)"/><path class="cls-5" d="M95.56,99.69A5.58,5.58,0,0,0,96,97.85h.35a4.78,4.78,0,0,1-.46,1.84Z" transform="translate(-0.7 -1.25)"/><path class="cls-5" d="M98.06,94.74h.59V93.63H99v1.11h.75v.32H99V98c0,.3.07.5.38.5l.32,0v.29a1.36,1.36,0,0,1-.41.05c-.36,0-.63-.16-.63-.73v-3h-.59Z" transform="translate(-0.7 -1.25)"/><path class="cls-5" d="M100.36,93h.35v.77h-.35Zm0,1.7h.35v4h-.35Z" transform="translate(-0.7 -1.25)"/><path class="cls-5" d="M101.74,95.94v-1.2h.34c0,.14,0,.35,0,.58a.92.92,0,0,1,.91-.65.78.78,0,0,1,.84.63,1,1,0,0,1,1-.63c.45,0,.94.21.94,1.14v2.93h-.35V95.88c0-.46-.13-.88-.66-.88s-.81.56-.81,1.13v2.61h-.35V95.9c0-.58-.19-.9-.64-.9s-.84.56-.84,1.21v2.53h-.35Z" transform="translate(-0.7 -1.25)"/><path class="cls-5" d="M106.93,96.76c0,1,.18,1.73.89,1.73a.89.89,0,0,0,.86-.84H109a1.24,1.24,0,0,1-1.22,1.16c-1.1,0-1.25-1.07-1.25-2.06,0-1.26.4-2.08,1.29-2.08s1.21.87,1.21,1.84c0,0,0,.13,0,.25Zm1.78-.31c0-.89-.21-1.46-.86-1.46-.86,0-.9,1.19-.92,1.46Z" transform="translate(-0.7 -1.25)"/><path class="cls-5" d="M110.91,94.74h.59V93.63h.34v1.11h.75v.32h-.75V98c0,.3.07.5.38.5l.32,0v.29a1.36,1.36,0,0,1-.41.05c-.36,0-.63-.16-.63-.73v-3h-.59Z" transform="translate(-0.7 -1.25)"/><path class="cls-5" d="M113,99.84a5.69,5.69,0,0,0,1-3.37A6,6,0,0,0,113,93h.37a6,6,0,0,1,1,3.47,5.83,5.83,0,0,1-1,3.36Z" transform="translate(-0.7 -1.25)"/></g><g id="Layer_36" data-name="Layer 36"><text class="cls-1" transform="translate(59.78 39.15)">X<tspan class="cls-6" x="10.69" y="4.01">j</tspan><tspan class="cls-7" x="13.66" y="4.01">t</tspan><tspan x="20.04" y="0">P</tspan><tspan class="cls-2" x="30.73" y="4.01">j</tspan><tspan class="cls-8" x="33.69" y="4.01">t</tspan><tspan x="40.07" y="0">T</tspan><tspan class="cls-2" x="49.86" y="4.01">j</tspan><tspan class="cls-7" x="52.83" y="4.01">t</tspan><tspan class="cls-9" x="59.21" y="0">S</tspan><tspan class="cls-2" x="69.9" y="4.01">jt</tspan></text><line class="cls-10" x1="62.4" y1="47.28" x2="133.24" y2="47.28"/></g><g id="Overall_Infection" data-name="Overall Infection"><path class="cls-11" d="M133.45,18.22h0c0-2-4-3.58-9-3.58H106.83c-5,0-9.06-1.6-9.06-3.57v-.19h0v.19c0,2-4,3.57-9,3.57H71.14c-5,0-9,1.6-9,3.58h0" transform="translate(-0.7 -1.25)"/><path class="cls-3" d="M69.58,5.68h-3.5V7.76h3.85l-.16,1.12h-5V1.67h5V2.79H66.08V4.56h3.5Z" transform="translate(-0.7 -1.25)"/><path class="cls-3" d="M71.87,7.3A1,1,0,0,0,73,8.05c.63,0,.87-.24.87-.62s-.24-.57-1.09-.78c-1.68-.41-2-.92-2-1.67s.56-1.59,2.1-1.59S75,4.25,75,5H73.8c-.06-.25-.24-.66-1-.66-.58,0-.76.26-.76.54s.19.47,1.1.68c1.73.41,2,1,2,1.79S74.47,9,72.93,9s-2.22-.76-2.34-1.71Z" transform="translate(-0.7 -1.25)"/><path class="cls-3" d="M75.59,3.52h.86V2h1.3v1.5h1.09v1H77.75V7.33c0,.44.12.64.58.64a1.71,1.71,0,0,0,.38,0v.92a3.24,3.24,0,0,1-.93.1c-1,0-1.33-.52-1.33-1.44v-3h-.86Z" transform="translate(-0.7 -1.25)"/><path class="cls-3" d="M84,7.57a8.8,8.8,0,0,0,.08,1.31H82.88a1.84,1.84,0,0,1-.08-.58A1.62,1.62,0,0,1,81.24,9a1.64,1.64,0,0,1-1.83-1.67c0-1.21,1-1.77,2.55-1.77h.81V5.2c0-.41-.14-.86-.93-.86s-.86.33-.94.73H79.66c.08-.88.62-1.68,2.22-1.68C83.28,3.4,84,4,84,5.21ZM82.78,6.38h-.7c-1,0-1.36.28-1.36.88a.77.77,0,0,0,.86.8c1.06,0,1.2-.73,1.2-1.53Z" transform="translate(-0.7 -1.25)"/><path class="cls-3" d="M85.48,1.25h1.29v2.9a1.71,1.71,0,0,1,1.6-.76c1.42,0,2.19,1.18,2.19,2.71S89.76,9,88.23,9a1.5,1.5,0,0,1-1.47-.7,4,4,0,0,1-.05.57H85.47c0-.58,0-1.18,0-1.77Zm3.76,4.88c0-1-.4-1.68-1.24-1.68s-1.29.62-1.29,1.78C86.71,7.2,87,8,88,8S89.24,7.24,89.24,6.13Z" transform="translate(-0.7 -1.25)"/><path class="cls-3" d="M91.65,8.88V1.25h1.29V8.88Z" transform="translate(-0.7 -1.25)"/><path class="cls-3" d="M94.36,1.25h1.3V2.52h-1.3Zm0,2.27h1.3V8.88h-1.3Z" transform="translate(-0.7 -1.25)"/><path class="cls-3" d="M97.9,7.3A1,1,0,0,0,99,8.05c.63,0,.86-.24.86-.62s-.23-.57-1.09-.78c-1.67-.41-2-.92-2-1.67s.56-1.59,2.09-1.59,2.11.86,2.16,1.6H99.83c-.06-.25-.23-.66-1-.66-.58,0-.76.26-.76.54s.18.47,1.09.68c1.74.41,2,1,2,1.79S100.5,9,99,9s-2.22-.76-2.35-1.71Z" transform="translate(-0.7 -1.25)"/><path class="cls-3" d="M103.49,1.25v3a1.73,1.73,0,0,1,1.58-.82c1,0,1.8.55,1.8,2.06V8.88h-1.29V5.65c0-.77-.29-1.19-1-1.19-.87,0-1.12.62-1.12,1.55V8.88h-1.3V1.25Z" transform="translate(-0.7 -1.25)"/><path class="cls-3" d="M108.29,4.9c0-.46,0-.93,0-1.38h1.24c0,.14,0,.47,0,.7a1.66,1.66,0,0,1,1.51-.83,1.43,1.43,0,0,1,1.42.87,1.85,1.85,0,0,1,1.67-.87c.92,0,1.7.56,1.7,2V8.88H114.6V5.52c0-.53-.19-1.07-.88-1.07s-1,.5-1,1.36V8.88h-1.27V5.57c0-.6-.16-1.11-.86-1.11s-1,.48-1,1.44v3h-1.28Z" transform="translate(-0.7 -1.25)"/><path class="cls-3" d="M118.27,6.47c0,.81.41,1.51,1.2,1.51a1,1,0,0,0,1.06-.66h1.3A2.3,2.3,0,0,1,119.44,9,2.46,2.46,0,0,1,117,6.27c0-1.65.84-2.88,2.53-2.88A2.34,2.34,0,0,1,121.9,6c0,.17,0,.3,0,.45Zm2.33-.83c0-.71-.32-1.3-1.11-1.3s-1.12.55-1.19,1.3Z" transform="translate(-0.7 -1.25)"/><path class="cls-3" d="M123,4.87c0-.46,0-1,0-1.35h1.26c0,.14,0,.58,0,.75a1.65,1.65,0,0,1,1.6-.88c1,0,1.78.69,1.78,2.07V8.88h-1.3V5.61c0-.68-.24-1.15-.95-1.15S124.3,5,124.3,5.94V8.88H123Z" transform="translate(-0.7 -1.25)"/><path class="cls-3" d="M128.42,3.52h.86V2h1.3v1.5h1.09v1h-1.09V7.33c0,.44.12.64.58.64a1.71,1.71,0,0,0,.38,0v.92a3.24,3.24,0,0,1-.93.1c-1,0-1.33-.52-1.33-1.44v-3h-.86Z" transform="translate(-0.7 -1.25)"/></g></g></svg>