<svg xmlns="http://www.w3.org/2000/svg" xmlns:xlink="http://www.w3.org/1999/xlink" viewBox="0 0 170.23 121.59"><defs><style>.cls-1,.cls-4{fill:none;}.cls-2{fill:#fff685;}.cls-3{fill:#ed1c24;}.cls-10,.cls-11,.cls-12,.cls-13,.cls-14,.cls-15,.cls-16,.cls-17,.cls-18,.cls-19,.cls-20,.cls-21,.cls-22,.cls-23,.cls-24,.cls-25,.cls-26,.cls-27,.cls-28,.cls-29,.cls-30,.cls-31,.cls-32,.cls-33,.cls-34,.cls-35,.cls-36,.cls-37,.cls-38,.cls-39,.cls-4,.cls-40,.cls-41,.cls-42,.cls-43,.cls-44,.cls-45,.cls-46,.cls-47,.cls-48,.cls-9{stroke:#fff;}.cls-10,.cls-11,.cls-12,.cls-13,.cls-14,.cls-15,.cls-16,.cls-17,.cls-18,.cls-19,.cls-20,.cls-21,.cls-22,.cls-23,.cls-24,.cls-25,.cls-26,.cls-27,.cls-28,.cls-29,.cls-30,.cls-31,.cls-32,.cls-33,.cls-34,.cls-35,.cls-36,.cls-37,.cls-38,.cls-39,.cls-4,.cls-40,.cls-41,.cls-42,.cls-43,.cls-44,.cls-45,.cls-46,.cls-47,.cls-48,.cls-52,.cls-53,.cls-54,.cls-55,.cls-9{stroke-miterlimit:10;}.cls-5,.cls-6{fill:#fff;}.cls-6{font-size:13px;font-family:Arial-ItalicMT, Arial;font-style:italic;}.cls-7{font-size:11px;font-family:ArialMT, Arial;font-style:normal;}.cls-8{fill:#e6e7e8;}.cls-10,.cls-11,.cls-12,.cls-13,.cls-14,.cls-15,.cls-16,.cls-17,.cls-18,.cls-19,.cls-20,.cls-21,.cls-22,.cls-23,.cls-24,.cls-25,.cls-26,.cls-27,.cls-28,.cls-29,.cls-30,.cls-31,.cls-32,.cls-33,.cls-34,.cls-35,.cls-36,.cls-37,.cls-38,.cls-39,.cls-40,.cls-41,.cls-42,.cls-43,.cls-44,.cls-45,.cls-46,.cls-47,.cls-48,.cls-9{stroke-width:0.82px;}.cls-9{fill:url(#radial-gradient);}.cls-10,.cls-11,.cls-12,.cls-13,.cls-14,.cls-15,.cls-18,.cls-19,.cls-20,.cls-21,.cls-22,.cls-23,.cls-26,.cls-27,.cls-28,.cls-29,.cls-30,.cls-31,.cls-34,.cls-35,.cls-36,.cls-37,.cls-38,.cls-39,.cls-42,.cls-43,.cls-44,.cls-45,.cls-46,.cls-47{stroke-linecap:round;}.cls-10{fill:url(#radial-gradient-2);}.cls-11{fill:url(#radial-gradient-3);}.cls-12{fill:url(#radial-gradient-4);}.cls-13{fill:url(#radial-gradient-5);}.cls-14{fill:url(#radial-gradient-6);}.cls-15{fill:url(#radial-gradient-7);}.cls-16{fill:url(#radial-gradient-8);}.cls-17{fill:url(#radial-gradient-9);}.cls-18{fill:url(#radial-gradient-10);}.cls-19{fill:url(#radial-gradient-11);}.cls-20{fill:url(#radial-gradient-12);}.cls-21{fill:url(#radial-gradient-13);}.cls-22{fill:url(#radial-gradient-14);}.cls-23{fill:url(#radial-gradient-15);}.cls-24{fill:url(#radial-gradient-16);}.cls-25{fill:url(#radial-gradient-17);}.cls-26{fill:url(#radial-gradient-18);}.cls-27{fill:url(#radial-gradient-19);}.cls-28{fill:url(#radial-gradient-20);}.cls-29{fill:url(#radial-gradient-21);}.cls-30{fill:url(#radial-gradient-22);}.cls-31{fill:url(#radial-gradient-23);}.cls-32{fill:url(#radial-gradient-24);}.cls-33{fill:url(#radial-gradient-25);}.cls-34{fill:url(#radial-gradient-26);}.cls-35{fill:url(#radial-gradient-27);}.cls-36{fill:url(#radial-gradient-28);}.cls-37{fill:url(#radial-gradient-29);}.cls-38{fill:url(#radial-gradient-30);}.cls-39{fill:url(#radial-gradient-31);}.cls-40{fill:url(#radial-gradient-32);}.cls-41{fill:url(#radial-gradient-33);}.cls-42{fill:url(#radial-gradient-34);}.cls-43{fill:url(#radial-gradient-35);}.cls-44{fill:url(#radial-gradient-36);}.cls-45{fill:url(#radial-gradient-37);}.cls-46{fill:url(#radial-gradient-38);}.cls-47{fill:url(#radial-gradient-39);}.cls-48{fill:url(#radial-gradient-40);}.cls-49{fill:#d1bf76;}.cls-50{fill:#815a64;}.cls-51{fill:#4f5076;}.cls-52{fill:#fffffd;}.cls-52,.cls-53,.cls-54,.cls-55{stroke:#010101;}.cls-52,.cls-54{stroke-width:0.7px;}.cls-53{stroke-width:0.2px;fill:url(#New_Pattern_Swatch_3);}.cls-54,.cls-55{fill:#5c4024;}.cls-55{stroke-width:0.35px;}</style><radialGradient id="radial-gradient" cx="-406.09" cy="1129.92" r="1.98" gradientTransform="matrix(-0.22, 0.98, 0.98, 0.22, -1046.34, 244.1)" gradientUnits="userSpaceOnUse"><stop offset="0" stop-color="#ffde17"/><stop offset="0" stop-color="#ffdd17"/><stop offset="0.15" stop-color="#faa31b"/><stop offset="0.29" stop-color="#f5731e"/><stop offset="0.42" stop-color="#f24d21"/><stop offset="0.55" stop-color="#ef3223"/><stop offset="0.66" stop-color="#ee2224"/><stop offset="0.74" stop-color="#ed1c24"/></radialGradient><radialGradient id="radial-gradient-2" cx="143.52" cy="97.37" r="1.23" gradientTransform="matrix(1, 0, 0, 1, 0, 0)" xlink:href="#radial-gradient"/><radialGradient id="radial-gradient-3" cx="137.43" cy="98.09" r="1.27" gradientTransform="matrix(1, 0, 0, 1, 0, 0)" xlink:href="#radial-gradient"/><radialGradient id="radial-gradient-4" cx="133.93" cy="94.98" r="1.14" gradientTransform="matrix(1, 0, 0, 1, 0, 0)" xlink:href="#radial-gradient"/><radialGradient id="radial-gradient-5" cx="135.62" cy="87.31" r="1.13" gradientTransform="matrix(1, 0, 0, 1, 0, 0)" xlink:href="#radial-gradient"/><radialGradient id="radial-gradient-6" cx="140.19" cy="85.89" r="1.28" gradientTransform="matrix(1, 0, 0, 1, 0, 0)" xlink:href="#radial-gradient"/><radialGradient id="radial-gradient-7" cx="145.38" cy="88.98" r="1.24" gradientTransform="matrix(1, 0, 0, 1, 0, 0)" xlink:href="#radial-gradient"/><radialGradient id="radial-gradient-8" cx="-406.26" cy="1124.49" r="4.83" xlink:href="#radial-gradient"/><radialGradient id="radial-gradient-9" cx="-61.74" cy="1329.74" r="1.98" gradientTransform="matrix(0.41, 0.91, 0.91, -0.41, -1041.51, 660.79)" xlink:href="#radial-gradient"/><radialGradient id="radial-gradient-10" cx="147.31" cy="63.51" r="1.25" gradientTransform="matrix(1, 0, 0, 1, 0, 0)" xlink:href="#radial-gradient"/><radialGradient id="radial-gradient-11" cx="143.01" cy="67.51" r="1.29" gradientTransform="matrix(1, 0, 0, 1, 0, 0)" xlink:href="#radial-gradient"/><radialGradient id="radial-gradient-12" cx="138.14" cy="67.04" r="1.14" gradientTransform="matrix(1, 0, 0, 1, 0, 0)" xlink:href="#radial-gradient"/><radialGradient id="radial-gradient-13" cx="134.95" cy="59.85" r="1.15" gradientTransform="matrix(1, 0, 0, 1, 0, 0)" xlink:href="#radial-gradient"/><radialGradient id="radial-gradient-14" cx="137.74" cy="56.05" r="1.29" gradientTransform="matrix(1, 0, 0, 1, 0, 0)" xlink:href="#radial-gradient"/><radialGradient id="radial-gradient-15" cx="143.77" cy="55.52" r="1.24" gradientTransform="matrix(1, 0, 0, 1, 0, 0)" xlink:href="#radial-gradient"/><radialGradient id="radial-gradient-16" cx="-61.91" cy="1324.31" r="4.83" gradientTransform="matrix(0.41, 0.91, 0.91, -0.41, -1041.51, 660.79)" xlink:href="#radial-gradient"/><radialGradient id="radial-gradient-17" cx="294.83" cy="127.66" r="1.98" gradientTransform="matrix(0.54, -0.84, -0.84, -0.54, -29.73, 373.88)" xlink:href="#radial-gradient"/><radialGradient id="radial-gradient-18" cx="25.29" cy="53.73" r="1.25" gradientTransform="matrix(1, 0, 0, 1, 0, 0)" xlink:href="#radial-gradient"/><radialGradient id="radial-gradient-19" cx="31.17" cy="55.04" r="1.3" gradientTransform="matrix(1, 0, 0, 1, 0, 0)" xlink:href="#radial-gradient"/><radialGradient id="radial-gradient-20" cx="33.35" cy="59.32" r="1.15" gradientTransform="matrix(1, 0, 0, 1, 0, 0)" xlink:href="#radial-gradient"/><radialGradient id="radial-gradient-21" cx="29.14" cy="65.91" r="1.14" gradientTransform="matrix(1, 0, 0, 1, 0, 0)" xlink:href="#radial-gradient"/><radialGradient id="radial-gradient-22" cx="24.14" cy="65.67" r="1.29" gradientTransform="matrix(1, 0, 0, 1, 0, 0)" xlink:href="#radial-gradient"/><radialGradient id="radial-gradient-23" cx="20.59" cy="61.17" r="1.25" gradientTransform="matrix(1, 0, 0, 1, 0, 0)" xlink:href="#radial-gradient"/><radialGradient id="radial-gradient-24" cx="294.66" cy="122.23" r="4.83" gradientTransform="matrix(0.54, -0.84, -0.84, -0.54, -29.73, 373.88)" xlink:href="#radial-gradient"/><radialGradient id="radial-gradient-25" cx="76.5" cy="-21.22" r="1.98" gradientTransform="matrix(0.2, -0.98, -0.98, -0.2, -28.33, 149.25)" xlink:href="#radial-gradient"/><radialGradient id="radial-gradient-26" cx="8.73" cy="74.51" r="1.23" gradientTransform="matrix(1, 0, 0, 1, 0, 0)" xlink:href="#radial-gradient"/><radialGradient id="radial-gradient-27" cx="14.8" cy="73.65" r="1.27" gradientTransform="matrix(1, 0, 0, 1, 0, 0)" xlink:href="#radial-gradient"/><radialGradient id="radial-gradient-28" cx="18.37" cy="76.71" r="1.14" gradientTransform="matrix(1, 0, 0, 1, 0, 0)" xlink:href="#radial-gradient"/><radialGradient id="radial-gradient-29" cx="16.85" cy="84.39" r="1.13" gradientTransform="matrix(1, 0, 0, 1, 0, 0)" xlink:href="#radial-gradient"/><radialGradient id="radial-gradient-30" cx="12.32" cy="85.9" r="1.27" gradientTransform="matrix(1, 0, 0, 1, 0, 0)" xlink:href="#radial-gradient"/><radialGradient id="radial-gradient-31" cx="7.05" cy="82.92" r="1.24" gradientTransform="matrix(1, 0, 0, 1, 0, 0)" xlink:href="#radial-gradient"/><radialGradient id="radial-gradient-32" cx="76.33" cy="-26.65" r="4.83" gradientTransform="matrix(0.2, -0.98, -0.98, -0.2, -28.33, 149.25)" xlink:href="#radial-gradient"/><radialGradient id="radial-gradient-33" cx="-201.6" cy="-115.74" r="1.98" gradientTransform="matrix(-0.22, -0.98, -0.98, 0.22, -136.02, -70.02)" xlink:href="#radial-gradient"/><radialGradient id="radial-gradient-34" cx="20.53" cy="97.3" r="1.24" gradientTransform="matrix(1, 0, 0, 1, 0, 0)" xlink:href="#radial-gradient"/><radialGradient id="radial-gradient-35" cx="25.7" cy="94.13" r="1.28" gradientTransform="matrix(1, 0, 0, 1, 0, 0)" xlink:href="#radial-gradient"/><radialGradient id="radial-gradient-36" cx="30.28" cy="95.55" r="1.13" gradientTransform="matrix(1, 0, 0, 1, 0, 0)" xlink:href="#radial-gradient"/><radialGradient id="radial-gradient-37" cx="31.97" cy="103.21" r="1.14" gradientTransform="matrix(1, 0, 0, 1, 0, 0)" xlink:href="#radial-gradient"/><radialGradient id="radial-gradient-38" cx="28.47" cy="106.33" r="1.27" gradientTransform="matrix(1, 0, 0, 1, 0, 0)" xlink:href="#radial-gradient"/><radialGradient id="radial-gradient-39" cx="22.41" cy="105.69" r="1.23" gradientTransform="matrix(1, 0, 0, 1, 0, 0)" xlink:href="#radial-gradient"/><radialGradient id="radial-gradient-40" cx="-201.77" cy="-121.17" r="4.83" gradientTransform="matrix(-0.22, -0.98, -0.98, 0.22, -136.02, -70.02)" xlink:href="#radial-gradient"/><pattern id="New_Pattern_Swatch_3" data-name="New Pattern Swatch 3" width="10.1" height="10.1" patternTransform="translate(47.91 133.44) scale(1.04)" patternUnits="userSpaceOnUse" viewBox="0 0 10.1 10.1"><rect class="cls-1" width="10.1" height="10.1"/><rect class="cls-2" width="10.1" height="10.1"/><circle class="cls-3" cx="2.14" cy="2.59" r="1.55"/><circle class="cls-3" cx="5.89" cy="5.05" r="1.55"/><circle class="cls-3" cx="8.15" cy="1.64" r="1.55"/><circle class="cls-3" cx="2.14" cy="8.55" r="1.55"/><circle class="cls-3" cx="8.55" cy="8.15" r="1.55"/></pattern></defs><g id="Layer_2" data-name="Layer 2"><g id="Beta"><g id="Pests"><text/><path class="cls-4" d="M111.51,84a46.93,46.93,0,0,1,19.65-18"/><polygon class="cls-5" points="135.08 64.34 130.53 68.91 130.89 66.11 128.64 64.42 135.08 64.34"/><path class="cls-4" d="M108.7,96.58a40.55,40.55,0,0,1,19.56-5.91"/><polygon class="cls-5" points="132.49 90.9 126.43 93.11 127.94 90.72 126.62 88.23 132.49 90.9"/><path class="cls-4" d="M59.24,84.61c-4-7.38-11.37-14-21-18.43"/><polygon class="cls-5" points="34.36 64.53 40.81 64.65 38.54 66.33 38.88 69.13 34.36 64.53"/><path class="cls-4" d="M59.9,102.84a37.58,37.58,0,0,0-22-4.37"/><polygon class="cls-5" points="33.67 99.11 39.25 95.88 38.18 98.49 39.91 100.71 33.67 99.11"/><path class="cls-4" d="M60.86,94.12c-7.37-6.43-20.15-11.21-36.21-13.24"/><polygon class="cls-5" points="20.44 80.41 26.66 78.7 24.96 80.95 26.08 83.54 20.44 80.41"/></g><g id="Number_Dispersing" data-name="Number Dispersing"><text class="cls-6" transform="translate(0.15 11.15)">β<tspan class="cls-7" x="7.43" y="0" xml:space="preserve"> = Number of pests/pathogens</tspan><tspan class="cls-7"><tspan x="0" y="13.2" xml:space="preserve">       dispersing  from a single host </tspan><tspan x="0" y="26.4" xml:space="preserve">       under optimal conditions</tspan></tspan></text></g><g id="Tree"><rect class="cls-8" x="43.56" y="43.11" width="78.48" height="78.48"/></g><circle class="cls-9" cx="144.86" cy="93.51" r="1.98"/><path class="cls-10" d="M144.82,98.52c-1.63-.36-2.79-1.39-2.58-2.31"/><path class="cls-11" d="M136.05,99.2a2.54,2.54,0,0,0,2.76-2.26"/><path class="cls-12" d="M132.33,95c1.65.37,3.08.27,3.19-.23"/><path class="cls-13" d="M134.22,86.53c1.65.37,2.9,1.07,2.79,1.56"/><path class="cls-14" d="M139.38,84.28a2.58,2.58,0,0,1,1.54,3.22"/><path class="cls-15" d="M147,88.54c-1.63-.36-3.11.09-3.32,1"/><circle class="cls-16" cx="139.6" cy="92.16" r="4.83"/><circle class="cls-17" cx="146.07" cy="59.41" r="1.98"/><path class="cls-18" d="M149,63.45c-1.52.69-3.07.55-3.45-.31"/><path class="cls-19" d="M142.42,69.24a2.55,2.55,0,0,0,.86-3.46"/><path class="cls-20" d="M136.92,68.08c1.54-.69,2.62-1.63,2.41-2.09"/><path class="cls-21" d="M133.37,60.19c1.54-.7,3-.89,3.17-.42"/><path class="cls-22" d="M136.16,55.3c1.11-.5,2.52.24,3.16,1.66"/><path class="cls-23" d="M144.85,54.12c-1.53.69-2.45,1.93-2.06,2.79"/><circle class="cls-24" cx="141.05" cy="61.48" r="4.83"/><circle class="cls-25" cx="22.62" cy="56.89" r="1.98"/><path class="cls-26" d="M24.4,52.2c1.4.91,2.13,2.28,1.62,3.06"/><path class="cls-27" d="M32.86,54.6a2.56,2.56,0,0,0-3.37,1.16"/><path class="cls-28" d="M34.89,59.85c-1.42-.92-2.8-1.32-3.07-.89"/><path class="cls-29" d="M30.2,67.12c-1.42-.91-2.35-2-2.08-2.43"/><path class="cls-30" d="M24.58,67.45a2.57,2.57,0,0,1-.33-3.56"/><path class="cls-31" d="M18.86,60.8c1.41.9,2.95,1,3.46.21"/><circle class="cls-32" cx="27.1" cy="59.98" r="4.83"/><circle class="cls-33" cx="7.47" cy="78.39" r="1.98"/><path class="cls-34" d="M7.41,73.38c1.63.33,2.81,1.33,2.63,2.25"/><path class="cls-35" d="M16.16,72.51c-1.2-.24-2.41.8-2.72,2.32"/><path class="cls-36" d="M20,76.65c-1.65-.33-3.08-.2-3.18.3"/><path class="cls-37" d="M18.27,85.14c-1.66-.33-2.93-1-2.83-1.5"/><path class="cls-38" d="M13.16,87.5c-1.19-.24-1.91-1.67-1.61-3.19"/><path class="cls-39" d="M5.4,83.4c1.64.33,3.11-.15,3.3-1.07"/><circle class="cls-40" cx="12.76" cy="79.62" r="4.83"/><circle class="cls-41" cx="20.96" cy="101.42" r="1.98"/><path class="cls-42" d="M18.87,96.87c1.63-.37,3.11.08,3.32,1"/><path class="cls-43" d="M26.52,92.52A2.56,2.56,0,0,0,25,95.74"/><path class="cls-44" d="M31.68,94.76c-1.65.37-2.9,1.07-2.79,1.57"/><path class="cls-45" d="M33.57,103.21c-1.65.37-3.08.27-3.19-.22"/><path class="cls-46" d="M29.86,107.44a2.57,2.57,0,0,1-2.77-2.26"/><path class="cls-47" d="M21.11,106.84c1.63-.36,2.78-1.4,2.57-2.31"/><circle class="cls-48" cx="26.3" cy="100.4" r="4.83"/><path class="cls-49" d="M57.64,51.36a2.8,2.8,0,1,0,2.8,2.79A2.8,2.8,0,0,0,57.64,51.36Zm7.19,2.34-2.76-1.38,1-2.92a.5.5,0,0,0-.64-.64l-2.92,1L58.09,47a.5.5,0,0,0-.9,0l-1.38,2.76-2.93-1a.51.51,0,0,0-.64.64l1,2.93L50.46,53.7a.51.51,0,0,0,0,.91L53.22,56l-1,2.93a.5.5,0,0,0,.64.64l2.93-1,1.38,2.76a.5.5,0,0,0,.9,0l1.38-2.76,2.93,1a.51.51,0,0,0,.64-.64l-1-2.92,2.76-1.38a.51.51,0,0,0,0-.91Zm-4.55,3.09a3.73,3.73,0,1,1,0-5.27A3.73,3.73,0,0,1,60.28,56.79Z"/><path class="cls-50" d="M110.23,57.89a1.87,1.87,0,1,1-2.79-1.62V51.36a.93.93,0,1,1,1.86,0v4.91A1.86,1.86,0,0,1,110.23,57.89Zm.94-2.47a3.73,3.73,0,0,1-2.8,6.2h0a3.74,3.74,0,0,1-3.7-3.75,3.67,3.67,0,0,1,.93-2.45V49.49a2.8,2.8,0,1,1,5.6,0Zm-.47,2.47a2.67,2.67,0,0,0-.93-1.94V49.49a1.4,1.4,0,1,0-2.8,0V56a2.68,2.68,0,0,0-.93,1.92,2.34,2.34,0,0,0,2.31,2.35h0A2.34,2.34,0,0,0,110.7,57.89Z"/><path class="cls-51" d="M83.83,47.55a.86.86,0,0,0-1.65,0C80.86,52,78,53.21,78,56.35a5,5,0,1,0,9.93,0C88,53.2,85.16,52,83.83,47.55Zm-.82,12a3.16,3.16,0,0,1-3.17-3.16.46.46,0,0,1,.91,0A2.26,2.26,0,0,0,83,58.67a.45.45,0,1,1,0,.9Z"/><path class="cls-52" d="M81,97.87a2,2,0,0,1,.57,1.31,14.75,14.75,0,0,1-.24,5.46,21.21,21.21,0,0,0-.37,7.45,6.88,6.88,0,0,1-.16,2.63c-.09.37-.46.8-.26,1.07s.76.21,1.15.3c.16,0,.25,0,.36,0,.48,0,1-.37,1.4-.17.8.37,1.46-.1,2.19-.19.29,0,.33-.2.21-.43-.7-1.34-1.24-2.74-1.85-4.11a7.72,7.72,0,0,1-.74-4.05,50.82,50.82,0,0,1,.81-5.21,12.77,12.77,0,0,1,1.3-3.8,1.64,1.64,0,0,0,.6-.12,1.41,1.41,0,0,1,1.67.25,4.28,4.28,0,0,0,.82.34l-.5.54c-.09.12-.25.3,0,.35s.36.23.26.53,0,.73.44.66a1.84,1.84,0,0,1,1.12.25,5.69,5.69,0,0,0,2.5.51c.22,0,.52,0,.5-.32s.26-.36.51-.37a7.87,7.87,0,0,0,1,0c.26,0,.34,0,.32.28s.17.32.41.26a5,5,0,0,0,1.2-.33,3.09,3.09,0,0,1,2.46-.57c.12,0,.36.07.36-.19s-.68-.67,0-1c0,0-.08-.16-.11-.25s-.32-.25-.17-.47.41-.1.63-.06a6.53,6.53,0,0,0,3.22-.09l-.7-.6c1-.23,2-.22,2.76-1l-1.12-.32.32-.17c.72-.39.71-.38.11-.89-.23-.19-.45-.4-.7-.63h1.29a5.17,5.17,0,0,0,1.18-.08c.31-.07.74,0,.84-.37s-.46-.3-.59-.59c.21-.19.57-.19.7-.5a5.24,5.24,0,0,0-2.48-.8c-.28,0-.71.13-.82-.18s.49-.15.49-.31c0-.72.57-.41.87-.6.06,0,.13,0,.2-.06.31-.12.49-.27.13-.57-.1-.08-.25-.14-.23-.35a1.74,1.74,0,0,0,.94-1c.19-.43-.13-.9.06-1.38.07-.19-.24-.23-.42-.23l-1.53.06c-.21,0-.46.06-.5-.22-.13-.84-.7-.69-1.24-.57s-.85.24-1.26.32a1.51,1.51,0,0,1-1.72-.49,6.83,6.83,0,0,0,2.92,0c.38-.11.63-.26.17-.67a4.29,4.29,0,0,0,1.59-.15.57.57,0,0,0,.32-.23c.06-.16-.12-.25-.24-.29-.67-.23-.32-.33,0-.52.67-.36.72-.88.12-1.23.06-.07.11-.14.17-.2s.39-.26.29-.5-.33-.12-.5-.16a6.24,6.24,0,0,0-2.28,0c-.16,0-.34.08-.4-.14s.1-.27.28-.31.64-.14.72-.46-.42-.28-.53-.54c.22-.15.55-.23.53-.5s-.36-.32-.6-.39a2,2,0,0,1-.65-.46c-.48-.39-.81-1.14-1.66-.8-.46.19-.93.43-1.33-.16-.12-.18-.44-.08-.67-.08s-.45.08-.6-.08c-.59-.69-1.16-.59-1.76.15,0-.63.15-.93.71-.93a1,1,0,0,0,.68-.32,2,2,0,0,1,1.75-.73,1.16,1.16,0,0,0,1.07-.3L98.2,76l1.22-.38c-.4-.21-.66-.36-.93-.48-.58-.26.18-.41.06-.66l-1.06-.46c.06-.24.43-.56.24-.58-.74-.07-.68-.57-.76-1,0-.17-.24-.2-.4-.24-.5-.1-.43-.32-.11-.59.09-.08.26-.13.16-.36a2.89,2.89,0,0,0-1.34,0,1,1,0,0,1-1.15-.39,2.85,2.85,0,0,0-1.41-1.12c.32-.29.87,0,.88-.39s-.48-.42-.81-.53c-.13,0-.36-.07-.31-.21.24-.63-.46-.79-.61-1.24s-.64-.59-1-.1c-.19.22-.39.35-.68.21.1-.3.62-.41.41-.74s-.59-.13-.91-.07a2,2,0,0,0-.4.11c-.14.06-.28.09-.33-.09-.18-.64-.78-.72-1.24-1a.78.78,0,0,0-1.19.12c-.3.29-.69.7-1.13.07-.18-.27-.42-.1-.56.11-.24.37-.52.34-.94.3s-1.07-.83-1.25.26c0,0-.17.07-.26,0-1-.21-1.18.85-2,1,.38.29.82.06,1,.48l-.21.16c-.15.09-.42.1-.4.32s.29.18.46.19.56,0,.64.41c0,.21.24.27.44.26s.56,0,.58.41-.2.36-.38.43c-.38.14-.32-.24-.44-.39s-.33-.55-.69-.5-.5.3-.62.59c-.05.13-.09.27-.14.39a.7.7,0,0,1-1.14.28,4.19,4.19,0,0,1-.67-.79c-.26-.4-.68-.55-1-.13a1.16,1.16,0,0,1-1.19.47c-.25,0-.67,0-.66.23,0,.48-.3.39-.54.53a2.79,2.79,0,0,1-1.48.25c-.17,0-.51,0-.49.1.06.68-.54.5-.83.68s-.58.24-.72.61a3.53,3.53,0,0,1,1.19.18c-.42.27-1,.34-1.24.82.52.27,1.09-.09,1.64.31-.79.14-1.51-.16-2.22.16.21.37.6.45.88.73-.16,0-.29.07-.42.12s-.38,0-.41.17.19.31.34.4A5.26,5.26,0,0,0,73,76c-.18.39-.77.63-.13,1.24a6.09,6.09,0,0,0-3.16-.08c-.3.07-.62.14-.73.44s.29.36.45.58a1,1,0,0,0-.25.12c-.15.12-.44.18-.39.42s.27.22.45.28l.26.08c.18.07.5,0,.49.25s-.27.35-.5.41a1.33,1.33,0,0,0-.88.53c.23.28.61.18.8.44-1,.49-1,.49-1.67-.24a.73.73,0,0,0-1.11-.09,1.3,1.3,0,0,0-.44,1c0,.21,0,.49-.27.46-1.2-.1-1.43,1.35-2.65,1.41.48.33,1,.17,1.22.53a3.21,3.21,0,0,1-2.06.54c-1.34,0-1.63.26-1.8,1.51,0,.36-.29.44-.54.54s-.34,0-.32.27.19.21.35.24.33-.07.44.14c-.25.4-1,.16-1.1.75.88.4,1.78-.08,2.7.08-.13.25-.26.45-.35.65-.41,1-.4,1-1.53,1.14-.36,0-.74.06-.54.64.09.23-.1.48-.31.66s-.36.39.07.52.16.28,0,.42-.36.23-.4.48c.3.15.79,0,.84.52-.24.26-.7,0-.94.42l1.29.56c-.57.14-1,.1-1.44.42.14.07.28.09.34.17.28.31,1,.47.39,1.12-.15.15-.05.39.09.39.78,0,1.1.69,1.61,1.08a.71.71,0,0,0,1.06,0c.37-.46.77-.37,1.22-.23,0,.25-.32.27-.3.49.34.22.88-.19,1.06.3a2.63,2.63,0,0,0,.82,1.18c-.13.25-.53.23-.47.51s.39.16.59.28a1.88,1.88,0,0,0,.35.09A5.08,5.08,0,0,0,65,100c-.14.08-.35.12-.33.31s.24.2.38.24a3.74,3.74,0,0,0,1.72.12c.48-.08.56.07.54.48s0,.69.5.47a1.42,1.42,0,0,1,1.43.14,4.28,4.28,0,0,0,1.46.4c.47.09.62-.1.36-.46-.42-.58.06-.61.39-.72a3.87,3.87,0,0,1,.61-.12c.41-.09.6-.27.17-.63.41-.09.76-.12,1.09-.23a.84.84,0,0,1,1.08.27c.29.33.75.73,1.18.06,0-.08.26,0,.4-.07l1.16-.18a.49.49,0,0,0,.46-.64c-.13-.59.16-.74.69-.71.2,0,.63,0,.57-.17-.16-.55.26-.36.44-.4C79.88,98.05,80.43,98,81,97.87Z"/><path class="cls-53" d="M81,97.87c-.54.1-1.09.18-1.63.3-.18,0-.6-.15-.44.4.06.2-.37.18-.57.17-.53,0-.82.12-.69.71a.49.49,0,0,1-.46.64l-1.16.18c-.14,0-.35,0-.4.07-.43.67-.89.27-1.18-.06a.84.84,0,0,0-1.08-.27c-.33.11-.68.14-1.09.23.43.36.24.54-.17.63a3.87,3.87,0,0,0-.61.12c-.33.11-.81.14-.39.72.26.36.11.55-.36.46a4.28,4.28,0,0,1-1.46-.4,1.42,1.42,0,0,0-1.43-.14c-.46.22-.51-.15-.5-.47s-.06-.56-.54-.48a3.74,3.74,0,0,1-1.72-.12c-.14,0-.36,0-.38-.24s.19-.23.33-.31a5.08,5.08,0,0,1,.62-.31,1.88,1.88,0,0,1-.35-.09c-.2-.12-.54,0-.59-.28s.34-.26.47-.51a2.63,2.63,0,0,1-.82-1.18c-.18-.49-.72-.08-1.06-.3,0-.22.32-.24.3-.49-.45-.14-.85-.23-1.22.23a.71.71,0,0,1-1.06,0c-.51-.39-.83-1.06-1.61-1.08-.14,0-.24-.24-.09-.39.65-.65-.11-.81-.39-1.12-.06-.08-.2-.1-.34-.17.4-.32.87-.28,1.44-.42l-1.29-.56c.24-.37.7-.16.94-.42-.05-.52-.54-.37-.84-.52,0-.25.26-.33.4-.48s.26-.33,0-.42-.3-.33-.07-.52.4-.43.31-.66c-.2-.58.18-.59.54-.64,1.13-.17,1.12-.17,1.53-1.14.09-.2.22-.4.35-.65-.92-.16-1.82.32-2.7-.08.13-.59.85-.35,1.1-.75-.11-.21-.29-.12-.44-.14s-.34,0-.35-.24.19-.21.32-.27.5-.18.54-.54c.17-1.25.46-1.48,1.8-1.51a3.21,3.21,0,0,0,2.06-.54c-.26-.36-.74-.2-1.22-.53,1.22-.06,1.45-1.51,2.65-1.41.3,0,.27-.25.27-.46a1.3,1.3,0,0,1,.44-1,.73.73,0,0,1,1.11.09c.68.73.67.73,1.67.24-.19-.26-.57-.16-.8-.44a1.33,1.33,0,0,1,.88-.53c.23-.06.5-.17.5-.41s-.31-.18-.49-.25L69.25,79c-.18-.06-.42-.1-.45-.28s.24-.3.39-.42a1,1,0,0,1,.25-.12c-.16-.22-.56-.27-.45-.58s.43-.37.73-.44a6.09,6.09,0,0,1,3.16.08c-.64-.61,0-.85.13-1.24a5.26,5.26,0,0,1-1.4-.56c-.15-.09-.38-.18-.34-.4s.26-.12.41-.17.26-.07.42-.12c-.28-.28-.67-.36-.88-.73.71-.32,1.43,0,2.22-.16-.55-.4-1.12,0-1.64-.31.29-.48.82-.55,1.24-.82a3.53,3.53,0,0,0-1.19-.18c.14-.37.46-.44.72-.61s.89,0,.83-.68c0-.15.32-.11.49-.1A2.79,2.79,0,0,0,75.37,71c.24-.14.57,0,.54-.53,0-.26.41-.24.66-.23a1.16,1.16,0,0,0,1.19-.47c.29-.42.71-.27,1,.13a4.19,4.19,0,0,0,.67.79.7.7,0,0,0,1.14-.28c0-.12.09-.26.14-.39.12-.29.29-.56.62-.59s.51.25.69.5.06.53.44.39c.18-.07.39-.16.38-.43s-.28-.43-.58-.41-.4-.05-.44-.26c-.08-.37-.36-.37-.64-.41s-.43,0-.46-.19.25-.23.4-.32l.21-.16c-.15-.42-.59-.19-1-.48.85-.19,1.06-1.25,2-1,.09,0,.26,0,.26,0,.18-1.09.87-.3,1.25-.26s.7.07.94-.3c.14-.21.38-.38.56-.11.44.63.83.22,1.13-.07a.78.78,0,0,1,1.19-.12c.46.3,1.06.38,1.24,1,0,.18.19.15.33.09a2,2,0,0,1,.4-.11c.32-.06.71-.24.91.07s-.31.44-.41.74c.29.14.49,0,.68-.21.39-.49.88-.38,1,.1s.85.61.61,1.24c0,.14.18.16.31.21.33.11.82.18.81.53s-.56.1-.88.39a2.85,2.85,0,0,1,1.41,1.12,1,1,0,0,0,1.15.39,2.89,2.89,0,0,1,1.34,0c.1.23-.07.28-.16.36-.32.27-.39.49.11.59.16,0,.37.07.4.24.08.48,0,1,.76,1,.19,0-.18.34-.24.58l1.06.46c.12.25-.64.4-.06.66.27.12.53.27.93.48L98.2,76l1.11.59a1.16,1.16,0,0,1-1.07.3,2,2,0,0,0-1.75.73,1,1,0,0,1-.68.32c-.56,0-.71.3-.71.93.6-.74,1.17-.84,1.76-.15.15.16.4.09.6.08s.55-.1.67.08c.4.59.87.35,1.33.16.85-.34,1.18.41,1.66.8a2,2,0,0,0,.65.46c.24.07.58.1.6.39s-.31.35-.53.5c.11.26.61.21.53.54s-.42.4-.72.46-.34.09-.28.31.24.16.4.14a6.24,6.24,0,0,1,2.28,0c.17,0,.42,0,.5.16s-.16.35-.29.5-.11.13-.17.2c.6.35.55.87-.12,1.23-.35.19-.7.29,0,.52.12,0,.3.13.24.29a.57.57,0,0,1-.32.23,4.29,4.29,0,0,1-1.59.15c.46.41.21.56-.17.67a6.83,6.83,0,0,1-2.92,0,1.51,1.51,0,0,0,1.72.49c.41-.08.84-.22,1.26-.32s1.11-.27,1.24.57c0,.28.29.23.5.22l1.53-.06c.18,0,.49,0,.42.23-.19.48.13,1-.06,1.38a1.74,1.74,0,0,1-.94,1c0,.21.13.27.23.35.36.3.18.45-.13.57-.07,0-.14,0-.2.06-.3.19-.91-.12-.87.6,0,.16-.59,0-.49.31s.54.16.82.18a5.24,5.24,0,0,1,2.48.8c-.13.31-.49.31-.7.5.13.29.69.23.59.59s-.53.3-.84.37a5.17,5.17,0,0,1-1.18.08h-1.29c.25.23.47.44.7.63.6.51.61.5-.11.89l-.32.17,1.12.32c-.8.77-1.77.76-2.76,1l.7.6a6.53,6.53,0,0,1-3.22.09c-.22,0-.46-.21-.63.06s.12.31.17.47.12.24.11.25c-.68.34,0,.68,0,1s-.24.23-.36.19a3.09,3.09,0,0,0-2.46.57,5,5,0,0,1-1.2.33c-.24.06-.42.05-.41-.26s-.06-.33-.32-.28a7.87,7.87,0,0,1-1,0c-.25,0-.53,0-.51.37s-.28.31-.5.32a5.69,5.69,0,0,1-2.5-.51,1.84,1.84,0,0,0-1.12-.25c-.41.07-.56-.29-.44-.66s.12-.47-.26-.53-.14-.23,0-.35l.5-.54a4.28,4.28,0,0,1-.82-.34A1.41,1.41,0,0,0,85.94,98a1.88,1.88,0,0,1-.6.13,1.43,1.43,0,0,1,.93-.85c2.83-.88,5.68-1.7,8.56-2.38a19.53,19.53,0,0,1,3.22-.55c.22,0,.36-.08.31-.33s-.12-.14-.25-.11c-1.08.22-2.17.41-3.25.65-2.94.64-5.84,1.42-8.74,2.24-.19.06-.46.27-.63,0s.09-.46.21-.67c.43-.73,1.22-1.19,1.57-1.94a3.82,3.82,0,0,1,2.14-1.72,22.27,22.27,0,0,1,3.8-1.26.8.8,0,0,0-.34,0,16.41,16.41,0,0,0-4.47,1.47c-.16.07-.35.21-.51,0s0-.3,0-.45A9.14,9.14,0,0,1,91.28,87c.27-.2.52-.41.8-.64a.35.35,0,0,0-.44,0A7.45,7.45,0,0,0,89,88.66a18.19,18.19,0,0,0-1.64,3.59,7.39,7.39,0,0,1-2.44,3.31c-.17.13-.39.44-.52-.07a15.08,15.08,0,0,1-.67-4.17A2,2,0,0,1,85,89.42a2.65,2.65,0,0,0,1.42-1.24c.46-.93,1-1.82,1.54-2.72a9,9,0,0,0,1-1.8,14.33,14.33,0,0,0-2.67,3.61,3.87,3.87,0,0,1-1.8,1.86c-.47.25-.67.2-.61-.39.16-1.89.27-3.78.47-5.67a9.69,9.69,0,0,1,.74-3.24c.61-1.25.8-2.66,1.53-3.86a.85.85,0,0,0-.11-.91c-.76,1.94-2,3.55-2.65,5.45,0,.16-.13.32-.33.28s-.19-.24-.18-.4c0-.48,0-1,0-1.45.06-.81,0-1.62,0-2.52A6.86,6.86,0,0,0,83,79.29,12.29,12.29,0,0,1,82.92,82c-.07.29-.16.43-.46.26-1.12-.63-2.33-1.09-2.68-2.59a2.4,2.4,0,0,0-1.88-1.93l-.06-.06a.06.06,0,0,0,0,0l.05,0a8.13,8.13,0,0,1,1,1.41c.11.24.25.54,0,.71s-.39-.12-.58-.22c-.47-.24-.82-.74-1.55-.6l.63.34a17.19,17.19,0,0,1,4.08,3,3.07,3.07,0,0,1,.89,2.45c-.12,1.66-.31,3.32-.45,5-.12,1.37-.2,1.42-1.37.68-.31-.2-.61-.42-.92-.63a.39.39,0,0,0-.47-.09l.3.62c-1.25-.13-2.38-.56-3.6-.79,0,.24.16.21.24.24,1.54.43,3.09.82,4.61,1.31a2.76,2.76,0,0,1,1.89,2.59c.11,1-.06,2,0,3.05,0,.37-.09.52-.49.33-.6-.28-1.24-.47-1.84-.75A14.91,14.91,0,0,1,77.43,95a11.08,11.08,0,0,0-2.79-1.56.77.77,0,0,0-.79,0,10.92,10.92,0,0,1,3.09,1.9c-.19.3-.42-.07-.56.25,1,.27,2,.52,3,.84A2.06,2.06,0,0,1,81,97.87Zm-14.73-.3c0,.45-.32.69-.56,1,.39.06.8.14.95-.19A.54.54,0,0,0,66.24,97.57ZM72.56,95a10,10,0,0,0,2.32.37l0-.2ZM69.38,81.7c.19.22.24.6.6.59a.25.25,0,0,0,.2-.32C70,81.63,69.66,81.82,69.38,81.7Zm-5,6.76c-.37-.33-.63-.26-.87.1A1.76,1.76,0,0,0,64.42,88.46Z"/><path class="cls-54" d="M77.9,77.74a2.4,2.4,0,0,1,1.88,1.93c.35,1.5,1.56,2,2.68,2.59.3.17.39,0,.46-.26A12.29,12.29,0,0,0,83,79.29a6.86,6.86,0,0,1,.37-2.87c0,.9,0,1.71,0,2.52,0,.48,0,1,0,1.45,0,.16,0,.36.18.4s.28-.12.33-.28c.64-1.9,1.89-3.51,2.65-5.45a.85.85,0,0,1,.11.91c-.73,1.2-.92,2.61-1.53,3.86a9.69,9.69,0,0,0-.74,3.24c-.2,1.89-.31,3.78-.47,5.67-.06.59.14.64.61.39a3.87,3.87,0,0,0,1.8-1.86A14.33,14.33,0,0,1,89,83.66a9,9,0,0,1-1,1.8c-.53.9-1.08,1.79-1.54,2.72A2.65,2.65,0,0,1,85,89.42a2,2,0,0,0-1.23,1.9,15.08,15.08,0,0,0,.67,4.17c.13.51.35.2.52.07a7.39,7.39,0,0,0,2.44-3.31A18.19,18.19,0,0,1,89,88.66a7.45,7.45,0,0,1,2.65-2.31.35.35,0,0,1,.44,0c-.28.23-.53.44-.8.64a9.14,9.14,0,0,0-3.35,5.3c0,.15-.18.32,0,.45s.35,0,.51,0a16.41,16.41,0,0,1,4.47-1.47.8.8,0,0,1,.34,0,22.27,22.27,0,0,0-3.8,1.26,3.82,3.82,0,0,0-2.14,1.72c-.35.75-1.14,1.21-1.57,1.94-.12.21-.4.42-.21.67s.44,0,.63,0c2.9-.82,5.8-1.6,8.74-2.24,1.08-.24,2.17-.43,3.25-.65.13,0,.22,0,.25.11s-.09.32-.31.33a19.53,19.53,0,0,0-3.22.55c-2.88.68-5.73,1.5-8.56,2.38a1.43,1.43,0,0,0-.93.85,12.61,12.61,0,0,0-1.3,3.79,50.82,50.82,0,0,0-.81,5.21,7.72,7.72,0,0,0,.74,4.05c.61,1.37,1.15,2.77,1.85,4.11.12.23.08.39-.21.43-.73.09-1.39.56-2.19.19-.44-.2-.92.18-1.4.17-.11,0-.2.07-.36,0-.39-.09-.94,0-1.15-.3s.17-.7.26-1.07a6.88,6.88,0,0,0,.16-2.63,21.21,21.21,0,0,1,.37-7.45,14.75,14.75,0,0,0,.24-5.46A2,2,0,0,0,81,97.87a2.06,2.06,0,0,0-1.63-1.41c-1-.32-2-.57-3-.84.14-.32.37,0,.56-.25a10.92,10.92,0,0,0-3.09-1.9.77.77,0,0,1,.79,0A11.08,11.08,0,0,1,77.43,95a14.91,14.91,0,0,0,2.85,1.36c.6.28,1.24.47,1.84.75.4.19.5,0,.49-.33,0-1,.14-2,0-3.05a2.76,2.76,0,0,0-1.89-2.59c-1.52-.49-3.07-.88-4.61-1.31-.08,0-.19,0-.24-.24,1.22.23,2.35.66,3.6.79l-.3-.62a.39.39,0,0,1,.47.09c.31.21.61.43.92.63,1.17.74,1.25.69,1.37-.68.14-1.66.33-3.32.45-5a3.07,3.07,0,0,0-.89-2.45,17.19,17.19,0,0,0-4.08-3L76.81,79c.73-.14,1.08.36,1.55.6.19.1.37.41.58.22s.06-.47,0-.71a8.13,8.13,0,0,0-1-1.41Z"/><path class="cls-52" d="M66.24,97.57a.54.54,0,0,1,.39.83c-.15.33-.56.25-.95.19C65.92,98.26,66.26,98,66.24,97.57Z"/><path class="cls-54" d="M72.56,95l2.34.17,0,.2A10,10,0,0,1,72.56,95Z"/><path class="cls-52" d="M69.38,81.7c.28.12.66-.07.8.27a.25.25,0,0,1-.2.32C69.62,82.3,69.57,81.92,69.38,81.7Z"/><path class="cls-52" d="M64.42,88.46a1.76,1.76,0,0,1-.87.1C63.79,88.2,64.05,88.13,64.42,88.46Z"/><path class="cls-55" d="M71.63,71.48s0,0,0,0v0l0,0Z"/></g></g></svg>